%TF.GenerationSoftware,KiCad,Pcbnew,4.0.7*%
%TF.CreationDate,2017-12-18T22:12:30+01:00*%
%TF.ProjectId,LED,4C45442E6B696361645F706362000000,rev?*%
%TF.FileFunction,Legend,Bot*%
%FSLAX46Y46*%
G04 Gerber Fmt 4.6, Leading zero omitted, Abs format (unit mm)*
G04 Created by KiCad (PCBNEW 4.0.7) date Mon Dec 18 22:12:30 2017*
%MOMM*%
%LPD*%
G01*
G04 APERTURE LIST*
%ADD10C,0.100000*%
%ADD11C,0.300000*%
%ADD12C,0.120000*%
%ADD13C,0.010000*%
%ADD14C,0.150000*%
G04 APERTURE END LIST*
D10*
D11*
X174561428Y-114407143D02*
X173418571Y-114407143D01*
X173990000Y-114978571D02*
X173990000Y-113835714D01*
X164401428Y-114407143D02*
X163258571Y-114407143D01*
X150431428Y-67417143D02*
X149288571Y-67417143D01*
X132651428Y-67417143D02*
X131508571Y-67417143D01*
X132080000Y-67988571D02*
X132080000Y-66845714D01*
X156502857Y-110933571D02*
X156002857Y-112433571D01*
X155502857Y-110933571D01*
X154431429Y-112362143D02*
X154574286Y-112433571D01*
X154860000Y-112433571D01*
X155002857Y-112362143D01*
X155074286Y-112219286D01*
X155074286Y-111647857D01*
X155002857Y-111505000D01*
X154860000Y-111433571D01*
X154574286Y-111433571D01*
X154431429Y-111505000D01*
X154360000Y-111647857D01*
X154360000Y-111790714D01*
X155074286Y-111933571D01*
X153717143Y-112433571D02*
X153717143Y-111433571D01*
X153717143Y-111719286D02*
X153645715Y-111576429D01*
X153574286Y-111505000D01*
X153431429Y-111433571D01*
X153288572Y-111433571D01*
X152860001Y-112362143D02*
X152717144Y-112433571D01*
X152431429Y-112433571D01*
X152288572Y-112362143D01*
X152217144Y-112219286D01*
X152217144Y-112147857D01*
X152288572Y-112005000D01*
X152431429Y-111933571D01*
X152645715Y-111933571D01*
X152788572Y-111862143D01*
X152860001Y-111719286D01*
X152860001Y-111647857D01*
X152788572Y-111505000D01*
X152645715Y-111433571D01*
X152431429Y-111433571D01*
X152288572Y-111505000D01*
X151574286Y-112433571D02*
X151574286Y-111433571D01*
X151574286Y-110933571D02*
X151645715Y-111005000D01*
X151574286Y-111076429D01*
X151502858Y-111005000D01*
X151574286Y-110933571D01*
X151574286Y-111076429D01*
X150645714Y-112433571D02*
X150788572Y-112362143D01*
X150860000Y-112290714D01*
X150931429Y-112147857D01*
X150931429Y-111719286D01*
X150860000Y-111576429D01*
X150788572Y-111505000D01*
X150645714Y-111433571D01*
X150431429Y-111433571D01*
X150288572Y-111505000D01*
X150217143Y-111576429D01*
X150145714Y-111719286D01*
X150145714Y-112147857D01*
X150217143Y-112290714D01*
X150288572Y-112362143D01*
X150431429Y-112433571D01*
X150645714Y-112433571D01*
X149502857Y-111433571D02*
X149502857Y-112433571D01*
X149502857Y-111576429D02*
X149431429Y-111505000D01*
X149288571Y-111433571D01*
X149074286Y-111433571D01*
X148931429Y-111505000D01*
X148860000Y-111647857D01*
X148860000Y-112433571D01*
X148145714Y-112290714D02*
X148074286Y-112362143D01*
X148145714Y-112433571D01*
X148217143Y-112362143D01*
X148145714Y-112290714D01*
X148145714Y-112433571D01*
X148145714Y-111505000D02*
X148074286Y-111576429D01*
X148145714Y-111647857D01*
X148217143Y-111576429D01*
X148145714Y-111505000D01*
X148145714Y-111647857D01*
X145502857Y-112433571D02*
X146360000Y-112433571D01*
X145931428Y-112433571D02*
X145931428Y-110933571D01*
X146074285Y-111147857D01*
X146217143Y-111290714D01*
X146360000Y-111362143D01*
X144860000Y-112290714D02*
X144788572Y-112362143D01*
X144860000Y-112433571D01*
X144931429Y-112362143D01*
X144860000Y-112290714D01*
X144860000Y-112433571D01*
X143860000Y-110933571D02*
X143717143Y-110933571D01*
X143574286Y-111005000D01*
X143502857Y-111076429D01*
X143431428Y-111219286D01*
X143360000Y-111505000D01*
X143360000Y-111862143D01*
X143431428Y-112147857D01*
X143502857Y-112290714D01*
X143574286Y-112362143D01*
X143717143Y-112433571D01*
X143860000Y-112433571D01*
X144002857Y-112362143D01*
X144074286Y-112290714D01*
X144145714Y-112147857D01*
X144217143Y-111862143D01*
X144217143Y-111505000D01*
X144145714Y-111219286D01*
X144074286Y-111076429D01*
X144002857Y-111005000D01*
X143860000Y-110933571D01*
X157574284Y-114983571D02*
X157574284Y-113483571D01*
X157217141Y-113483571D01*
X157002856Y-113555000D01*
X156859998Y-113697857D01*
X156788570Y-113840714D01*
X156717141Y-114126429D01*
X156717141Y-114340714D01*
X156788570Y-114626429D01*
X156859998Y-114769286D01*
X157002856Y-114912143D01*
X157217141Y-114983571D01*
X157574284Y-114983571D01*
X155431427Y-114983571D02*
X155431427Y-114197857D01*
X155502856Y-114055000D01*
X155645713Y-113983571D01*
X155931427Y-113983571D01*
X156074284Y-114055000D01*
X155431427Y-114912143D02*
X155574284Y-114983571D01*
X155931427Y-114983571D01*
X156074284Y-114912143D01*
X156145713Y-114769286D01*
X156145713Y-114626429D01*
X156074284Y-114483571D01*
X155931427Y-114412143D01*
X155574284Y-114412143D01*
X155431427Y-114340714D01*
X154931427Y-113983571D02*
X154359998Y-113983571D01*
X154717141Y-113483571D02*
X154717141Y-114769286D01*
X154645713Y-114912143D01*
X154502855Y-114983571D01*
X154359998Y-114983571D01*
X153288570Y-114912143D02*
X153431427Y-114983571D01*
X153717141Y-114983571D01*
X153859998Y-114912143D01*
X153931427Y-114769286D01*
X153931427Y-114197857D01*
X153859998Y-114055000D01*
X153717141Y-113983571D01*
X153431427Y-113983571D01*
X153288570Y-114055000D01*
X153217141Y-114197857D01*
X153217141Y-114340714D01*
X153931427Y-114483571D01*
X152574284Y-114840714D02*
X152502856Y-114912143D01*
X152574284Y-114983571D01*
X152645713Y-114912143D01*
X152574284Y-114840714D01*
X152574284Y-114983571D01*
X152574284Y-114055000D02*
X152502856Y-114126429D01*
X152574284Y-114197857D01*
X152645713Y-114126429D01*
X152574284Y-114055000D01*
X152574284Y-114197857D01*
X149931427Y-114983571D02*
X150788570Y-114983571D01*
X150359998Y-114983571D02*
X150359998Y-113483571D01*
X150502855Y-113697857D01*
X150645713Y-113840714D01*
X150788570Y-113912143D01*
X149359999Y-113626429D02*
X149288570Y-113555000D01*
X149145713Y-113483571D01*
X148788570Y-113483571D01*
X148645713Y-113555000D01*
X148574284Y-113626429D01*
X148502856Y-113769286D01*
X148502856Y-113912143D01*
X148574284Y-114126429D01*
X149431427Y-114983571D01*
X148502856Y-114983571D01*
X147859999Y-114840714D02*
X147788571Y-114912143D01*
X147859999Y-114983571D01*
X147931428Y-114912143D01*
X147859999Y-114840714D01*
X147859999Y-114983571D01*
X147217142Y-113626429D02*
X147145713Y-113555000D01*
X147002856Y-113483571D01*
X146645713Y-113483571D01*
X146502856Y-113555000D01*
X146431427Y-113626429D01*
X146359999Y-113769286D01*
X146359999Y-113912143D01*
X146431427Y-114126429D01*
X147288570Y-114983571D01*
X146359999Y-114983571D01*
X145431428Y-113483571D02*
X145288571Y-113483571D01*
X145145714Y-113555000D01*
X145074285Y-113626429D01*
X145002856Y-113769286D01*
X144931428Y-114055000D01*
X144931428Y-114412143D01*
X145002856Y-114697857D01*
X145074285Y-114840714D01*
X145145714Y-114912143D01*
X145288571Y-114983571D01*
X145431428Y-114983571D01*
X145574285Y-114912143D01*
X145645714Y-114840714D01*
X145717142Y-114697857D01*
X145788571Y-114412143D01*
X145788571Y-114055000D01*
X145717142Y-113769286D01*
X145645714Y-113626429D01*
X145574285Y-113555000D01*
X145431428Y-113483571D01*
X143502857Y-114983571D02*
X144360000Y-114983571D01*
X143931428Y-114983571D02*
X143931428Y-113483571D01*
X144074285Y-113697857D01*
X144217143Y-113840714D01*
X144360000Y-113912143D01*
X143002857Y-113483571D02*
X142002857Y-113483571D01*
X142645714Y-114983571D01*
D12*
X102870000Y-65980000D02*
X110550000Y-65980000D01*
X110550000Y-65980000D02*
X110550000Y-68640000D01*
X110550000Y-68640000D02*
X102870000Y-68640000D01*
X102870000Y-68640000D02*
X102870000Y-65980000D01*
X101600000Y-65980000D02*
X100270000Y-65980000D01*
X100270000Y-65980000D02*
X100270000Y-67310000D01*
X114300000Y-65980000D02*
X119440000Y-65980000D01*
X119440000Y-65980000D02*
X119440000Y-68640000D01*
X119440000Y-68640000D02*
X114300000Y-68640000D01*
X114300000Y-68640000D02*
X114300000Y-65980000D01*
X113030000Y-65980000D02*
X111700000Y-65980000D01*
X111700000Y-65980000D02*
X111700000Y-67310000D01*
X120650000Y-116900000D02*
X102810000Y-116900000D01*
X102810000Y-116900000D02*
X102810000Y-114240000D01*
X102810000Y-114240000D02*
X120650000Y-114240000D01*
X120650000Y-114240000D02*
X120650000Y-116900000D01*
X121920000Y-116900000D02*
X123250000Y-116900000D01*
X123250000Y-116900000D02*
X123250000Y-115570000D01*
X123860000Y-76160000D02*
X123860000Y-78780000D01*
X123860000Y-78780000D02*
X117440000Y-78780000D01*
X117440000Y-78780000D02*
X117440000Y-76160000D01*
X117440000Y-76160000D02*
X123860000Y-76160000D01*
X124750000Y-77470000D02*
X123860000Y-77470000D01*
X116550000Y-77470000D02*
X117440000Y-77470000D01*
X108620000Y-76160000D02*
X108620000Y-78780000D01*
X108620000Y-78780000D02*
X102200000Y-78780000D01*
X102200000Y-78780000D02*
X102200000Y-76160000D01*
X102200000Y-76160000D02*
X108620000Y-76160000D01*
X109510000Y-77470000D02*
X108620000Y-77470000D01*
X101310000Y-77470000D02*
X102200000Y-77470000D01*
X121250000Y-83860000D02*
X121250000Y-81240000D01*
X121250000Y-81240000D02*
X127670000Y-81240000D01*
X127670000Y-81240000D02*
X127670000Y-83860000D01*
X127670000Y-83860000D02*
X121250000Y-83860000D01*
X120360000Y-82550000D02*
X121250000Y-82550000D01*
X128560000Y-82550000D02*
X127670000Y-82550000D01*
X106010000Y-83860000D02*
X106010000Y-81240000D01*
X106010000Y-81240000D02*
X112430000Y-81240000D01*
X112430000Y-81240000D02*
X112430000Y-83860000D01*
X112430000Y-83860000D02*
X106010000Y-83860000D01*
X105120000Y-82550000D02*
X106010000Y-82550000D01*
X113320000Y-82550000D02*
X112430000Y-82550000D01*
X146410000Y-82020000D02*
X146410000Y-80520000D01*
X146410000Y-80520000D02*
X146680000Y-80520000D01*
X146680000Y-80520000D02*
X146680000Y-77690000D01*
X153310000Y-82020000D02*
X153310000Y-80520000D01*
X153310000Y-80520000D02*
X153040000Y-80520000D01*
X153040000Y-80520000D02*
X153040000Y-79420000D01*
D13*
G36*
X156616371Y-107044066D02*
X156576889Y-107044467D01*
X156461200Y-107047259D01*
X156364311Y-107055550D01*
X156282919Y-107070232D01*
X156213723Y-107092193D01*
X156153420Y-107122322D01*
X156098708Y-107161510D01*
X156079167Y-107178532D01*
X156046750Y-107218363D01*
X156017520Y-107272413D01*
X155994991Y-107332323D01*
X155982679Y-107389739D01*
X155981400Y-107410956D01*
X155989417Y-107469769D01*
X156010899Y-107534013D01*
X156041999Y-107594821D01*
X156078866Y-107643330D01*
X156084854Y-107649182D01*
X156135579Y-107690321D01*
X156191125Y-107722435D01*
X156254696Y-107746365D01*
X156329494Y-107762953D01*
X156418722Y-107773041D01*
X156525582Y-107777469D01*
X156574528Y-107777845D01*
X156636762Y-107777545D01*
X156680528Y-107776292D01*
X156709931Y-107773554D01*
X156729079Y-107768801D01*
X156742077Y-107761501D01*
X156749045Y-107755267D01*
X156755626Y-107747694D01*
X156760788Y-107737924D01*
X156764703Y-107723340D01*
X156767543Y-107701326D01*
X156769480Y-107669264D01*
X156770684Y-107624536D01*
X156771328Y-107564526D01*
X156771583Y-107486617D01*
X156771622Y-107410956D01*
X156771870Y-107310041D01*
X156771817Y-107229427D01*
X156770857Y-107190822D01*
X156624867Y-107190822D01*
X156624867Y-107631089D01*
X156531734Y-107631004D01*
X156475693Y-107629396D01*
X156416999Y-107625256D01*
X156368028Y-107619464D01*
X156366538Y-107619226D01*
X156287392Y-107600090D01*
X156226002Y-107570287D01*
X156179305Y-107527878D01*
X156149635Y-107481961D01*
X156131353Y-107431026D01*
X156132771Y-107383200D01*
X156153988Y-107331933D01*
X156195489Y-107278899D01*
X156252998Y-107239600D01*
X156327750Y-107213331D01*
X156377708Y-107204035D01*
X156434416Y-107197507D01*
X156494519Y-107192782D01*
X156545639Y-107190817D01*
X156548667Y-107190808D01*
X156624867Y-107190822D01*
X156770857Y-107190822D01*
X156770260Y-107166851D01*
X156765998Y-107120055D01*
X156757830Y-107086778D01*
X156744556Y-107064759D01*
X156724974Y-107051739D01*
X156697883Y-107045457D01*
X156662082Y-107043653D01*
X156616371Y-107044066D01*
X156616371Y-107044066D01*
G37*
X156616371Y-107044066D02*
X156576889Y-107044467D01*
X156461200Y-107047259D01*
X156364311Y-107055550D01*
X156282919Y-107070232D01*
X156213723Y-107092193D01*
X156153420Y-107122322D01*
X156098708Y-107161510D01*
X156079167Y-107178532D01*
X156046750Y-107218363D01*
X156017520Y-107272413D01*
X155994991Y-107332323D01*
X155982679Y-107389739D01*
X155981400Y-107410956D01*
X155989417Y-107469769D01*
X156010899Y-107534013D01*
X156041999Y-107594821D01*
X156078866Y-107643330D01*
X156084854Y-107649182D01*
X156135579Y-107690321D01*
X156191125Y-107722435D01*
X156254696Y-107746365D01*
X156329494Y-107762953D01*
X156418722Y-107773041D01*
X156525582Y-107777469D01*
X156574528Y-107777845D01*
X156636762Y-107777545D01*
X156680528Y-107776292D01*
X156709931Y-107773554D01*
X156729079Y-107768801D01*
X156742077Y-107761501D01*
X156749045Y-107755267D01*
X156755626Y-107747694D01*
X156760788Y-107737924D01*
X156764703Y-107723340D01*
X156767543Y-107701326D01*
X156769480Y-107669264D01*
X156770684Y-107624536D01*
X156771328Y-107564526D01*
X156771583Y-107486617D01*
X156771622Y-107410956D01*
X156771870Y-107310041D01*
X156771817Y-107229427D01*
X156770857Y-107190822D01*
X156624867Y-107190822D01*
X156624867Y-107631089D01*
X156531734Y-107631004D01*
X156475693Y-107629396D01*
X156416999Y-107625256D01*
X156368028Y-107619464D01*
X156366538Y-107619226D01*
X156287392Y-107600090D01*
X156226002Y-107570287D01*
X156179305Y-107527878D01*
X156149635Y-107481961D01*
X156131353Y-107431026D01*
X156132771Y-107383200D01*
X156153988Y-107331933D01*
X156195489Y-107278899D01*
X156252998Y-107239600D01*
X156327750Y-107213331D01*
X156377708Y-107204035D01*
X156434416Y-107197507D01*
X156494519Y-107192782D01*
X156545639Y-107190817D01*
X156548667Y-107190808D01*
X156624867Y-107190822D01*
X156770857Y-107190822D01*
X156770260Y-107166851D01*
X156765998Y-107120055D01*
X156757830Y-107086778D01*
X156744556Y-107064759D01*
X156724974Y-107051739D01*
X156697883Y-107045457D01*
X156662082Y-107043653D01*
X156616371Y-107044066D01*
G36*
X155207794Y-107044146D02*
X155138386Y-107044518D01*
X155085997Y-107045385D01*
X155047847Y-107046946D01*
X155021159Y-107049403D01*
X155003153Y-107052957D01*
X154991049Y-107057810D01*
X154982069Y-107064161D01*
X154978818Y-107067084D01*
X154959043Y-107098142D01*
X154955482Y-107133828D01*
X154968491Y-107165510D01*
X154974506Y-107171913D01*
X154984235Y-107178121D01*
X154999901Y-107182910D01*
X155024408Y-107186514D01*
X155060661Y-107189164D01*
X155111565Y-107191095D01*
X155180026Y-107192539D01*
X155242617Y-107193418D01*
X155490334Y-107196467D01*
X155493719Y-107261378D01*
X155497105Y-107326289D01*
X155328958Y-107326289D01*
X155255959Y-107326919D01*
X155202517Y-107329553D01*
X155165628Y-107335309D01*
X155142288Y-107345304D01*
X155129494Y-107360656D01*
X155124242Y-107382482D01*
X155123445Y-107402738D01*
X155125923Y-107427592D01*
X155135277Y-107445906D01*
X155154383Y-107458637D01*
X155186118Y-107466741D01*
X155233359Y-107471176D01*
X155298983Y-107472899D01*
X155334801Y-107473045D01*
X155495978Y-107473045D01*
X155495978Y-107631089D01*
X155247622Y-107631089D01*
X155166213Y-107631202D01*
X155104342Y-107631712D01*
X155058968Y-107632870D01*
X155027054Y-107634930D01*
X155005559Y-107638146D01*
X154991443Y-107642772D01*
X154981668Y-107649059D01*
X154976689Y-107653667D01*
X154959610Y-107680560D01*
X154954111Y-107704467D01*
X154961963Y-107733667D01*
X154976689Y-107755267D01*
X154984546Y-107762066D01*
X154994688Y-107767346D01*
X155009844Y-107771298D01*
X155032741Y-107774113D01*
X155066109Y-107775982D01*
X155112675Y-107777098D01*
X155175167Y-107777651D01*
X155256314Y-107777833D01*
X155298422Y-107777845D01*
X155388598Y-107777765D01*
X155458924Y-107777398D01*
X155512129Y-107776552D01*
X155550940Y-107775036D01*
X155578087Y-107772659D01*
X155596298Y-107769229D01*
X155608300Y-107764554D01*
X155616822Y-107758444D01*
X155620156Y-107755267D01*
X155626755Y-107747670D01*
X155631927Y-107737870D01*
X155635846Y-107723239D01*
X155638684Y-107701152D01*
X155640615Y-107668982D01*
X155641812Y-107624103D01*
X155642448Y-107563889D01*
X155642697Y-107485713D01*
X155642734Y-107412923D01*
X155642700Y-107319707D01*
X155642465Y-107246431D01*
X155641830Y-107190458D01*
X155640594Y-107149151D01*
X155638556Y-107119872D01*
X155635517Y-107099984D01*
X155631277Y-107086850D01*
X155625635Y-107077832D01*
X155618391Y-107070293D01*
X155616606Y-107068612D01*
X155607945Y-107061172D01*
X155597882Y-107055409D01*
X155583625Y-107051112D01*
X155562383Y-107048064D01*
X155531364Y-107046051D01*
X155487777Y-107044860D01*
X155428831Y-107044275D01*
X155351734Y-107044083D01*
X155297001Y-107044067D01*
X155207794Y-107044146D01*
X155207794Y-107044146D01*
G37*
X155207794Y-107044146D02*
X155138386Y-107044518D01*
X155085997Y-107045385D01*
X155047847Y-107046946D01*
X155021159Y-107049403D01*
X155003153Y-107052957D01*
X154991049Y-107057810D01*
X154982069Y-107064161D01*
X154978818Y-107067084D01*
X154959043Y-107098142D01*
X154955482Y-107133828D01*
X154968491Y-107165510D01*
X154974506Y-107171913D01*
X154984235Y-107178121D01*
X154999901Y-107182910D01*
X155024408Y-107186514D01*
X155060661Y-107189164D01*
X155111565Y-107191095D01*
X155180026Y-107192539D01*
X155242617Y-107193418D01*
X155490334Y-107196467D01*
X155493719Y-107261378D01*
X155497105Y-107326289D01*
X155328958Y-107326289D01*
X155255959Y-107326919D01*
X155202517Y-107329553D01*
X155165628Y-107335309D01*
X155142288Y-107345304D01*
X155129494Y-107360656D01*
X155124242Y-107382482D01*
X155123445Y-107402738D01*
X155125923Y-107427592D01*
X155135277Y-107445906D01*
X155154383Y-107458637D01*
X155186118Y-107466741D01*
X155233359Y-107471176D01*
X155298983Y-107472899D01*
X155334801Y-107473045D01*
X155495978Y-107473045D01*
X155495978Y-107631089D01*
X155247622Y-107631089D01*
X155166213Y-107631202D01*
X155104342Y-107631712D01*
X155058968Y-107632870D01*
X155027054Y-107634930D01*
X155005559Y-107638146D01*
X154991443Y-107642772D01*
X154981668Y-107649059D01*
X154976689Y-107653667D01*
X154959610Y-107680560D01*
X154954111Y-107704467D01*
X154961963Y-107733667D01*
X154976689Y-107755267D01*
X154984546Y-107762066D01*
X154994688Y-107767346D01*
X155009844Y-107771298D01*
X155032741Y-107774113D01*
X155066109Y-107775982D01*
X155112675Y-107777098D01*
X155175167Y-107777651D01*
X155256314Y-107777833D01*
X155298422Y-107777845D01*
X155388598Y-107777765D01*
X155458924Y-107777398D01*
X155512129Y-107776552D01*
X155550940Y-107775036D01*
X155578087Y-107772659D01*
X155596298Y-107769229D01*
X155608300Y-107764554D01*
X155616822Y-107758444D01*
X155620156Y-107755267D01*
X155626755Y-107747670D01*
X155631927Y-107737870D01*
X155635846Y-107723239D01*
X155638684Y-107701152D01*
X155640615Y-107668982D01*
X155641812Y-107624103D01*
X155642448Y-107563889D01*
X155642697Y-107485713D01*
X155642734Y-107412923D01*
X155642700Y-107319707D01*
X155642465Y-107246431D01*
X155641830Y-107190458D01*
X155640594Y-107149151D01*
X155638556Y-107119872D01*
X155635517Y-107099984D01*
X155631277Y-107086850D01*
X155625635Y-107077832D01*
X155618391Y-107070293D01*
X155616606Y-107068612D01*
X155607945Y-107061172D01*
X155597882Y-107055409D01*
X155583625Y-107051112D01*
X155562383Y-107048064D01*
X155531364Y-107046051D01*
X155487777Y-107044860D01*
X155428831Y-107044275D01*
X155351734Y-107044083D01*
X155297001Y-107044067D01*
X155207794Y-107044146D01*
G36*
X154186703Y-107045351D02*
X154111888Y-107050581D01*
X154042306Y-107058750D01*
X153982002Y-107069550D01*
X153935020Y-107082673D01*
X153905406Y-107097813D01*
X153900860Y-107102269D01*
X153885054Y-107136850D01*
X153889847Y-107172351D01*
X153914364Y-107202725D01*
X153915534Y-107203596D01*
X153929954Y-107212954D01*
X153945008Y-107217876D01*
X153966005Y-107218473D01*
X153998257Y-107214861D01*
X154047073Y-107207154D01*
X154051000Y-107206505D01*
X154123739Y-107197569D01*
X154202217Y-107193161D01*
X154280927Y-107193119D01*
X154354361Y-107197279D01*
X154417011Y-107205479D01*
X154463370Y-107217557D01*
X154466416Y-107218771D01*
X154500048Y-107237615D01*
X154511864Y-107256685D01*
X154502614Y-107275439D01*
X154473047Y-107293337D01*
X154423911Y-107309837D01*
X154355957Y-107324396D01*
X154310645Y-107331406D01*
X154216456Y-107344889D01*
X154141544Y-107357214D01*
X154082717Y-107369449D01*
X154036785Y-107382661D01*
X154000555Y-107397917D01*
X153970838Y-107416285D01*
X153944442Y-107438831D01*
X153923230Y-107460971D01*
X153898065Y-107491819D01*
X153885681Y-107518345D01*
X153881808Y-107551026D01*
X153881667Y-107562995D01*
X153884576Y-107602712D01*
X153896202Y-107632259D01*
X153916323Y-107658486D01*
X153957216Y-107698576D01*
X154002817Y-107729149D01*
X154056513Y-107751203D01*
X154121692Y-107765735D01*
X154201744Y-107773741D01*
X154300057Y-107776218D01*
X154316289Y-107776177D01*
X154381849Y-107774818D01*
X154446866Y-107771730D01*
X154504252Y-107767356D01*
X154546922Y-107762140D01*
X154550372Y-107761541D01*
X154592796Y-107751491D01*
X154628780Y-107738796D01*
X154649150Y-107727190D01*
X154668107Y-107696572D01*
X154669427Y-107660918D01*
X154653085Y-107629144D01*
X154649429Y-107625551D01*
X154634315Y-107614876D01*
X154615415Y-107610276D01*
X154586162Y-107611059D01*
X154550651Y-107615127D01*
X154510970Y-107618762D01*
X154455345Y-107621828D01*
X154390406Y-107624053D01*
X154322785Y-107625164D01*
X154305000Y-107625237D01*
X154237128Y-107624964D01*
X154187454Y-107623646D01*
X154151610Y-107620827D01*
X154125224Y-107616050D01*
X154103926Y-107608857D01*
X154091126Y-107602867D01*
X154063000Y-107586233D01*
X154045068Y-107571168D01*
X154042447Y-107566897D01*
X154047976Y-107549263D01*
X154074260Y-107532192D01*
X154119478Y-107516458D01*
X154181808Y-107502838D01*
X154200171Y-107499804D01*
X154296090Y-107484738D01*
X154372641Y-107472146D01*
X154432780Y-107461111D01*
X154479460Y-107450720D01*
X154515637Y-107440056D01*
X154544265Y-107428205D01*
X154568298Y-107414251D01*
X154590692Y-107397281D01*
X154614402Y-107376378D01*
X154622380Y-107369049D01*
X154650353Y-107341699D01*
X154665160Y-107320029D01*
X154670952Y-107295232D01*
X154671889Y-107263983D01*
X154661575Y-107202705D01*
X154630752Y-107150640D01*
X154579595Y-107107958D01*
X154508283Y-107074825D01*
X154457400Y-107059964D01*
X154402100Y-107050366D01*
X154335853Y-107044936D01*
X154262706Y-107043367D01*
X154186703Y-107045351D01*
X154186703Y-107045351D01*
G37*
X154186703Y-107045351D02*
X154111888Y-107050581D01*
X154042306Y-107058750D01*
X153982002Y-107069550D01*
X153935020Y-107082673D01*
X153905406Y-107097813D01*
X153900860Y-107102269D01*
X153885054Y-107136850D01*
X153889847Y-107172351D01*
X153914364Y-107202725D01*
X153915534Y-107203596D01*
X153929954Y-107212954D01*
X153945008Y-107217876D01*
X153966005Y-107218473D01*
X153998257Y-107214861D01*
X154047073Y-107207154D01*
X154051000Y-107206505D01*
X154123739Y-107197569D01*
X154202217Y-107193161D01*
X154280927Y-107193119D01*
X154354361Y-107197279D01*
X154417011Y-107205479D01*
X154463370Y-107217557D01*
X154466416Y-107218771D01*
X154500048Y-107237615D01*
X154511864Y-107256685D01*
X154502614Y-107275439D01*
X154473047Y-107293337D01*
X154423911Y-107309837D01*
X154355957Y-107324396D01*
X154310645Y-107331406D01*
X154216456Y-107344889D01*
X154141544Y-107357214D01*
X154082717Y-107369449D01*
X154036785Y-107382661D01*
X154000555Y-107397917D01*
X153970838Y-107416285D01*
X153944442Y-107438831D01*
X153923230Y-107460971D01*
X153898065Y-107491819D01*
X153885681Y-107518345D01*
X153881808Y-107551026D01*
X153881667Y-107562995D01*
X153884576Y-107602712D01*
X153896202Y-107632259D01*
X153916323Y-107658486D01*
X153957216Y-107698576D01*
X154002817Y-107729149D01*
X154056513Y-107751203D01*
X154121692Y-107765735D01*
X154201744Y-107773741D01*
X154300057Y-107776218D01*
X154316289Y-107776177D01*
X154381849Y-107774818D01*
X154446866Y-107771730D01*
X154504252Y-107767356D01*
X154546922Y-107762140D01*
X154550372Y-107761541D01*
X154592796Y-107751491D01*
X154628780Y-107738796D01*
X154649150Y-107727190D01*
X154668107Y-107696572D01*
X154669427Y-107660918D01*
X154653085Y-107629144D01*
X154649429Y-107625551D01*
X154634315Y-107614876D01*
X154615415Y-107610276D01*
X154586162Y-107611059D01*
X154550651Y-107615127D01*
X154510970Y-107618762D01*
X154455345Y-107621828D01*
X154390406Y-107624053D01*
X154322785Y-107625164D01*
X154305000Y-107625237D01*
X154237128Y-107624964D01*
X154187454Y-107623646D01*
X154151610Y-107620827D01*
X154125224Y-107616050D01*
X154103926Y-107608857D01*
X154091126Y-107602867D01*
X154063000Y-107586233D01*
X154045068Y-107571168D01*
X154042447Y-107566897D01*
X154047976Y-107549263D01*
X154074260Y-107532192D01*
X154119478Y-107516458D01*
X154181808Y-107502838D01*
X154200171Y-107499804D01*
X154296090Y-107484738D01*
X154372641Y-107472146D01*
X154432780Y-107461111D01*
X154479460Y-107450720D01*
X154515637Y-107440056D01*
X154544265Y-107428205D01*
X154568298Y-107414251D01*
X154590692Y-107397281D01*
X154614402Y-107376378D01*
X154622380Y-107369049D01*
X154650353Y-107341699D01*
X154665160Y-107320029D01*
X154670952Y-107295232D01*
X154671889Y-107263983D01*
X154661575Y-107202705D01*
X154630752Y-107150640D01*
X154579595Y-107107958D01*
X154508283Y-107074825D01*
X154457400Y-107059964D01*
X154402100Y-107050366D01*
X154335853Y-107044936D01*
X154262706Y-107043367D01*
X154186703Y-107045351D01*
G36*
X153418822Y-107066645D02*
X153412242Y-107074218D01*
X153407079Y-107083987D01*
X153403164Y-107098571D01*
X153400324Y-107120585D01*
X153398387Y-107152648D01*
X153397183Y-107197375D01*
X153396539Y-107257385D01*
X153396284Y-107335294D01*
X153396245Y-107410956D01*
X153396314Y-107504802D01*
X153396638Y-107578689D01*
X153397386Y-107635232D01*
X153398732Y-107677049D01*
X153400846Y-107706757D01*
X153403900Y-107726973D01*
X153408066Y-107740314D01*
X153413516Y-107749398D01*
X153418822Y-107755267D01*
X153451826Y-107774947D01*
X153486991Y-107773181D01*
X153518455Y-107751717D01*
X153525684Y-107743337D01*
X153531334Y-107733614D01*
X153535599Y-107719861D01*
X153538673Y-107699389D01*
X153540752Y-107669512D01*
X153542030Y-107627541D01*
X153542701Y-107570789D01*
X153542959Y-107496567D01*
X153543000Y-107412537D01*
X153543000Y-107099485D01*
X153515291Y-107071776D01*
X153481137Y-107048463D01*
X153448006Y-107047623D01*
X153418822Y-107066645D01*
X153418822Y-107066645D01*
G37*
X153418822Y-107066645D02*
X153412242Y-107074218D01*
X153407079Y-107083987D01*
X153403164Y-107098571D01*
X153400324Y-107120585D01*
X153398387Y-107152648D01*
X153397183Y-107197375D01*
X153396539Y-107257385D01*
X153396284Y-107335294D01*
X153396245Y-107410956D01*
X153396314Y-107504802D01*
X153396638Y-107578689D01*
X153397386Y-107635232D01*
X153398732Y-107677049D01*
X153400846Y-107706757D01*
X153403900Y-107726973D01*
X153408066Y-107740314D01*
X153413516Y-107749398D01*
X153418822Y-107755267D01*
X153451826Y-107774947D01*
X153486991Y-107773181D01*
X153518455Y-107751717D01*
X153525684Y-107743337D01*
X153531334Y-107733614D01*
X153535599Y-107719861D01*
X153538673Y-107699389D01*
X153540752Y-107669512D01*
X153542030Y-107627541D01*
X153542701Y-107570789D01*
X153542959Y-107496567D01*
X153543000Y-107412537D01*
X153543000Y-107099485D01*
X153515291Y-107071776D01*
X153481137Y-107048463D01*
X153448006Y-107047623D01*
X153418822Y-107066645D01*
G36*
X152445081Y-107049599D02*
X152376565Y-107061095D01*
X152323943Y-107078967D01*
X152289708Y-107102499D01*
X152280379Y-107115924D01*
X152270893Y-107147148D01*
X152277277Y-107175395D01*
X152297430Y-107202182D01*
X152328745Y-107214713D01*
X152374183Y-107213696D01*
X152409326Y-107206906D01*
X152487419Y-107193971D01*
X152567226Y-107192742D01*
X152656555Y-107203241D01*
X152681229Y-107207690D01*
X152764291Y-107231108D01*
X152829273Y-107265945D01*
X152875461Y-107311604D01*
X152902145Y-107367494D01*
X152907663Y-107396388D01*
X152904051Y-107455012D01*
X152880729Y-107506879D01*
X152839824Y-107550978D01*
X152783459Y-107586299D01*
X152713760Y-107611829D01*
X152632852Y-107626559D01*
X152542860Y-107629478D01*
X152445910Y-107619575D01*
X152440436Y-107618641D01*
X152401875Y-107611459D01*
X152380494Y-107604521D01*
X152371227Y-107594227D01*
X152369006Y-107576976D01*
X152368956Y-107567841D01*
X152368956Y-107529489D01*
X152437431Y-107529489D01*
X152497900Y-107525347D01*
X152539165Y-107512147D01*
X152563175Y-107488730D01*
X152571877Y-107453936D01*
X152571983Y-107449394D01*
X152566892Y-107419654D01*
X152549433Y-107398419D01*
X152516939Y-107384366D01*
X152466743Y-107376173D01*
X152418123Y-107373161D01*
X152347456Y-107371433D01*
X152296198Y-107374070D01*
X152261239Y-107383800D01*
X152239470Y-107403353D01*
X152227780Y-107435456D01*
X152223060Y-107482838D01*
X152222200Y-107545071D01*
X152223609Y-107614535D01*
X152227848Y-107661786D01*
X152234936Y-107687012D01*
X152236311Y-107688988D01*
X152275228Y-107720508D01*
X152332286Y-107745470D01*
X152403869Y-107763340D01*
X152486358Y-107773586D01*
X152576139Y-107775673D01*
X152669592Y-107769068D01*
X152724556Y-107760956D01*
X152810766Y-107736554D01*
X152890892Y-107696662D01*
X152957977Y-107644887D01*
X152968173Y-107634539D01*
X153001302Y-107591035D01*
X153031194Y-107537118D01*
X153054357Y-107480592D01*
X153067298Y-107429259D01*
X153068858Y-107409544D01*
X153062218Y-107368419D01*
X153044568Y-107317252D01*
X153019297Y-107263394D01*
X152989789Y-107214195D01*
X152963719Y-107181334D01*
X152902765Y-107132452D01*
X152823969Y-107093545D01*
X152730157Y-107065494D01*
X152624150Y-107049179D01*
X152527000Y-107045192D01*
X152445081Y-107049599D01*
X152445081Y-107049599D01*
G37*
X152445081Y-107049599D02*
X152376565Y-107061095D01*
X152323943Y-107078967D01*
X152289708Y-107102499D01*
X152280379Y-107115924D01*
X152270893Y-107147148D01*
X152277277Y-107175395D01*
X152297430Y-107202182D01*
X152328745Y-107214713D01*
X152374183Y-107213696D01*
X152409326Y-107206906D01*
X152487419Y-107193971D01*
X152567226Y-107192742D01*
X152656555Y-107203241D01*
X152681229Y-107207690D01*
X152764291Y-107231108D01*
X152829273Y-107265945D01*
X152875461Y-107311604D01*
X152902145Y-107367494D01*
X152907663Y-107396388D01*
X152904051Y-107455012D01*
X152880729Y-107506879D01*
X152839824Y-107550978D01*
X152783459Y-107586299D01*
X152713760Y-107611829D01*
X152632852Y-107626559D01*
X152542860Y-107629478D01*
X152445910Y-107619575D01*
X152440436Y-107618641D01*
X152401875Y-107611459D01*
X152380494Y-107604521D01*
X152371227Y-107594227D01*
X152369006Y-107576976D01*
X152368956Y-107567841D01*
X152368956Y-107529489D01*
X152437431Y-107529489D01*
X152497900Y-107525347D01*
X152539165Y-107512147D01*
X152563175Y-107488730D01*
X152571877Y-107453936D01*
X152571983Y-107449394D01*
X152566892Y-107419654D01*
X152549433Y-107398419D01*
X152516939Y-107384366D01*
X152466743Y-107376173D01*
X152418123Y-107373161D01*
X152347456Y-107371433D01*
X152296198Y-107374070D01*
X152261239Y-107383800D01*
X152239470Y-107403353D01*
X152227780Y-107435456D01*
X152223060Y-107482838D01*
X152222200Y-107545071D01*
X152223609Y-107614535D01*
X152227848Y-107661786D01*
X152234936Y-107687012D01*
X152236311Y-107688988D01*
X152275228Y-107720508D01*
X152332286Y-107745470D01*
X152403869Y-107763340D01*
X152486358Y-107773586D01*
X152576139Y-107775673D01*
X152669592Y-107769068D01*
X152724556Y-107760956D01*
X152810766Y-107736554D01*
X152890892Y-107696662D01*
X152957977Y-107644887D01*
X152968173Y-107634539D01*
X153001302Y-107591035D01*
X153031194Y-107537118D01*
X153054357Y-107480592D01*
X153067298Y-107429259D01*
X153068858Y-107409544D01*
X153062218Y-107368419D01*
X153044568Y-107317252D01*
X153019297Y-107263394D01*
X152989789Y-107214195D01*
X152963719Y-107181334D01*
X152902765Y-107132452D01*
X152823969Y-107093545D01*
X152730157Y-107065494D01*
X152624150Y-107049179D01*
X152527000Y-107045192D01*
X152445081Y-107049599D01*
G36*
X151795114Y-107048448D02*
X151771548Y-107062273D01*
X151740735Y-107084881D01*
X151701078Y-107117338D01*
X151650980Y-107160708D01*
X151588843Y-107216058D01*
X151513072Y-107284451D01*
X151426334Y-107363084D01*
X151245711Y-107526878D01*
X151240067Y-107307029D01*
X151238029Y-107231351D01*
X151236063Y-107174994D01*
X151233734Y-107134706D01*
X151230606Y-107107235D01*
X151226245Y-107089329D01*
X151220216Y-107077737D01*
X151212084Y-107069208D01*
X151207772Y-107065623D01*
X151173241Y-107046670D01*
X151140383Y-107049441D01*
X151114318Y-107065633D01*
X151087667Y-107087199D01*
X151084352Y-107402151D01*
X151083435Y-107494779D01*
X151082968Y-107567544D01*
X151083113Y-107623161D01*
X151084032Y-107664342D01*
X151085887Y-107693803D01*
X151088839Y-107714255D01*
X151093050Y-107728413D01*
X151098682Y-107738991D01*
X151104927Y-107747474D01*
X151118439Y-107763207D01*
X151131883Y-107773636D01*
X151147124Y-107777639D01*
X151166026Y-107774094D01*
X151190455Y-107761879D01*
X151222273Y-107739871D01*
X151263348Y-107706949D01*
X151315542Y-107661991D01*
X151380722Y-107603875D01*
X151454556Y-107537099D01*
X151719845Y-107296458D01*
X151725489Y-107515589D01*
X151727531Y-107591128D01*
X151729502Y-107647354D01*
X151731839Y-107687524D01*
X151734981Y-107714896D01*
X151739364Y-107732728D01*
X151745424Y-107744279D01*
X151753600Y-107752807D01*
X151757784Y-107756282D01*
X151794765Y-107775372D01*
X151829708Y-107772493D01*
X151860136Y-107748100D01*
X151867097Y-107738286D01*
X151872523Y-107726826D01*
X151876603Y-107710968D01*
X151879529Y-107687963D01*
X151881492Y-107655062D01*
X151882683Y-107609516D01*
X151883292Y-107548573D01*
X151883511Y-107469486D01*
X151883534Y-107410956D01*
X151883460Y-107319407D01*
X151883113Y-107247687D01*
X151882301Y-107193045D01*
X151880833Y-107152732D01*
X151878519Y-107123998D01*
X151875167Y-107104093D01*
X151870588Y-107090268D01*
X151864589Y-107079772D01*
X151860136Y-107073811D01*
X151848850Y-107059691D01*
X151838301Y-107049029D01*
X151826893Y-107042892D01*
X151813030Y-107042343D01*
X151795114Y-107048448D01*
X151795114Y-107048448D01*
G37*
X151795114Y-107048448D02*
X151771548Y-107062273D01*
X151740735Y-107084881D01*
X151701078Y-107117338D01*
X151650980Y-107160708D01*
X151588843Y-107216058D01*
X151513072Y-107284451D01*
X151426334Y-107363084D01*
X151245711Y-107526878D01*
X151240067Y-107307029D01*
X151238029Y-107231351D01*
X151236063Y-107174994D01*
X151233734Y-107134706D01*
X151230606Y-107107235D01*
X151226245Y-107089329D01*
X151220216Y-107077737D01*
X151212084Y-107069208D01*
X151207772Y-107065623D01*
X151173241Y-107046670D01*
X151140383Y-107049441D01*
X151114318Y-107065633D01*
X151087667Y-107087199D01*
X151084352Y-107402151D01*
X151083435Y-107494779D01*
X151082968Y-107567544D01*
X151083113Y-107623161D01*
X151084032Y-107664342D01*
X151085887Y-107693803D01*
X151088839Y-107714255D01*
X151093050Y-107728413D01*
X151098682Y-107738991D01*
X151104927Y-107747474D01*
X151118439Y-107763207D01*
X151131883Y-107773636D01*
X151147124Y-107777639D01*
X151166026Y-107774094D01*
X151190455Y-107761879D01*
X151222273Y-107739871D01*
X151263348Y-107706949D01*
X151315542Y-107661991D01*
X151380722Y-107603875D01*
X151454556Y-107537099D01*
X151719845Y-107296458D01*
X151725489Y-107515589D01*
X151727531Y-107591128D01*
X151729502Y-107647354D01*
X151731839Y-107687524D01*
X151734981Y-107714896D01*
X151739364Y-107732728D01*
X151745424Y-107744279D01*
X151753600Y-107752807D01*
X151757784Y-107756282D01*
X151794765Y-107775372D01*
X151829708Y-107772493D01*
X151860136Y-107748100D01*
X151867097Y-107738286D01*
X151872523Y-107726826D01*
X151876603Y-107710968D01*
X151879529Y-107687963D01*
X151881492Y-107655062D01*
X151882683Y-107609516D01*
X151883292Y-107548573D01*
X151883511Y-107469486D01*
X151883534Y-107410956D01*
X151883460Y-107319407D01*
X151883113Y-107247687D01*
X151882301Y-107193045D01*
X151880833Y-107152732D01*
X151878519Y-107123998D01*
X151875167Y-107104093D01*
X151870588Y-107090268D01*
X151864589Y-107079772D01*
X151860136Y-107073811D01*
X151848850Y-107059691D01*
X151838301Y-107049029D01*
X151826893Y-107042892D01*
X151813030Y-107042343D01*
X151795114Y-107048448D01*
G36*
X150264657Y-107044260D02*
X150188299Y-107045174D01*
X150129783Y-107047311D01*
X150086745Y-107051175D01*
X150056817Y-107057267D01*
X150037632Y-107066090D01*
X150026824Y-107078146D01*
X150022027Y-107093939D01*
X150020873Y-107113970D01*
X150020867Y-107116335D01*
X150021869Y-107138992D01*
X150026604Y-107156503D01*
X150037667Y-107169574D01*
X150057652Y-107178913D01*
X150089154Y-107185227D01*
X150134768Y-107189222D01*
X150197087Y-107191606D01*
X150278707Y-107193086D01*
X150303723Y-107193414D01*
X150545800Y-107196467D01*
X150549186Y-107261378D01*
X150552571Y-107326289D01*
X150384424Y-107326289D01*
X150318734Y-107326531D01*
X150271828Y-107327556D01*
X150239917Y-107329811D01*
X150219209Y-107333742D01*
X150205916Y-107339798D01*
X150196245Y-107348424D01*
X150196183Y-107348493D01*
X150178644Y-107382112D01*
X150179278Y-107418448D01*
X150197686Y-107449423D01*
X150201329Y-107452607D01*
X150214259Y-107460812D01*
X150231976Y-107466521D01*
X150258430Y-107470162D01*
X150297568Y-107472167D01*
X150353338Y-107472964D01*
X150389006Y-107473045D01*
X150551445Y-107473045D01*
X150551445Y-107631089D01*
X150304839Y-107631089D01*
X150223420Y-107631231D01*
X150161590Y-107631814D01*
X150116363Y-107633068D01*
X150084752Y-107635227D01*
X150063769Y-107638523D01*
X150050427Y-107643189D01*
X150041739Y-107649457D01*
X150039550Y-107651733D01*
X150023386Y-107683280D01*
X150022203Y-107719168D01*
X150035464Y-107750285D01*
X150045957Y-107760271D01*
X150056871Y-107765769D01*
X150073783Y-107770022D01*
X150099367Y-107773180D01*
X150136299Y-107775392D01*
X150187254Y-107776806D01*
X150254906Y-107777572D01*
X150341931Y-107777838D01*
X150361606Y-107777845D01*
X150450089Y-107777787D01*
X150518773Y-107777467D01*
X150570436Y-107776667D01*
X150607855Y-107775167D01*
X150633810Y-107772749D01*
X150651078Y-107769194D01*
X150662438Y-107764282D01*
X150670668Y-107757795D01*
X150675183Y-107753138D01*
X150681979Y-107744889D01*
X150687288Y-107734669D01*
X150691294Y-107719800D01*
X150694179Y-107697602D01*
X150696126Y-107665393D01*
X150697319Y-107620496D01*
X150697939Y-107560228D01*
X150698171Y-107481911D01*
X150698200Y-107415994D01*
X150698129Y-107323628D01*
X150697792Y-107251117D01*
X150697002Y-107195737D01*
X150695574Y-107154765D01*
X150693321Y-107125478D01*
X150690057Y-107105153D01*
X150685596Y-107091066D01*
X150679752Y-107080495D01*
X150674803Y-107073811D01*
X150651406Y-107044067D01*
X150361226Y-107044067D01*
X150264657Y-107044260D01*
X150264657Y-107044260D01*
G37*
X150264657Y-107044260D02*
X150188299Y-107045174D01*
X150129783Y-107047311D01*
X150086745Y-107051175D01*
X150056817Y-107057267D01*
X150037632Y-107066090D01*
X150026824Y-107078146D01*
X150022027Y-107093939D01*
X150020873Y-107113970D01*
X150020867Y-107116335D01*
X150021869Y-107138992D01*
X150026604Y-107156503D01*
X150037667Y-107169574D01*
X150057652Y-107178913D01*
X150089154Y-107185227D01*
X150134768Y-107189222D01*
X150197087Y-107191606D01*
X150278707Y-107193086D01*
X150303723Y-107193414D01*
X150545800Y-107196467D01*
X150549186Y-107261378D01*
X150552571Y-107326289D01*
X150384424Y-107326289D01*
X150318734Y-107326531D01*
X150271828Y-107327556D01*
X150239917Y-107329811D01*
X150219209Y-107333742D01*
X150205916Y-107339798D01*
X150196245Y-107348424D01*
X150196183Y-107348493D01*
X150178644Y-107382112D01*
X150179278Y-107418448D01*
X150197686Y-107449423D01*
X150201329Y-107452607D01*
X150214259Y-107460812D01*
X150231976Y-107466521D01*
X150258430Y-107470162D01*
X150297568Y-107472167D01*
X150353338Y-107472964D01*
X150389006Y-107473045D01*
X150551445Y-107473045D01*
X150551445Y-107631089D01*
X150304839Y-107631089D01*
X150223420Y-107631231D01*
X150161590Y-107631814D01*
X150116363Y-107633068D01*
X150084752Y-107635227D01*
X150063769Y-107638523D01*
X150050427Y-107643189D01*
X150041739Y-107649457D01*
X150039550Y-107651733D01*
X150023386Y-107683280D01*
X150022203Y-107719168D01*
X150035464Y-107750285D01*
X150045957Y-107760271D01*
X150056871Y-107765769D01*
X150073783Y-107770022D01*
X150099367Y-107773180D01*
X150136299Y-107775392D01*
X150187254Y-107776806D01*
X150254906Y-107777572D01*
X150341931Y-107777838D01*
X150361606Y-107777845D01*
X150450089Y-107777787D01*
X150518773Y-107777467D01*
X150570436Y-107776667D01*
X150607855Y-107775167D01*
X150633810Y-107772749D01*
X150651078Y-107769194D01*
X150662438Y-107764282D01*
X150670668Y-107757795D01*
X150675183Y-107753138D01*
X150681979Y-107744889D01*
X150687288Y-107734669D01*
X150691294Y-107719800D01*
X150694179Y-107697602D01*
X150696126Y-107665393D01*
X150697319Y-107620496D01*
X150697939Y-107560228D01*
X150698171Y-107481911D01*
X150698200Y-107415994D01*
X150698129Y-107323628D01*
X150697792Y-107251117D01*
X150697002Y-107195737D01*
X150695574Y-107154765D01*
X150693321Y-107125478D01*
X150690057Y-107105153D01*
X150685596Y-107091066D01*
X150679752Y-107080495D01*
X150674803Y-107073811D01*
X150651406Y-107044067D01*
X150361226Y-107044067D01*
X150264657Y-107044260D01*
G36*
X149476691Y-107044275D02*
X149347712Y-107048636D01*
X149238009Y-107061861D01*
X149145774Y-107084741D01*
X149069198Y-107118070D01*
X149006473Y-107162638D01*
X148955788Y-107219236D01*
X148915337Y-107288658D01*
X148914541Y-107290351D01*
X148890399Y-107352483D01*
X148881797Y-107407509D01*
X148888769Y-107462887D01*
X148911346Y-107526073D01*
X148915628Y-107535689D01*
X148944828Y-107591966D01*
X148977644Y-107635451D01*
X149019998Y-107672417D01*
X149077810Y-107709135D01*
X149081169Y-107711052D01*
X149131496Y-107735227D01*
X149188379Y-107753282D01*
X149255473Y-107765839D01*
X149336435Y-107773522D01*
X149434918Y-107776953D01*
X149469714Y-107777251D01*
X149635406Y-107777845D01*
X149658803Y-107748100D01*
X149665743Y-107738319D01*
X149671158Y-107726897D01*
X149675235Y-107711095D01*
X149678163Y-107688175D01*
X149680133Y-107655396D01*
X149680775Y-107631089D01*
X149524156Y-107631089D01*
X149430274Y-107631089D01*
X149375336Y-107629483D01*
X149318940Y-107625255D01*
X149272655Y-107619292D01*
X149269861Y-107618790D01*
X149187652Y-107596736D01*
X149123886Y-107563600D01*
X149076548Y-107517847D01*
X149043618Y-107457939D01*
X149037892Y-107442061D01*
X149032279Y-107417333D01*
X149034709Y-107392902D01*
X149046533Y-107360400D01*
X149053660Y-107344434D01*
X149077000Y-107302006D01*
X149105120Y-107272240D01*
X149136060Y-107251511D01*
X149198034Y-107224537D01*
X149277349Y-107204998D01*
X149369747Y-107193746D01*
X149436667Y-107191270D01*
X149524156Y-107190822D01*
X149524156Y-107631089D01*
X149680775Y-107631089D01*
X149681332Y-107610021D01*
X149681950Y-107549311D01*
X149682175Y-107470526D01*
X149682200Y-107408920D01*
X149682200Y-107099485D01*
X149654491Y-107071776D01*
X149642194Y-107060544D01*
X149628897Y-107052853D01*
X149610328Y-107048040D01*
X149582214Y-107045446D01*
X149540283Y-107044410D01*
X149480263Y-107044270D01*
X149476691Y-107044275D01*
X149476691Y-107044275D01*
G37*
X149476691Y-107044275D02*
X149347712Y-107048636D01*
X149238009Y-107061861D01*
X149145774Y-107084741D01*
X149069198Y-107118070D01*
X149006473Y-107162638D01*
X148955788Y-107219236D01*
X148915337Y-107288658D01*
X148914541Y-107290351D01*
X148890399Y-107352483D01*
X148881797Y-107407509D01*
X148888769Y-107462887D01*
X148911346Y-107526073D01*
X148915628Y-107535689D01*
X148944828Y-107591966D01*
X148977644Y-107635451D01*
X149019998Y-107672417D01*
X149077810Y-107709135D01*
X149081169Y-107711052D01*
X149131496Y-107735227D01*
X149188379Y-107753282D01*
X149255473Y-107765839D01*
X149336435Y-107773522D01*
X149434918Y-107776953D01*
X149469714Y-107777251D01*
X149635406Y-107777845D01*
X149658803Y-107748100D01*
X149665743Y-107738319D01*
X149671158Y-107726897D01*
X149675235Y-107711095D01*
X149678163Y-107688175D01*
X149680133Y-107655396D01*
X149680775Y-107631089D01*
X149524156Y-107631089D01*
X149430274Y-107631089D01*
X149375336Y-107629483D01*
X149318940Y-107625255D01*
X149272655Y-107619292D01*
X149269861Y-107618790D01*
X149187652Y-107596736D01*
X149123886Y-107563600D01*
X149076548Y-107517847D01*
X149043618Y-107457939D01*
X149037892Y-107442061D01*
X149032279Y-107417333D01*
X149034709Y-107392902D01*
X149046533Y-107360400D01*
X149053660Y-107344434D01*
X149077000Y-107302006D01*
X149105120Y-107272240D01*
X149136060Y-107251511D01*
X149198034Y-107224537D01*
X149277349Y-107204998D01*
X149369747Y-107193746D01*
X149436667Y-107191270D01*
X149524156Y-107190822D01*
X149524156Y-107631089D01*
X149680775Y-107631089D01*
X149681332Y-107610021D01*
X149681950Y-107549311D01*
X149682175Y-107470526D01*
X149682200Y-107408920D01*
X149682200Y-107099485D01*
X149654491Y-107071776D01*
X149642194Y-107060544D01*
X149628897Y-107052853D01*
X149610328Y-107048040D01*
X149582214Y-107045446D01*
X149540283Y-107044410D01*
X149480263Y-107044270D01*
X149476691Y-107044275D01*
G36*
X146750335Y-107046034D02*
X146730745Y-107053035D01*
X146729990Y-107053377D01*
X146703387Y-107073678D01*
X146688730Y-107094561D01*
X146685862Y-107104352D01*
X146686004Y-107117361D01*
X146690039Y-107135895D01*
X146698854Y-107162257D01*
X146713331Y-107198752D01*
X146734355Y-107247687D01*
X146762812Y-107311365D01*
X146799585Y-107392093D01*
X146819825Y-107436216D01*
X146856375Y-107514985D01*
X146890685Y-107587423D01*
X146921448Y-107650880D01*
X146947352Y-107702708D01*
X146967090Y-107740259D01*
X146979350Y-107760884D01*
X146981776Y-107763733D01*
X147012817Y-107776302D01*
X147047879Y-107774619D01*
X147076000Y-107759332D01*
X147077146Y-107758089D01*
X147088332Y-107741154D01*
X147107096Y-107708170D01*
X147131125Y-107663380D01*
X147158103Y-107611032D01*
X147167799Y-107591742D01*
X147240986Y-107445150D01*
X147320760Y-107604393D01*
X147349233Y-107659415D01*
X147375650Y-107707132D01*
X147397852Y-107743893D01*
X147413681Y-107766044D01*
X147419046Y-107770741D01*
X147460743Y-107777102D01*
X147495151Y-107763733D01*
X147505272Y-107749446D01*
X147522786Y-107717692D01*
X147546265Y-107671597D01*
X147574280Y-107614285D01*
X147605401Y-107548880D01*
X147638201Y-107478507D01*
X147671250Y-107406291D01*
X147703119Y-107335355D01*
X147732381Y-107268825D01*
X147757605Y-107209826D01*
X147777364Y-107161481D01*
X147790228Y-107126915D01*
X147794769Y-107109253D01*
X147794723Y-107108613D01*
X147783674Y-107086388D01*
X147761590Y-107063753D01*
X147760290Y-107062768D01*
X147733147Y-107047425D01*
X147708042Y-107047574D01*
X147698632Y-107050466D01*
X147687166Y-107056718D01*
X147674990Y-107069014D01*
X147660643Y-107089908D01*
X147642664Y-107121949D01*
X147619593Y-107167688D01*
X147589970Y-107229677D01*
X147563255Y-107286898D01*
X147532520Y-107353226D01*
X147504979Y-107412874D01*
X147482062Y-107462725D01*
X147465202Y-107499664D01*
X147455827Y-107520573D01*
X147454460Y-107523845D01*
X147448311Y-107518497D01*
X147434178Y-107496109D01*
X147413943Y-107459946D01*
X147389485Y-107413277D01*
X147379752Y-107394022D01*
X147346783Y-107329004D01*
X147321357Y-107281654D01*
X147301388Y-107249219D01*
X147284790Y-107228946D01*
X147269476Y-107218082D01*
X147253360Y-107213875D01*
X147242857Y-107213400D01*
X147224330Y-107215042D01*
X147208096Y-107221831D01*
X147191965Y-107236566D01*
X147173749Y-107262044D01*
X147151261Y-107301061D01*
X147122311Y-107356414D01*
X147106338Y-107387903D01*
X147080430Y-107438087D01*
X147057833Y-107479704D01*
X147040542Y-107509242D01*
X147030550Y-107523189D01*
X147029191Y-107523770D01*
X147022739Y-107512793D01*
X147008292Y-107484290D01*
X146987297Y-107441244D01*
X146961203Y-107386638D01*
X146931454Y-107323454D01*
X146916820Y-107292071D01*
X146878750Y-107211078D01*
X146848095Y-107148756D01*
X146823263Y-107103071D01*
X146802663Y-107071989D01*
X146784702Y-107053478D01*
X146767790Y-107045504D01*
X146750335Y-107046034D01*
X146750335Y-107046034D01*
G37*
X146750335Y-107046034D02*
X146730745Y-107053035D01*
X146729990Y-107053377D01*
X146703387Y-107073678D01*
X146688730Y-107094561D01*
X146685862Y-107104352D01*
X146686004Y-107117361D01*
X146690039Y-107135895D01*
X146698854Y-107162257D01*
X146713331Y-107198752D01*
X146734355Y-107247687D01*
X146762812Y-107311365D01*
X146799585Y-107392093D01*
X146819825Y-107436216D01*
X146856375Y-107514985D01*
X146890685Y-107587423D01*
X146921448Y-107650880D01*
X146947352Y-107702708D01*
X146967090Y-107740259D01*
X146979350Y-107760884D01*
X146981776Y-107763733D01*
X147012817Y-107776302D01*
X147047879Y-107774619D01*
X147076000Y-107759332D01*
X147077146Y-107758089D01*
X147088332Y-107741154D01*
X147107096Y-107708170D01*
X147131125Y-107663380D01*
X147158103Y-107611032D01*
X147167799Y-107591742D01*
X147240986Y-107445150D01*
X147320760Y-107604393D01*
X147349233Y-107659415D01*
X147375650Y-107707132D01*
X147397852Y-107743893D01*
X147413681Y-107766044D01*
X147419046Y-107770741D01*
X147460743Y-107777102D01*
X147495151Y-107763733D01*
X147505272Y-107749446D01*
X147522786Y-107717692D01*
X147546265Y-107671597D01*
X147574280Y-107614285D01*
X147605401Y-107548880D01*
X147638201Y-107478507D01*
X147671250Y-107406291D01*
X147703119Y-107335355D01*
X147732381Y-107268825D01*
X147757605Y-107209826D01*
X147777364Y-107161481D01*
X147790228Y-107126915D01*
X147794769Y-107109253D01*
X147794723Y-107108613D01*
X147783674Y-107086388D01*
X147761590Y-107063753D01*
X147760290Y-107062768D01*
X147733147Y-107047425D01*
X147708042Y-107047574D01*
X147698632Y-107050466D01*
X147687166Y-107056718D01*
X147674990Y-107069014D01*
X147660643Y-107089908D01*
X147642664Y-107121949D01*
X147619593Y-107167688D01*
X147589970Y-107229677D01*
X147563255Y-107286898D01*
X147532520Y-107353226D01*
X147504979Y-107412874D01*
X147482062Y-107462725D01*
X147465202Y-107499664D01*
X147455827Y-107520573D01*
X147454460Y-107523845D01*
X147448311Y-107518497D01*
X147434178Y-107496109D01*
X147413943Y-107459946D01*
X147389485Y-107413277D01*
X147379752Y-107394022D01*
X147346783Y-107329004D01*
X147321357Y-107281654D01*
X147301388Y-107249219D01*
X147284790Y-107228946D01*
X147269476Y-107218082D01*
X147253360Y-107213875D01*
X147242857Y-107213400D01*
X147224330Y-107215042D01*
X147208096Y-107221831D01*
X147191965Y-107236566D01*
X147173749Y-107262044D01*
X147151261Y-107301061D01*
X147122311Y-107356414D01*
X147106338Y-107387903D01*
X147080430Y-107438087D01*
X147057833Y-107479704D01*
X147040542Y-107509242D01*
X147030550Y-107523189D01*
X147029191Y-107523770D01*
X147022739Y-107512793D01*
X147008292Y-107484290D01*
X146987297Y-107441244D01*
X146961203Y-107386638D01*
X146931454Y-107323454D01*
X146916820Y-107292071D01*
X146878750Y-107211078D01*
X146848095Y-107148756D01*
X146823263Y-107103071D01*
X146802663Y-107071989D01*
X146784702Y-107053478D01*
X146767790Y-107045504D01*
X146750335Y-107046034D01*
G36*
X146306386Y-107050877D02*
X146282673Y-107065647D01*
X146256022Y-107087227D01*
X146256022Y-107408773D01*
X146256107Y-107502830D01*
X146256471Y-107576932D01*
X146257276Y-107633704D01*
X146258687Y-107675768D01*
X146260867Y-107705748D01*
X146263979Y-107726267D01*
X146268186Y-107739949D01*
X146273652Y-107749416D01*
X146277528Y-107754082D01*
X146308966Y-107774575D01*
X146344767Y-107773739D01*
X146376127Y-107756264D01*
X146402778Y-107734684D01*
X146402778Y-107087227D01*
X146376127Y-107065647D01*
X146350406Y-107049949D01*
X146329400Y-107044067D01*
X146306386Y-107050877D01*
X146306386Y-107050877D01*
G37*
X146306386Y-107050877D02*
X146282673Y-107065647D01*
X146256022Y-107087227D01*
X146256022Y-107408773D01*
X146256107Y-107502830D01*
X146256471Y-107576932D01*
X146257276Y-107633704D01*
X146258687Y-107675768D01*
X146260867Y-107705748D01*
X146263979Y-107726267D01*
X146268186Y-107739949D01*
X146273652Y-107749416D01*
X146277528Y-107754082D01*
X146308966Y-107774575D01*
X146344767Y-107773739D01*
X146376127Y-107756264D01*
X146402778Y-107734684D01*
X146402778Y-107087227D01*
X146376127Y-107065647D01*
X146350406Y-107049949D01*
X146329400Y-107044067D01*
X146306386Y-107050877D01*
G36*
X145531935Y-107044163D02*
X145453228Y-107044542D01*
X145392137Y-107045333D01*
X145346183Y-107046670D01*
X145312886Y-107048683D01*
X145289764Y-107051506D01*
X145274338Y-107055269D01*
X145264129Y-107060105D01*
X145259187Y-107063822D01*
X145233543Y-107096358D01*
X145230441Y-107130138D01*
X145246289Y-107160826D01*
X145256652Y-107173089D01*
X145267804Y-107181450D01*
X145283965Y-107186657D01*
X145309358Y-107189457D01*
X145348202Y-107190596D01*
X145404720Y-107190821D01*
X145415820Y-107190822D01*
X145561756Y-107190822D01*
X145561756Y-107461756D01*
X145561852Y-107547154D01*
X145562289Y-107612864D01*
X145563288Y-107661774D01*
X145565072Y-107696773D01*
X145567863Y-107720749D01*
X145571883Y-107736593D01*
X145577355Y-107747191D01*
X145584334Y-107755267D01*
X145617266Y-107775112D01*
X145651646Y-107773548D01*
X145682824Y-107750906D01*
X145685114Y-107748100D01*
X145692571Y-107737492D01*
X145698253Y-107725081D01*
X145702399Y-107707850D01*
X145705250Y-107682784D01*
X145707046Y-107646867D01*
X145708028Y-107597083D01*
X145708436Y-107530417D01*
X145708511Y-107454589D01*
X145708511Y-107190822D01*
X145847873Y-107190822D01*
X145907678Y-107190418D01*
X145949082Y-107188840D01*
X145976252Y-107185547D01*
X145993354Y-107179992D01*
X146004557Y-107171631D01*
X146005917Y-107170178D01*
X146022275Y-107136939D01*
X146020828Y-107099362D01*
X146002022Y-107066645D01*
X145994750Y-107060298D01*
X145985373Y-107055266D01*
X145971391Y-107051396D01*
X145950304Y-107048537D01*
X145919611Y-107046535D01*
X145876811Y-107045239D01*
X145819405Y-107044498D01*
X145744890Y-107044158D01*
X145650767Y-107044068D01*
X145630740Y-107044067D01*
X145531935Y-107044163D01*
X145531935Y-107044163D01*
G37*
X145531935Y-107044163D02*
X145453228Y-107044542D01*
X145392137Y-107045333D01*
X145346183Y-107046670D01*
X145312886Y-107048683D01*
X145289764Y-107051506D01*
X145274338Y-107055269D01*
X145264129Y-107060105D01*
X145259187Y-107063822D01*
X145233543Y-107096358D01*
X145230441Y-107130138D01*
X145246289Y-107160826D01*
X145256652Y-107173089D01*
X145267804Y-107181450D01*
X145283965Y-107186657D01*
X145309358Y-107189457D01*
X145348202Y-107190596D01*
X145404720Y-107190821D01*
X145415820Y-107190822D01*
X145561756Y-107190822D01*
X145561756Y-107461756D01*
X145561852Y-107547154D01*
X145562289Y-107612864D01*
X145563288Y-107661774D01*
X145565072Y-107696773D01*
X145567863Y-107720749D01*
X145571883Y-107736593D01*
X145577355Y-107747191D01*
X145584334Y-107755267D01*
X145617266Y-107775112D01*
X145651646Y-107773548D01*
X145682824Y-107750906D01*
X145685114Y-107748100D01*
X145692571Y-107737492D01*
X145698253Y-107725081D01*
X145702399Y-107707850D01*
X145705250Y-107682784D01*
X145707046Y-107646867D01*
X145708028Y-107597083D01*
X145708436Y-107530417D01*
X145708511Y-107454589D01*
X145708511Y-107190822D01*
X145847873Y-107190822D01*
X145907678Y-107190418D01*
X145949082Y-107188840D01*
X145976252Y-107185547D01*
X145993354Y-107179992D01*
X146004557Y-107171631D01*
X146005917Y-107170178D01*
X146022275Y-107136939D01*
X146020828Y-107099362D01*
X146002022Y-107066645D01*
X145994750Y-107060298D01*
X145985373Y-107055266D01*
X145971391Y-107051396D01*
X145950304Y-107048537D01*
X145919611Y-107046535D01*
X145876811Y-107045239D01*
X145819405Y-107044498D01*
X145744890Y-107044158D01*
X145650767Y-107044068D01*
X145630740Y-107044067D01*
X145531935Y-107044163D01*
G36*
X144266177Y-107049533D02*
X144234798Y-107071776D01*
X144207089Y-107099485D01*
X144207089Y-107408920D01*
X144207162Y-107500799D01*
X144207505Y-107572840D01*
X144208308Y-107627780D01*
X144209759Y-107668360D01*
X144212048Y-107697317D01*
X144215364Y-107717391D01*
X144219895Y-107731321D01*
X144225831Y-107741845D01*
X144230486Y-107748100D01*
X144261217Y-107772673D01*
X144296504Y-107775341D01*
X144328755Y-107760271D01*
X144339412Y-107751374D01*
X144346536Y-107739557D01*
X144350833Y-107720526D01*
X144353009Y-107689992D01*
X144353772Y-107643662D01*
X144353845Y-107607871D01*
X144353845Y-107473045D01*
X144850556Y-107473045D01*
X144850556Y-107595700D01*
X144851069Y-107651787D01*
X144853124Y-107690333D01*
X144857492Y-107716361D01*
X144864944Y-107734897D01*
X144873953Y-107748100D01*
X144904856Y-107772604D01*
X144939804Y-107775506D01*
X144973262Y-107758089D01*
X144982396Y-107748959D01*
X144988848Y-107736855D01*
X144993103Y-107718001D01*
X144995648Y-107688620D01*
X144996971Y-107644937D01*
X144997557Y-107583175D01*
X144997625Y-107569000D01*
X144998109Y-107452631D01*
X144998359Y-107356727D01*
X144998277Y-107279177D01*
X144997769Y-107217869D01*
X144996738Y-107170690D01*
X144995087Y-107135530D01*
X144992721Y-107110276D01*
X144989543Y-107092817D01*
X144985456Y-107081041D01*
X144980366Y-107072835D01*
X144974734Y-107066645D01*
X144942872Y-107046844D01*
X144909643Y-107049533D01*
X144878265Y-107071776D01*
X144865567Y-107086126D01*
X144857474Y-107101978D01*
X144852958Y-107124554D01*
X144850994Y-107159078D01*
X144850556Y-107210776D01*
X144850556Y-107326289D01*
X144353845Y-107326289D01*
X144353845Y-107207756D01*
X144353338Y-107153148D01*
X144351302Y-107116275D01*
X144346965Y-107092307D01*
X144339553Y-107076415D01*
X144331267Y-107066645D01*
X144299406Y-107046844D01*
X144266177Y-107049533D01*
X144266177Y-107049533D01*
G37*
X144266177Y-107049533D02*
X144234798Y-107071776D01*
X144207089Y-107099485D01*
X144207089Y-107408920D01*
X144207162Y-107500799D01*
X144207505Y-107572840D01*
X144208308Y-107627780D01*
X144209759Y-107668360D01*
X144212048Y-107697317D01*
X144215364Y-107717391D01*
X144219895Y-107731321D01*
X144225831Y-107741845D01*
X144230486Y-107748100D01*
X144261217Y-107772673D01*
X144296504Y-107775341D01*
X144328755Y-107760271D01*
X144339412Y-107751374D01*
X144346536Y-107739557D01*
X144350833Y-107720526D01*
X144353009Y-107689992D01*
X144353772Y-107643662D01*
X144353845Y-107607871D01*
X144353845Y-107473045D01*
X144850556Y-107473045D01*
X144850556Y-107595700D01*
X144851069Y-107651787D01*
X144853124Y-107690333D01*
X144857492Y-107716361D01*
X144864944Y-107734897D01*
X144873953Y-107748100D01*
X144904856Y-107772604D01*
X144939804Y-107775506D01*
X144973262Y-107758089D01*
X144982396Y-107748959D01*
X144988848Y-107736855D01*
X144993103Y-107718001D01*
X144995648Y-107688620D01*
X144996971Y-107644937D01*
X144997557Y-107583175D01*
X144997625Y-107569000D01*
X144998109Y-107452631D01*
X144998359Y-107356727D01*
X144998277Y-107279177D01*
X144997769Y-107217869D01*
X144996738Y-107170690D01*
X144995087Y-107135530D01*
X144992721Y-107110276D01*
X144989543Y-107092817D01*
X144985456Y-107081041D01*
X144980366Y-107072835D01*
X144974734Y-107066645D01*
X144942872Y-107046844D01*
X144909643Y-107049533D01*
X144878265Y-107071776D01*
X144865567Y-107086126D01*
X144857474Y-107101978D01*
X144852958Y-107124554D01*
X144850994Y-107159078D01*
X144850556Y-107210776D01*
X144850556Y-107326289D01*
X144353845Y-107326289D01*
X144353845Y-107207756D01*
X144353338Y-107153148D01*
X144351302Y-107116275D01*
X144346965Y-107092307D01*
X144339553Y-107076415D01*
X144331267Y-107066645D01*
X144299406Y-107046844D01*
X144266177Y-107049533D01*
G36*
X153441400Y-102264054D02*
X153430535Y-102377993D01*
X153398918Y-102485616D01*
X153348015Y-102584615D01*
X153279293Y-102672684D01*
X153194219Y-102747516D01*
X153097232Y-102805384D01*
X152990964Y-102845005D01*
X152883950Y-102863573D01*
X152778300Y-102862434D01*
X152676125Y-102842930D01*
X152579534Y-102806406D01*
X152490638Y-102754205D01*
X152411546Y-102687673D01*
X152344369Y-102608152D01*
X152291217Y-102516987D01*
X152254199Y-102415523D01*
X152235427Y-102305102D01*
X152233489Y-102255206D01*
X152233489Y-102167267D01*
X152181560Y-102167267D01*
X152145253Y-102170111D01*
X152118355Y-102181911D01*
X152091249Y-102205649D01*
X152052867Y-102244031D01*
X152052867Y-104435602D01*
X152052876Y-104697739D01*
X152052908Y-104938241D01*
X152052972Y-105158048D01*
X152053076Y-105358101D01*
X152053227Y-105539344D01*
X152053434Y-105702716D01*
X152053706Y-105849160D01*
X152054050Y-105979617D01*
X152054474Y-106095029D01*
X152054987Y-106196338D01*
X152055597Y-106284484D01*
X152056312Y-106360410D01*
X152057140Y-106425057D01*
X152058089Y-106479367D01*
X152059167Y-106524280D01*
X152060383Y-106560740D01*
X152061745Y-106589687D01*
X152063261Y-106612063D01*
X152064938Y-106628809D01*
X152066786Y-106640868D01*
X152068813Y-106649180D01*
X152071025Y-106654687D01*
X152072108Y-106656537D01*
X152076271Y-106663549D01*
X152079805Y-106669996D01*
X152083635Y-106675900D01*
X152088682Y-106681286D01*
X152095871Y-106686178D01*
X152106123Y-106690598D01*
X152120364Y-106694572D01*
X152139514Y-106698121D01*
X152164499Y-106701270D01*
X152196240Y-106704042D01*
X152235662Y-106706461D01*
X152283686Y-106708551D01*
X152341237Y-106710335D01*
X152409237Y-106711837D01*
X152488610Y-106713080D01*
X152580279Y-106714089D01*
X152685166Y-106714885D01*
X152804196Y-106715494D01*
X152938290Y-106715939D01*
X153088373Y-106716243D01*
X153255367Y-106716430D01*
X153440196Y-106716524D01*
X153643783Y-106716548D01*
X153867050Y-106716525D01*
X154110922Y-106716480D01*
X154376321Y-106716437D01*
X154414704Y-106716432D01*
X154681682Y-106716389D01*
X154927002Y-106716318D01*
X155151583Y-106716213D01*
X155356345Y-106716066D01*
X155542206Y-106715869D01*
X155710088Y-106715616D01*
X155860908Y-106715300D01*
X155995587Y-106714913D01*
X156115044Y-106714447D01*
X156220199Y-106713897D01*
X156311971Y-106713253D01*
X156391279Y-106712511D01*
X156459043Y-106711661D01*
X156516182Y-106710697D01*
X156563617Y-106709611D01*
X156602266Y-106708397D01*
X156633049Y-106707047D01*
X156656885Y-106705555D01*
X156674694Y-106703911D01*
X156687395Y-106702111D01*
X156695908Y-106700145D01*
X156700266Y-106698477D01*
X156708728Y-106694906D01*
X156716497Y-106692270D01*
X156723602Y-106689634D01*
X156730073Y-106686062D01*
X156735939Y-106680621D01*
X156741229Y-106672375D01*
X156745974Y-106660390D01*
X156750202Y-106643731D01*
X156753943Y-106621463D01*
X156757227Y-106592652D01*
X156760083Y-106556363D01*
X156762540Y-106511661D01*
X156764629Y-106457611D01*
X156766378Y-106393279D01*
X156767817Y-106317730D01*
X156768976Y-106230030D01*
X156769883Y-106129243D01*
X156770569Y-106014434D01*
X156771063Y-105884670D01*
X156771395Y-105739015D01*
X156771593Y-105576535D01*
X156771687Y-105396295D01*
X156771708Y-105197360D01*
X156771685Y-104978796D01*
X156771646Y-104739668D01*
X156771622Y-104479040D01*
X156771622Y-104436889D01*
X156771636Y-104173992D01*
X156771661Y-103932732D01*
X156771671Y-103712165D01*
X156771642Y-103511352D01*
X156771548Y-103329349D01*
X156771362Y-103165216D01*
X156771059Y-103018011D01*
X156770614Y-102886792D01*
X156770034Y-102776867D01*
X156467197Y-102776867D01*
X156427407Y-102834711D01*
X156416236Y-102850479D01*
X156406166Y-102864441D01*
X156397138Y-102877784D01*
X156389097Y-102891693D01*
X156381986Y-102907356D01*
X156375747Y-102925958D01*
X156370325Y-102948686D01*
X156365662Y-102976727D01*
X156361701Y-103011267D01*
X156358385Y-103053492D01*
X156355659Y-103104589D01*
X156353464Y-103165744D01*
X156351745Y-103238144D01*
X156350444Y-103322975D01*
X156349505Y-103421422D01*
X156348870Y-103534674D01*
X156348484Y-103663916D01*
X156348288Y-103810334D01*
X156348227Y-103975116D01*
X156348243Y-104159447D01*
X156348280Y-104364513D01*
X156348289Y-104487133D01*
X156348265Y-104704082D01*
X156348231Y-104899642D01*
X156348243Y-105074999D01*
X156348358Y-105231341D01*
X156348630Y-105369857D01*
X156349118Y-105491734D01*
X156349876Y-105598160D01*
X156350962Y-105690322D01*
X156352431Y-105769409D01*
X156354340Y-105836608D01*
X156356744Y-105893107D01*
X156359701Y-105940093D01*
X156363266Y-105978755D01*
X156367495Y-106010280D01*
X156372446Y-106035855D01*
X156378173Y-106056670D01*
X156384733Y-106073911D01*
X156392183Y-106088765D01*
X156400579Y-106102422D01*
X156409976Y-106116069D01*
X156420432Y-106130893D01*
X156426523Y-106139783D01*
X156465296Y-106197400D01*
X155933732Y-106197400D01*
X155810483Y-106197365D01*
X155707987Y-106197215D01*
X155624420Y-106196878D01*
X155557956Y-106196286D01*
X155506771Y-106195367D01*
X155469041Y-106194051D01*
X155442940Y-106192269D01*
X155426644Y-106189951D01*
X155418328Y-106187026D01*
X155416168Y-106183424D01*
X155418339Y-106179075D01*
X155419535Y-106177645D01*
X155444685Y-106140573D01*
X155470583Y-106087772D01*
X155494192Y-106025770D01*
X155502461Y-105999357D01*
X155507078Y-105981416D01*
X155510979Y-105960355D01*
X155514248Y-105934089D01*
X155516966Y-105900532D01*
X155519215Y-105857599D01*
X155521077Y-105803204D01*
X155522636Y-105735262D01*
X155523972Y-105651688D01*
X155525169Y-105550395D01*
X155526308Y-105429300D01*
X155526685Y-105384600D01*
X155527702Y-105259449D01*
X155528460Y-105155082D01*
X155528903Y-105069707D01*
X155528970Y-105001533D01*
X155528605Y-104948765D01*
X155527748Y-104909614D01*
X155526341Y-104882285D01*
X155524325Y-104864986D01*
X155521643Y-104855926D01*
X155518236Y-104853312D01*
X155514044Y-104855351D01*
X155509571Y-104859667D01*
X155499216Y-104872602D01*
X155477158Y-104901676D01*
X155444957Y-104944759D01*
X155404174Y-104999718D01*
X155356370Y-105064423D01*
X155303105Y-105136742D01*
X155245940Y-105214544D01*
X155186437Y-105295698D01*
X155126155Y-105378072D01*
X155066655Y-105459536D01*
X155009498Y-105537957D01*
X154956245Y-105611204D01*
X154908457Y-105677147D01*
X154867693Y-105733654D01*
X154835516Y-105778593D01*
X154813485Y-105809834D01*
X154808917Y-105816466D01*
X154785996Y-105853369D01*
X154759188Y-105901359D01*
X154733789Y-105950897D01*
X154730568Y-105957577D01*
X154708890Y-106005772D01*
X154696304Y-106043334D01*
X154690574Y-106079160D01*
X154689456Y-106121200D01*
X154690090Y-106197400D01*
X153535651Y-106197400D01*
X153626815Y-106103669D01*
X153673612Y-106053775D01*
X153723899Y-105997295D01*
X153769944Y-105943026D01*
X153790369Y-105917673D01*
X153820807Y-105878128D01*
X153860862Y-105824916D01*
X153909361Y-105759667D01*
X153965135Y-105684011D01*
X154027011Y-105599577D01*
X154093819Y-105507994D01*
X154164387Y-105410892D01*
X154237545Y-105309901D01*
X154312121Y-105206650D01*
X154386944Y-105102768D01*
X154460843Y-104999885D01*
X154532646Y-104899631D01*
X154601184Y-104803636D01*
X154665284Y-104713527D01*
X154723775Y-104630936D01*
X154775486Y-104557492D01*
X154819247Y-104494824D01*
X154853885Y-104444561D01*
X154878230Y-104408334D01*
X154891111Y-104387771D01*
X154892869Y-104383668D01*
X154884910Y-104372342D01*
X154864115Y-104345162D01*
X154831847Y-104303829D01*
X154789470Y-104250044D01*
X154738347Y-104185506D01*
X154679841Y-104111918D01*
X154615314Y-104030978D01*
X154546131Y-103944388D01*
X154473653Y-103853848D01*
X154399246Y-103761060D01*
X154339517Y-103686702D01*
X153328511Y-103686702D01*
X153322602Y-103699659D01*
X153308272Y-103721908D01*
X153307225Y-103723391D01*
X153288438Y-103753544D01*
X153268791Y-103790375D01*
X153264892Y-103798511D01*
X153261356Y-103806940D01*
X153258230Y-103817059D01*
X153255486Y-103830260D01*
X153253092Y-103847938D01*
X153251019Y-103871484D01*
X153249235Y-103902293D01*
X153247712Y-103941757D01*
X153246419Y-103991269D01*
X153245326Y-104052223D01*
X153244403Y-104126011D01*
X153243619Y-104214028D01*
X153242945Y-104317665D01*
X153242350Y-104438316D01*
X153241805Y-104577374D01*
X153241279Y-104736232D01*
X153240745Y-104915089D01*
X153240206Y-105100207D01*
X153239772Y-105264145D01*
X153239509Y-105408303D01*
X153239484Y-105534079D01*
X153239765Y-105642871D01*
X153240419Y-105736077D01*
X153241514Y-105815097D01*
X153243118Y-105881328D01*
X153245297Y-105936170D01*
X153248119Y-105981021D01*
X153251651Y-106017278D01*
X153255961Y-106046341D01*
X153261117Y-106069609D01*
X153267185Y-106088479D01*
X153274233Y-106104351D01*
X153282329Y-106118622D01*
X153291540Y-106132691D01*
X153300040Y-106145158D01*
X153317176Y-106171452D01*
X153327322Y-106189037D01*
X153328511Y-106192257D01*
X153317604Y-106193334D01*
X153286411Y-106194335D01*
X153237223Y-106195235D01*
X153172333Y-106196010D01*
X153094030Y-106196637D01*
X153004607Y-106197091D01*
X152906356Y-106197349D01*
X152837445Y-106197400D01*
X152732452Y-106197180D01*
X152635610Y-106196548D01*
X152549107Y-106195549D01*
X152475132Y-106194227D01*
X152415874Y-106192626D01*
X152373520Y-106190791D01*
X152350260Y-106188765D01*
X152346378Y-106187493D01*
X152354076Y-106172591D01*
X152362074Y-106164560D01*
X152375246Y-106147434D01*
X152392485Y-106117183D01*
X152404407Y-106092622D01*
X152431045Y-106033711D01*
X152434120Y-104856845D01*
X152437195Y-103679978D01*
X152882853Y-103679978D01*
X152980670Y-103680142D01*
X153071064Y-103680611D01*
X153151630Y-103681347D01*
X153219962Y-103682316D01*
X153273656Y-103683480D01*
X153310305Y-103684803D01*
X153327504Y-103686249D01*
X153328511Y-103686702D01*
X154339517Y-103686702D01*
X154324270Y-103667722D01*
X154250090Y-103575537D01*
X154178069Y-103486204D01*
X154109569Y-103401424D01*
X154045955Y-103322898D01*
X153988588Y-103252326D01*
X153938833Y-103191409D01*
X153898052Y-103141847D01*
X153880888Y-103121178D01*
X153794596Y-103020516D01*
X153717997Y-102937259D01*
X153649183Y-102869438D01*
X153586248Y-102815089D01*
X153576867Y-102807722D01*
X153537356Y-102777117D01*
X154669116Y-102776867D01*
X154663827Y-102824844D01*
X154667130Y-102882188D01*
X154688661Y-102950463D01*
X154728635Y-103030212D01*
X154773943Y-103102495D01*
X154790161Y-103125140D01*
X154818214Y-103162696D01*
X154856430Y-103213021D01*
X154903137Y-103273973D01*
X154956661Y-103343411D01*
X155015331Y-103419194D01*
X155077475Y-103499180D01*
X155141421Y-103581228D01*
X155205495Y-103663196D01*
X155268027Y-103742943D01*
X155327343Y-103818327D01*
X155381771Y-103887207D01*
X155429639Y-103947442D01*
X155469275Y-103996889D01*
X155499006Y-104033408D01*
X155517161Y-104054858D01*
X155520220Y-104058156D01*
X155523079Y-104050149D01*
X155525293Y-104019855D01*
X155526857Y-103967556D01*
X155527767Y-103893531D01*
X155528020Y-103798063D01*
X155527613Y-103681434D01*
X155526704Y-103561445D01*
X155525382Y-103429333D01*
X155523857Y-103317594D01*
X155521881Y-103224025D01*
X155519206Y-103146419D01*
X155515582Y-103082574D01*
X155510761Y-103030283D01*
X155504494Y-102987344D01*
X155496532Y-102951551D01*
X155486627Y-102920700D01*
X155474531Y-102892586D01*
X155459993Y-102865005D01*
X155445311Y-102839966D01*
X155407314Y-102776867D01*
X156467197Y-102776867D01*
X156770034Y-102776867D01*
X156770001Y-102770617D01*
X156769195Y-102668544D01*
X156768170Y-102579633D01*
X156766900Y-102502941D01*
X156765360Y-102437527D01*
X156763524Y-102382449D01*
X156761367Y-102336765D01*
X156758863Y-102299534D01*
X156755987Y-102269813D01*
X156752713Y-102246662D01*
X156749015Y-102229139D01*
X156744869Y-102216301D01*
X156740247Y-102207208D01*
X156735126Y-102200918D01*
X156729478Y-102196488D01*
X156723279Y-102192978D01*
X156716504Y-102189445D01*
X156710508Y-102185876D01*
X156705275Y-102183300D01*
X156697099Y-102180972D01*
X156684886Y-102178878D01*
X156667541Y-102177007D01*
X156643969Y-102175347D01*
X156613077Y-102173884D01*
X156573768Y-102172608D01*
X156524950Y-102171504D01*
X156465527Y-102170561D01*
X156394404Y-102169767D01*
X156310488Y-102169109D01*
X156212683Y-102168575D01*
X156099894Y-102168153D01*
X155971029Y-102167829D01*
X155824991Y-102167592D01*
X155660686Y-102167430D01*
X155477020Y-102167330D01*
X155272897Y-102167280D01*
X155061753Y-102167267D01*
X153441400Y-102167267D01*
X153441400Y-102264054D01*
X153441400Y-102264054D01*
G37*
X153441400Y-102264054D02*
X153430535Y-102377993D01*
X153398918Y-102485616D01*
X153348015Y-102584615D01*
X153279293Y-102672684D01*
X153194219Y-102747516D01*
X153097232Y-102805384D01*
X152990964Y-102845005D01*
X152883950Y-102863573D01*
X152778300Y-102862434D01*
X152676125Y-102842930D01*
X152579534Y-102806406D01*
X152490638Y-102754205D01*
X152411546Y-102687673D01*
X152344369Y-102608152D01*
X152291217Y-102516987D01*
X152254199Y-102415523D01*
X152235427Y-102305102D01*
X152233489Y-102255206D01*
X152233489Y-102167267D01*
X152181560Y-102167267D01*
X152145253Y-102170111D01*
X152118355Y-102181911D01*
X152091249Y-102205649D01*
X152052867Y-102244031D01*
X152052867Y-104435602D01*
X152052876Y-104697739D01*
X152052908Y-104938241D01*
X152052972Y-105158048D01*
X152053076Y-105358101D01*
X152053227Y-105539344D01*
X152053434Y-105702716D01*
X152053706Y-105849160D01*
X152054050Y-105979617D01*
X152054474Y-106095029D01*
X152054987Y-106196338D01*
X152055597Y-106284484D01*
X152056312Y-106360410D01*
X152057140Y-106425057D01*
X152058089Y-106479367D01*
X152059167Y-106524280D01*
X152060383Y-106560740D01*
X152061745Y-106589687D01*
X152063261Y-106612063D01*
X152064938Y-106628809D01*
X152066786Y-106640868D01*
X152068813Y-106649180D01*
X152071025Y-106654687D01*
X152072108Y-106656537D01*
X152076271Y-106663549D01*
X152079805Y-106669996D01*
X152083635Y-106675900D01*
X152088682Y-106681286D01*
X152095871Y-106686178D01*
X152106123Y-106690598D01*
X152120364Y-106694572D01*
X152139514Y-106698121D01*
X152164499Y-106701270D01*
X152196240Y-106704042D01*
X152235662Y-106706461D01*
X152283686Y-106708551D01*
X152341237Y-106710335D01*
X152409237Y-106711837D01*
X152488610Y-106713080D01*
X152580279Y-106714089D01*
X152685166Y-106714885D01*
X152804196Y-106715494D01*
X152938290Y-106715939D01*
X153088373Y-106716243D01*
X153255367Y-106716430D01*
X153440196Y-106716524D01*
X153643783Y-106716548D01*
X153867050Y-106716525D01*
X154110922Y-106716480D01*
X154376321Y-106716437D01*
X154414704Y-106716432D01*
X154681682Y-106716389D01*
X154927002Y-106716318D01*
X155151583Y-106716213D01*
X155356345Y-106716066D01*
X155542206Y-106715869D01*
X155710088Y-106715616D01*
X155860908Y-106715300D01*
X155995587Y-106714913D01*
X156115044Y-106714447D01*
X156220199Y-106713897D01*
X156311971Y-106713253D01*
X156391279Y-106712511D01*
X156459043Y-106711661D01*
X156516182Y-106710697D01*
X156563617Y-106709611D01*
X156602266Y-106708397D01*
X156633049Y-106707047D01*
X156656885Y-106705555D01*
X156674694Y-106703911D01*
X156687395Y-106702111D01*
X156695908Y-106700145D01*
X156700266Y-106698477D01*
X156708728Y-106694906D01*
X156716497Y-106692270D01*
X156723602Y-106689634D01*
X156730073Y-106686062D01*
X156735939Y-106680621D01*
X156741229Y-106672375D01*
X156745974Y-106660390D01*
X156750202Y-106643731D01*
X156753943Y-106621463D01*
X156757227Y-106592652D01*
X156760083Y-106556363D01*
X156762540Y-106511661D01*
X156764629Y-106457611D01*
X156766378Y-106393279D01*
X156767817Y-106317730D01*
X156768976Y-106230030D01*
X156769883Y-106129243D01*
X156770569Y-106014434D01*
X156771063Y-105884670D01*
X156771395Y-105739015D01*
X156771593Y-105576535D01*
X156771687Y-105396295D01*
X156771708Y-105197360D01*
X156771685Y-104978796D01*
X156771646Y-104739668D01*
X156771622Y-104479040D01*
X156771622Y-104436889D01*
X156771636Y-104173992D01*
X156771661Y-103932732D01*
X156771671Y-103712165D01*
X156771642Y-103511352D01*
X156771548Y-103329349D01*
X156771362Y-103165216D01*
X156771059Y-103018011D01*
X156770614Y-102886792D01*
X156770034Y-102776867D01*
X156467197Y-102776867D01*
X156427407Y-102834711D01*
X156416236Y-102850479D01*
X156406166Y-102864441D01*
X156397138Y-102877784D01*
X156389097Y-102891693D01*
X156381986Y-102907356D01*
X156375747Y-102925958D01*
X156370325Y-102948686D01*
X156365662Y-102976727D01*
X156361701Y-103011267D01*
X156358385Y-103053492D01*
X156355659Y-103104589D01*
X156353464Y-103165744D01*
X156351745Y-103238144D01*
X156350444Y-103322975D01*
X156349505Y-103421422D01*
X156348870Y-103534674D01*
X156348484Y-103663916D01*
X156348288Y-103810334D01*
X156348227Y-103975116D01*
X156348243Y-104159447D01*
X156348280Y-104364513D01*
X156348289Y-104487133D01*
X156348265Y-104704082D01*
X156348231Y-104899642D01*
X156348243Y-105074999D01*
X156348358Y-105231341D01*
X156348630Y-105369857D01*
X156349118Y-105491734D01*
X156349876Y-105598160D01*
X156350962Y-105690322D01*
X156352431Y-105769409D01*
X156354340Y-105836608D01*
X156356744Y-105893107D01*
X156359701Y-105940093D01*
X156363266Y-105978755D01*
X156367495Y-106010280D01*
X156372446Y-106035855D01*
X156378173Y-106056670D01*
X156384733Y-106073911D01*
X156392183Y-106088765D01*
X156400579Y-106102422D01*
X156409976Y-106116069D01*
X156420432Y-106130893D01*
X156426523Y-106139783D01*
X156465296Y-106197400D01*
X155933732Y-106197400D01*
X155810483Y-106197365D01*
X155707987Y-106197215D01*
X155624420Y-106196878D01*
X155557956Y-106196286D01*
X155506771Y-106195367D01*
X155469041Y-106194051D01*
X155442940Y-106192269D01*
X155426644Y-106189951D01*
X155418328Y-106187026D01*
X155416168Y-106183424D01*
X155418339Y-106179075D01*
X155419535Y-106177645D01*
X155444685Y-106140573D01*
X155470583Y-106087772D01*
X155494192Y-106025770D01*
X155502461Y-105999357D01*
X155507078Y-105981416D01*
X155510979Y-105960355D01*
X155514248Y-105934089D01*
X155516966Y-105900532D01*
X155519215Y-105857599D01*
X155521077Y-105803204D01*
X155522636Y-105735262D01*
X155523972Y-105651688D01*
X155525169Y-105550395D01*
X155526308Y-105429300D01*
X155526685Y-105384600D01*
X155527702Y-105259449D01*
X155528460Y-105155082D01*
X155528903Y-105069707D01*
X155528970Y-105001533D01*
X155528605Y-104948765D01*
X155527748Y-104909614D01*
X155526341Y-104882285D01*
X155524325Y-104864986D01*
X155521643Y-104855926D01*
X155518236Y-104853312D01*
X155514044Y-104855351D01*
X155509571Y-104859667D01*
X155499216Y-104872602D01*
X155477158Y-104901676D01*
X155444957Y-104944759D01*
X155404174Y-104999718D01*
X155356370Y-105064423D01*
X155303105Y-105136742D01*
X155245940Y-105214544D01*
X155186437Y-105295698D01*
X155126155Y-105378072D01*
X155066655Y-105459536D01*
X155009498Y-105537957D01*
X154956245Y-105611204D01*
X154908457Y-105677147D01*
X154867693Y-105733654D01*
X154835516Y-105778593D01*
X154813485Y-105809834D01*
X154808917Y-105816466D01*
X154785996Y-105853369D01*
X154759188Y-105901359D01*
X154733789Y-105950897D01*
X154730568Y-105957577D01*
X154708890Y-106005772D01*
X154696304Y-106043334D01*
X154690574Y-106079160D01*
X154689456Y-106121200D01*
X154690090Y-106197400D01*
X153535651Y-106197400D01*
X153626815Y-106103669D01*
X153673612Y-106053775D01*
X153723899Y-105997295D01*
X153769944Y-105943026D01*
X153790369Y-105917673D01*
X153820807Y-105878128D01*
X153860862Y-105824916D01*
X153909361Y-105759667D01*
X153965135Y-105684011D01*
X154027011Y-105599577D01*
X154093819Y-105507994D01*
X154164387Y-105410892D01*
X154237545Y-105309901D01*
X154312121Y-105206650D01*
X154386944Y-105102768D01*
X154460843Y-104999885D01*
X154532646Y-104899631D01*
X154601184Y-104803636D01*
X154665284Y-104713527D01*
X154723775Y-104630936D01*
X154775486Y-104557492D01*
X154819247Y-104494824D01*
X154853885Y-104444561D01*
X154878230Y-104408334D01*
X154891111Y-104387771D01*
X154892869Y-104383668D01*
X154884910Y-104372342D01*
X154864115Y-104345162D01*
X154831847Y-104303829D01*
X154789470Y-104250044D01*
X154738347Y-104185506D01*
X154679841Y-104111918D01*
X154615314Y-104030978D01*
X154546131Y-103944388D01*
X154473653Y-103853848D01*
X154399246Y-103761060D01*
X154339517Y-103686702D01*
X153328511Y-103686702D01*
X153322602Y-103699659D01*
X153308272Y-103721908D01*
X153307225Y-103723391D01*
X153288438Y-103753544D01*
X153268791Y-103790375D01*
X153264892Y-103798511D01*
X153261356Y-103806940D01*
X153258230Y-103817059D01*
X153255486Y-103830260D01*
X153253092Y-103847938D01*
X153251019Y-103871484D01*
X153249235Y-103902293D01*
X153247712Y-103941757D01*
X153246419Y-103991269D01*
X153245326Y-104052223D01*
X153244403Y-104126011D01*
X153243619Y-104214028D01*
X153242945Y-104317665D01*
X153242350Y-104438316D01*
X153241805Y-104577374D01*
X153241279Y-104736232D01*
X153240745Y-104915089D01*
X153240206Y-105100207D01*
X153239772Y-105264145D01*
X153239509Y-105408303D01*
X153239484Y-105534079D01*
X153239765Y-105642871D01*
X153240419Y-105736077D01*
X153241514Y-105815097D01*
X153243118Y-105881328D01*
X153245297Y-105936170D01*
X153248119Y-105981021D01*
X153251651Y-106017278D01*
X153255961Y-106046341D01*
X153261117Y-106069609D01*
X153267185Y-106088479D01*
X153274233Y-106104351D01*
X153282329Y-106118622D01*
X153291540Y-106132691D01*
X153300040Y-106145158D01*
X153317176Y-106171452D01*
X153327322Y-106189037D01*
X153328511Y-106192257D01*
X153317604Y-106193334D01*
X153286411Y-106194335D01*
X153237223Y-106195235D01*
X153172333Y-106196010D01*
X153094030Y-106196637D01*
X153004607Y-106197091D01*
X152906356Y-106197349D01*
X152837445Y-106197400D01*
X152732452Y-106197180D01*
X152635610Y-106196548D01*
X152549107Y-106195549D01*
X152475132Y-106194227D01*
X152415874Y-106192626D01*
X152373520Y-106190791D01*
X152350260Y-106188765D01*
X152346378Y-106187493D01*
X152354076Y-106172591D01*
X152362074Y-106164560D01*
X152375246Y-106147434D01*
X152392485Y-106117183D01*
X152404407Y-106092622D01*
X152431045Y-106033711D01*
X152434120Y-104856845D01*
X152437195Y-103679978D01*
X152882853Y-103679978D01*
X152980670Y-103680142D01*
X153071064Y-103680611D01*
X153151630Y-103681347D01*
X153219962Y-103682316D01*
X153273656Y-103683480D01*
X153310305Y-103684803D01*
X153327504Y-103686249D01*
X153328511Y-103686702D01*
X154339517Y-103686702D01*
X154324270Y-103667722D01*
X154250090Y-103575537D01*
X154178069Y-103486204D01*
X154109569Y-103401424D01*
X154045955Y-103322898D01*
X153988588Y-103252326D01*
X153938833Y-103191409D01*
X153898052Y-103141847D01*
X153880888Y-103121178D01*
X153794596Y-103020516D01*
X153717997Y-102937259D01*
X153649183Y-102869438D01*
X153586248Y-102815089D01*
X153576867Y-102807722D01*
X153537356Y-102777117D01*
X154669116Y-102776867D01*
X154663827Y-102824844D01*
X154667130Y-102882188D01*
X154688661Y-102950463D01*
X154728635Y-103030212D01*
X154773943Y-103102495D01*
X154790161Y-103125140D01*
X154818214Y-103162696D01*
X154856430Y-103213021D01*
X154903137Y-103273973D01*
X154956661Y-103343411D01*
X155015331Y-103419194D01*
X155077475Y-103499180D01*
X155141421Y-103581228D01*
X155205495Y-103663196D01*
X155268027Y-103742943D01*
X155327343Y-103818327D01*
X155381771Y-103887207D01*
X155429639Y-103947442D01*
X155469275Y-103996889D01*
X155499006Y-104033408D01*
X155517161Y-104054858D01*
X155520220Y-104058156D01*
X155523079Y-104050149D01*
X155525293Y-104019855D01*
X155526857Y-103967556D01*
X155527767Y-103893531D01*
X155528020Y-103798063D01*
X155527613Y-103681434D01*
X155526704Y-103561445D01*
X155525382Y-103429333D01*
X155523857Y-103317594D01*
X155521881Y-103224025D01*
X155519206Y-103146419D01*
X155515582Y-103082574D01*
X155510761Y-103030283D01*
X155504494Y-102987344D01*
X155496532Y-102951551D01*
X155486627Y-102920700D01*
X155474531Y-102892586D01*
X155459993Y-102865005D01*
X155445311Y-102839966D01*
X155407314Y-102776867D01*
X156467197Y-102776867D01*
X156770034Y-102776867D01*
X156770001Y-102770617D01*
X156769195Y-102668544D01*
X156768170Y-102579633D01*
X156766900Y-102502941D01*
X156765360Y-102437527D01*
X156763524Y-102382449D01*
X156761367Y-102336765D01*
X156758863Y-102299534D01*
X156755987Y-102269813D01*
X156752713Y-102246662D01*
X156749015Y-102229139D01*
X156744869Y-102216301D01*
X156740247Y-102207208D01*
X156735126Y-102200918D01*
X156729478Y-102196488D01*
X156723279Y-102192978D01*
X156716504Y-102189445D01*
X156710508Y-102185876D01*
X156705275Y-102183300D01*
X156697099Y-102180972D01*
X156684886Y-102178878D01*
X156667541Y-102177007D01*
X156643969Y-102175347D01*
X156613077Y-102173884D01*
X156573768Y-102172608D01*
X156524950Y-102171504D01*
X156465527Y-102170561D01*
X156394404Y-102169767D01*
X156310488Y-102169109D01*
X156212683Y-102168575D01*
X156099894Y-102168153D01*
X155971029Y-102167829D01*
X155824991Y-102167592D01*
X155660686Y-102167430D01*
X155477020Y-102167330D01*
X155272897Y-102167280D01*
X155061753Y-102167267D01*
X153441400Y-102167267D01*
X153441400Y-102264054D01*
G36*
X150166571Y-102724071D02*
X150006430Y-102745245D01*
X149842490Y-102785385D01*
X149672687Y-102844889D01*
X149494957Y-102924154D01*
X149483690Y-102929699D01*
X149425995Y-102957725D01*
X149374448Y-102981802D01*
X149332809Y-103000249D01*
X149304838Y-103011386D01*
X149295267Y-103013933D01*
X149276050Y-103018941D01*
X149271439Y-103023147D01*
X149276542Y-103033580D01*
X149292582Y-103059868D01*
X149317712Y-103099257D01*
X149350086Y-103148991D01*
X149387857Y-103206315D01*
X149429178Y-103268476D01*
X149472202Y-103332718D01*
X149515083Y-103396285D01*
X149555974Y-103456425D01*
X149593029Y-103510380D01*
X149624400Y-103555397D01*
X149648241Y-103588721D01*
X149662706Y-103607597D01*
X149664691Y-103609787D01*
X149674809Y-103605138D01*
X149697150Y-103587962D01*
X149727720Y-103561440D01*
X149743464Y-103546964D01*
X149839953Y-103471682D01*
X149946664Y-103416241D01*
X150062168Y-103381141D01*
X150185038Y-103366880D01*
X150254439Y-103368051D01*
X150375577Y-103385212D01*
X150484795Y-103421094D01*
X150582418Y-103475959D01*
X150668772Y-103550070D01*
X150744185Y-103643688D01*
X150808982Y-103757076D01*
X150846399Y-103843667D01*
X150890252Y-103979366D01*
X150922572Y-104126850D01*
X150943443Y-104282314D01*
X150952949Y-104441956D01*
X150951173Y-104601973D01*
X150938197Y-104758561D01*
X150914106Y-104907918D01*
X150878982Y-105046240D01*
X150832908Y-105169724D01*
X150816627Y-105203978D01*
X150748380Y-105318064D01*
X150667921Y-105414557D01*
X150576430Y-105492670D01*
X150475089Y-105551617D01*
X150365080Y-105590612D01*
X150247585Y-105608868D01*
X150206117Y-105610211D01*
X150084559Y-105599290D01*
X149964122Y-105566474D01*
X149846334Y-105512439D01*
X149732723Y-105437865D01*
X149641315Y-105359539D01*
X149594785Y-105315008D01*
X149413517Y-105612271D01*
X149368420Y-105686433D01*
X149327181Y-105754646D01*
X149291265Y-105814459D01*
X149262134Y-105863420D01*
X149241250Y-105899079D01*
X149230076Y-105918984D01*
X149228625Y-105922079D01*
X149236854Y-105931718D01*
X149262433Y-105948999D01*
X149302127Y-105972283D01*
X149352703Y-105999934D01*
X149410926Y-106030315D01*
X149473563Y-106061790D01*
X149537379Y-106092722D01*
X149599140Y-106121473D01*
X149655612Y-106146408D01*
X149703562Y-106165889D01*
X149727014Y-106174318D01*
X149860779Y-106212133D01*
X149998673Y-106237136D01*
X150146378Y-106250140D01*
X150273167Y-106252468D01*
X150341122Y-106251373D01*
X150406723Y-106249275D01*
X150464153Y-106246434D01*
X150507597Y-106243106D01*
X150521702Y-106241422D01*
X150660716Y-106212587D01*
X150802243Y-106167468D01*
X150939725Y-106108750D01*
X151066606Y-106039120D01*
X151144111Y-105986441D01*
X151271519Y-105878239D01*
X151389822Y-105751671D01*
X151496828Y-105609866D01*
X151590348Y-105455951D01*
X151668190Y-105293053D01*
X151712044Y-105175756D01*
X151762292Y-104992128D01*
X151795791Y-104797581D01*
X151812551Y-104596325D01*
X151812584Y-104392568D01*
X151795899Y-104190521D01*
X151762507Y-103994392D01*
X151712420Y-103808391D01*
X151708603Y-103796803D01*
X151645719Y-103634750D01*
X151568972Y-103486832D01*
X151475758Y-103348865D01*
X151363473Y-103216661D01*
X151319608Y-103171399D01*
X151183466Y-103047457D01*
X151043509Y-102944915D01*
X150897589Y-102862656D01*
X150743558Y-102799564D01*
X150579268Y-102754523D01*
X150483711Y-102737033D01*
X150324977Y-102721466D01*
X150166571Y-102724071D01*
X150166571Y-102724071D01*
G37*
X150166571Y-102724071D02*
X150006430Y-102745245D01*
X149842490Y-102785385D01*
X149672687Y-102844889D01*
X149494957Y-102924154D01*
X149483690Y-102929699D01*
X149425995Y-102957725D01*
X149374448Y-102981802D01*
X149332809Y-103000249D01*
X149304838Y-103011386D01*
X149295267Y-103013933D01*
X149276050Y-103018941D01*
X149271439Y-103023147D01*
X149276542Y-103033580D01*
X149292582Y-103059868D01*
X149317712Y-103099257D01*
X149350086Y-103148991D01*
X149387857Y-103206315D01*
X149429178Y-103268476D01*
X149472202Y-103332718D01*
X149515083Y-103396285D01*
X149555974Y-103456425D01*
X149593029Y-103510380D01*
X149624400Y-103555397D01*
X149648241Y-103588721D01*
X149662706Y-103607597D01*
X149664691Y-103609787D01*
X149674809Y-103605138D01*
X149697150Y-103587962D01*
X149727720Y-103561440D01*
X149743464Y-103546964D01*
X149839953Y-103471682D01*
X149946664Y-103416241D01*
X150062168Y-103381141D01*
X150185038Y-103366880D01*
X150254439Y-103368051D01*
X150375577Y-103385212D01*
X150484795Y-103421094D01*
X150582418Y-103475959D01*
X150668772Y-103550070D01*
X150744185Y-103643688D01*
X150808982Y-103757076D01*
X150846399Y-103843667D01*
X150890252Y-103979366D01*
X150922572Y-104126850D01*
X150943443Y-104282314D01*
X150952949Y-104441956D01*
X150951173Y-104601973D01*
X150938197Y-104758561D01*
X150914106Y-104907918D01*
X150878982Y-105046240D01*
X150832908Y-105169724D01*
X150816627Y-105203978D01*
X150748380Y-105318064D01*
X150667921Y-105414557D01*
X150576430Y-105492670D01*
X150475089Y-105551617D01*
X150365080Y-105590612D01*
X150247585Y-105608868D01*
X150206117Y-105610211D01*
X150084559Y-105599290D01*
X149964122Y-105566474D01*
X149846334Y-105512439D01*
X149732723Y-105437865D01*
X149641315Y-105359539D01*
X149594785Y-105315008D01*
X149413517Y-105612271D01*
X149368420Y-105686433D01*
X149327181Y-105754646D01*
X149291265Y-105814459D01*
X149262134Y-105863420D01*
X149241250Y-105899079D01*
X149230076Y-105918984D01*
X149228625Y-105922079D01*
X149236854Y-105931718D01*
X149262433Y-105948999D01*
X149302127Y-105972283D01*
X149352703Y-105999934D01*
X149410926Y-106030315D01*
X149473563Y-106061790D01*
X149537379Y-106092722D01*
X149599140Y-106121473D01*
X149655612Y-106146408D01*
X149703562Y-106165889D01*
X149727014Y-106174318D01*
X149860779Y-106212133D01*
X149998673Y-106237136D01*
X150146378Y-106250140D01*
X150273167Y-106252468D01*
X150341122Y-106251373D01*
X150406723Y-106249275D01*
X150464153Y-106246434D01*
X150507597Y-106243106D01*
X150521702Y-106241422D01*
X150660716Y-106212587D01*
X150802243Y-106167468D01*
X150939725Y-106108750D01*
X151066606Y-106039120D01*
X151144111Y-105986441D01*
X151271519Y-105878239D01*
X151389822Y-105751671D01*
X151496828Y-105609866D01*
X151590348Y-105455951D01*
X151668190Y-105293053D01*
X151712044Y-105175756D01*
X151762292Y-104992128D01*
X151795791Y-104797581D01*
X151812551Y-104596325D01*
X151812584Y-104392568D01*
X151795899Y-104190521D01*
X151762507Y-103994392D01*
X151712420Y-103808391D01*
X151708603Y-103796803D01*
X151645719Y-103634750D01*
X151568972Y-103486832D01*
X151475758Y-103348865D01*
X151363473Y-103216661D01*
X151319608Y-103171399D01*
X151183466Y-103047457D01*
X151043509Y-102944915D01*
X150897589Y-102862656D01*
X150743558Y-102799564D01*
X150579268Y-102754523D01*
X150483711Y-102737033D01*
X150324977Y-102721466D01*
X150166571Y-102724071D01*
G36*
X147821426Y-103641552D02*
X147669508Y-103661567D01*
X147534244Y-103695202D01*
X147414761Y-103742725D01*
X147310185Y-103804405D01*
X147232576Y-103867965D01*
X147163735Y-103942099D01*
X147109994Y-104021871D01*
X147067090Y-104114091D01*
X147051616Y-104157161D01*
X147038756Y-104196142D01*
X147027554Y-104232289D01*
X147017880Y-104267434D01*
X147009604Y-104303410D01*
X147002597Y-104342050D01*
X146996728Y-104385185D01*
X146991869Y-104434649D01*
X146987890Y-104492273D01*
X146984660Y-104559891D01*
X146982051Y-104639334D01*
X146979933Y-104732436D01*
X146978176Y-104841027D01*
X146976651Y-104966942D01*
X146975228Y-105112012D01*
X146973975Y-105254778D01*
X146972649Y-105410968D01*
X146971444Y-105546239D01*
X146970234Y-105662246D01*
X146968894Y-105760645D01*
X146967300Y-105843093D01*
X146965325Y-105911246D01*
X146962844Y-105966760D01*
X146959731Y-106011292D01*
X146955862Y-106046498D01*
X146951111Y-106074034D01*
X146945352Y-106095556D01*
X146938461Y-106112722D01*
X146930311Y-106127186D01*
X146920777Y-106140606D01*
X146909734Y-106154638D01*
X146905434Y-106160071D01*
X146889614Y-106182910D01*
X146882578Y-106198463D01*
X146882556Y-106198922D01*
X146893433Y-106201121D01*
X146924418Y-106203147D01*
X146973043Y-106204942D01*
X147036837Y-106206451D01*
X147113331Y-106207616D01*
X147200056Y-106208380D01*
X147294543Y-106208686D01*
X147305450Y-106208689D01*
X147728343Y-106208689D01*
X147731605Y-106112622D01*
X147734867Y-106016556D01*
X147796956Y-106067543D01*
X147894286Y-106135057D01*
X148004187Y-106189749D01*
X148090651Y-106219978D01*
X148159722Y-106234666D01*
X148243075Y-106244659D01*
X148332841Y-106249646D01*
X148421155Y-106249313D01*
X148500149Y-106243351D01*
X148536378Y-106237638D01*
X148676397Y-106199776D01*
X148802822Y-106144932D01*
X148914740Y-106073924D01*
X149011238Y-105987568D01*
X149091400Y-105886679D01*
X149154313Y-105772076D01*
X149198688Y-105645984D01*
X149211022Y-105589401D01*
X149218632Y-105527202D01*
X149222261Y-105452363D01*
X149222755Y-105418467D01*
X149222690Y-105415282D01*
X148462752Y-105415282D01*
X148453459Y-105490333D01*
X148425272Y-105554160D01*
X148376803Y-105609798D01*
X148371746Y-105614211D01*
X148323452Y-105649037D01*
X148271743Y-105671620D01*
X148211011Y-105683540D01*
X148135648Y-105686383D01*
X148117541Y-105685978D01*
X148063722Y-105683325D01*
X148023692Y-105677909D01*
X147988676Y-105667745D01*
X147949897Y-105650850D01*
X147939255Y-105645672D01*
X147878604Y-105609844D01*
X147831785Y-105567212D01*
X147819048Y-105551973D01*
X147774378Y-105495462D01*
X147774378Y-105299586D01*
X147774914Y-105220939D01*
X147776604Y-105162988D01*
X147779572Y-105123875D01*
X147783943Y-105101741D01*
X147788028Y-105095274D01*
X147803953Y-105092111D01*
X147837736Y-105089488D01*
X147884660Y-105087655D01*
X147940007Y-105086857D01*
X147948894Y-105086842D01*
X148069670Y-105092096D01*
X148172340Y-105108263D01*
X148258894Y-105135961D01*
X148331319Y-105175808D01*
X148386249Y-105222758D01*
X148430796Y-105280645D01*
X148455520Y-105343693D01*
X148462752Y-105415282D01*
X149222690Y-105415282D01*
X149220822Y-105324712D01*
X149212478Y-105245812D01*
X149196232Y-105174590D01*
X149170595Y-105103864D01*
X149146599Y-105051493D01*
X149087980Y-104956196D01*
X149009883Y-104868170D01*
X148914685Y-104789017D01*
X148804762Y-104720340D01*
X148682490Y-104663741D01*
X148550245Y-104620821D01*
X148485578Y-104605882D01*
X148349396Y-104583777D01*
X148200951Y-104569194D01*
X148049495Y-104562813D01*
X147922936Y-104564445D01*
X147761050Y-104571224D01*
X147768470Y-104512245D01*
X147787762Y-104413092D01*
X147818896Y-104332372D01*
X147862731Y-104269466D01*
X147920129Y-104223756D01*
X147991952Y-104194622D01*
X148079059Y-104181447D01*
X148182314Y-104183611D01*
X148220289Y-104187612D01*
X148361480Y-104212780D01*
X148498293Y-104253814D01*
X148592822Y-104291815D01*
X148637982Y-104311190D01*
X148676415Y-104326760D01*
X148702766Y-104336405D01*
X148710454Y-104338452D01*
X148720198Y-104329374D01*
X148736917Y-104300405D01*
X148760768Y-104251217D01*
X148791907Y-104181484D01*
X148830493Y-104090879D01*
X148837090Y-104075089D01*
X148867147Y-104002772D01*
X148894126Y-103937425D01*
X148916864Y-103881906D01*
X148934194Y-103839072D01*
X148944952Y-103811781D01*
X148948059Y-103802942D01*
X148938060Y-103798187D01*
X148911783Y-103792910D01*
X148883511Y-103789231D01*
X148853354Y-103784474D01*
X148805567Y-103775028D01*
X148744388Y-103761820D01*
X148674054Y-103745776D01*
X148598806Y-103727820D01*
X148570245Y-103720797D01*
X148465184Y-103695209D01*
X148377520Y-103675147D01*
X148302932Y-103659969D01*
X148237097Y-103649035D01*
X148175693Y-103641704D01*
X148114398Y-103637335D01*
X148048890Y-103635287D01*
X147990872Y-103634889D01*
X147821426Y-103641552D01*
X147821426Y-103641552D01*
G37*
X147821426Y-103641552D02*
X147669508Y-103661567D01*
X147534244Y-103695202D01*
X147414761Y-103742725D01*
X147310185Y-103804405D01*
X147232576Y-103867965D01*
X147163735Y-103942099D01*
X147109994Y-104021871D01*
X147067090Y-104114091D01*
X147051616Y-104157161D01*
X147038756Y-104196142D01*
X147027554Y-104232289D01*
X147017880Y-104267434D01*
X147009604Y-104303410D01*
X147002597Y-104342050D01*
X146996728Y-104385185D01*
X146991869Y-104434649D01*
X146987890Y-104492273D01*
X146984660Y-104559891D01*
X146982051Y-104639334D01*
X146979933Y-104732436D01*
X146978176Y-104841027D01*
X146976651Y-104966942D01*
X146975228Y-105112012D01*
X146973975Y-105254778D01*
X146972649Y-105410968D01*
X146971444Y-105546239D01*
X146970234Y-105662246D01*
X146968894Y-105760645D01*
X146967300Y-105843093D01*
X146965325Y-105911246D01*
X146962844Y-105966760D01*
X146959731Y-106011292D01*
X146955862Y-106046498D01*
X146951111Y-106074034D01*
X146945352Y-106095556D01*
X146938461Y-106112722D01*
X146930311Y-106127186D01*
X146920777Y-106140606D01*
X146909734Y-106154638D01*
X146905434Y-106160071D01*
X146889614Y-106182910D01*
X146882578Y-106198463D01*
X146882556Y-106198922D01*
X146893433Y-106201121D01*
X146924418Y-106203147D01*
X146973043Y-106204942D01*
X147036837Y-106206451D01*
X147113331Y-106207616D01*
X147200056Y-106208380D01*
X147294543Y-106208686D01*
X147305450Y-106208689D01*
X147728343Y-106208689D01*
X147731605Y-106112622D01*
X147734867Y-106016556D01*
X147796956Y-106067543D01*
X147894286Y-106135057D01*
X148004187Y-106189749D01*
X148090651Y-106219978D01*
X148159722Y-106234666D01*
X148243075Y-106244659D01*
X148332841Y-106249646D01*
X148421155Y-106249313D01*
X148500149Y-106243351D01*
X148536378Y-106237638D01*
X148676397Y-106199776D01*
X148802822Y-106144932D01*
X148914740Y-106073924D01*
X149011238Y-105987568D01*
X149091400Y-105886679D01*
X149154313Y-105772076D01*
X149198688Y-105645984D01*
X149211022Y-105589401D01*
X149218632Y-105527202D01*
X149222261Y-105452363D01*
X149222755Y-105418467D01*
X149222690Y-105415282D01*
X148462752Y-105415282D01*
X148453459Y-105490333D01*
X148425272Y-105554160D01*
X148376803Y-105609798D01*
X148371746Y-105614211D01*
X148323452Y-105649037D01*
X148271743Y-105671620D01*
X148211011Y-105683540D01*
X148135648Y-105686383D01*
X148117541Y-105685978D01*
X148063722Y-105683325D01*
X148023692Y-105677909D01*
X147988676Y-105667745D01*
X147949897Y-105650850D01*
X147939255Y-105645672D01*
X147878604Y-105609844D01*
X147831785Y-105567212D01*
X147819048Y-105551973D01*
X147774378Y-105495462D01*
X147774378Y-105299586D01*
X147774914Y-105220939D01*
X147776604Y-105162988D01*
X147779572Y-105123875D01*
X147783943Y-105101741D01*
X147788028Y-105095274D01*
X147803953Y-105092111D01*
X147837736Y-105089488D01*
X147884660Y-105087655D01*
X147940007Y-105086857D01*
X147948894Y-105086842D01*
X148069670Y-105092096D01*
X148172340Y-105108263D01*
X148258894Y-105135961D01*
X148331319Y-105175808D01*
X148386249Y-105222758D01*
X148430796Y-105280645D01*
X148455520Y-105343693D01*
X148462752Y-105415282D01*
X149222690Y-105415282D01*
X149220822Y-105324712D01*
X149212478Y-105245812D01*
X149196232Y-105174590D01*
X149170595Y-105103864D01*
X149146599Y-105051493D01*
X149087980Y-104956196D01*
X149009883Y-104868170D01*
X148914685Y-104789017D01*
X148804762Y-104720340D01*
X148682490Y-104663741D01*
X148550245Y-104620821D01*
X148485578Y-104605882D01*
X148349396Y-104583777D01*
X148200951Y-104569194D01*
X148049495Y-104562813D01*
X147922936Y-104564445D01*
X147761050Y-104571224D01*
X147768470Y-104512245D01*
X147787762Y-104413092D01*
X147818896Y-104332372D01*
X147862731Y-104269466D01*
X147920129Y-104223756D01*
X147991952Y-104194622D01*
X148079059Y-104181447D01*
X148182314Y-104183611D01*
X148220289Y-104187612D01*
X148361480Y-104212780D01*
X148498293Y-104253814D01*
X148592822Y-104291815D01*
X148637982Y-104311190D01*
X148676415Y-104326760D01*
X148702766Y-104336405D01*
X148710454Y-104338452D01*
X148720198Y-104329374D01*
X148736917Y-104300405D01*
X148760768Y-104251217D01*
X148791907Y-104181484D01*
X148830493Y-104090879D01*
X148837090Y-104075089D01*
X148867147Y-104002772D01*
X148894126Y-103937425D01*
X148916864Y-103881906D01*
X148934194Y-103839072D01*
X148944952Y-103811781D01*
X148948059Y-103802942D01*
X148938060Y-103798187D01*
X148911783Y-103792910D01*
X148883511Y-103789231D01*
X148853354Y-103784474D01*
X148805567Y-103775028D01*
X148744388Y-103761820D01*
X148674054Y-103745776D01*
X148598806Y-103727820D01*
X148570245Y-103720797D01*
X148465184Y-103695209D01*
X148377520Y-103675147D01*
X148302932Y-103659969D01*
X148237097Y-103649035D01*
X148175693Y-103641704D01*
X148114398Y-103637335D01*
X148048890Y-103635287D01*
X147990872Y-103634889D01*
X147821426Y-103641552D01*
G36*
X144308493Y-104247245D02*
X144308474Y-104481662D01*
X144308448Y-104694603D01*
X144308375Y-104887168D01*
X144308218Y-105060459D01*
X144307936Y-105215576D01*
X144307491Y-105353620D01*
X144306844Y-105475692D01*
X144305955Y-105582894D01*
X144304787Y-105676326D01*
X144303299Y-105757090D01*
X144301454Y-105826286D01*
X144299211Y-105885015D01*
X144296531Y-105934379D01*
X144293377Y-105975478D01*
X144289708Y-106009413D01*
X144285487Y-106037286D01*
X144280673Y-106060198D01*
X144275227Y-106079249D01*
X144269112Y-106095540D01*
X144262288Y-106110173D01*
X144254715Y-106124249D01*
X144246355Y-106138868D01*
X144241161Y-106147974D01*
X144206896Y-106208689D01*
X145065045Y-106208689D01*
X145065045Y-106112733D01*
X145065776Y-106069370D01*
X145067728Y-106036205D01*
X145070537Y-106018424D01*
X145071779Y-106016778D01*
X145083201Y-106023662D01*
X145105916Y-106041505D01*
X145128615Y-106060879D01*
X145183200Y-106101614D01*
X145252679Y-106142617D01*
X145329730Y-106180123D01*
X145407035Y-106210364D01*
X145437887Y-106220012D01*
X145506384Y-106234578D01*
X145589236Y-106244539D01*
X145678629Y-106249583D01*
X145766752Y-106249396D01*
X145845793Y-106243666D01*
X145883489Y-106237858D01*
X146021586Y-106199797D01*
X146148887Y-106142073D01*
X146264708Y-106065211D01*
X146368363Y-105969739D01*
X146459167Y-105856179D01*
X146525969Y-105745381D01*
X146580836Y-105628625D01*
X146622837Y-105509276D01*
X146652833Y-105383283D01*
X146671689Y-105246594D01*
X146680268Y-105095158D01*
X146680994Y-105017711D01*
X146678900Y-104960934D01*
X145849783Y-104960934D01*
X145849576Y-105054002D01*
X145846663Y-105141692D01*
X145841000Y-105218772D01*
X145832545Y-105280009D01*
X145829962Y-105292350D01*
X145798160Y-105399633D01*
X145756502Y-105486658D01*
X145704637Y-105553642D01*
X145642219Y-105600805D01*
X145568900Y-105628365D01*
X145484331Y-105636541D01*
X145388165Y-105625551D01*
X145324689Y-105609829D01*
X145275546Y-105591639D01*
X145221417Y-105565791D01*
X145180756Y-105542089D01*
X145110200Y-105495721D01*
X145110200Y-104345530D01*
X145177608Y-104301962D01*
X145256133Y-104261040D01*
X145340319Y-104234389D01*
X145425443Y-104222465D01*
X145506784Y-104225722D01*
X145579620Y-104244615D01*
X145611574Y-104260184D01*
X145669499Y-104303181D01*
X145718456Y-104359953D01*
X145759610Y-104432575D01*
X145794126Y-104523121D01*
X145823167Y-104633666D01*
X145824448Y-104639533D01*
X145834619Y-104701788D01*
X145842261Y-104779594D01*
X145847330Y-104867720D01*
X145849783Y-104960934D01*
X146678900Y-104960934D01*
X146673143Y-104804895D01*
X146651198Y-104609059D01*
X146615214Y-104430332D01*
X146565241Y-104268845D01*
X146501332Y-104124726D01*
X146423538Y-103998106D01*
X146331911Y-103889115D01*
X146226503Y-103797883D01*
X146181338Y-103766932D01*
X146080389Y-103710785D01*
X145977099Y-103671174D01*
X145867011Y-103647014D01*
X145745670Y-103637219D01*
X145653164Y-103638265D01*
X145523510Y-103649231D01*
X145410916Y-103671046D01*
X145312125Y-103704714D01*
X145223879Y-103751236D01*
X145175014Y-103785448D01*
X145145647Y-103807362D01*
X145123957Y-103822333D01*
X145115747Y-103826733D01*
X145114132Y-103815904D01*
X145112841Y-103785251D01*
X145111862Y-103737526D01*
X145111183Y-103675479D01*
X145110790Y-103601862D01*
X145110670Y-103519427D01*
X145110812Y-103430925D01*
X145111203Y-103339107D01*
X145111829Y-103246724D01*
X145112680Y-103156528D01*
X145113740Y-103071271D01*
X145114999Y-102993703D01*
X145116444Y-102926576D01*
X145118062Y-102872641D01*
X145119839Y-102834650D01*
X145120331Y-102827667D01*
X145127908Y-102757251D01*
X145139469Y-102702102D01*
X145157208Y-102654981D01*
X145183318Y-102608647D01*
X145189585Y-102599067D01*
X145214017Y-102562378D01*
X144308689Y-102562378D01*
X144308493Y-104247245D01*
X144308493Y-104247245D01*
G37*
X144308493Y-104247245D02*
X144308474Y-104481662D01*
X144308448Y-104694603D01*
X144308375Y-104887168D01*
X144308218Y-105060459D01*
X144307936Y-105215576D01*
X144307491Y-105353620D01*
X144306844Y-105475692D01*
X144305955Y-105582894D01*
X144304787Y-105676326D01*
X144303299Y-105757090D01*
X144301454Y-105826286D01*
X144299211Y-105885015D01*
X144296531Y-105934379D01*
X144293377Y-105975478D01*
X144289708Y-106009413D01*
X144285487Y-106037286D01*
X144280673Y-106060198D01*
X144275227Y-106079249D01*
X144269112Y-106095540D01*
X144262288Y-106110173D01*
X144254715Y-106124249D01*
X144246355Y-106138868D01*
X144241161Y-106147974D01*
X144206896Y-106208689D01*
X145065045Y-106208689D01*
X145065045Y-106112733D01*
X145065776Y-106069370D01*
X145067728Y-106036205D01*
X145070537Y-106018424D01*
X145071779Y-106016778D01*
X145083201Y-106023662D01*
X145105916Y-106041505D01*
X145128615Y-106060879D01*
X145183200Y-106101614D01*
X145252679Y-106142617D01*
X145329730Y-106180123D01*
X145407035Y-106210364D01*
X145437887Y-106220012D01*
X145506384Y-106234578D01*
X145589236Y-106244539D01*
X145678629Y-106249583D01*
X145766752Y-106249396D01*
X145845793Y-106243666D01*
X145883489Y-106237858D01*
X146021586Y-106199797D01*
X146148887Y-106142073D01*
X146264708Y-106065211D01*
X146368363Y-105969739D01*
X146459167Y-105856179D01*
X146525969Y-105745381D01*
X146580836Y-105628625D01*
X146622837Y-105509276D01*
X146652833Y-105383283D01*
X146671689Y-105246594D01*
X146680268Y-105095158D01*
X146680994Y-105017711D01*
X146678900Y-104960934D01*
X145849783Y-104960934D01*
X145849576Y-105054002D01*
X145846663Y-105141692D01*
X145841000Y-105218772D01*
X145832545Y-105280009D01*
X145829962Y-105292350D01*
X145798160Y-105399633D01*
X145756502Y-105486658D01*
X145704637Y-105553642D01*
X145642219Y-105600805D01*
X145568900Y-105628365D01*
X145484331Y-105636541D01*
X145388165Y-105625551D01*
X145324689Y-105609829D01*
X145275546Y-105591639D01*
X145221417Y-105565791D01*
X145180756Y-105542089D01*
X145110200Y-105495721D01*
X145110200Y-104345530D01*
X145177608Y-104301962D01*
X145256133Y-104261040D01*
X145340319Y-104234389D01*
X145425443Y-104222465D01*
X145506784Y-104225722D01*
X145579620Y-104244615D01*
X145611574Y-104260184D01*
X145669499Y-104303181D01*
X145718456Y-104359953D01*
X145759610Y-104432575D01*
X145794126Y-104523121D01*
X145823167Y-104633666D01*
X145824448Y-104639533D01*
X145834619Y-104701788D01*
X145842261Y-104779594D01*
X145847330Y-104867720D01*
X145849783Y-104960934D01*
X146678900Y-104960934D01*
X146673143Y-104804895D01*
X146651198Y-104609059D01*
X146615214Y-104430332D01*
X146565241Y-104268845D01*
X146501332Y-104124726D01*
X146423538Y-103998106D01*
X146331911Y-103889115D01*
X146226503Y-103797883D01*
X146181338Y-103766932D01*
X146080389Y-103710785D01*
X145977099Y-103671174D01*
X145867011Y-103647014D01*
X145745670Y-103637219D01*
X145653164Y-103638265D01*
X145523510Y-103649231D01*
X145410916Y-103671046D01*
X145312125Y-103704714D01*
X145223879Y-103751236D01*
X145175014Y-103785448D01*
X145145647Y-103807362D01*
X145123957Y-103822333D01*
X145115747Y-103826733D01*
X145114132Y-103815904D01*
X145112841Y-103785251D01*
X145111862Y-103737526D01*
X145111183Y-103675479D01*
X145110790Y-103601862D01*
X145110670Y-103519427D01*
X145110812Y-103430925D01*
X145111203Y-103339107D01*
X145111829Y-103246724D01*
X145112680Y-103156528D01*
X145113740Y-103071271D01*
X145114999Y-102993703D01*
X145116444Y-102926576D01*
X145118062Y-102872641D01*
X145119839Y-102834650D01*
X145120331Y-102827667D01*
X145127908Y-102757251D01*
X145139469Y-102702102D01*
X145157208Y-102654981D01*
X145183318Y-102608647D01*
X145189585Y-102599067D01*
X145214017Y-102562378D01*
X144308689Y-102562378D01*
X144308493Y-104247245D01*
G36*
X152768043Y-101801571D02*
X152671768Y-101825809D01*
X152585184Y-101868641D01*
X152510373Y-101928419D01*
X152449418Y-102003494D01*
X152404399Y-102092220D01*
X152378136Y-102188530D01*
X152372286Y-102285795D01*
X152387140Y-102379654D01*
X152420840Y-102467511D01*
X152471528Y-102546770D01*
X152537345Y-102614836D01*
X152616434Y-102669112D01*
X152706934Y-102707002D01*
X152758200Y-102719426D01*
X152802698Y-102726947D01*
X152836999Y-102729919D01*
X152869960Y-102728094D01*
X152910434Y-102721225D01*
X152943531Y-102714250D01*
X153036947Y-102682741D01*
X153120619Y-102631617D01*
X153192665Y-102562429D01*
X153251200Y-102476728D01*
X153265148Y-102449489D01*
X153281586Y-102413122D01*
X153291894Y-102382582D01*
X153297460Y-102350450D01*
X153299669Y-102309307D01*
X153299948Y-102263222D01*
X153295861Y-102178865D01*
X153282446Y-102109586D01*
X153257256Y-102048961D01*
X153217846Y-101990567D01*
X153179298Y-101946302D01*
X153107406Y-101880484D01*
X153032313Y-101835053D01*
X152949562Y-101807850D01*
X152871928Y-101797576D01*
X152768043Y-101801571D01*
X152768043Y-101801571D01*
G37*
X152768043Y-101801571D02*
X152671768Y-101825809D01*
X152585184Y-101868641D01*
X152510373Y-101928419D01*
X152449418Y-102003494D01*
X152404399Y-102092220D01*
X152378136Y-102188530D01*
X152372286Y-102285795D01*
X152387140Y-102379654D01*
X152420840Y-102467511D01*
X152471528Y-102546770D01*
X152537345Y-102614836D01*
X152616434Y-102669112D01*
X152706934Y-102707002D01*
X152758200Y-102719426D01*
X152802698Y-102726947D01*
X152836999Y-102729919D01*
X152869960Y-102728094D01*
X152910434Y-102721225D01*
X152943531Y-102714250D01*
X153036947Y-102682741D01*
X153120619Y-102631617D01*
X153192665Y-102562429D01*
X153251200Y-102476728D01*
X153265148Y-102449489D01*
X153281586Y-102413122D01*
X153291894Y-102382582D01*
X153297460Y-102350450D01*
X153299669Y-102309307D01*
X153299948Y-102263222D01*
X153295861Y-102178865D01*
X153282446Y-102109586D01*
X153257256Y-102048961D01*
X153217846Y-101990567D01*
X153179298Y-101946302D01*
X153107406Y-101880484D01*
X153032313Y-101835053D01*
X152949562Y-101807850D01*
X152871928Y-101797576D01*
X152768043Y-101801571D01*
G36*
X137216114Y-114979505D02*
X137141461Y-115016727D01*
X137075569Y-115085261D01*
X137057423Y-115110648D01*
X137037655Y-115143866D01*
X137024828Y-115179945D01*
X137017490Y-115228098D01*
X137014187Y-115297536D01*
X137013462Y-115389206D01*
X137016737Y-115514830D01*
X137028123Y-115609154D01*
X137049959Y-115679523D01*
X137084581Y-115733286D01*
X137134330Y-115777788D01*
X137137986Y-115780423D01*
X137187015Y-115807377D01*
X137246055Y-115820712D01*
X137321141Y-115824000D01*
X137443205Y-115824000D01*
X137443256Y-115942497D01*
X137444392Y-116008492D01*
X137451314Y-116047202D01*
X137469402Y-116070419D01*
X137504038Y-116089933D01*
X137512355Y-116093920D01*
X137551280Y-116112603D01*
X137581417Y-116124403D01*
X137603826Y-116125422D01*
X137619567Y-116111761D01*
X137629698Y-116079522D01*
X137635277Y-116024804D01*
X137637365Y-115943711D01*
X137637019Y-115832344D01*
X137635300Y-115686802D01*
X137634763Y-115643269D01*
X137632828Y-115493205D01*
X137631096Y-115395042D01*
X137443308Y-115395042D01*
X137442252Y-115478364D01*
X137437562Y-115532880D01*
X137426949Y-115568837D01*
X137408128Y-115596482D01*
X137395350Y-115609965D01*
X137343110Y-115649417D01*
X137296858Y-115652628D01*
X137249133Y-115620049D01*
X137247923Y-115618846D01*
X137228506Y-115593668D01*
X137216693Y-115559447D01*
X137210735Y-115506748D01*
X137208880Y-115426131D01*
X137208846Y-115408271D01*
X137213330Y-115297175D01*
X137227926Y-115220161D01*
X137254350Y-115173147D01*
X137294317Y-115152050D01*
X137317416Y-115149923D01*
X137372238Y-115159900D01*
X137409842Y-115192752D01*
X137432477Y-115252857D01*
X137442394Y-115344598D01*
X137443308Y-115395042D01*
X137631096Y-115395042D01*
X137630778Y-115377060D01*
X137628127Y-115289679D01*
X137624394Y-115225905D01*
X137619093Y-115180582D01*
X137611742Y-115148555D01*
X137601857Y-115124668D01*
X137588954Y-115103764D01*
X137583421Y-115095898D01*
X137510031Y-115021595D01*
X137417240Y-114979467D01*
X137309904Y-114967722D01*
X137216114Y-114979505D01*
X137216114Y-114979505D01*
G37*
X137216114Y-114979505D02*
X137141461Y-115016727D01*
X137075569Y-115085261D01*
X137057423Y-115110648D01*
X137037655Y-115143866D01*
X137024828Y-115179945D01*
X137017490Y-115228098D01*
X137014187Y-115297536D01*
X137013462Y-115389206D01*
X137016737Y-115514830D01*
X137028123Y-115609154D01*
X137049959Y-115679523D01*
X137084581Y-115733286D01*
X137134330Y-115777788D01*
X137137986Y-115780423D01*
X137187015Y-115807377D01*
X137246055Y-115820712D01*
X137321141Y-115824000D01*
X137443205Y-115824000D01*
X137443256Y-115942497D01*
X137444392Y-116008492D01*
X137451314Y-116047202D01*
X137469402Y-116070419D01*
X137504038Y-116089933D01*
X137512355Y-116093920D01*
X137551280Y-116112603D01*
X137581417Y-116124403D01*
X137603826Y-116125422D01*
X137619567Y-116111761D01*
X137629698Y-116079522D01*
X137635277Y-116024804D01*
X137637365Y-115943711D01*
X137637019Y-115832344D01*
X137635300Y-115686802D01*
X137634763Y-115643269D01*
X137632828Y-115493205D01*
X137631096Y-115395042D01*
X137443308Y-115395042D01*
X137442252Y-115478364D01*
X137437562Y-115532880D01*
X137426949Y-115568837D01*
X137408128Y-115596482D01*
X137395350Y-115609965D01*
X137343110Y-115649417D01*
X137296858Y-115652628D01*
X137249133Y-115620049D01*
X137247923Y-115618846D01*
X137228506Y-115593668D01*
X137216693Y-115559447D01*
X137210735Y-115506748D01*
X137208880Y-115426131D01*
X137208846Y-115408271D01*
X137213330Y-115297175D01*
X137227926Y-115220161D01*
X137254350Y-115173147D01*
X137294317Y-115152050D01*
X137317416Y-115149923D01*
X137372238Y-115159900D01*
X137409842Y-115192752D01*
X137432477Y-115252857D01*
X137442394Y-115344598D01*
X137443308Y-115395042D01*
X137631096Y-115395042D01*
X137630778Y-115377060D01*
X137628127Y-115289679D01*
X137624394Y-115225905D01*
X137619093Y-115180582D01*
X137611742Y-115148555D01*
X137601857Y-115124668D01*
X137588954Y-115103764D01*
X137583421Y-115095898D01*
X137510031Y-115021595D01*
X137417240Y-114979467D01*
X137309904Y-114967722D01*
X137216114Y-114979505D01*
G36*
X135713336Y-114990089D02*
X135650633Y-115026358D01*
X135607039Y-115062358D01*
X135575155Y-115100075D01*
X135553190Y-115146199D01*
X135539351Y-115207421D01*
X135531847Y-115290431D01*
X135528883Y-115401919D01*
X135528539Y-115482062D01*
X135528539Y-115777065D01*
X135694615Y-115851515D01*
X135704385Y-115528402D01*
X135708421Y-115407729D01*
X135712656Y-115320141D01*
X135717903Y-115259650D01*
X135724975Y-115220268D01*
X135734689Y-115196007D01*
X135747856Y-115180880D01*
X135752081Y-115177606D01*
X135816091Y-115152034D01*
X135880792Y-115162153D01*
X135919308Y-115189000D01*
X135934975Y-115208024D01*
X135945820Y-115232988D01*
X135952712Y-115270834D01*
X135956521Y-115328502D01*
X135958117Y-115412935D01*
X135958385Y-115500928D01*
X135958437Y-115611323D01*
X135960328Y-115689463D01*
X135966655Y-115742165D01*
X135980017Y-115776242D01*
X136003015Y-115798511D01*
X136038246Y-115815787D01*
X136085303Y-115833738D01*
X136136697Y-115853278D01*
X136130579Y-115506485D01*
X136128116Y-115381468D01*
X136125233Y-115289082D01*
X136121102Y-115222881D01*
X136114893Y-115176420D01*
X136105774Y-115143256D01*
X136092917Y-115116944D01*
X136077416Y-115093729D01*
X136002629Y-115019569D01*
X135911372Y-114976684D01*
X135812117Y-114966412D01*
X135713336Y-114990089D01*
X135713336Y-114990089D01*
G37*
X135713336Y-114990089D02*
X135650633Y-115026358D01*
X135607039Y-115062358D01*
X135575155Y-115100075D01*
X135553190Y-115146199D01*
X135539351Y-115207421D01*
X135531847Y-115290431D01*
X135528883Y-115401919D01*
X135528539Y-115482062D01*
X135528539Y-115777065D01*
X135694615Y-115851515D01*
X135704385Y-115528402D01*
X135708421Y-115407729D01*
X135712656Y-115320141D01*
X135717903Y-115259650D01*
X135724975Y-115220268D01*
X135734689Y-115196007D01*
X135747856Y-115180880D01*
X135752081Y-115177606D01*
X135816091Y-115152034D01*
X135880792Y-115162153D01*
X135919308Y-115189000D01*
X135934975Y-115208024D01*
X135945820Y-115232988D01*
X135952712Y-115270834D01*
X135956521Y-115328502D01*
X135958117Y-115412935D01*
X135958385Y-115500928D01*
X135958437Y-115611323D01*
X135960328Y-115689463D01*
X135966655Y-115742165D01*
X135980017Y-115776242D01*
X136003015Y-115798511D01*
X136038246Y-115815787D01*
X136085303Y-115833738D01*
X136136697Y-115853278D01*
X136130579Y-115506485D01*
X136128116Y-115381468D01*
X136125233Y-115289082D01*
X136121102Y-115222881D01*
X136114893Y-115176420D01*
X136105774Y-115143256D01*
X136092917Y-115116944D01*
X136077416Y-115093729D01*
X136002629Y-115019569D01*
X135911372Y-114976684D01*
X135812117Y-114966412D01*
X135713336Y-114990089D01*
G36*
X137968114Y-114982256D02*
X137876536Y-115030409D01*
X137808951Y-115107905D01*
X137784943Y-115157727D01*
X137766262Y-115232533D01*
X137756699Y-115327052D01*
X137755792Y-115430210D01*
X137763079Y-115530935D01*
X137778097Y-115618153D01*
X137800385Y-115680791D01*
X137807235Y-115691579D01*
X137888368Y-115772105D01*
X137984734Y-115820336D01*
X138089299Y-115834450D01*
X138195032Y-115812629D01*
X138224457Y-115799547D01*
X138281759Y-115759231D01*
X138332050Y-115705775D01*
X138336803Y-115698995D01*
X138356122Y-115666321D01*
X138368892Y-115631394D01*
X138376436Y-115585414D01*
X138380076Y-115519584D01*
X138381135Y-115425105D01*
X138381154Y-115403923D01*
X138381106Y-115397182D01*
X138185769Y-115397182D01*
X138184632Y-115486349D01*
X138180159Y-115545520D01*
X138170754Y-115583741D01*
X138154824Y-115610053D01*
X138146692Y-115618846D01*
X138099942Y-115652261D01*
X138054553Y-115650737D01*
X138008660Y-115621752D01*
X137981288Y-115590809D01*
X137965077Y-115545643D01*
X137955974Y-115474420D01*
X137955349Y-115466114D01*
X137953796Y-115337037D01*
X137970035Y-115241172D01*
X138003848Y-115179107D01*
X138055016Y-115151432D01*
X138073280Y-115149923D01*
X138121240Y-115157513D01*
X138154047Y-115183808D01*
X138174105Y-115234095D01*
X138183822Y-115313664D01*
X138185769Y-115397182D01*
X138381106Y-115397182D01*
X138380426Y-115303249D01*
X138377371Y-115232906D01*
X138370678Y-115184163D01*
X138359040Y-115148288D01*
X138341147Y-115116548D01*
X138337192Y-115110648D01*
X138270733Y-115031104D01*
X138198315Y-114984929D01*
X138110151Y-114966599D01*
X138080213Y-114965703D01*
X137968114Y-114982256D01*
X137968114Y-114982256D01*
G37*
X137968114Y-114982256D02*
X137876536Y-115030409D01*
X137808951Y-115107905D01*
X137784943Y-115157727D01*
X137766262Y-115232533D01*
X137756699Y-115327052D01*
X137755792Y-115430210D01*
X137763079Y-115530935D01*
X137778097Y-115618153D01*
X137800385Y-115680791D01*
X137807235Y-115691579D01*
X137888368Y-115772105D01*
X137984734Y-115820336D01*
X138089299Y-115834450D01*
X138195032Y-115812629D01*
X138224457Y-115799547D01*
X138281759Y-115759231D01*
X138332050Y-115705775D01*
X138336803Y-115698995D01*
X138356122Y-115666321D01*
X138368892Y-115631394D01*
X138376436Y-115585414D01*
X138380076Y-115519584D01*
X138381135Y-115425105D01*
X138381154Y-115403923D01*
X138381106Y-115397182D01*
X138185769Y-115397182D01*
X138184632Y-115486349D01*
X138180159Y-115545520D01*
X138170754Y-115583741D01*
X138154824Y-115610053D01*
X138146692Y-115618846D01*
X138099942Y-115652261D01*
X138054553Y-115650737D01*
X138008660Y-115621752D01*
X137981288Y-115590809D01*
X137965077Y-115545643D01*
X137955974Y-115474420D01*
X137955349Y-115466114D01*
X137953796Y-115337037D01*
X137970035Y-115241172D01*
X138003848Y-115179107D01*
X138055016Y-115151432D01*
X138073280Y-115149923D01*
X138121240Y-115157513D01*
X138154047Y-115183808D01*
X138174105Y-115234095D01*
X138183822Y-115313664D01*
X138185769Y-115397182D01*
X138381106Y-115397182D01*
X138380426Y-115303249D01*
X138377371Y-115232906D01*
X138370678Y-115184163D01*
X138359040Y-115148288D01*
X138341147Y-115116548D01*
X138337192Y-115110648D01*
X138270733Y-115031104D01*
X138198315Y-114984929D01*
X138110151Y-114966599D01*
X138080213Y-114965703D01*
X137968114Y-114982256D01*
G36*
X136450746Y-114994745D02*
X136373714Y-115046567D01*
X136314184Y-115121412D01*
X136278622Y-115216654D01*
X136271429Y-115286756D01*
X136272246Y-115316009D01*
X136279086Y-115338407D01*
X136297888Y-115358474D01*
X136334592Y-115380733D01*
X136395138Y-115409709D01*
X136485466Y-115449927D01*
X136485923Y-115450129D01*
X136569067Y-115488210D01*
X136637247Y-115522025D01*
X136683495Y-115547933D01*
X136700842Y-115562295D01*
X136700846Y-115562411D01*
X136685557Y-115593685D01*
X136649804Y-115628157D01*
X136608758Y-115652990D01*
X136587963Y-115657923D01*
X136531230Y-115640862D01*
X136482373Y-115598133D01*
X136458535Y-115551155D01*
X136435603Y-115516522D01*
X136390682Y-115477081D01*
X136337877Y-115443009D01*
X136291290Y-115424480D01*
X136281548Y-115423462D01*
X136270582Y-115440215D01*
X136269921Y-115483039D01*
X136277980Y-115540781D01*
X136293173Y-115602289D01*
X136313914Y-115656409D01*
X136314962Y-115658510D01*
X136377379Y-115745660D01*
X136458274Y-115804939D01*
X136550144Y-115834034D01*
X136645487Y-115830634D01*
X136736802Y-115792428D01*
X136740862Y-115789741D01*
X136812694Y-115724642D01*
X136859927Y-115639705D01*
X136886066Y-115528021D01*
X136889574Y-115496643D01*
X136895787Y-115348536D01*
X136888339Y-115279468D01*
X136700846Y-115279468D01*
X136698410Y-115322552D01*
X136685086Y-115335126D01*
X136651868Y-115325719D01*
X136599506Y-115303483D01*
X136540976Y-115275610D01*
X136539521Y-115274872D01*
X136489911Y-115248777D01*
X136470000Y-115231363D01*
X136474910Y-115213107D01*
X136495584Y-115189120D01*
X136548181Y-115154406D01*
X136604823Y-115151856D01*
X136655631Y-115177119D01*
X136690724Y-115225847D01*
X136700846Y-115279468D01*
X136888339Y-115279468D01*
X136883008Y-115230036D01*
X136850222Y-115136055D01*
X136804579Y-115070215D01*
X136722198Y-115003681D01*
X136631454Y-114970676D01*
X136538815Y-114968573D01*
X136450746Y-114994745D01*
X136450746Y-114994745D01*
G37*
X136450746Y-114994745D02*
X136373714Y-115046567D01*
X136314184Y-115121412D01*
X136278622Y-115216654D01*
X136271429Y-115286756D01*
X136272246Y-115316009D01*
X136279086Y-115338407D01*
X136297888Y-115358474D01*
X136334592Y-115380733D01*
X136395138Y-115409709D01*
X136485466Y-115449927D01*
X136485923Y-115450129D01*
X136569067Y-115488210D01*
X136637247Y-115522025D01*
X136683495Y-115547933D01*
X136700842Y-115562295D01*
X136700846Y-115562411D01*
X136685557Y-115593685D01*
X136649804Y-115628157D01*
X136608758Y-115652990D01*
X136587963Y-115657923D01*
X136531230Y-115640862D01*
X136482373Y-115598133D01*
X136458535Y-115551155D01*
X136435603Y-115516522D01*
X136390682Y-115477081D01*
X136337877Y-115443009D01*
X136291290Y-115424480D01*
X136281548Y-115423462D01*
X136270582Y-115440215D01*
X136269921Y-115483039D01*
X136277980Y-115540781D01*
X136293173Y-115602289D01*
X136313914Y-115656409D01*
X136314962Y-115658510D01*
X136377379Y-115745660D01*
X136458274Y-115804939D01*
X136550144Y-115834034D01*
X136645487Y-115830634D01*
X136736802Y-115792428D01*
X136740862Y-115789741D01*
X136812694Y-115724642D01*
X136859927Y-115639705D01*
X136886066Y-115528021D01*
X136889574Y-115496643D01*
X136895787Y-115348536D01*
X136888339Y-115279468D01*
X136700846Y-115279468D01*
X136698410Y-115322552D01*
X136685086Y-115335126D01*
X136651868Y-115325719D01*
X136599506Y-115303483D01*
X136540976Y-115275610D01*
X136539521Y-115274872D01*
X136489911Y-115248777D01*
X136470000Y-115231363D01*
X136474910Y-115213107D01*
X136495584Y-115189120D01*
X136548181Y-115154406D01*
X136604823Y-115151856D01*
X136655631Y-115177119D01*
X136690724Y-115225847D01*
X136700846Y-115279468D01*
X136888339Y-115279468D01*
X136883008Y-115230036D01*
X136850222Y-115136055D01*
X136804579Y-115070215D01*
X136722198Y-115003681D01*
X136631454Y-114970676D01*
X136538815Y-114968573D01*
X136450746Y-114994745D01*
G36*
X134825154Y-114887120D02*
X134819428Y-114966980D01*
X134812851Y-115014039D01*
X134803738Y-115034566D01*
X134790402Y-115034829D01*
X134786077Y-115032378D01*
X134728556Y-115014636D01*
X134653732Y-115015672D01*
X134577661Y-115033910D01*
X134530082Y-115057505D01*
X134481298Y-115095198D01*
X134445636Y-115137855D01*
X134421155Y-115192057D01*
X134405913Y-115264384D01*
X134397970Y-115361419D01*
X134395384Y-115489742D01*
X134395338Y-115514358D01*
X134395308Y-115790870D01*
X134456839Y-115812320D01*
X134500541Y-115826912D01*
X134524518Y-115833706D01*
X134525223Y-115833769D01*
X134527585Y-115815345D01*
X134529594Y-115764526D01*
X134531099Y-115687993D01*
X134531947Y-115592430D01*
X134532077Y-115534329D01*
X134532349Y-115419771D01*
X134533748Y-115337667D01*
X134537151Y-115281393D01*
X134543433Y-115244326D01*
X134553471Y-115219844D01*
X134568139Y-115201325D01*
X134577298Y-115192406D01*
X134640211Y-115156466D01*
X134708864Y-115153775D01*
X134771152Y-115184170D01*
X134782671Y-115195144D01*
X134799567Y-115215779D01*
X134811286Y-115240256D01*
X134818767Y-115275647D01*
X134822946Y-115329026D01*
X134824763Y-115407466D01*
X134825154Y-115515617D01*
X134825154Y-115790870D01*
X134886685Y-115812320D01*
X134930387Y-115826912D01*
X134954364Y-115833706D01*
X134955070Y-115833769D01*
X134956874Y-115815069D01*
X134958500Y-115762322D01*
X134959883Y-115680557D01*
X134960958Y-115574805D01*
X134961660Y-115450094D01*
X134961923Y-115311455D01*
X134961923Y-114776806D01*
X134834923Y-114723236D01*
X134825154Y-114887120D01*
X134825154Y-114887120D01*
G37*
X134825154Y-114887120D02*
X134819428Y-114966980D01*
X134812851Y-115014039D01*
X134803738Y-115034566D01*
X134790402Y-115034829D01*
X134786077Y-115032378D01*
X134728556Y-115014636D01*
X134653732Y-115015672D01*
X134577661Y-115033910D01*
X134530082Y-115057505D01*
X134481298Y-115095198D01*
X134445636Y-115137855D01*
X134421155Y-115192057D01*
X134405913Y-115264384D01*
X134397970Y-115361419D01*
X134395384Y-115489742D01*
X134395338Y-115514358D01*
X134395308Y-115790870D01*
X134456839Y-115812320D01*
X134500541Y-115826912D01*
X134524518Y-115833706D01*
X134525223Y-115833769D01*
X134527585Y-115815345D01*
X134529594Y-115764526D01*
X134531099Y-115687993D01*
X134531947Y-115592430D01*
X134532077Y-115534329D01*
X134532349Y-115419771D01*
X134533748Y-115337667D01*
X134537151Y-115281393D01*
X134543433Y-115244326D01*
X134553471Y-115219844D01*
X134568139Y-115201325D01*
X134577298Y-115192406D01*
X134640211Y-115156466D01*
X134708864Y-115153775D01*
X134771152Y-115184170D01*
X134782671Y-115195144D01*
X134799567Y-115215779D01*
X134811286Y-115240256D01*
X134818767Y-115275647D01*
X134822946Y-115329026D01*
X134824763Y-115407466D01*
X134825154Y-115515617D01*
X134825154Y-115790870D01*
X134886685Y-115812320D01*
X134930387Y-115826912D01*
X134954364Y-115833706D01*
X134955070Y-115833769D01*
X134956874Y-115815069D01*
X134958500Y-115762322D01*
X134959883Y-115680557D01*
X134960958Y-115574805D01*
X134961660Y-115450094D01*
X134961923Y-115311455D01*
X134961923Y-114776806D01*
X134834923Y-114723236D01*
X134825154Y-114887120D01*
G36*
X133931499Y-115021303D02*
X133854940Y-115049733D01*
X133854064Y-115050279D01*
X133806715Y-115085127D01*
X133771759Y-115125852D01*
X133747175Y-115178925D01*
X133730938Y-115250814D01*
X133721025Y-115347992D01*
X133715414Y-115476928D01*
X133714923Y-115495298D01*
X133707859Y-115772287D01*
X133767305Y-115803028D01*
X133810319Y-115823802D01*
X133836290Y-115833646D01*
X133837491Y-115833769D01*
X133841986Y-115815606D01*
X133845556Y-115766612D01*
X133847752Y-115695031D01*
X133848231Y-115637068D01*
X133848242Y-115543170D01*
X133852534Y-115484203D01*
X133867497Y-115456079D01*
X133899518Y-115454706D01*
X133954986Y-115475998D01*
X134038731Y-115515136D01*
X134100311Y-115547643D01*
X134131983Y-115575845D01*
X134141294Y-115606582D01*
X134141308Y-115608104D01*
X134125943Y-115661054D01*
X134080453Y-115689660D01*
X134010834Y-115693803D01*
X133960687Y-115693084D01*
X133934246Y-115707527D01*
X133917757Y-115742218D01*
X133908267Y-115786416D01*
X133921943Y-115811493D01*
X133927093Y-115815082D01*
X133975575Y-115829496D01*
X134043469Y-115831537D01*
X134113388Y-115821983D01*
X134162932Y-115804522D01*
X134231430Y-115746364D01*
X134270366Y-115665408D01*
X134278077Y-115602160D01*
X134272193Y-115545111D01*
X134250899Y-115498542D01*
X134208735Y-115457181D01*
X134140241Y-115415755D01*
X134039956Y-115368993D01*
X134033846Y-115366350D01*
X133943510Y-115324617D01*
X133887765Y-115290391D01*
X133863871Y-115259635D01*
X133869087Y-115228311D01*
X133900672Y-115192383D01*
X133910117Y-115184116D01*
X133973383Y-115152058D01*
X134038936Y-115153407D01*
X134096028Y-115184838D01*
X134133907Y-115243024D01*
X134137426Y-115254446D01*
X134171700Y-115309837D01*
X134215191Y-115336518D01*
X134278077Y-115362960D01*
X134278077Y-115294548D01*
X134258948Y-115195110D01*
X134202169Y-115103902D01*
X134172622Y-115073389D01*
X134105458Y-115034228D01*
X134020044Y-115016500D01*
X133931499Y-115021303D01*
X133931499Y-115021303D01*
G37*
X133931499Y-115021303D02*
X133854940Y-115049733D01*
X133854064Y-115050279D01*
X133806715Y-115085127D01*
X133771759Y-115125852D01*
X133747175Y-115178925D01*
X133730938Y-115250814D01*
X133721025Y-115347992D01*
X133715414Y-115476928D01*
X133714923Y-115495298D01*
X133707859Y-115772287D01*
X133767305Y-115803028D01*
X133810319Y-115823802D01*
X133836290Y-115833646D01*
X133837491Y-115833769D01*
X133841986Y-115815606D01*
X133845556Y-115766612D01*
X133847752Y-115695031D01*
X133848231Y-115637068D01*
X133848242Y-115543170D01*
X133852534Y-115484203D01*
X133867497Y-115456079D01*
X133899518Y-115454706D01*
X133954986Y-115475998D01*
X134038731Y-115515136D01*
X134100311Y-115547643D01*
X134131983Y-115575845D01*
X134141294Y-115606582D01*
X134141308Y-115608104D01*
X134125943Y-115661054D01*
X134080453Y-115689660D01*
X134010834Y-115693803D01*
X133960687Y-115693084D01*
X133934246Y-115707527D01*
X133917757Y-115742218D01*
X133908267Y-115786416D01*
X133921943Y-115811493D01*
X133927093Y-115815082D01*
X133975575Y-115829496D01*
X134043469Y-115831537D01*
X134113388Y-115821983D01*
X134162932Y-115804522D01*
X134231430Y-115746364D01*
X134270366Y-115665408D01*
X134278077Y-115602160D01*
X134272193Y-115545111D01*
X134250899Y-115498542D01*
X134208735Y-115457181D01*
X134140241Y-115415755D01*
X134039956Y-115368993D01*
X134033846Y-115366350D01*
X133943510Y-115324617D01*
X133887765Y-115290391D01*
X133863871Y-115259635D01*
X133869087Y-115228311D01*
X133900672Y-115192383D01*
X133910117Y-115184116D01*
X133973383Y-115152058D01*
X134038936Y-115153407D01*
X134096028Y-115184838D01*
X134133907Y-115243024D01*
X134137426Y-115254446D01*
X134171700Y-115309837D01*
X134215191Y-115336518D01*
X134278077Y-115362960D01*
X134278077Y-115294548D01*
X134258948Y-115195110D01*
X134202169Y-115103902D01*
X134172622Y-115073389D01*
X134105458Y-115034228D01*
X134020044Y-115016500D01*
X133931499Y-115021303D01*
G36*
X133271638Y-115019670D02*
X133182883Y-115052421D01*
X133110978Y-115110350D01*
X133082856Y-115151128D01*
X133052198Y-115225954D01*
X133052835Y-115280058D01*
X133085013Y-115316446D01*
X133096919Y-115322633D01*
X133148325Y-115341925D01*
X133174578Y-115336982D01*
X133183470Y-115304587D01*
X133183923Y-115286692D01*
X133200203Y-115220859D01*
X133242635Y-115174807D01*
X133301612Y-115152564D01*
X133367525Y-115158161D01*
X133421105Y-115187229D01*
X133439202Y-115203810D01*
X133452029Y-115223925D01*
X133460694Y-115254332D01*
X133466304Y-115301788D01*
X133469965Y-115373050D01*
X133472785Y-115474875D01*
X133473516Y-115507115D01*
X133476180Y-115617410D01*
X133479208Y-115695036D01*
X133483750Y-115746396D01*
X133490954Y-115777890D01*
X133501967Y-115795920D01*
X133517940Y-115806888D01*
X133528166Y-115811733D01*
X133571594Y-115828301D01*
X133597158Y-115833769D01*
X133605605Y-115815507D01*
X133610761Y-115760296D01*
X133612654Y-115667499D01*
X133611311Y-115536478D01*
X133610893Y-115516269D01*
X133607942Y-115396733D01*
X133604452Y-115309449D01*
X133599486Y-115247591D01*
X133592107Y-115204336D01*
X133581376Y-115172860D01*
X133566355Y-115146339D01*
X133558498Y-115134975D01*
X133513447Y-115084692D01*
X133463060Y-115045581D01*
X133456892Y-115042167D01*
X133366542Y-115015212D01*
X133271638Y-115019670D01*
X133271638Y-115019670D01*
G37*
X133271638Y-115019670D02*
X133182883Y-115052421D01*
X133110978Y-115110350D01*
X133082856Y-115151128D01*
X133052198Y-115225954D01*
X133052835Y-115280058D01*
X133085013Y-115316446D01*
X133096919Y-115322633D01*
X133148325Y-115341925D01*
X133174578Y-115336982D01*
X133183470Y-115304587D01*
X133183923Y-115286692D01*
X133200203Y-115220859D01*
X133242635Y-115174807D01*
X133301612Y-115152564D01*
X133367525Y-115158161D01*
X133421105Y-115187229D01*
X133439202Y-115203810D01*
X133452029Y-115223925D01*
X133460694Y-115254332D01*
X133466304Y-115301788D01*
X133469965Y-115373050D01*
X133472785Y-115474875D01*
X133473516Y-115507115D01*
X133476180Y-115617410D01*
X133479208Y-115695036D01*
X133483750Y-115746396D01*
X133490954Y-115777890D01*
X133501967Y-115795920D01*
X133517940Y-115806888D01*
X133528166Y-115811733D01*
X133571594Y-115828301D01*
X133597158Y-115833769D01*
X133605605Y-115815507D01*
X133610761Y-115760296D01*
X133612654Y-115667499D01*
X133611311Y-115536478D01*
X133610893Y-115516269D01*
X133607942Y-115396733D01*
X133604452Y-115309449D01*
X133599486Y-115247591D01*
X133592107Y-115204336D01*
X133581376Y-115172860D01*
X133566355Y-115146339D01*
X133558498Y-115134975D01*
X133513447Y-115084692D01*
X133463060Y-115045581D01*
X133456892Y-115042167D01*
X133366542Y-115015212D01*
X133271638Y-115019670D01*
G36*
X132382919Y-115175289D02*
X132383167Y-115321320D01*
X132384128Y-115433655D01*
X132386206Y-115517678D01*
X132389807Y-115578769D01*
X132395335Y-115622309D01*
X132403196Y-115653679D01*
X132413793Y-115678262D01*
X132421818Y-115692294D01*
X132488272Y-115768388D01*
X132572530Y-115816084D01*
X132665751Y-115833199D01*
X132759100Y-115817546D01*
X132814688Y-115789418D01*
X132873043Y-115740760D01*
X132912814Y-115681333D01*
X132936810Y-115603507D01*
X132947839Y-115499652D01*
X132949401Y-115423462D01*
X132949191Y-115417986D01*
X132812692Y-115417986D01*
X132811859Y-115505355D01*
X132808039Y-115563192D01*
X132799254Y-115601029D01*
X132783526Y-115628398D01*
X132764734Y-115649042D01*
X132701625Y-115688890D01*
X132633863Y-115692295D01*
X132569821Y-115659025D01*
X132564836Y-115654517D01*
X132543561Y-115631067D01*
X132530221Y-115603166D01*
X132522999Y-115561641D01*
X132520077Y-115497316D01*
X132519615Y-115426200D01*
X132520617Y-115336858D01*
X132524762Y-115277258D01*
X132533764Y-115238089D01*
X132549333Y-115210040D01*
X132562098Y-115195144D01*
X132621400Y-115157575D01*
X132689699Y-115153057D01*
X132754890Y-115181753D01*
X132767472Y-115192406D01*
X132788889Y-115216063D01*
X132802256Y-115244251D01*
X132809434Y-115286245D01*
X132812281Y-115351319D01*
X132812692Y-115417986D01*
X132949191Y-115417986D01*
X132944678Y-115300765D01*
X132928638Y-115208577D01*
X132898472Y-115139269D01*
X132851371Y-115085211D01*
X132814688Y-115057505D01*
X132748010Y-115027572D01*
X132670728Y-115013678D01*
X132598890Y-115017397D01*
X132558692Y-115032400D01*
X132542918Y-115036670D01*
X132532450Y-115020750D01*
X132525144Y-114978089D01*
X132519615Y-114913106D01*
X132513563Y-114840732D01*
X132505156Y-114797187D01*
X132489859Y-114772287D01*
X132463136Y-114755845D01*
X132446346Y-114748564D01*
X132382846Y-114721963D01*
X132382919Y-115175289D01*
X132382919Y-115175289D01*
G37*
X132382919Y-115175289D02*
X132383167Y-115321320D01*
X132384128Y-115433655D01*
X132386206Y-115517678D01*
X132389807Y-115578769D01*
X132395335Y-115622309D01*
X132403196Y-115653679D01*
X132413793Y-115678262D01*
X132421818Y-115692294D01*
X132488272Y-115768388D01*
X132572530Y-115816084D01*
X132665751Y-115833199D01*
X132759100Y-115817546D01*
X132814688Y-115789418D01*
X132873043Y-115740760D01*
X132912814Y-115681333D01*
X132936810Y-115603507D01*
X132947839Y-115499652D01*
X132949401Y-115423462D01*
X132949191Y-115417986D01*
X132812692Y-115417986D01*
X132811859Y-115505355D01*
X132808039Y-115563192D01*
X132799254Y-115601029D01*
X132783526Y-115628398D01*
X132764734Y-115649042D01*
X132701625Y-115688890D01*
X132633863Y-115692295D01*
X132569821Y-115659025D01*
X132564836Y-115654517D01*
X132543561Y-115631067D01*
X132530221Y-115603166D01*
X132522999Y-115561641D01*
X132520077Y-115497316D01*
X132519615Y-115426200D01*
X132520617Y-115336858D01*
X132524762Y-115277258D01*
X132533764Y-115238089D01*
X132549333Y-115210040D01*
X132562098Y-115195144D01*
X132621400Y-115157575D01*
X132689699Y-115153057D01*
X132754890Y-115181753D01*
X132767472Y-115192406D01*
X132788889Y-115216063D01*
X132802256Y-115244251D01*
X132809434Y-115286245D01*
X132812281Y-115351319D01*
X132812692Y-115417986D01*
X132949191Y-115417986D01*
X132944678Y-115300765D01*
X132928638Y-115208577D01*
X132898472Y-115139269D01*
X132851371Y-115085211D01*
X132814688Y-115057505D01*
X132748010Y-115027572D01*
X132670728Y-115013678D01*
X132598890Y-115017397D01*
X132558692Y-115032400D01*
X132542918Y-115036670D01*
X132532450Y-115020750D01*
X132525144Y-114978089D01*
X132519615Y-114913106D01*
X132513563Y-114840732D01*
X132505156Y-114797187D01*
X132489859Y-114772287D01*
X132463136Y-114755845D01*
X132446346Y-114748564D01*
X132382846Y-114721963D01*
X132382919Y-115175289D01*
G36*
X131589071Y-115031662D02*
X131586089Y-115083068D01*
X131583753Y-115161192D01*
X131582251Y-115259857D01*
X131581769Y-115363343D01*
X131581769Y-115713533D01*
X131643599Y-115775363D01*
X131686207Y-115813462D01*
X131723610Y-115828895D01*
X131774730Y-115827918D01*
X131795022Y-115825433D01*
X131858446Y-115818200D01*
X131910905Y-115814055D01*
X131923692Y-115813672D01*
X131966801Y-115816176D01*
X132028456Y-115822462D01*
X132052362Y-115825433D01*
X132111078Y-115830028D01*
X132150536Y-115820046D01*
X132189662Y-115789228D01*
X132203785Y-115775363D01*
X132265615Y-115713533D01*
X132265615Y-115058503D01*
X132215850Y-115035829D01*
X132172998Y-115019034D01*
X132147927Y-115013154D01*
X132141499Y-115031736D01*
X132135491Y-115083655D01*
X132130303Y-115163172D01*
X132126336Y-115264546D01*
X132124423Y-115350192D01*
X132119077Y-115687231D01*
X132072440Y-115693825D01*
X132030024Y-115689214D01*
X132009240Y-115674287D01*
X132003430Y-115646377D01*
X131998470Y-115586925D01*
X131994754Y-115503466D01*
X131992676Y-115403532D01*
X131992376Y-115352104D01*
X131992077Y-115056054D01*
X131930546Y-115034604D01*
X131886996Y-115020020D01*
X131863306Y-115013219D01*
X131862623Y-115013154D01*
X131860246Y-115031642D01*
X131857634Y-115082906D01*
X131855005Y-115160649D01*
X131852579Y-115258574D01*
X131850885Y-115350192D01*
X131845539Y-115687231D01*
X131728308Y-115687231D01*
X131722928Y-115379746D01*
X131717549Y-115072261D01*
X131660399Y-115042707D01*
X131618203Y-115022413D01*
X131593230Y-115013204D01*
X131592509Y-115013154D01*
X131589071Y-115031662D01*
X131589071Y-115031662D01*
G37*
X131589071Y-115031662D02*
X131586089Y-115083068D01*
X131583753Y-115161192D01*
X131582251Y-115259857D01*
X131581769Y-115363343D01*
X131581769Y-115713533D01*
X131643599Y-115775363D01*
X131686207Y-115813462D01*
X131723610Y-115828895D01*
X131774730Y-115827918D01*
X131795022Y-115825433D01*
X131858446Y-115818200D01*
X131910905Y-115814055D01*
X131923692Y-115813672D01*
X131966801Y-115816176D01*
X132028456Y-115822462D01*
X132052362Y-115825433D01*
X132111078Y-115830028D01*
X132150536Y-115820046D01*
X132189662Y-115789228D01*
X132203785Y-115775363D01*
X132265615Y-115713533D01*
X132265615Y-115058503D01*
X132215850Y-115035829D01*
X132172998Y-115019034D01*
X132147927Y-115013154D01*
X132141499Y-115031736D01*
X132135491Y-115083655D01*
X132130303Y-115163172D01*
X132126336Y-115264546D01*
X132124423Y-115350192D01*
X132119077Y-115687231D01*
X132072440Y-115693825D01*
X132030024Y-115689214D01*
X132009240Y-115674287D01*
X132003430Y-115646377D01*
X131998470Y-115586925D01*
X131994754Y-115503466D01*
X131992676Y-115403532D01*
X131992376Y-115352104D01*
X131992077Y-115056054D01*
X131930546Y-115034604D01*
X131886996Y-115020020D01*
X131863306Y-115013219D01*
X131862623Y-115013154D01*
X131860246Y-115031642D01*
X131857634Y-115082906D01*
X131855005Y-115160649D01*
X131852579Y-115258574D01*
X131850885Y-115350192D01*
X131845539Y-115687231D01*
X131728308Y-115687231D01*
X131722928Y-115379746D01*
X131717549Y-115072261D01*
X131660399Y-115042707D01*
X131618203Y-115022413D01*
X131593230Y-115013204D01*
X131592509Y-115013154D01*
X131589071Y-115031662D01*
G36*
X131097667Y-115028528D02*
X131041410Y-115054117D01*
X130997253Y-115085124D01*
X130964899Y-115119795D01*
X130942562Y-115164520D01*
X130928454Y-115225692D01*
X130920789Y-115309701D01*
X130917780Y-115422940D01*
X130917462Y-115497509D01*
X130917462Y-115788420D01*
X130967227Y-115811095D01*
X131006424Y-115827667D01*
X131025843Y-115833769D01*
X131029558Y-115815610D01*
X131032505Y-115766648D01*
X131034309Y-115695153D01*
X131034692Y-115638385D01*
X131036339Y-115556371D01*
X131040778Y-115491309D01*
X131047260Y-115451467D01*
X131052410Y-115443000D01*
X131087023Y-115451646D01*
X131141360Y-115473823D01*
X131204278Y-115503886D01*
X131264632Y-115536192D01*
X131311279Y-115565098D01*
X131333074Y-115584961D01*
X131333161Y-115585175D01*
X131331286Y-115621935D01*
X131314475Y-115657026D01*
X131284961Y-115685528D01*
X131241884Y-115695061D01*
X131205068Y-115693950D01*
X131152926Y-115693133D01*
X131125556Y-115705349D01*
X131109118Y-115737624D01*
X131107045Y-115743710D01*
X131099919Y-115789739D01*
X131118976Y-115817687D01*
X131168647Y-115831007D01*
X131222303Y-115833470D01*
X131318858Y-115815210D01*
X131368841Y-115789131D01*
X131430571Y-115727868D01*
X131463310Y-115652670D01*
X131466247Y-115573211D01*
X131438576Y-115499167D01*
X131396953Y-115452769D01*
X131355396Y-115426793D01*
X131290078Y-115393907D01*
X131213962Y-115360557D01*
X131201274Y-115355461D01*
X131117667Y-115318565D01*
X131069470Y-115286046D01*
X131053970Y-115253718D01*
X131068450Y-115217394D01*
X131093308Y-115189000D01*
X131152061Y-115154039D01*
X131216707Y-115151417D01*
X131275992Y-115178358D01*
X131318661Y-115232088D01*
X131324261Y-115245950D01*
X131356867Y-115296936D01*
X131404470Y-115334787D01*
X131464539Y-115365850D01*
X131464539Y-115277768D01*
X131461003Y-115223951D01*
X131445844Y-115181534D01*
X131412232Y-115136279D01*
X131379965Y-115101420D01*
X131329791Y-115052062D01*
X131290807Y-115025547D01*
X131248936Y-115014911D01*
X131201540Y-115013154D01*
X131097667Y-115028528D01*
X131097667Y-115028528D01*
G37*
X131097667Y-115028528D02*
X131041410Y-115054117D01*
X130997253Y-115085124D01*
X130964899Y-115119795D01*
X130942562Y-115164520D01*
X130928454Y-115225692D01*
X130920789Y-115309701D01*
X130917780Y-115422940D01*
X130917462Y-115497509D01*
X130917462Y-115788420D01*
X130967227Y-115811095D01*
X131006424Y-115827667D01*
X131025843Y-115833769D01*
X131029558Y-115815610D01*
X131032505Y-115766648D01*
X131034309Y-115695153D01*
X131034692Y-115638385D01*
X131036339Y-115556371D01*
X131040778Y-115491309D01*
X131047260Y-115451467D01*
X131052410Y-115443000D01*
X131087023Y-115451646D01*
X131141360Y-115473823D01*
X131204278Y-115503886D01*
X131264632Y-115536192D01*
X131311279Y-115565098D01*
X131333074Y-115584961D01*
X131333161Y-115585175D01*
X131331286Y-115621935D01*
X131314475Y-115657026D01*
X131284961Y-115685528D01*
X131241884Y-115695061D01*
X131205068Y-115693950D01*
X131152926Y-115693133D01*
X131125556Y-115705349D01*
X131109118Y-115737624D01*
X131107045Y-115743710D01*
X131099919Y-115789739D01*
X131118976Y-115817687D01*
X131168647Y-115831007D01*
X131222303Y-115833470D01*
X131318858Y-115815210D01*
X131368841Y-115789131D01*
X131430571Y-115727868D01*
X131463310Y-115652670D01*
X131466247Y-115573211D01*
X131438576Y-115499167D01*
X131396953Y-115452769D01*
X131355396Y-115426793D01*
X131290078Y-115393907D01*
X131213962Y-115360557D01*
X131201274Y-115355461D01*
X131117667Y-115318565D01*
X131069470Y-115286046D01*
X131053970Y-115253718D01*
X131068450Y-115217394D01*
X131093308Y-115189000D01*
X131152061Y-115154039D01*
X131216707Y-115151417D01*
X131275992Y-115178358D01*
X131318661Y-115232088D01*
X131324261Y-115245950D01*
X131356867Y-115296936D01*
X131404470Y-115334787D01*
X131464539Y-115365850D01*
X131464539Y-115277768D01*
X131461003Y-115223951D01*
X131445844Y-115181534D01*
X131412232Y-115136279D01*
X131379965Y-115101420D01*
X131329791Y-115052062D01*
X131290807Y-115025547D01*
X131248936Y-115014911D01*
X131201540Y-115013154D01*
X131097667Y-115028528D01*
G36*
X130414193Y-115031782D02*
X130390839Y-115041988D01*
X130335098Y-115086134D01*
X130287431Y-115149967D01*
X130257952Y-115218087D01*
X130253154Y-115251670D01*
X130269240Y-115298556D01*
X130304525Y-115323365D01*
X130342356Y-115338387D01*
X130359679Y-115341155D01*
X130368114Y-115321066D01*
X130384770Y-115277351D01*
X130392077Y-115257598D01*
X130433052Y-115189271D01*
X130492378Y-115155191D01*
X130568448Y-115156239D01*
X130574082Y-115157581D01*
X130614695Y-115176836D01*
X130644552Y-115214375D01*
X130664945Y-115274809D01*
X130677164Y-115362751D01*
X130682500Y-115482813D01*
X130683000Y-115546698D01*
X130683248Y-115647403D01*
X130684874Y-115716054D01*
X130689199Y-115759673D01*
X130697546Y-115785282D01*
X130711235Y-115799903D01*
X130731589Y-115810558D01*
X130732766Y-115811095D01*
X130771962Y-115827667D01*
X130791381Y-115833769D01*
X130794365Y-115815319D01*
X130796919Y-115764323D01*
X130798860Y-115687308D01*
X130800003Y-115590805D01*
X130800231Y-115520184D01*
X130799068Y-115383525D01*
X130794521Y-115279851D01*
X130785001Y-115203108D01*
X130768919Y-115147246D01*
X130744687Y-115106212D01*
X130710714Y-115073954D01*
X130677167Y-115051440D01*
X130596501Y-115021476D01*
X130502619Y-115014718D01*
X130414193Y-115031782D01*
X130414193Y-115031782D01*
G37*
X130414193Y-115031782D02*
X130390839Y-115041988D01*
X130335098Y-115086134D01*
X130287431Y-115149967D01*
X130257952Y-115218087D01*
X130253154Y-115251670D01*
X130269240Y-115298556D01*
X130304525Y-115323365D01*
X130342356Y-115338387D01*
X130359679Y-115341155D01*
X130368114Y-115321066D01*
X130384770Y-115277351D01*
X130392077Y-115257598D01*
X130433052Y-115189271D01*
X130492378Y-115155191D01*
X130568448Y-115156239D01*
X130574082Y-115157581D01*
X130614695Y-115176836D01*
X130644552Y-115214375D01*
X130664945Y-115274809D01*
X130677164Y-115362751D01*
X130682500Y-115482813D01*
X130683000Y-115546698D01*
X130683248Y-115647403D01*
X130684874Y-115716054D01*
X130689199Y-115759673D01*
X130697546Y-115785282D01*
X130711235Y-115799903D01*
X130731589Y-115810558D01*
X130732766Y-115811095D01*
X130771962Y-115827667D01*
X130791381Y-115833769D01*
X130794365Y-115815319D01*
X130796919Y-115764323D01*
X130798860Y-115687308D01*
X130800003Y-115590805D01*
X130800231Y-115520184D01*
X130799068Y-115383525D01*
X130794521Y-115279851D01*
X130785001Y-115203108D01*
X130768919Y-115147246D01*
X130744687Y-115106212D01*
X130710714Y-115073954D01*
X130677167Y-115051440D01*
X130596501Y-115021476D01*
X130502619Y-115014718D01*
X130414193Y-115031782D01*
G36*
X129739776Y-115042838D02*
X129662472Y-115093361D01*
X129625186Y-115138590D01*
X129595647Y-115220663D01*
X129593301Y-115285607D01*
X129598615Y-115372445D01*
X129798885Y-115460103D01*
X129896261Y-115504887D01*
X129959887Y-115540913D01*
X129992971Y-115572117D01*
X129998720Y-115602436D01*
X129980342Y-115635805D01*
X129960077Y-115657923D01*
X129901111Y-115693393D01*
X129836976Y-115695879D01*
X129778074Y-115668235D01*
X129734803Y-115613320D01*
X129727064Y-115593928D01*
X129689994Y-115533364D01*
X129647346Y-115507552D01*
X129588846Y-115485471D01*
X129588846Y-115569184D01*
X129594018Y-115626150D01*
X129614277Y-115674189D01*
X129656738Y-115729346D01*
X129663049Y-115736514D01*
X129710280Y-115785585D01*
X129750879Y-115811920D01*
X129801672Y-115824035D01*
X129843780Y-115828003D01*
X129919098Y-115828991D01*
X129972714Y-115816466D01*
X130006162Y-115797869D01*
X130058732Y-115756975D01*
X130095121Y-115712748D01*
X130118150Y-115657126D01*
X130130641Y-115582047D01*
X130135413Y-115479449D01*
X130135794Y-115427376D01*
X130134499Y-115364948D01*
X130016529Y-115364948D01*
X130015161Y-115398438D01*
X130011751Y-115403923D01*
X129989247Y-115396472D01*
X129940818Y-115376753D01*
X129876092Y-115348718D01*
X129862557Y-115342692D01*
X129780756Y-115301096D01*
X129735688Y-115264538D01*
X129725783Y-115230296D01*
X129749474Y-115195648D01*
X129769040Y-115180339D01*
X129839640Y-115149721D01*
X129905720Y-115154780D01*
X129961041Y-115192151D01*
X129999364Y-115258473D01*
X130011651Y-115311116D01*
X130016529Y-115364948D01*
X130134499Y-115364948D01*
X130133270Y-115305720D01*
X130123968Y-115215710D01*
X130105540Y-115150167D01*
X130075640Y-115101912D01*
X130031920Y-115063767D01*
X130012859Y-115051440D01*
X129926274Y-115019336D01*
X129831478Y-115017316D01*
X129739776Y-115042838D01*
X129739776Y-115042838D01*
G37*
X129739776Y-115042838D02*
X129662472Y-115093361D01*
X129625186Y-115138590D01*
X129595647Y-115220663D01*
X129593301Y-115285607D01*
X129598615Y-115372445D01*
X129798885Y-115460103D01*
X129896261Y-115504887D01*
X129959887Y-115540913D01*
X129992971Y-115572117D01*
X129998720Y-115602436D01*
X129980342Y-115635805D01*
X129960077Y-115657923D01*
X129901111Y-115693393D01*
X129836976Y-115695879D01*
X129778074Y-115668235D01*
X129734803Y-115613320D01*
X129727064Y-115593928D01*
X129689994Y-115533364D01*
X129647346Y-115507552D01*
X129588846Y-115485471D01*
X129588846Y-115569184D01*
X129594018Y-115626150D01*
X129614277Y-115674189D01*
X129656738Y-115729346D01*
X129663049Y-115736514D01*
X129710280Y-115785585D01*
X129750879Y-115811920D01*
X129801672Y-115824035D01*
X129843780Y-115828003D01*
X129919098Y-115828991D01*
X129972714Y-115816466D01*
X130006162Y-115797869D01*
X130058732Y-115756975D01*
X130095121Y-115712748D01*
X130118150Y-115657126D01*
X130130641Y-115582047D01*
X130135413Y-115479449D01*
X130135794Y-115427376D01*
X130134499Y-115364948D01*
X130016529Y-115364948D01*
X130015161Y-115398438D01*
X130011751Y-115403923D01*
X129989247Y-115396472D01*
X129940818Y-115376753D01*
X129876092Y-115348718D01*
X129862557Y-115342692D01*
X129780756Y-115301096D01*
X129735688Y-115264538D01*
X129725783Y-115230296D01*
X129749474Y-115195648D01*
X129769040Y-115180339D01*
X129839640Y-115149721D01*
X129905720Y-115154780D01*
X129961041Y-115192151D01*
X129999364Y-115258473D01*
X130011651Y-115311116D01*
X130016529Y-115364948D01*
X130134499Y-115364948D01*
X130133270Y-115305720D01*
X130123968Y-115215710D01*
X130105540Y-115150167D01*
X130075640Y-115101912D01*
X130031920Y-115063767D01*
X130012859Y-115051440D01*
X129926274Y-115019336D01*
X129831478Y-115017316D01*
X129739776Y-115042838D01*
G36*
X133845122Y-108682776D02*
X133739388Y-108683355D01*
X133662868Y-108684922D01*
X133610628Y-108687972D01*
X133577737Y-108692996D01*
X133559263Y-108700489D01*
X133550273Y-108710944D01*
X133545837Y-108724853D01*
X133545406Y-108726654D01*
X133538667Y-108759145D01*
X133526192Y-108823252D01*
X133509281Y-108912151D01*
X133489229Y-109019019D01*
X133467336Y-109137033D01*
X133466571Y-109141178D01*
X133444641Y-109256831D01*
X133424123Y-109359014D01*
X133406341Y-109441598D01*
X133392619Y-109498456D01*
X133384282Y-109523458D01*
X133383884Y-109523901D01*
X133359323Y-109536110D01*
X133308685Y-109556456D01*
X133242905Y-109580545D01*
X133242539Y-109580674D01*
X133159683Y-109611818D01*
X133062000Y-109651491D01*
X132969923Y-109691381D01*
X132965566Y-109693353D01*
X132815593Y-109761420D01*
X132483502Y-109534639D01*
X132381626Y-109465504D01*
X132289343Y-109403697D01*
X132211997Y-109352733D01*
X132154936Y-109316127D01*
X132123505Y-109297394D01*
X132120521Y-109296004D01*
X132097679Y-109302190D01*
X132055018Y-109332035D01*
X131990872Y-109386947D01*
X131903579Y-109468334D01*
X131814465Y-109554922D01*
X131728559Y-109640247D01*
X131651673Y-109718108D01*
X131588436Y-109783697D01*
X131543477Y-109832205D01*
X131521424Y-109858825D01*
X131520604Y-109860195D01*
X131518166Y-109878463D01*
X131527350Y-109908295D01*
X131550426Y-109953721D01*
X131589663Y-110018770D01*
X131647330Y-110107470D01*
X131724205Y-110221657D01*
X131792430Y-110322162D01*
X131853418Y-110412303D01*
X131903644Y-110486849D01*
X131939584Y-110540565D01*
X131957713Y-110568218D01*
X131958854Y-110570095D01*
X131956641Y-110596590D01*
X131939862Y-110648086D01*
X131911858Y-110714851D01*
X131901878Y-110736172D01*
X131858328Y-110831159D01*
X131811866Y-110938937D01*
X131774123Y-111032192D01*
X131746927Y-111101406D01*
X131725325Y-111154006D01*
X131712842Y-111181497D01*
X131711291Y-111183616D01*
X131688332Y-111187124D01*
X131634214Y-111196738D01*
X131556132Y-111211089D01*
X131461281Y-111228807D01*
X131356857Y-111248525D01*
X131250056Y-111268874D01*
X131148074Y-111288486D01*
X131058106Y-111305991D01*
X130987347Y-111320022D01*
X130942994Y-111329209D01*
X130932115Y-111331807D01*
X130920878Y-111338218D01*
X130912395Y-111352697D01*
X130906286Y-111380133D01*
X130902168Y-111425411D01*
X130899659Y-111493420D01*
X130898379Y-111589047D01*
X130897946Y-111717180D01*
X130897923Y-111769701D01*
X130897923Y-112196845D01*
X131000500Y-112217091D01*
X131057569Y-112228070D01*
X131142731Y-112244095D01*
X131245628Y-112263233D01*
X131355904Y-112283551D01*
X131386385Y-112289132D01*
X131488145Y-112308917D01*
X131576795Y-112328373D01*
X131644892Y-112345697D01*
X131684996Y-112359088D01*
X131691677Y-112363079D01*
X131708081Y-112391342D01*
X131731601Y-112446109D01*
X131757684Y-112516588D01*
X131762858Y-112531769D01*
X131797044Y-112625896D01*
X131839477Y-112732101D01*
X131881003Y-112827473D01*
X131881208Y-112827916D01*
X131950360Y-112977525D01*
X131495488Y-113646617D01*
X131787500Y-113939116D01*
X131875820Y-114026170D01*
X131956375Y-114102909D01*
X132024640Y-114165237D01*
X132076092Y-114209056D01*
X132106206Y-114230270D01*
X132110526Y-114231616D01*
X132135889Y-114221016D01*
X132187642Y-114191547D01*
X132260132Y-114146705D01*
X132347706Y-114089984D01*
X132442388Y-114026462D01*
X132538484Y-113961668D01*
X132624163Y-113905287D01*
X132693984Y-113860788D01*
X132742506Y-113831639D01*
X132764218Y-113821308D01*
X132790707Y-113830050D01*
X132840938Y-113853087D01*
X132904549Y-113885631D01*
X132911292Y-113889249D01*
X132996954Y-113932210D01*
X133055694Y-113953279D01*
X133092228Y-113953503D01*
X133111269Y-113933928D01*
X133111380Y-113933654D01*
X133120898Y-113910472D01*
X133143597Y-113855441D01*
X133177718Y-113772822D01*
X133221500Y-113666872D01*
X133273184Y-113541852D01*
X133331008Y-113402020D01*
X133387009Y-113266637D01*
X133448553Y-113117234D01*
X133505061Y-112978832D01*
X133554839Y-112855673D01*
X133596194Y-112752002D01*
X133627432Y-112672059D01*
X133646859Y-112620088D01*
X133652846Y-112600692D01*
X133637832Y-112578443D01*
X133598561Y-112542982D01*
X133546193Y-112503887D01*
X133397059Y-112380245D01*
X133280489Y-112238522D01*
X133197882Y-112081704D01*
X133150634Y-111912775D01*
X133140143Y-111734722D01*
X133147769Y-111652539D01*
X133189318Y-111482031D01*
X133260877Y-111331459D01*
X133358005Y-111202309D01*
X133476266Y-111096064D01*
X133611220Y-111014210D01*
X133758429Y-110958232D01*
X133913456Y-110929615D01*
X134071861Y-110929844D01*
X134229206Y-110960405D01*
X134381054Y-111022782D01*
X134522965Y-111118460D01*
X134582197Y-111172572D01*
X134695797Y-111311520D01*
X134774894Y-111463361D01*
X134820014Y-111623667D01*
X134831684Y-111788012D01*
X134810431Y-111951971D01*
X134756780Y-112111118D01*
X134671260Y-112261025D01*
X134554395Y-112397267D01*
X134423807Y-112503887D01*
X134369412Y-112544642D01*
X134330986Y-112579718D01*
X134317154Y-112600726D01*
X134324397Y-112623635D01*
X134344995Y-112678365D01*
X134377254Y-112760672D01*
X134419479Y-112866315D01*
X134469977Y-112991050D01*
X134527052Y-113130636D01*
X134583146Y-113266670D01*
X134645033Y-113416201D01*
X134702356Y-113554767D01*
X134753356Y-113678107D01*
X134796273Y-113781964D01*
X134829347Y-113862080D01*
X134850819Y-113914195D01*
X134858775Y-113933654D01*
X134877571Y-113953423D01*
X134913926Y-113953365D01*
X134972521Y-113932441D01*
X135058032Y-113889613D01*
X135058708Y-113889249D01*
X135123093Y-113856012D01*
X135175139Y-113831802D01*
X135204488Y-113821404D01*
X135205783Y-113821308D01*
X135227876Y-113831855D01*
X135276652Y-113861184D01*
X135346669Y-113905827D01*
X135432486Y-113962314D01*
X135527612Y-114026462D01*
X135624460Y-114091411D01*
X135711747Y-114147896D01*
X135783819Y-114192421D01*
X135835023Y-114221490D01*
X135859474Y-114231616D01*
X135881990Y-114218307D01*
X135927258Y-114181112D01*
X135990756Y-114124128D01*
X136067961Y-114051449D01*
X136154349Y-113967171D01*
X136182601Y-113939016D01*
X136474713Y-113646416D01*
X136252369Y-113320104D01*
X136184798Y-113219897D01*
X136125493Y-113129963D01*
X136077783Y-113055510D01*
X136044993Y-113001751D01*
X136030452Y-112973894D01*
X136030026Y-112971912D01*
X136037692Y-112945655D01*
X136058311Y-112892837D01*
X136088315Y-112822310D01*
X136109375Y-112775093D01*
X136148752Y-112684694D01*
X136185835Y-112593366D01*
X136214585Y-112516200D01*
X136222395Y-112492692D01*
X136244583Y-112429916D01*
X136266273Y-112381411D01*
X136278187Y-112363079D01*
X136304477Y-112351859D01*
X136361858Y-112335954D01*
X136442882Y-112317167D01*
X136540105Y-112297299D01*
X136583615Y-112289132D01*
X136694104Y-112268829D01*
X136800084Y-112249170D01*
X136891199Y-112232088D01*
X136957092Y-112219518D01*
X136969500Y-112217091D01*
X137072077Y-112196845D01*
X137072077Y-111769701D01*
X137071847Y-111629246D01*
X137070901Y-111522979D01*
X137068859Y-111446013D01*
X137065338Y-111393460D01*
X137059957Y-111360433D01*
X137052334Y-111342045D01*
X137042088Y-111333408D01*
X137037885Y-111331807D01*
X137012530Y-111326127D01*
X136956516Y-111314795D01*
X136877036Y-111299179D01*
X136781288Y-111280647D01*
X136676467Y-111260569D01*
X136569768Y-111240312D01*
X136468387Y-111221246D01*
X136379521Y-111204739D01*
X136310363Y-111192159D01*
X136268111Y-111184875D01*
X136258710Y-111183616D01*
X136250193Y-111166763D01*
X136231340Y-111121870D01*
X136205676Y-111057430D01*
X136195877Y-111032192D01*
X136156352Y-110934686D01*
X136109808Y-110826959D01*
X136068123Y-110736172D01*
X136037450Y-110666753D01*
X136017044Y-110609710D01*
X136010232Y-110574777D01*
X136011318Y-110570095D01*
X136025715Y-110547991D01*
X136058588Y-110498831D01*
X136106410Y-110427848D01*
X136165652Y-110340278D01*
X136232785Y-110241357D01*
X136246059Y-110221830D01*
X136323954Y-110106140D01*
X136381213Y-110018044D01*
X136420119Y-109953486D01*
X136442956Y-109908411D01*
X136452006Y-109878763D01*
X136449552Y-109860485D01*
X136449489Y-109860369D01*
X136430173Y-109836361D01*
X136387449Y-109789947D01*
X136325949Y-109725937D01*
X136250302Y-109649145D01*
X136165139Y-109564382D01*
X136155535Y-109554922D01*
X136048210Y-109450989D01*
X135965385Y-109374675D01*
X135905395Y-109324571D01*
X135866577Y-109299270D01*
X135849480Y-109296004D01*
X135824527Y-109310250D01*
X135772745Y-109343156D01*
X135699480Y-109391208D01*
X135610080Y-109450890D01*
X135509889Y-109518688D01*
X135486499Y-109534639D01*
X135154407Y-109761420D01*
X135004435Y-109693353D01*
X134913230Y-109653685D01*
X134815331Y-109613791D01*
X134731169Y-109581983D01*
X134727462Y-109580674D01*
X134661631Y-109556576D01*
X134610884Y-109536200D01*
X134586158Y-109523936D01*
X134586116Y-109523901D01*
X134578271Y-109501734D01*
X134564934Y-109447217D01*
X134547430Y-109366480D01*
X134527083Y-109265650D01*
X134505218Y-109150856D01*
X134503429Y-109141178D01*
X134481496Y-109022904D01*
X134461360Y-108915542D01*
X134444320Y-108825917D01*
X134431672Y-108760851D01*
X134424716Y-108727168D01*
X134424594Y-108726654D01*
X134420361Y-108712325D01*
X134412129Y-108701507D01*
X134394967Y-108693706D01*
X134363942Y-108688429D01*
X134314122Y-108685182D01*
X134240576Y-108683472D01*
X134138371Y-108682807D01*
X134002575Y-108682693D01*
X133985000Y-108682692D01*
X133845122Y-108682776D01*
X133845122Y-108682776D01*
G37*
X133845122Y-108682776D02*
X133739388Y-108683355D01*
X133662868Y-108684922D01*
X133610628Y-108687972D01*
X133577737Y-108692996D01*
X133559263Y-108700489D01*
X133550273Y-108710944D01*
X133545837Y-108724853D01*
X133545406Y-108726654D01*
X133538667Y-108759145D01*
X133526192Y-108823252D01*
X133509281Y-108912151D01*
X133489229Y-109019019D01*
X133467336Y-109137033D01*
X133466571Y-109141178D01*
X133444641Y-109256831D01*
X133424123Y-109359014D01*
X133406341Y-109441598D01*
X133392619Y-109498456D01*
X133384282Y-109523458D01*
X133383884Y-109523901D01*
X133359323Y-109536110D01*
X133308685Y-109556456D01*
X133242905Y-109580545D01*
X133242539Y-109580674D01*
X133159683Y-109611818D01*
X133062000Y-109651491D01*
X132969923Y-109691381D01*
X132965566Y-109693353D01*
X132815593Y-109761420D01*
X132483502Y-109534639D01*
X132381626Y-109465504D01*
X132289343Y-109403697D01*
X132211997Y-109352733D01*
X132154936Y-109316127D01*
X132123505Y-109297394D01*
X132120521Y-109296004D01*
X132097679Y-109302190D01*
X132055018Y-109332035D01*
X131990872Y-109386947D01*
X131903579Y-109468334D01*
X131814465Y-109554922D01*
X131728559Y-109640247D01*
X131651673Y-109718108D01*
X131588436Y-109783697D01*
X131543477Y-109832205D01*
X131521424Y-109858825D01*
X131520604Y-109860195D01*
X131518166Y-109878463D01*
X131527350Y-109908295D01*
X131550426Y-109953721D01*
X131589663Y-110018770D01*
X131647330Y-110107470D01*
X131724205Y-110221657D01*
X131792430Y-110322162D01*
X131853418Y-110412303D01*
X131903644Y-110486849D01*
X131939584Y-110540565D01*
X131957713Y-110568218D01*
X131958854Y-110570095D01*
X131956641Y-110596590D01*
X131939862Y-110648086D01*
X131911858Y-110714851D01*
X131901878Y-110736172D01*
X131858328Y-110831159D01*
X131811866Y-110938937D01*
X131774123Y-111032192D01*
X131746927Y-111101406D01*
X131725325Y-111154006D01*
X131712842Y-111181497D01*
X131711291Y-111183616D01*
X131688332Y-111187124D01*
X131634214Y-111196738D01*
X131556132Y-111211089D01*
X131461281Y-111228807D01*
X131356857Y-111248525D01*
X131250056Y-111268874D01*
X131148074Y-111288486D01*
X131058106Y-111305991D01*
X130987347Y-111320022D01*
X130942994Y-111329209D01*
X130932115Y-111331807D01*
X130920878Y-111338218D01*
X130912395Y-111352697D01*
X130906286Y-111380133D01*
X130902168Y-111425411D01*
X130899659Y-111493420D01*
X130898379Y-111589047D01*
X130897946Y-111717180D01*
X130897923Y-111769701D01*
X130897923Y-112196845D01*
X131000500Y-112217091D01*
X131057569Y-112228070D01*
X131142731Y-112244095D01*
X131245628Y-112263233D01*
X131355904Y-112283551D01*
X131386385Y-112289132D01*
X131488145Y-112308917D01*
X131576795Y-112328373D01*
X131644892Y-112345697D01*
X131684996Y-112359088D01*
X131691677Y-112363079D01*
X131708081Y-112391342D01*
X131731601Y-112446109D01*
X131757684Y-112516588D01*
X131762858Y-112531769D01*
X131797044Y-112625896D01*
X131839477Y-112732101D01*
X131881003Y-112827473D01*
X131881208Y-112827916D01*
X131950360Y-112977525D01*
X131495488Y-113646617D01*
X131787500Y-113939116D01*
X131875820Y-114026170D01*
X131956375Y-114102909D01*
X132024640Y-114165237D01*
X132076092Y-114209056D01*
X132106206Y-114230270D01*
X132110526Y-114231616D01*
X132135889Y-114221016D01*
X132187642Y-114191547D01*
X132260132Y-114146705D01*
X132347706Y-114089984D01*
X132442388Y-114026462D01*
X132538484Y-113961668D01*
X132624163Y-113905287D01*
X132693984Y-113860788D01*
X132742506Y-113831639D01*
X132764218Y-113821308D01*
X132790707Y-113830050D01*
X132840938Y-113853087D01*
X132904549Y-113885631D01*
X132911292Y-113889249D01*
X132996954Y-113932210D01*
X133055694Y-113953279D01*
X133092228Y-113953503D01*
X133111269Y-113933928D01*
X133111380Y-113933654D01*
X133120898Y-113910472D01*
X133143597Y-113855441D01*
X133177718Y-113772822D01*
X133221500Y-113666872D01*
X133273184Y-113541852D01*
X133331008Y-113402020D01*
X133387009Y-113266637D01*
X133448553Y-113117234D01*
X133505061Y-112978832D01*
X133554839Y-112855673D01*
X133596194Y-112752002D01*
X133627432Y-112672059D01*
X133646859Y-112620088D01*
X133652846Y-112600692D01*
X133637832Y-112578443D01*
X133598561Y-112542982D01*
X133546193Y-112503887D01*
X133397059Y-112380245D01*
X133280489Y-112238522D01*
X133197882Y-112081704D01*
X133150634Y-111912775D01*
X133140143Y-111734722D01*
X133147769Y-111652539D01*
X133189318Y-111482031D01*
X133260877Y-111331459D01*
X133358005Y-111202309D01*
X133476266Y-111096064D01*
X133611220Y-111014210D01*
X133758429Y-110958232D01*
X133913456Y-110929615D01*
X134071861Y-110929844D01*
X134229206Y-110960405D01*
X134381054Y-111022782D01*
X134522965Y-111118460D01*
X134582197Y-111172572D01*
X134695797Y-111311520D01*
X134774894Y-111463361D01*
X134820014Y-111623667D01*
X134831684Y-111788012D01*
X134810431Y-111951971D01*
X134756780Y-112111118D01*
X134671260Y-112261025D01*
X134554395Y-112397267D01*
X134423807Y-112503887D01*
X134369412Y-112544642D01*
X134330986Y-112579718D01*
X134317154Y-112600726D01*
X134324397Y-112623635D01*
X134344995Y-112678365D01*
X134377254Y-112760672D01*
X134419479Y-112866315D01*
X134469977Y-112991050D01*
X134527052Y-113130636D01*
X134583146Y-113266670D01*
X134645033Y-113416201D01*
X134702356Y-113554767D01*
X134753356Y-113678107D01*
X134796273Y-113781964D01*
X134829347Y-113862080D01*
X134850819Y-113914195D01*
X134858775Y-113933654D01*
X134877571Y-113953423D01*
X134913926Y-113953365D01*
X134972521Y-113932441D01*
X135058032Y-113889613D01*
X135058708Y-113889249D01*
X135123093Y-113856012D01*
X135175139Y-113831802D01*
X135204488Y-113821404D01*
X135205783Y-113821308D01*
X135227876Y-113831855D01*
X135276652Y-113861184D01*
X135346669Y-113905827D01*
X135432486Y-113962314D01*
X135527612Y-114026462D01*
X135624460Y-114091411D01*
X135711747Y-114147896D01*
X135783819Y-114192421D01*
X135835023Y-114221490D01*
X135859474Y-114231616D01*
X135881990Y-114218307D01*
X135927258Y-114181112D01*
X135990756Y-114124128D01*
X136067961Y-114051449D01*
X136154349Y-113967171D01*
X136182601Y-113939016D01*
X136474713Y-113646416D01*
X136252369Y-113320104D01*
X136184798Y-113219897D01*
X136125493Y-113129963D01*
X136077783Y-113055510D01*
X136044993Y-113001751D01*
X136030452Y-112973894D01*
X136030026Y-112971912D01*
X136037692Y-112945655D01*
X136058311Y-112892837D01*
X136088315Y-112822310D01*
X136109375Y-112775093D01*
X136148752Y-112684694D01*
X136185835Y-112593366D01*
X136214585Y-112516200D01*
X136222395Y-112492692D01*
X136244583Y-112429916D01*
X136266273Y-112381411D01*
X136278187Y-112363079D01*
X136304477Y-112351859D01*
X136361858Y-112335954D01*
X136442882Y-112317167D01*
X136540105Y-112297299D01*
X136583615Y-112289132D01*
X136694104Y-112268829D01*
X136800084Y-112249170D01*
X136891199Y-112232088D01*
X136957092Y-112219518D01*
X136969500Y-112217091D01*
X137072077Y-112196845D01*
X137072077Y-111769701D01*
X137071847Y-111629246D01*
X137070901Y-111522979D01*
X137068859Y-111446013D01*
X137065338Y-111393460D01*
X137059957Y-111360433D01*
X137052334Y-111342045D01*
X137042088Y-111333408D01*
X137037885Y-111331807D01*
X137012530Y-111326127D01*
X136956516Y-111314795D01*
X136877036Y-111299179D01*
X136781288Y-111280647D01*
X136676467Y-111260569D01*
X136569768Y-111240312D01*
X136468387Y-111221246D01*
X136379521Y-111204739D01*
X136310363Y-111192159D01*
X136268111Y-111184875D01*
X136258710Y-111183616D01*
X136250193Y-111166763D01*
X136231340Y-111121870D01*
X136205676Y-111057430D01*
X136195877Y-111032192D01*
X136156352Y-110934686D01*
X136109808Y-110826959D01*
X136068123Y-110736172D01*
X136037450Y-110666753D01*
X136017044Y-110609710D01*
X136010232Y-110574777D01*
X136011318Y-110570095D01*
X136025715Y-110547991D01*
X136058588Y-110498831D01*
X136106410Y-110427848D01*
X136165652Y-110340278D01*
X136232785Y-110241357D01*
X136246059Y-110221830D01*
X136323954Y-110106140D01*
X136381213Y-110018044D01*
X136420119Y-109953486D01*
X136442956Y-109908411D01*
X136452006Y-109878763D01*
X136449552Y-109860485D01*
X136449489Y-109860369D01*
X136430173Y-109836361D01*
X136387449Y-109789947D01*
X136325949Y-109725937D01*
X136250302Y-109649145D01*
X136165139Y-109564382D01*
X136155535Y-109554922D01*
X136048210Y-109450989D01*
X135965385Y-109374675D01*
X135905395Y-109324571D01*
X135866577Y-109299270D01*
X135849480Y-109296004D01*
X135824527Y-109310250D01*
X135772745Y-109343156D01*
X135699480Y-109391208D01*
X135610080Y-109450890D01*
X135509889Y-109518688D01*
X135486499Y-109534639D01*
X135154407Y-109761420D01*
X135004435Y-109693353D01*
X134913230Y-109653685D01*
X134815331Y-109613791D01*
X134731169Y-109581983D01*
X134727462Y-109580674D01*
X134661631Y-109556576D01*
X134610884Y-109536200D01*
X134586158Y-109523936D01*
X134586116Y-109523901D01*
X134578271Y-109501734D01*
X134564934Y-109447217D01*
X134547430Y-109366480D01*
X134527083Y-109265650D01*
X134505218Y-109150856D01*
X134503429Y-109141178D01*
X134481496Y-109022904D01*
X134461360Y-108915542D01*
X134444320Y-108825917D01*
X134431672Y-108760851D01*
X134424716Y-108727168D01*
X134424594Y-108726654D01*
X134420361Y-108712325D01*
X134412129Y-108701507D01*
X134394967Y-108693706D01*
X134363942Y-108688429D01*
X134314122Y-108685182D01*
X134240576Y-108683472D01*
X134138371Y-108682807D01*
X134002575Y-108682693D01*
X133985000Y-108682692D01*
X133845122Y-108682776D01*
D14*
X98722381Y-66976667D02*
X99436667Y-66976667D01*
X99579524Y-66929047D01*
X99674762Y-66833809D01*
X99722381Y-66690952D01*
X99722381Y-66595714D01*
X99722381Y-67976667D02*
X99722381Y-67405238D01*
X99722381Y-67690952D02*
X98722381Y-67690952D01*
X98865238Y-67595714D01*
X98960476Y-67500476D01*
X99008095Y-67405238D01*
X110152381Y-66976667D02*
X110866667Y-66976667D01*
X111009524Y-66929047D01*
X111104762Y-66833809D01*
X111152381Y-66690952D01*
X111152381Y-66595714D01*
X110247619Y-67405238D02*
X110200000Y-67452857D01*
X110152381Y-67548095D01*
X110152381Y-67786191D01*
X110200000Y-67881429D01*
X110247619Y-67929048D01*
X110342857Y-67976667D01*
X110438095Y-67976667D01*
X110580952Y-67929048D01*
X111152381Y-67357619D01*
X111152381Y-67976667D01*
X123702381Y-115236667D02*
X124416667Y-115236667D01*
X124559524Y-115189047D01*
X124654762Y-115093809D01*
X124702381Y-114950952D01*
X124702381Y-114855714D01*
X123702381Y-115617619D02*
X123702381Y-116236667D01*
X124083333Y-115903333D01*
X124083333Y-116046191D01*
X124130952Y-116141429D01*
X124178571Y-116189048D01*
X124273810Y-116236667D01*
X124511905Y-116236667D01*
X124607143Y-116189048D01*
X124654762Y-116141429D01*
X124702381Y-116046191D01*
X124702381Y-115760476D01*
X124654762Y-115665238D01*
X124607143Y-115617619D01*
X120816666Y-75612381D02*
X121150000Y-75136190D01*
X121388095Y-75612381D02*
X121388095Y-74612381D01*
X121007142Y-74612381D01*
X120911904Y-74660000D01*
X120864285Y-74707619D01*
X120816666Y-74802857D01*
X120816666Y-74945714D01*
X120864285Y-75040952D01*
X120911904Y-75088571D01*
X121007142Y-75136190D01*
X121388095Y-75136190D01*
X120483333Y-74612381D02*
X119864285Y-74612381D01*
X120197619Y-74993333D01*
X120054761Y-74993333D01*
X119959523Y-75040952D01*
X119911904Y-75088571D01*
X119864285Y-75183810D01*
X119864285Y-75421905D01*
X119911904Y-75517143D01*
X119959523Y-75564762D01*
X120054761Y-75612381D01*
X120340476Y-75612381D01*
X120435714Y-75564762D01*
X120483333Y-75517143D01*
X105576666Y-75612381D02*
X105910000Y-75136190D01*
X106148095Y-75612381D02*
X106148095Y-74612381D01*
X105767142Y-74612381D01*
X105671904Y-74660000D01*
X105624285Y-74707619D01*
X105576666Y-74802857D01*
X105576666Y-74945714D01*
X105624285Y-75040952D01*
X105671904Y-75088571D01*
X105767142Y-75136190D01*
X106148095Y-75136190D01*
X104719523Y-74945714D02*
X104719523Y-75612381D01*
X104957619Y-74564762D02*
X105195714Y-75279048D01*
X104576666Y-75279048D01*
X124626666Y-85312381D02*
X124960000Y-84836190D01*
X125198095Y-85312381D02*
X125198095Y-84312381D01*
X124817142Y-84312381D01*
X124721904Y-84360000D01*
X124674285Y-84407619D01*
X124626666Y-84502857D01*
X124626666Y-84645714D01*
X124674285Y-84740952D01*
X124721904Y-84788571D01*
X124817142Y-84836190D01*
X125198095Y-84836190D01*
X123721904Y-84312381D02*
X124198095Y-84312381D01*
X124245714Y-84788571D01*
X124198095Y-84740952D01*
X124102857Y-84693333D01*
X123864761Y-84693333D01*
X123769523Y-84740952D01*
X123721904Y-84788571D01*
X123674285Y-84883810D01*
X123674285Y-85121905D01*
X123721904Y-85217143D01*
X123769523Y-85264762D01*
X123864761Y-85312381D01*
X124102857Y-85312381D01*
X124198095Y-85264762D01*
X124245714Y-85217143D01*
X109386666Y-85312381D02*
X109720000Y-84836190D01*
X109958095Y-85312381D02*
X109958095Y-84312381D01*
X109577142Y-84312381D01*
X109481904Y-84360000D01*
X109434285Y-84407619D01*
X109386666Y-84502857D01*
X109386666Y-84645714D01*
X109434285Y-84740952D01*
X109481904Y-84788571D01*
X109577142Y-84836190D01*
X109958095Y-84836190D01*
X108529523Y-84312381D02*
X108720000Y-84312381D01*
X108815238Y-84360000D01*
X108862857Y-84407619D01*
X108958095Y-84550476D01*
X109005714Y-84740952D01*
X109005714Y-85121905D01*
X108958095Y-85217143D01*
X108910476Y-85264762D01*
X108815238Y-85312381D01*
X108624761Y-85312381D01*
X108529523Y-85264762D01*
X108481904Y-85217143D01*
X108434285Y-85121905D01*
X108434285Y-84883810D01*
X108481904Y-84788571D01*
X108529523Y-84740952D01*
X108624761Y-84693333D01*
X108815238Y-84693333D01*
X108910476Y-84740952D01*
X108958095Y-84788571D01*
X109005714Y-84883810D01*
X144812381Y-82228095D02*
X145621905Y-82228095D01*
X145717143Y-82275714D01*
X145764762Y-82323333D01*
X145812381Y-82418571D01*
X145812381Y-82609048D01*
X145764762Y-82704286D01*
X145717143Y-82751905D01*
X145621905Y-82799524D01*
X144812381Y-82799524D01*
X144907619Y-83228095D02*
X144860000Y-83275714D01*
X144812381Y-83370952D01*
X144812381Y-83609048D01*
X144860000Y-83704286D01*
X144907619Y-83751905D01*
X145002857Y-83799524D01*
X145098095Y-83799524D01*
X145240952Y-83751905D01*
X145812381Y-83180476D01*
X145812381Y-83799524D01*
M02*
