%TF.GenerationSoftware,KiCad,Pcbnew,4.0.7*%
%TF.CreationDate,2017-12-18T22:12:30+01:00*%
%TF.ProjectId,LED,4C45442E6B696361645F706362000000,rev?*%
%TF.FileFunction,Copper,L1,Top,Signal*%
%FSLAX46Y46*%
G04 Gerber Fmt 4.6, Leading zero omitted, Abs format (unit mm)*
G04 Created by KiCad (PCBNEW 4.0.7) date Mon Dec 18 22:12:30 2017*
%MOMM*%
%LPD*%
G01*
G04 APERTURE LIST*
%ADD10C,0.100000*%
%ADD11C,3.000000*%
%ADD12O,3.000000X3.000000*%
%ADD13C,4.000500*%
%ADD14R,2.000000X2.000000*%
%ADD15C,2.000000*%
%ADD16R,3.000000X3.000000*%
%ADD17R,1.676400X1.676400*%
%ADD18C,1.676400*%
%ADD19R,1.700000X1.700000*%
%ADD20O,1.700000X1.700000*%
%ADD21C,1.600000*%
%ADD22O,1.600000X1.600000*%
%ADD23R,1.600000X1.600000*%
%ADD24R,1.425000X1.425000*%
%ADD25C,1.425000*%
%ADD26R,1.500000X1.500000*%
%ADD27C,0.600000*%
%ADD28C,0.250000*%
%ADD29C,1.000000*%
%ADD30C,3.000000*%
%ADD31C,0.500000*%
%ADD32C,2.000000*%
%ADD33C,0.254000*%
G04 APERTURE END LIST*
D10*
D11*
X172720000Y-97790000D03*
D12*
X167170000Y-97790000D03*
X152870000Y-97790000D03*
X147320000Y-97790000D03*
D13*
X135890000Y-67310000D03*
X146050000Y-67310000D03*
D14*
X102870000Y-99080000D03*
D15*
X102870000Y-106680000D03*
D13*
X163830000Y-110490000D03*
X173990000Y-110490000D03*
D16*
X132610000Y-72920000D03*
D15*
X158810000Y-72390000D03*
D16*
X172440000Y-72920000D03*
X132610000Y-89920000D03*
X172440000Y-89920000D03*
D17*
X113030000Y-99060000D03*
D18*
X113030000Y-101600000D03*
X113030000Y-104140000D03*
X113030000Y-106680000D03*
X120650000Y-106680000D03*
X120650000Y-104140000D03*
X120650000Y-101600000D03*
X120650000Y-99060000D03*
D19*
X101600000Y-67310000D03*
D20*
X104140000Y-67310000D03*
X106680000Y-67310000D03*
X109220000Y-67310000D03*
D19*
X113030000Y-67310000D03*
D20*
X115570000Y-67310000D03*
X118110000Y-67310000D03*
D19*
X121920000Y-115570000D03*
D20*
X119380000Y-115570000D03*
X116840000Y-115570000D03*
X114300000Y-115570000D03*
X111760000Y-115570000D03*
X109220000Y-115570000D03*
X106680000Y-115570000D03*
X104140000Y-115570000D03*
D21*
X117475000Y-93980000D03*
D22*
X127635000Y-93980000D03*
D21*
X125730000Y-77470000D03*
D22*
X115570000Y-77470000D03*
D21*
X110490000Y-77470000D03*
D22*
X100330000Y-77470000D03*
D21*
X119380000Y-82550000D03*
D22*
X129540000Y-82550000D03*
D21*
X104140000Y-82550000D03*
D22*
X114300000Y-82550000D03*
D23*
X129540000Y-99060000D03*
D22*
X137160000Y-106680000D03*
X129540000Y-101600000D03*
X137160000Y-104140000D03*
X129540000Y-104140000D03*
X137160000Y-101600000D03*
X129540000Y-106680000D03*
X137160000Y-99060000D03*
D24*
X124460000Y-72390000D03*
D25*
X121920000Y-72390000D03*
X119380000Y-72390000D03*
X116840000Y-72390000D03*
X114300000Y-72390000D03*
X111760000Y-72390000D03*
X109220000Y-72390000D03*
X106680000Y-72390000D03*
X104140000Y-72390000D03*
X101600000Y-72390000D03*
X99060000Y-72390000D03*
X96520000Y-72390000D03*
X96520000Y-87640000D03*
X99060000Y-87640000D03*
X101600000Y-87640000D03*
X104140000Y-87640000D03*
X106680000Y-87640000D03*
X109220000Y-87640000D03*
X111760000Y-87640000D03*
X114300000Y-87640000D03*
X116840000Y-87640000D03*
X119380000Y-87640000D03*
X121920000Y-87640000D03*
X124460000Y-87640000D03*
D26*
X122555000Y-67310000D03*
X125095000Y-67310000D03*
X127635000Y-67310000D03*
D27*
X146685000Y-78105000D03*
X146050000Y-77470000D03*
X147580000Y-78790000D03*
X125095000Y-67310000D03*
X152140000Y-78790000D03*
X153035000Y-78790000D03*
X154305000Y-78740000D03*
X119380000Y-77470000D03*
X126365000Y-90805000D03*
X118110000Y-104140000D03*
D28*
X125730000Y-77470000D02*
X129810000Y-77470000D01*
X129810000Y-77470000D02*
X132610000Y-74670000D01*
X132610000Y-74670000D02*
X132610000Y-72920000D01*
D29*
X146685000Y-78105000D02*
X146050000Y-77470000D01*
X147370000Y-78790000D02*
X146685000Y-78105000D01*
X147580000Y-78790000D02*
X147370000Y-78790000D01*
X141500000Y-72920000D02*
X146050000Y-77470000D01*
X132610000Y-72920000D02*
X141500000Y-72920000D01*
D30*
X135890000Y-67310000D02*
X132610000Y-70590000D01*
X132610000Y-70590000D02*
X132610000Y-72920000D01*
D31*
X102870000Y-99080000D02*
X101370000Y-99080000D01*
X101370000Y-99080000D02*
X96520000Y-94230000D01*
X96520000Y-94230000D02*
X96520000Y-88647627D01*
X96520000Y-88647627D02*
X96520000Y-87640000D01*
D28*
X139700000Y-109220000D02*
X134620000Y-109220000D01*
X134620000Y-109220000D02*
X129540000Y-104140000D01*
X142875000Y-106045000D02*
X139700000Y-109220000D01*
X164465000Y-106045000D02*
X142875000Y-106045000D01*
X172720000Y-97790000D02*
X164465000Y-106045000D01*
D32*
X172720000Y-97790000D02*
X172720000Y-101600000D01*
X172720000Y-101600000D02*
X163830000Y-110490000D01*
D28*
X129540000Y-82550000D02*
X142875000Y-82550000D01*
X142875000Y-82550000D02*
X144780000Y-84455000D01*
X144780000Y-84455000D02*
X162655000Y-84455000D01*
X162655000Y-84455000D02*
X172440000Y-74670000D01*
X172440000Y-74670000D02*
X172440000Y-72920000D01*
X110490000Y-98425000D02*
X110490000Y-96530000D01*
X110490000Y-96530000D02*
X101600000Y-87640000D01*
X111125000Y-99060000D02*
X110490000Y-98425000D01*
X113030000Y-99060000D02*
X111125000Y-99060000D01*
X113020000Y-99060000D02*
X113030000Y-99060000D01*
X109220000Y-97790000D02*
X107950000Y-96520000D01*
X109220000Y-99060000D02*
X109220000Y-97790000D01*
X110921801Y-100761801D02*
X109220000Y-99060000D01*
X113030000Y-101600000D02*
X112191801Y-100761801D01*
X112191801Y-100761801D02*
X110921801Y-100761801D01*
X99060000Y-87640000D02*
X107950000Y-96530000D01*
X120650000Y-106680000D02*
X125730000Y-101600000D01*
X125730000Y-101600000D02*
X129540000Y-101600000D01*
X119380000Y-77470000D02*
X114300000Y-72390000D01*
X125730000Y-90805000D02*
X126365000Y-90805000D01*
X118110000Y-98425000D02*
X125730000Y-90805000D01*
X118110000Y-104140000D02*
X118110000Y-98425000D01*
X122555000Y-67945000D02*
X122555000Y-66675000D01*
X120650000Y-69850000D02*
X122555000Y-67945000D01*
X111760000Y-72390000D02*
X114300000Y-69850000D01*
X114300000Y-69850000D02*
X120650000Y-69850000D01*
X111760000Y-69850000D02*
X113030000Y-69850000D01*
X113030000Y-69850000D02*
X115570000Y-67310000D01*
X109220000Y-72390000D02*
X111760000Y-69850000D01*
X106680000Y-72390000D02*
X111760000Y-67310000D01*
X111760000Y-67310000D02*
X113030000Y-67310000D01*
X104140000Y-72390000D02*
X109220000Y-67310000D01*
X101600000Y-72390000D02*
X106680000Y-67310000D01*
X99060000Y-72390000D02*
X104140000Y-67310000D01*
X96520000Y-72390000D02*
X101600000Y-67310000D01*
X110490000Y-77470000D02*
X110490000Y-86370000D01*
X110490000Y-86370000D02*
X109220000Y-87640000D01*
X115570000Y-77470000D02*
X110490000Y-77470000D01*
X109855000Y-112395000D02*
X107315000Y-112395000D01*
X107315000Y-112395000D02*
X104140000Y-115570000D01*
X114935000Y-107315000D02*
X109855000Y-112395000D01*
X114935000Y-96520000D02*
X114935000Y-107315000D01*
X112472499Y-94057499D02*
X114935000Y-96520000D01*
X111760000Y-87640000D02*
X112472499Y-88352499D01*
X112472499Y-88352499D02*
X112472499Y-94057499D01*
X114300000Y-87640000D02*
X114300000Y-82550000D01*
X119380000Y-82550000D02*
X118248630Y-82550000D01*
X118248630Y-82550000D02*
X114300000Y-82550000D01*
D33*
G36*
X133657246Y-65815302D02*
X133255208Y-66783517D01*
X133255084Y-66925570D01*
X131100327Y-69080327D01*
X130637517Y-69772971D01*
X130475000Y-70590000D01*
X130475000Y-71358569D01*
X130462560Y-71420000D01*
X130462560Y-74420000D01*
X130506838Y-74655317D01*
X130645910Y-74871441D01*
X130858110Y-75016431D01*
X131110000Y-75067440D01*
X131137758Y-75067440D01*
X129495198Y-76710000D01*
X126968646Y-76710000D01*
X126947243Y-76658200D01*
X126543923Y-76254176D01*
X126016691Y-76035250D01*
X125445813Y-76034752D01*
X124918200Y-76252757D01*
X124514176Y-76656077D01*
X124295250Y-77183309D01*
X124294752Y-77754187D01*
X124512757Y-78281800D01*
X124916077Y-78685824D01*
X125443309Y-78904750D01*
X126014187Y-78905248D01*
X126541800Y-78687243D01*
X126945824Y-78283923D01*
X126968215Y-78230000D01*
X129810000Y-78230000D01*
X130100839Y-78172148D01*
X130347401Y-78007401D01*
X133147401Y-75207401D01*
X133240920Y-75067440D01*
X134110000Y-75067440D01*
X134345317Y-75023162D01*
X134561441Y-74884090D01*
X134706431Y-74671890D01*
X134757440Y-74420000D01*
X134757440Y-74055000D01*
X141029868Y-74055000D01*
X146567434Y-79592566D01*
X146935654Y-79838603D01*
X147370000Y-79925000D01*
X147580000Y-79925000D01*
X148014346Y-79838603D01*
X148382566Y-79592566D01*
X148628603Y-79224346D01*
X148715000Y-78790000D01*
X148628603Y-78355654D01*
X148382566Y-77987434D01*
X148014346Y-77741397D01*
X147904724Y-77719592D01*
X142898927Y-72713795D01*
X157174716Y-72713795D01*
X157423106Y-73314943D01*
X157882637Y-73775278D01*
X158483352Y-74024716D01*
X159133795Y-74025284D01*
X159734943Y-73776894D01*
X160195278Y-73317363D01*
X160444716Y-72716648D01*
X160445284Y-72066205D01*
X160196894Y-71465057D01*
X159737363Y-71004722D01*
X159136648Y-70755284D01*
X158486205Y-70754716D01*
X157885057Y-71003106D01*
X157424722Y-71462637D01*
X157175284Y-72063352D01*
X157174716Y-72713795D01*
X142898927Y-72713795D01*
X142302566Y-72117434D01*
X142275985Y-72099673D01*
X141934346Y-71871397D01*
X141500000Y-71785000D01*
X134757440Y-71785000D01*
X134757440Y-71461906D01*
X136273760Y-69945586D01*
X136411884Y-69945707D01*
X137380799Y-69545359D01*
X138122754Y-68804698D01*
X138524792Y-67836483D01*
X138525707Y-66788116D01*
X138125359Y-65819201D01*
X137786750Y-65480000D01*
X144153134Y-65480000D01*
X143817246Y-65815302D01*
X143415208Y-66783517D01*
X143414293Y-67831884D01*
X143814641Y-68800799D01*
X144555302Y-69542754D01*
X145523517Y-69944792D01*
X146571884Y-69945707D01*
X147540799Y-69545359D01*
X148282754Y-68804698D01*
X148684792Y-67836483D01*
X148685707Y-66788116D01*
X148285359Y-65819201D01*
X147946750Y-65480000D01*
X173753333Y-65480000D01*
X178360000Y-68935000D01*
X178360000Y-112735908D01*
X173695908Y-117400000D01*
X99354092Y-117400000D01*
X94690000Y-112735908D01*
X94690000Y-107003795D01*
X101234716Y-107003795D01*
X101483106Y-107604943D01*
X101942637Y-108065278D01*
X102543352Y-108314716D01*
X103193795Y-108315284D01*
X103794943Y-108066894D01*
X104255278Y-107607363D01*
X104504716Y-107006648D01*
X104505284Y-106356205D01*
X104256894Y-105755057D01*
X103797363Y-105294722D01*
X103196648Y-105045284D01*
X102546205Y-105044716D01*
X101945057Y-105293106D01*
X101484722Y-105752637D01*
X101235284Y-106353352D01*
X101234716Y-107003795D01*
X94690000Y-107003795D01*
X94690000Y-87906858D01*
X95172267Y-87906858D01*
X95376979Y-88402300D01*
X95635000Y-88660772D01*
X95635000Y-94229995D01*
X95634999Y-94230000D01*
X95691190Y-94512484D01*
X95702367Y-94568675D01*
X95852872Y-94793923D01*
X95894210Y-94855790D01*
X100744208Y-99705787D01*
X100744210Y-99705790D01*
X101031325Y-99897633D01*
X101087516Y-99908810D01*
X101222560Y-99935673D01*
X101222560Y-100080000D01*
X101266838Y-100315317D01*
X101405910Y-100531441D01*
X101618110Y-100676431D01*
X101870000Y-100727440D01*
X103870000Y-100727440D01*
X104105317Y-100683162D01*
X104321441Y-100544090D01*
X104466431Y-100331890D01*
X104517440Y-100080000D01*
X104517440Y-98080000D01*
X104473162Y-97844683D01*
X104334090Y-97628559D01*
X104121890Y-97483569D01*
X103870000Y-97432560D01*
X101870000Y-97432560D01*
X101634683Y-97476838D01*
X101418559Y-97615910D01*
X101312586Y-97771007D01*
X97405000Y-93863420D01*
X97405000Y-88660535D01*
X97661689Y-88404294D01*
X97790062Y-88095136D01*
X97916979Y-88402300D01*
X98295706Y-88781689D01*
X98790790Y-88987265D01*
X99326858Y-88987733D01*
X99331155Y-88985957D01*
X107412599Y-97067401D01*
X107442736Y-97087538D01*
X108460000Y-98104802D01*
X108460000Y-99060000D01*
X108517852Y-99350839D01*
X108682599Y-99597401D01*
X110384400Y-101299202D01*
X110630962Y-101463949D01*
X110921801Y-101521801D01*
X111556868Y-101521801D01*
X111556545Y-101891752D01*
X111780353Y-102433411D01*
X112194409Y-102848190D01*
X112246392Y-102869775D01*
X112196589Y-102890353D01*
X111781810Y-103304409D01*
X111557056Y-103845677D01*
X111556545Y-104431752D01*
X111780353Y-104973411D01*
X112194409Y-105388190D01*
X112246392Y-105409775D01*
X112196589Y-105430353D01*
X111781810Y-105844409D01*
X111557056Y-106385677D01*
X111556545Y-106971752D01*
X111780353Y-107513411D01*
X112194409Y-107928190D01*
X112735677Y-108152944D01*
X113022004Y-108153194D01*
X109540198Y-111635000D01*
X107315000Y-111635000D01*
X107024161Y-111692852D01*
X106777599Y-111857599D01*
X104506408Y-114128790D01*
X104140000Y-114055907D01*
X103571715Y-114168946D01*
X103089946Y-114490853D01*
X102768039Y-114972622D01*
X102655000Y-115540907D01*
X102655000Y-115599093D01*
X102768039Y-116167378D01*
X103089946Y-116649147D01*
X103571715Y-116971054D01*
X104140000Y-117084093D01*
X104708285Y-116971054D01*
X105190054Y-116649147D01*
X105410000Y-116319974D01*
X105629946Y-116649147D01*
X106111715Y-116971054D01*
X106680000Y-117084093D01*
X107248285Y-116971054D01*
X107730054Y-116649147D01*
X107950000Y-116319974D01*
X108169946Y-116649147D01*
X108651715Y-116971054D01*
X109220000Y-117084093D01*
X109788285Y-116971054D01*
X110270054Y-116649147D01*
X110490000Y-116319974D01*
X110709946Y-116649147D01*
X111191715Y-116971054D01*
X111760000Y-117084093D01*
X112328285Y-116971054D01*
X112810054Y-116649147D01*
X113030000Y-116319974D01*
X113249946Y-116649147D01*
X113731715Y-116971054D01*
X114300000Y-117084093D01*
X114868285Y-116971054D01*
X115350054Y-116649147D01*
X115577702Y-116308447D01*
X115644817Y-116451358D01*
X116073076Y-116841645D01*
X116483110Y-117011476D01*
X116713000Y-116890155D01*
X116713000Y-115697000D01*
X116693000Y-115697000D01*
X116693000Y-115443000D01*
X116713000Y-115443000D01*
X116713000Y-114249845D01*
X116967000Y-114249845D01*
X116967000Y-115443000D01*
X116987000Y-115443000D01*
X116987000Y-115697000D01*
X116967000Y-115697000D01*
X116967000Y-116890155D01*
X117196890Y-117011476D01*
X117606924Y-116841645D01*
X118035183Y-116451358D01*
X118102298Y-116308447D01*
X118329946Y-116649147D01*
X118811715Y-116971054D01*
X119380000Y-117084093D01*
X119948285Y-116971054D01*
X120430054Y-116649147D01*
X120457850Y-116607548D01*
X120466838Y-116655317D01*
X120605910Y-116871441D01*
X120818110Y-117016431D01*
X121070000Y-117067440D01*
X122770000Y-117067440D01*
X123005317Y-117023162D01*
X123221441Y-116884090D01*
X123366431Y-116671890D01*
X123417440Y-116420000D01*
X123417440Y-114720000D01*
X123373162Y-114484683D01*
X123234090Y-114268559D01*
X123021890Y-114123569D01*
X122770000Y-114072560D01*
X121070000Y-114072560D01*
X120834683Y-114116838D01*
X120618559Y-114255910D01*
X120473569Y-114468110D01*
X120459914Y-114535541D01*
X120430054Y-114490853D01*
X119948285Y-114168946D01*
X119380000Y-114055907D01*
X118811715Y-114168946D01*
X118329946Y-114490853D01*
X118102298Y-114831553D01*
X118035183Y-114688642D01*
X117606924Y-114298355D01*
X117196890Y-114128524D01*
X116967000Y-114249845D01*
X116713000Y-114249845D01*
X116483110Y-114128524D01*
X116073076Y-114298355D01*
X115644817Y-114688642D01*
X115577702Y-114831553D01*
X115350054Y-114490853D01*
X114868285Y-114168946D01*
X114300000Y-114055907D01*
X113731715Y-114168946D01*
X113249946Y-114490853D01*
X113030000Y-114820026D01*
X112810054Y-114490853D01*
X112328285Y-114168946D01*
X111760000Y-114055907D01*
X111191715Y-114168946D01*
X110709946Y-114490853D01*
X110490000Y-114820026D01*
X110270054Y-114490853D01*
X109788285Y-114168946D01*
X109220000Y-114055907D01*
X108651715Y-114168946D01*
X108169946Y-114490853D01*
X107950000Y-114820026D01*
X107730054Y-114490853D01*
X107248285Y-114168946D01*
X106720783Y-114064019D01*
X107629802Y-113155000D01*
X109855000Y-113155000D01*
X110145839Y-113097148D01*
X110392401Y-112932401D01*
X115472401Y-107852401D01*
X115637148Y-107605839D01*
X115695000Y-107315000D01*
X115695000Y-104325167D01*
X117174838Y-104325167D01*
X117316883Y-104668943D01*
X117579673Y-104932192D01*
X117923201Y-105074838D01*
X118295167Y-105075162D01*
X118638943Y-104933117D01*
X118902192Y-104670327D01*
X119044838Y-104326799D01*
X119045162Y-103954833D01*
X118903117Y-103611057D01*
X118870000Y-103577882D01*
X118870000Y-101891752D01*
X119176545Y-101891752D01*
X119400353Y-102433411D01*
X119814409Y-102848190D01*
X119866392Y-102869775D01*
X119816589Y-102890353D01*
X119401810Y-103304409D01*
X119177056Y-103845677D01*
X119176545Y-104431752D01*
X119400353Y-104973411D01*
X119814409Y-105388190D01*
X119866392Y-105409775D01*
X119816589Y-105430353D01*
X119401810Y-105844409D01*
X119177056Y-106385677D01*
X119176545Y-106971752D01*
X119400353Y-107513411D01*
X119814409Y-107928190D01*
X120355677Y-108152944D01*
X120941752Y-108153455D01*
X121483411Y-107929647D01*
X121898190Y-107515591D01*
X122122944Y-106974323D01*
X122123455Y-106388248D01*
X122092199Y-106312603D01*
X126044802Y-102360000D01*
X128327005Y-102360000D01*
X128497189Y-102614698D01*
X128879275Y-102870000D01*
X128497189Y-103125302D01*
X128186120Y-103590849D01*
X128076887Y-104140000D01*
X128186120Y-104689151D01*
X128497189Y-105154698D01*
X128879275Y-105410000D01*
X128497189Y-105665302D01*
X128186120Y-106130849D01*
X128076887Y-106680000D01*
X128186120Y-107229151D01*
X128497189Y-107694698D01*
X128962736Y-108005767D01*
X129511887Y-108115000D01*
X129568113Y-108115000D01*
X130117264Y-108005767D01*
X130582811Y-107694698D01*
X130893880Y-107229151D01*
X131003113Y-106680000D01*
X131002595Y-106677397D01*
X134082599Y-109757401D01*
X134329161Y-109922148D01*
X134620000Y-109980000D01*
X139700000Y-109980000D01*
X139990839Y-109922148D01*
X140237401Y-109757401D01*
X143189802Y-106805000D01*
X164465000Y-106805000D01*
X164755839Y-106747148D01*
X165002401Y-106582401D01*
X171085000Y-100499802D01*
X171085000Y-100922761D01*
X164152730Y-107855030D01*
X163308116Y-107854293D01*
X162339201Y-108254641D01*
X161597246Y-108995302D01*
X161195208Y-109963517D01*
X161194293Y-111011884D01*
X161594641Y-111980799D01*
X162335302Y-112722754D01*
X163303517Y-113124792D01*
X164351884Y-113125707D01*
X165320799Y-112725359D01*
X166062754Y-111984698D01*
X166464792Y-111016483D01*
X166464796Y-111011884D01*
X171354293Y-111011884D01*
X171754641Y-111980799D01*
X172495302Y-112722754D01*
X173463517Y-113124792D01*
X174511884Y-113125707D01*
X175480799Y-112725359D01*
X176222754Y-111984698D01*
X176624792Y-111016483D01*
X176625707Y-109968116D01*
X176225359Y-108999201D01*
X175484698Y-108257246D01*
X174516483Y-107855208D01*
X173468116Y-107854293D01*
X172499201Y-108254641D01*
X171757246Y-108995302D01*
X171355208Y-109963517D01*
X171354293Y-111011884D01*
X166464796Y-111011884D01*
X166465534Y-110166706D01*
X173876117Y-102756122D01*
X173876120Y-102756120D01*
X174230543Y-102225687D01*
X174248104Y-102137401D01*
X174355001Y-101600000D01*
X174355000Y-101599995D01*
X174355000Y-99174565D01*
X174528909Y-99000959D01*
X174854628Y-98216541D01*
X174855370Y-97367185D01*
X174531020Y-96582200D01*
X173930959Y-95981091D01*
X173146541Y-95655372D01*
X172297185Y-95654630D01*
X171512200Y-95978980D01*
X170911091Y-96579041D01*
X170585372Y-97363459D01*
X170584630Y-98212815D01*
X170771098Y-98664100D01*
X164150198Y-105285000D01*
X142875000Y-105285000D01*
X142584161Y-105342852D01*
X142337599Y-105507599D01*
X139385198Y-108460000D01*
X134934802Y-108460000D01*
X130938688Y-104463886D01*
X131003113Y-104140000D01*
X130893880Y-103590849D01*
X130582811Y-103125302D01*
X130200725Y-102870000D01*
X130582811Y-102614698D01*
X130893880Y-102149151D01*
X131003113Y-101600000D01*
X135696887Y-101600000D01*
X135806120Y-102149151D01*
X136117189Y-102614698D01*
X136499275Y-102870000D01*
X136117189Y-103125302D01*
X135806120Y-103590849D01*
X135696887Y-104140000D01*
X135806120Y-104689151D01*
X136117189Y-105154698D01*
X136499275Y-105410000D01*
X136117189Y-105665302D01*
X135806120Y-106130849D01*
X135696887Y-106680000D01*
X135806120Y-107229151D01*
X136117189Y-107694698D01*
X136582736Y-108005767D01*
X137131887Y-108115000D01*
X137188113Y-108115000D01*
X137737264Y-108005767D01*
X138202811Y-107694698D01*
X138513880Y-107229151D01*
X138623113Y-106680000D01*
X138513880Y-106130849D01*
X138202811Y-105665302D01*
X137820725Y-105410000D01*
X138202811Y-105154698D01*
X138513880Y-104689151D01*
X138623113Y-104140000D01*
X138513880Y-103590849D01*
X138202811Y-103125302D01*
X137820725Y-102870000D01*
X138202811Y-102614698D01*
X138513880Y-102149151D01*
X138623113Y-101600000D01*
X138513880Y-101050849D01*
X138202811Y-100585302D01*
X137798297Y-100315014D01*
X138015134Y-100212389D01*
X138391041Y-99797423D01*
X138551904Y-99409039D01*
X138429915Y-99187000D01*
X137287000Y-99187000D01*
X137287000Y-99207000D01*
X137033000Y-99207000D01*
X137033000Y-99187000D01*
X135890085Y-99187000D01*
X135768096Y-99409039D01*
X135928959Y-99797423D01*
X136304866Y-100212389D01*
X136521703Y-100315014D01*
X136117189Y-100585302D01*
X135806120Y-101050849D01*
X135696887Y-101600000D01*
X131003113Y-101600000D01*
X130893880Y-101050849D01*
X130582811Y-100585302D01*
X130438535Y-100488899D01*
X130575317Y-100463162D01*
X130791441Y-100324090D01*
X130936431Y-100111890D01*
X130987440Y-99860000D01*
X130987440Y-98710961D01*
X135768096Y-98710961D01*
X135890085Y-98933000D01*
X137033000Y-98933000D01*
X137033000Y-97789371D01*
X137287000Y-97789371D01*
X137287000Y-98933000D01*
X138429915Y-98933000D01*
X138551904Y-98710961D01*
X138391041Y-98322577D01*
X138015134Y-97907611D01*
X137766634Y-97790000D01*
X145143173Y-97790000D01*
X145305690Y-98607029D01*
X145768500Y-99299673D01*
X146461144Y-99762483D01*
X147278173Y-99925000D01*
X147361827Y-99925000D01*
X148178856Y-99762483D01*
X148871500Y-99299673D01*
X149334310Y-98607029D01*
X149496827Y-97790000D01*
X150693173Y-97790000D01*
X150855690Y-98607029D01*
X151318500Y-99299673D01*
X152011144Y-99762483D01*
X152828173Y-99925000D01*
X152911827Y-99925000D01*
X153728856Y-99762483D01*
X154421500Y-99299673D01*
X154884310Y-98607029D01*
X155046827Y-97790000D01*
X164993173Y-97790000D01*
X165155690Y-98607029D01*
X165618500Y-99299673D01*
X166311144Y-99762483D01*
X167128173Y-99925000D01*
X167211827Y-99925000D01*
X168028856Y-99762483D01*
X168721500Y-99299673D01*
X169184310Y-98607029D01*
X169346827Y-97790000D01*
X169184310Y-96972971D01*
X168721500Y-96280327D01*
X168028856Y-95817517D01*
X167211827Y-95655000D01*
X167128173Y-95655000D01*
X166311144Y-95817517D01*
X165618500Y-96280327D01*
X165155690Y-96972971D01*
X164993173Y-97790000D01*
X155046827Y-97790000D01*
X154884310Y-96972971D01*
X154421500Y-96280327D01*
X153728856Y-95817517D01*
X152911827Y-95655000D01*
X152828173Y-95655000D01*
X152011144Y-95817517D01*
X151318500Y-96280327D01*
X150855690Y-96972971D01*
X150693173Y-97790000D01*
X149496827Y-97790000D01*
X149334310Y-96972971D01*
X148871500Y-96280327D01*
X148178856Y-95817517D01*
X147361827Y-95655000D01*
X147278173Y-95655000D01*
X146461144Y-95817517D01*
X145768500Y-96280327D01*
X145305690Y-96972971D01*
X145143173Y-97790000D01*
X137766634Y-97790000D01*
X137509041Y-97668086D01*
X137287000Y-97789371D01*
X137033000Y-97789371D01*
X136810959Y-97668086D01*
X136304866Y-97907611D01*
X135928959Y-98322577D01*
X135768096Y-98710961D01*
X130987440Y-98710961D01*
X130987440Y-98260000D01*
X130943162Y-98024683D01*
X130804090Y-97808559D01*
X130591890Y-97663569D01*
X130340000Y-97612560D01*
X128740000Y-97612560D01*
X128504683Y-97656838D01*
X128288559Y-97795910D01*
X128143569Y-98008110D01*
X128092560Y-98260000D01*
X128092560Y-99860000D01*
X128136838Y-100095317D01*
X128275910Y-100311441D01*
X128488110Y-100456431D01*
X128643089Y-100487815D01*
X128497189Y-100585302D01*
X128327005Y-100840000D01*
X125730000Y-100840000D01*
X125439161Y-100897852D01*
X125192599Y-101062599D01*
X122123208Y-104131990D01*
X122123455Y-103848248D01*
X121899647Y-103306589D01*
X121485591Y-102891810D01*
X121433608Y-102870225D01*
X121483411Y-102849647D01*
X121898190Y-102435591D01*
X122122944Y-101894323D01*
X122123455Y-101308248D01*
X121899647Y-100766589D01*
X121485591Y-100351810D01*
X121432005Y-100329559D01*
X121505808Y-100095413D01*
X120650000Y-99239605D01*
X119794192Y-100095413D01*
X119867871Y-100329164D01*
X119816589Y-100350353D01*
X119401810Y-100764409D01*
X119177056Y-101305677D01*
X119176545Y-101891752D01*
X118870000Y-101891752D01*
X118870000Y-98739802D01*
X119510097Y-98099705D01*
X119614585Y-98204193D01*
X119364510Y-98283017D01*
X119165023Y-98834097D01*
X119191611Y-99419569D01*
X119364510Y-99836983D01*
X119614587Y-99915808D01*
X120470395Y-99060000D01*
X120829605Y-99060000D01*
X121685413Y-99915808D01*
X121935490Y-99836983D01*
X122134977Y-99285903D01*
X122108389Y-98700431D01*
X121935490Y-98283017D01*
X121685413Y-98204192D01*
X120829605Y-99060000D01*
X120470395Y-99060000D01*
X120456253Y-99045858D01*
X120635858Y-98866253D01*
X120650000Y-98880395D01*
X121505808Y-98024587D01*
X121426983Y-97774510D01*
X120875903Y-97575023D01*
X120290431Y-97601611D01*
X119873017Y-97774510D01*
X119794193Y-98024585D01*
X119689705Y-97920097D01*
X123629802Y-93980000D01*
X126171887Y-93980000D01*
X126281120Y-94529151D01*
X126592189Y-94994698D01*
X127057736Y-95305767D01*
X127606887Y-95415000D01*
X127663113Y-95415000D01*
X128212264Y-95305767D01*
X128677811Y-94994698D01*
X128988880Y-94529151D01*
X129098113Y-93980000D01*
X128988880Y-93430849D01*
X128677811Y-92965302D01*
X128212264Y-92654233D01*
X127663113Y-92545000D01*
X127606887Y-92545000D01*
X127057736Y-92654233D01*
X126592189Y-92965302D01*
X126281120Y-93430849D01*
X126171887Y-93980000D01*
X123629802Y-93980000D01*
X125960402Y-91649400D01*
X126178201Y-91739838D01*
X126550167Y-91740162D01*
X126893943Y-91598117D01*
X127157192Y-91335327D01*
X127299838Y-90991799D01*
X127300162Y-90619833D01*
X127158117Y-90276057D01*
X126895327Y-90012808D01*
X126551799Y-89870162D01*
X126179833Y-89869838D01*
X125836057Y-90011883D01*
X125802882Y-90045000D01*
X125730000Y-90045000D01*
X125439160Y-90102852D01*
X125192599Y-90267599D01*
X117572599Y-97887599D01*
X117407852Y-98134161D01*
X117350000Y-98425000D01*
X117350000Y-103577537D01*
X117317808Y-103609673D01*
X117175162Y-103953201D01*
X117174838Y-104325167D01*
X115695000Y-104325167D01*
X115695000Y-96520000D01*
X115637148Y-96229161D01*
X115637148Y-96229160D01*
X115472401Y-95982599D01*
X113753989Y-94264187D01*
X116039752Y-94264187D01*
X116257757Y-94791800D01*
X116661077Y-95195824D01*
X117188309Y-95414750D01*
X117759187Y-95415248D01*
X118286800Y-95197243D01*
X118690824Y-94793923D01*
X118909750Y-94266691D01*
X118910248Y-93695813D01*
X118692243Y-93168200D01*
X118288923Y-92764176D01*
X117761691Y-92545250D01*
X117190813Y-92544752D01*
X116663200Y-92762757D01*
X116259176Y-93166077D01*
X116040250Y-93693309D01*
X116039752Y-94264187D01*
X113753989Y-94264187D01*
X113232499Y-93742697D01*
X113232499Y-88477952D01*
X113535706Y-88781689D01*
X114030790Y-88987265D01*
X114566858Y-88987733D01*
X115062300Y-88783021D01*
X115261331Y-88584337D01*
X116075268Y-88584337D01*
X116138645Y-88821397D01*
X116644134Y-88999866D01*
X117179442Y-88971307D01*
X117541355Y-88821397D01*
X117604732Y-88584337D01*
X116840000Y-87819605D01*
X116075268Y-88584337D01*
X115261331Y-88584337D01*
X115441689Y-88404294D01*
X115563330Y-88111348D01*
X115658603Y-88341355D01*
X115895663Y-88404732D01*
X116660395Y-87640000D01*
X117019605Y-87640000D01*
X117784337Y-88404732D01*
X118021397Y-88341355D01*
X118109127Y-88092873D01*
X118236979Y-88402300D01*
X118615706Y-88781689D01*
X119110790Y-88987265D01*
X119646858Y-88987733D01*
X120142300Y-88783021D01*
X120521689Y-88404294D01*
X120650062Y-88095136D01*
X120776979Y-88402300D01*
X121155706Y-88781689D01*
X121650790Y-88987265D01*
X122186858Y-88987733D01*
X122682300Y-88783021D01*
X123061689Y-88404294D01*
X123190062Y-88095136D01*
X123316979Y-88402300D01*
X123695706Y-88781689D01*
X124190790Y-88987265D01*
X124726858Y-88987733D01*
X125222300Y-88783021D01*
X125585955Y-88420000D01*
X130462560Y-88420000D01*
X130462560Y-91420000D01*
X130506838Y-91655317D01*
X130645910Y-91871441D01*
X130858110Y-92016431D01*
X131110000Y-92067440D01*
X134110000Y-92067440D01*
X134345317Y-92023162D01*
X134561441Y-91884090D01*
X134706431Y-91671890D01*
X134757440Y-91420000D01*
X134757440Y-88420000D01*
X170292560Y-88420000D01*
X170292560Y-91420000D01*
X170336838Y-91655317D01*
X170475910Y-91871441D01*
X170688110Y-92016431D01*
X170940000Y-92067440D01*
X173940000Y-92067440D01*
X174175317Y-92023162D01*
X174391441Y-91884090D01*
X174536431Y-91671890D01*
X174587440Y-91420000D01*
X174587440Y-88420000D01*
X174543162Y-88184683D01*
X174404090Y-87968559D01*
X174191890Y-87823569D01*
X173940000Y-87772560D01*
X170940000Y-87772560D01*
X170704683Y-87816838D01*
X170488559Y-87955910D01*
X170343569Y-88168110D01*
X170292560Y-88420000D01*
X134757440Y-88420000D01*
X134713162Y-88184683D01*
X134574090Y-87968559D01*
X134361890Y-87823569D01*
X134110000Y-87772560D01*
X131110000Y-87772560D01*
X130874683Y-87816838D01*
X130658559Y-87955910D01*
X130513569Y-88168110D01*
X130462560Y-88420000D01*
X125585955Y-88420000D01*
X125601689Y-88404294D01*
X125807265Y-87909210D01*
X125807733Y-87373142D01*
X125603021Y-86877700D01*
X125224294Y-86498311D01*
X124729210Y-86292735D01*
X124193142Y-86292267D01*
X123697700Y-86496979D01*
X123318311Y-86875706D01*
X123189938Y-87184864D01*
X123063021Y-86877700D01*
X122684294Y-86498311D01*
X122189210Y-86292735D01*
X121653142Y-86292267D01*
X121157700Y-86496979D01*
X120778311Y-86875706D01*
X120649938Y-87184864D01*
X120523021Y-86877700D01*
X120144294Y-86498311D01*
X119649210Y-86292735D01*
X119113142Y-86292267D01*
X118617700Y-86496979D01*
X118238311Y-86875706D01*
X118116670Y-87168652D01*
X118021397Y-86938645D01*
X117784337Y-86875268D01*
X117019605Y-87640000D01*
X116660395Y-87640000D01*
X115895663Y-86875268D01*
X115658603Y-86938645D01*
X115570873Y-87187127D01*
X115443021Y-86877700D01*
X115261302Y-86695663D01*
X116075268Y-86695663D01*
X116840000Y-87460395D01*
X117604732Y-86695663D01*
X117541355Y-86458603D01*
X117035866Y-86280134D01*
X116500558Y-86308693D01*
X116138645Y-86458603D01*
X116075268Y-86695663D01*
X115261302Y-86695663D01*
X115064294Y-86498311D01*
X115060000Y-86496528D01*
X115060000Y-83753667D01*
X115342811Y-83564698D01*
X115512995Y-83310000D01*
X118141354Y-83310000D01*
X118162757Y-83361800D01*
X118566077Y-83765824D01*
X119093309Y-83984750D01*
X119664187Y-83985248D01*
X120191800Y-83767243D01*
X120595824Y-83363923D01*
X120814750Y-82836691D01*
X120815000Y-82550000D01*
X128076887Y-82550000D01*
X128186120Y-83099151D01*
X128497189Y-83564698D01*
X128962736Y-83875767D01*
X129511887Y-83985000D01*
X129568113Y-83985000D01*
X130117264Y-83875767D01*
X130582811Y-83564698D01*
X130752995Y-83310000D01*
X142560198Y-83310000D01*
X144242599Y-84992401D01*
X144489161Y-85157148D01*
X144780000Y-85215000D01*
X162655000Y-85215000D01*
X162945839Y-85157148D01*
X163192401Y-84992401D01*
X172977401Y-75207401D01*
X173070920Y-75067440D01*
X173940000Y-75067440D01*
X174175317Y-75023162D01*
X174391441Y-74884090D01*
X174536431Y-74671890D01*
X174587440Y-74420000D01*
X174587440Y-71420000D01*
X174543162Y-71184683D01*
X174404090Y-70968559D01*
X174191890Y-70823569D01*
X173940000Y-70772560D01*
X170940000Y-70772560D01*
X170704683Y-70816838D01*
X170488559Y-70955910D01*
X170343569Y-71168110D01*
X170292560Y-71420000D01*
X170292560Y-74420000D01*
X170336838Y-74655317D01*
X170475910Y-74871441D01*
X170688110Y-75016431D01*
X170940000Y-75067440D01*
X170967758Y-75067440D01*
X162340198Y-83695000D01*
X145094802Y-83695000D01*
X143412401Y-82012599D01*
X143165839Y-81847852D01*
X142875000Y-81790000D01*
X130752995Y-81790000D01*
X130582811Y-81535302D01*
X130117264Y-81224233D01*
X129568113Y-81115000D01*
X129511887Y-81115000D01*
X128962736Y-81224233D01*
X128497189Y-81535302D01*
X128186120Y-82000849D01*
X128076887Y-82550000D01*
X120815000Y-82550000D01*
X120815248Y-82265813D01*
X120597243Y-81738200D01*
X120193923Y-81334176D01*
X119666691Y-81115250D01*
X119095813Y-81114752D01*
X118568200Y-81332757D01*
X118164176Y-81736077D01*
X118141785Y-81790000D01*
X115512995Y-81790000D01*
X115342811Y-81535302D01*
X114877264Y-81224233D01*
X114328113Y-81115000D01*
X114271887Y-81115000D01*
X113722736Y-81224233D01*
X113257189Y-81535302D01*
X112946120Y-82000849D01*
X112836887Y-82550000D01*
X112946120Y-83099151D01*
X113257189Y-83564698D01*
X113540000Y-83753667D01*
X113540000Y-86496029D01*
X113537700Y-86496979D01*
X113158311Y-86875706D01*
X113029938Y-87184864D01*
X112903021Y-86877700D01*
X112524294Y-86498311D01*
X112029210Y-86292735D01*
X111493142Y-86292267D01*
X111245074Y-86394767D01*
X111250000Y-86370000D01*
X111250000Y-78708646D01*
X111301800Y-78687243D01*
X111705824Y-78283923D01*
X111728215Y-78230000D01*
X114357005Y-78230000D01*
X114527189Y-78484698D01*
X114992736Y-78795767D01*
X115541887Y-78905000D01*
X115598113Y-78905000D01*
X116147264Y-78795767D01*
X116612811Y-78484698D01*
X116923880Y-78019151D01*
X117033113Y-77470000D01*
X116923880Y-76920849D01*
X116612811Y-76455302D01*
X116147264Y-76144233D01*
X115598113Y-76035000D01*
X115541887Y-76035000D01*
X114992736Y-76144233D01*
X114527189Y-76455302D01*
X114357005Y-76710000D01*
X111728646Y-76710000D01*
X111707243Y-76658200D01*
X111303923Y-76254176D01*
X110776691Y-76035250D01*
X110205813Y-76034752D01*
X109678200Y-76252757D01*
X109274176Y-76656077D01*
X109055250Y-77183309D01*
X109054752Y-77754187D01*
X109272757Y-78281800D01*
X109676077Y-78685824D01*
X109730000Y-78708215D01*
X109730000Y-86055198D01*
X109491509Y-86293689D01*
X109489210Y-86292735D01*
X108953142Y-86292267D01*
X108457700Y-86496979D01*
X108078311Y-86875706D01*
X107949938Y-87184864D01*
X107823021Y-86877700D01*
X107444294Y-86498311D01*
X106949210Y-86292735D01*
X106413142Y-86292267D01*
X105917700Y-86496979D01*
X105538311Y-86875706D01*
X105409938Y-87184864D01*
X105283021Y-86877700D01*
X104904294Y-86498311D01*
X104409210Y-86292735D01*
X103873142Y-86292267D01*
X103377700Y-86496979D01*
X102998311Y-86875706D01*
X102869938Y-87184864D01*
X102743021Y-86877700D01*
X102364294Y-86498311D01*
X101869210Y-86292735D01*
X101333142Y-86292267D01*
X100837700Y-86496979D01*
X100458311Y-86875706D01*
X100329938Y-87184864D01*
X100203021Y-86877700D01*
X99824294Y-86498311D01*
X99329210Y-86292735D01*
X98793142Y-86292267D01*
X98297700Y-86496979D01*
X97918311Y-86875706D01*
X97789938Y-87184864D01*
X97663021Y-86877700D01*
X97284294Y-86498311D01*
X96789210Y-86292735D01*
X96253142Y-86292267D01*
X95757700Y-86496979D01*
X95378311Y-86875706D01*
X95172735Y-87370790D01*
X95172267Y-87906858D01*
X94690000Y-87906858D01*
X94690000Y-82834187D01*
X102704752Y-82834187D01*
X102922757Y-83361800D01*
X103326077Y-83765824D01*
X103853309Y-83984750D01*
X104424187Y-83985248D01*
X104951800Y-83767243D01*
X105355824Y-83363923D01*
X105574750Y-82836691D01*
X105575248Y-82265813D01*
X105357243Y-81738200D01*
X104953923Y-81334176D01*
X104426691Y-81115250D01*
X103855813Y-81114752D01*
X103328200Y-81332757D01*
X102924176Y-81736077D01*
X102705250Y-82263309D01*
X102704752Y-82834187D01*
X94690000Y-82834187D01*
X94690000Y-77470000D01*
X98866887Y-77470000D01*
X98976120Y-78019151D01*
X99287189Y-78484698D01*
X99752736Y-78795767D01*
X100301887Y-78905000D01*
X100358113Y-78905000D01*
X100907264Y-78795767D01*
X101372811Y-78484698D01*
X101683880Y-78019151D01*
X101793113Y-77470000D01*
X101683880Y-76920849D01*
X101372811Y-76455302D01*
X100907264Y-76144233D01*
X100358113Y-76035000D01*
X100301887Y-76035000D01*
X99752736Y-76144233D01*
X99287189Y-76455302D01*
X98976120Y-76920849D01*
X98866887Y-77470000D01*
X94690000Y-77470000D01*
X94690000Y-72656858D01*
X95172267Y-72656858D01*
X95376979Y-73152300D01*
X95755706Y-73531689D01*
X96250790Y-73737265D01*
X96786858Y-73737733D01*
X97282300Y-73533021D01*
X97661689Y-73154294D01*
X97790062Y-72845136D01*
X97916979Y-73152300D01*
X98295706Y-73531689D01*
X98790790Y-73737265D01*
X99326858Y-73737733D01*
X99822300Y-73533021D01*
X100201689Y-73154294D01*
X100330062Y-72845136D01*
X100456979Y-73152300D01*
X100835706Y-73531689D01*
X101330790Y-73737265D01*
X101866858Y-73737733D01*
X102362300Y-73533021D01*
X102741689Y-73154294D01*
X102870062Y-72845136D01*
X102996979Y-73152300D01*
X103375706Y-73531689D01*
X103870790Y-73737265D01*
X104406858Y-73737733D01*
X104902300Y-73533021D01*
X105281689Y-73154294D01*
X105410062Y-72845136D01*
X105536979Y-73152300D01*
X105915706Y-73531689D01*
X106410790Y-73737265D01*
X106946858Y-73737733D01*
X107442300Y-73533021D01*
X107821689Y-73154294D01*
X107950062Y-72845136D01*
X108076979Y-73152300D01*
X108455706Y-73531689D01*
X108950790Y-73737265D01*
X109486858Y-73737733D01*
X109982300Y-73533021D01*
X110361689Y-73154294D01*
X110490062Y-72845136D01*
X110616979Y-73152300D01*
X110995706Y-73531689D01*
X111490790Y-73737265D01*
X112026858Y-73737733D01*
X112522300Y-73533021D01*
X112901689Y-73154294D01*
X113030062Y-72845136D01*
X113156979Y-73152300D01*
X113535706Y-73531689D01*
X114030790Y-73737265D01*
X114566858Y-73737733D01*
X114571155Y-73735957D01*
X118444878Y-77609680D01*
X118444838Y-77655167D01*
X118586883Y-77998943D01*
X118849673Y-78262192D01*
X119193201Y-78404838D01*
X119565167Y-78405162D01*
X119908943Y-78263117D01*
X120172192Y-78000327D01*
X120314838Y-77656799D01*
X120315162Y-77284833D01*
X120173117Y-76941057D01*
X119910327Y-76677808D01*
X119566799Y-76535162D01*
X119519923Y-76535121D01*
X116722199Y-73737397D01*
X117106858Y-73737733D01*
X117602300Y-73533021D01*
X117981689Y-73154294D01*
X118110062Y-72845136D01*
X118236979Y-73152300D01*
X118615706Y-73531689D01*
X119110790Y-73737265D01*
X119646858Y-73737733D01*
X120142300Y-73533021D01*
X120521689Y-73154294D01*
X120650062Y-72845136D01*
X120776979Y-73152300D01*
X121155706Y-73531689D01*
X121650790Y-73737265D01*
X122186858Y-73737733D01*
X122682300Y-73533021D01*
X123061689Y-73154294D01*
X123100060Y-73061886D01*
X123100060Y-73102500D01*
X123144338Y-73337817D01*
X123283410Y-73553941D01*
X123495610Y-73698931D01*
X123747500Y-73749940D01*
X125172500Y-73749940D01*
X125407817Y-73705662D01*
X125623941Y-73566590D01*
X125768931Y-73354390D01*
X125819940Y-73102500D01*
X125819940Y-71677500D01*
X125775662Y-71442183D01*
X125636590Y-71226059D01*
X125424390Y-71081069D01*
X125172500Y-71030060D01*
X123747500Y-71030060D01*
X123512183Y-71074338D01*
X123296059Y-71213410D01*
X123151069Y-71425610D01*
X123100060Y-71677500D01*
X123100060Y-71717341D01*
X123063021Y-71627700D01*
X122684294Y-71248311D01*
X122189210Y-71042735D01*
X121653142Y-71042267D01*
X121157700Y-71246979D01*
X120778311Y-71625706D01*
X120649938Y-71934864D01*
X120523021Y-71627700D01*
X120144294Y-71248311D01*
X119649210Y-71042735D01*
X119113142Y-71042267D01*
X118617700Y-71246979D01*
X118238311Y-71625706D01*
X118109938Y-71934864D01*
X117983021Y-71627700D01*
X117604294Y-71248311D01*
X117109210Y-71042735D01*
X116573142Y-71042267D01*
X116077700Y-71246979D01*
X115698311Y-71625706D01*
X115569938Y-71934864D01*
X115443021Y-71627700D01*
X115064294Y-71248311D01*
X114569210Y-71042735D01*
X114182405Y-71042397D01*
X114614802Y-70610000D01*
X120650000Y-70610000D01*
X120940839Y-70552148D01*
X121187401Y-70387401D01*
X122867362Y-68707440D01*
X123305000Y-68707440D01*
X123540317Y-68663162D01*
X123756441Y-68524090D01*
X123824734Y-68424140D01*
X123880910Y-68511441D01*
X124093110Y-68656431D01*
X124345000Y-68707440D01*
X125845000Y-68707440D01*
X126080317Y-68663162D01*
X126296441Y-68524090D01*
X126359205Y-68432231D01*
X126525302Y-68598327D01*
X126758691Y-68695000D01*
X127349250Y-68695000D01*
X127508000Y-68536250D01*
X127508000Y-67437000D01*
X127762000Y-67437000D01*
X127762000Y-68536250D01*
X127920750Y-68695000D01*
X128511309Y-68695000D01*
X128744698Y-68598327D01*
X128923327Y-68419699D01*
X129020000Y-68186310D01*
X129020000Y-67595750D01*
X128861250Y-67437000D01*
X127762000Y-67437000D01*
X127508000Y-67437000D01*
X127488000Y-67437000D01*
X127488000Y-67183000D01*
X127508000Y-67183000D01*
X127508000Y-66083750D01*
X127762000Y-66083750D01*
X127762000Y-67183000D01*
X128861250Y-67183000D01*
X129020000Y-67024250D01*
X129020000Y-66433690D01*
X128923327Y-66200301D01*
X128744698Y-66021673D01*
X128511309Y-65925000D01*
X127920750Y-65925000D01*
X127762000Y-66083750D01*
X127508000Y-66083750D01*
X127349250Y-65925000D01*
X126758691Y-65925000D01*
X126525302Y-66021673D01*
X126359725Y-66187249D01*
X126309090Y-66108559D01*
X126096890Y-65963569D01*
X125845000Y-65912560D01*
X124345000Y-65912560D01*
X124109683Y-65956838D01*
X123893559Y-66095910D01*
X123825266Y-66195860D01*
X123769090Y-66108559D01*
X123556890Y-65963569D01*
X123305000Y-65912560D01*
X121805000Y-65912560D01*
X121569683Y-65956838D01*
X121353559Y-66095910D01*
X121208569Y-66308110D01*
X121157560Y-66560000D01*
X121157560Y-68060000D01*
X121190443Y-68234755D01*
X120335198Y-69090000D01*
X114864802Y-69090000D01*
X115203592Y-68751210D01*
X115570000Y-68824093D01*
X116138285Y-68711054D01*
X116620054Y-68389147D01*
X116840000Y-68059974D01*
X117059946Y-68389147D01*
X117541715Y-68711054D01*
X118110000Y-68824093D01*
X118678285Y-68711054D01*
X119160054Y-68389147D01*
X119481961Y-67907378D01*
X119595000Y-67339093D01*
X119595000Y-67280907D01*
X119481961Y-66712622D01*
X119160054Y-66230853D01*
X118678285Y-65908946D01*
X118110000Y-65795907D01*
X117541715Y-65908946D01*
X117059946Y-66230853D01*
X116840000Y-66560026D01*
X116620054Y-66230853D01*
X116138285Y-65908946D01*
X115570000Y-65795907D01*
X115001715Y-65908946D01*
X114519946Y-66230853D01*
X114492150Y-66272452D01*
X114483162Y-66224683D01*
X114344090Y-66008559D01*
X114131890Y-65863569D01*
X113880000Y-65812560D01*
X112180000Y-65812560D01*
X111944683Y-65856838D01*
X111728559Y-65995910D01*
X111583569Y-66208110D01*
X111532560Y-66460000D01*
X111532560Y-66595241D01*
X111469161Y-66607852D01*
X111222599Y-66772599D01*
X110705000Y-67290198D01*
X110705000Y-67280907D01*
X110591961Y-66712622D01*
X110270054Y-66230853D01*
X109788285Y-65908946D01*
X109220000Y-65795907D01*
X108651715Y-65908946D01*
X108169946Y-66230853D01*
X107950000Y-66560026D01*
X107730054Y-66230853D01*
X107248285Y-65908946D01*
X106680000Y-65795907D01*
X106111715Y-65908946D01*
X105629946Y-66230853D01*
X105410000Y-66560026D01*
X105190054Y-66230853D01*
X104708285Y-65908946D01*
X104140000Y-65795907D01*
X103571715Y-65908946D01*
X103089946Y-66230853D01*
X103062150Y-66272452D01*
X103053162Y-66224683D01*
X102914090Y-66008559D01*
X102701890Y-65863569D01*
X102450000Y-65812560D01*
X100750000Y-65812560D01*
X100514683Y-65856838D01*
X100298559Y-65995910D01*
X100153569Y-66208110D01*
X100102560Y-66460000D01*
X100102560Y-67732638D01*
X96791509Y-71043689D01*
X96789210Y-71042735D01*
X96253142Y-71042267D01*
X95757700Y-71246979D01*
X95378311Y-71625706D01*
X95172735Y-72120790D01*
X95172267Y-72656858D01*
X94690000Y-72656858D01*
X94690000Y-70144092D01*
X99354092Y-65480000D01*
X133993134Y-65480000D01*
X133657246Y-65815302D01*
X133657246Y-65815302D01*
G37*
X133657246Y-65815302D02*
X133255208Y-66783517D01*
X133255084Y-66925570D01*
X131100327Y-69080327D01*
X130637517Y-69772971D01*
X130475000Y-70590000D01*
X130475000Y-71358569D01*
X130462560Y-71420000D01*
X130462560Y-74420000D01*
X130506838Y-74655317D01*
X130645910Y-74871441D01*
X130858110Y-75016431D01*
X131110000Y-75067440D01*
X131137758Y-75067440D01*
X129495198Y-76710000D01*
X126968646Y-76710000D01*
X126947243Y-76658200D01*
X126543923Y-76254176D01*
X126016691Y-76035250D01*
X125445813Y-76034752D01*
X124918200Y-76252757D01*
X124514176Y-76656077D01*
X124295250Y-77183309D01*
X124294752Y-77754187D01*
X124512757Y-78281800D01*
X124916077Y-78685824D01*
X125443309Y-78904750D01*
X126014187Y-78905248D01*
X126541800Y-78687243D01*
X126945824Y-78283923D01*
X126968215Y-78230000D01*
X129810000Y-78230000D01*
X130100839Y-78172148D01*
X130347401Y-78007401D01*
X133147401Y-75207401D01*
X133240920Y-75067440D01*
X134110000Y-75067440D01*
X134345317Y-75023162D01*
X134561441Y-74884090D01*
X134706431Y-74671890D01*
X134757440Y-74420000D01*
X134757440Y-74055000D01*
X141029868Y-74055000D01*
X146567434Y-79592566D01*
X146935654Y-79838603D01*
X147370000Y-79925000D01*
X147580000Y-79925000D01*
X148014346Y-79838603D01*
X148382566Y-79592566D01*
X148628603Y-79224346D01*
X148715000Y-78790000D01*
X148628603Y-78355654D01*
X148382566Y-77987434D01*
X148014346Y-77741397D01*
X147904724Y-77719592D01*
X142898927Y-72713795D01*
X157174716Y-72713795D01*
X157423106Y-73314943D01*
X157882637Y-73775278D01*
X158483352Y-74024716D01*
X159133795Y-74025284D01*
X159734943Y-73776894D01*
X160195278Y-73317363D01*
X160444716Y-72716648D01*
X160445284Y-72066205D01*
X160196894Y-71465057D01*
X159737363Y-71004722D01*
X159136648Y-70755284D01*
X158486205Y-70754716D01*
X157885057Y-71003106D01*
X157424722Y-71462637D01*
X157175284Y-72063352D01*
X157174716Y-72713795D01*
X142898927Y-72713795D01*
X142302566Y-72117434D01*
X142275985Y-72099673D01*
X141934346Y-71871397D01*
X141500000Y-71785000D01*
X134757440Y-71785000D01*
X134757440Y-71461906D01*
X136273760Y-69945586D01*
X136411884Y-69945707D01*
X137380799Y-69545359D01*
X138122754Y-68804698D01*
X138524792Y-67836483D01*
X138525707Y-66788116D01*
X138125359Y-65819201D01*
X137786750Y-65480000D01*
X144153134Y-65480000D01*
X143817246Y-65815302D01*
X143415208Y-66783517D01*
X143414293Y-67831884D01*
X143814641Y-68800799D01*
X144555302Y-69542754D01*
X145523517Y-69944792D01*
X146571884Y-69945707D01*
X147540799Y-69545359D01*
X148282754Y-68804698D01*
X148684792Y-67836483D01*
X148685707Y-66788116D01*
X148285359Y-65819201D01*
X147946750Y-65480000D01*
X173753333Y-65480000D01*
X178360000Y-68935000D01*
X178360000Y-112735908D01*
X173695908Y-117400000D01*
X99354092Y-117400000D01*
X94690000Y-112735908D01*
X94690000Y-107003795D01*
X101234716Y-107003795D01*
X101483106Y-107604943D01*
X101942637Y-108065278D01*
X102543352Y-108314716D01*
X103193795Y-108315284D01*
X103794943Y-108066894D01*
X104255278Y-107607363D01*
X104504716Y-107006648D01*
X104505284Y-106356205D01*
X104256894Y-105755057D01*
X103797363Y-105294722D01*
X103196648Y-105045284D01*
X102546205Y-105044716D01*
X101945057Y-105293106D01*
X101484722Y-105752637D01*
X101235284Y-106353352D01*
X101234716Y-107003795D01*
X94690000Y-107003795D01*
X94690000Y-87906858D01*
X95172267Y-87906858D01*
X95376979Y-88402300D01*
X95635000Y-88660772D01*
X95635000Y-94229995D01*
X95634999Y-94230000D01*
X95691190Y-94512484D01*
X95702367Y-94568675D01*
X95852872Y-94793923D01*
X95894210Y-94855790D01*
X100744208Y-99705787D01*
X100744210Y-99705790D01*
X101031325Y-99897633D01*
X101087516Y-99908810D01*
X101222560Y-99935673D01*
X101222560Y-100080000D01*
X101266838Y-100315317D01*
X101405910Y-100531441D01*
X101618110Y-100676431D01*
X101870000Y-100727440D01*
X103870000Y-100727440D01*
X104105317Y-100683162D01*
X104321441Y-100544090D01*
X104466431Y-100331890D01*
X104517440Y-100080000D01*
X104517440Y-98080000D01*
X104473162Y-97844683D01*
X104334090Y-97628559D01*
X104121890Y-97483569D01*
X103870000Y-97432560D01*
X101870000Y-97432560D01*
X101634683Y-97476838D01*
X101418559Y-97615910D01*
X101312586Y-97771007D01*
X97405000Y-93863420D01*
X97405000Y-88660535D01*
X97661689Y-88404294D01*
X97790062Y-88095136D01*
X97916979Y-88402300D01*
X98295706Y-88781689D01*
X98790790Y-88987265D01*
X99326858Y-88987733D01*
X99331155Y-88985957D01*
X107412599Y-97067401D01*
X107442736Y-97087538D01*
X108460000Y-98104802D01*
X108460000Y-99060000D01*
X108517852Y-99350839D01*
X108682599Y-99597401D01*
X110384400Y-101299202D01*
X110630962Y-101463949D01*
X110921801Y-101521801D01*
X111556868Y-101521801D01*
X111556545Y-101891752D01*
X111780353Y-102433411D01*
X112194409Y-102848190D01*
X112246392Y-102869775D01*
X112196589Y-102890353D01*
X111781810Y-103304409D01*
X111557056Y-103845677D01*
X111556545Y-104431752D01*
X111780353Y-104973411D01*
X112194409Y-105388190D01*
X112246392Y-105409775D01*
X112196589Y-105430353D01*
X111781810Y-105844409D01*
X111557056Y-106385677D01*
X111556545Y-106971752D01*
X111780353Y-107513411D01*
X112194409Y-107928190D01*
X112735677Y-108152944D01*
X113022004Y-108153194D01*
X109540198Y-111635000D01*
X107315000Y-111635000D01*
X107024161Y-111692852D01*
X106777599Y-111857599D01*
X104506408Y-114128790D01*
X104140000Y-114055907D01*
X103571715Y-114168946D01*
X103089946Y-114490853D01*
X102768039Y-114972622D01*
X102655000Y-115540907D01*
X102655000Y-115599093D01*
X102768039Y-116167378D01*
X103089946Y-116649147D01*
X103571715Y-116971054D01*
X104140000Y-117084093D01*
X104708285Y-116971054D01*
X105190054Y-116649147D01*
X105410000Y-116319974D01*
X105629946Y-116649147D01*
X106111715Y-116971054D01*
X106680000Y-117084093D01*
X107248285Y-116971054D01*
X107730054Y-116649147D01*
X107950000Y-116319974D01*
X108169946Y-116649147D01*
X108651715Y-116971054D01*
X109220000Y-117084093D01*
X109788285Y-116971054D01*
X110270054Y-116649147D01*
X110490000Y-116319974D01*
X110709946Y-116649147D01*
X111191715Y-116971054D01*
X111760000Y-117084093D01*
X112328285Y-116971054D01*
X112810054Y-116649147D01*
X113030000Y-116319974D01*
X113249946Y-116649147D01*
X113731715Y-116971054D01*
X114300000Y-117084093D01*
X114868285Y-116971054D01*
X115350054Y-116649147D01*
X115577702Y-116308447D01*
X115644817Y-116451358D01*
X116073076Y-116841645D01*
X116483110Y-117011476D01*
X116713000Y-116890155D01*
X116713000Y-115697000D01*
X116693000Y-115697000D01*
X116693000Y-115443000D01*
X116713000Y-115443000D01*
X116713000Y-114249845D01*
X116967000Y-114249845D01*
X116967000Y-115443000D01*
X116987000Y-115443000D01*
X116987000Y-115697000D01*
X116967000Y-115697000D01*
X116967000Y-116890155D01*
X117196890Y-117011476D01*
X117606924Y-116841645D01*
X118035183Y-116451358D01*
X118102298Y-116308447D01*
X118329946Y-116649147D01*
X118811715Y-116971054D01*
X119380000Y-117084093D01*
X119948285Y-116971054D01*
X120430054Y-116649147D01*
X120457850Y-116607548D01*
X120466838Y-116655317D01*
X120605910Y-116871441D01*
X120818110Y-117016431D01*
X121070000Y-117067440D01*
X122770000Y-117067440D01*
X123005317Y-117023162D01*
X123221441Y-116884090D01*
X123366431Y-116671890D01*
X123417440Y-116420000D01*
X123417440Y-114720000D01*
X123373162Y-114484683D01*
X123234090Y-114268559D01*
X123021890Y-114123569D01*
X122770000Y-114072560D01*
X121070000Y-114072560D01*
X120834683Y-114116838D01*
X120618559Y-114255910D01*
X120473569Y-114468110D01*
X120459914Y-114535541D01*
X120430054Y-114490853D01*
X119948285Y-114168946D01*
X119380000Y-114055907D01*
X118811715Y-114168946D01*
X118329946Y-114490853D01*
X118102298Y-114831553D01*
X118035183Y-114688642D01*
X117606924Y-114298355D01*
X117196890Y-114128524D01*
X116967000Y-114249845D01*
X116713000Y-114249845D01*
X116483110Y-114128524D01*
X116073076Y-114298355D01*
X115644817Y-114688642D01*
X115577702Y-114831553D01*
X115350054Y-114490853D01*
X114868285Y-114168946D01*
X114300000Y-114055907D01*
X113731715Y-114168946D01*
X113249946Y-114490853D01*
X113030000Y-114820026D01*
X112810054Y-114490853D01*
X112328285Y-114168946D01*
X111760000Y-114055907D01*
X111191715Y-114168946D01*
X110709946Y-114490853D01*
X110490000Y-114820026D01*
X110270054Y-114490853D01*
X109788285Y-114168946D01*
X109220000Y-114055907D01*
X108651715Y-114168946D01*
X108169946Y-114490853D01*
X107950000Y-114820026D01*
X107730054Y-114490853D01*
X107248285Y-114168946D01*
X106720783Y-114064019D01*
X107629802Y-113155000D01*
X109855000Y-113155000D01*
X110145839Y-113097148D01*
X110392401Y-112932401D01*
X115472401Y-107852401D01*
X115637148Y-107605839D01*
X115695000Y-107315000D01*
X115695000Y-104325167D01*
X117174838Y-104325167D01*
X117316883Y-104668943D01*
X117579673Y-104932192D01*
X117923201Y-105074838D01*
X118295167Y-105075162D01*
X118638943Y-104933117D01*
X118902192Y-104670327D01*
X119044838Y-104326799D01*
X119045162Y-103954833D01*
X118903117Y-103611057D01*
X118870000Y-103577882D01*
X118870000Y-101891752D01*
X119176545Y-101891752D01*
X119400353Y-102433411D01*
X119814409Y-102848190D01*
X119866392Y-102869775D01*
X119816589Y-102890353D01*
X119401810Y-103304409D01*
X119177056Y-103845677D01*
X119176545Y-104431752D01*
X119400353Y-104973411D01*
X119814409Y-105388190D01*
X119866392Y-105409775D01*
X119816589Y-105430353D01*
X119401810Y-105844409D01*
X119177056Y-106385677D01*
X119176545Y-106971752D01*
X119400353Y-107513411D01*
X119814409Y-107928190D01*
X120355677Y-108152944D01*
X120941752Y-108153455D01*
X121483411Y-107929647D01*
X121898190Y-107515591D01*
X122122944Y-106974323D01*
X122123455Y-106388248D01*
X122092199Y-106312603D01*
X126044802Y-102360000D01*
X128327005Y-102360000D01*
X128497189Y-102614698D01*
X128879275Y-102870000D01*
X128497189Y-103125302D01*
X128186120Y-103590849D01*
X128076887Y-104140000D01*
X128186120Y-104689151D01*
X128497189Y-105154698D01*
X128879275Y-105410000D01*
X128497189Y-105665302D01*
X128186120Y-106130849D01*
X128076887Y-106680000D01*
X128186120Y-107229151D01*
X128497189Y-107694698D01*
X128962736Y-108005767D01*
X129511887Y-108115000D01*
X129568113Y-108115000D01*
X130117264Y-108005767D01*
X130582811Y-107694698D01*
X130893880Y-107229151D01*
X131003113Y-106680000D01*
X131002595Y-106677397D01*
X134082599Y-109757401D01*
X134329161Y-109922148D01*
X134620000Y-109980000D01*
X139700000Y-109980000D01*
X139990839Y-109922148D01*
X140237401Y-109757401D01*
X143189802Y-106805000D01*
X164465000Y-106805000D01*
X164755839Y-106747148D01*
X165002401Y-106582401D01*
X171085000Y-100499802D01*
X171085000Y-100922761D01*
X164152730Y-107855030D01*
X163308116Y-107854293D01*
X162339201Y-108254641D01*
X161597246Y-108995302D01*
X161195208Y-109963517D01*
X161194293Y-111011884D01*
X161594641Y-111980799D01*
X162335302Y-112722754D01*
X163303517Y-113124792D01*
X164351884Y-113125707D01*
X165320799Y-112725359D01*
X166062754Y-111984698D01*
X166464792Y-111016483D01*
X166464796Y-111011884D01*
X171354293Y-111011884D01*
X171754641Y-111980799D01*
X172495302Y-112722754D01*
X173463517Y-113124792D01*
X174511884Y-113125707D01*
X175480799Y-112725359D01*
X176222754Y-111984698D01*
X176624792Y-111016483D01*
X176625707Y-109968116D01*
X176225359Y-108999201D01*
X175484698Y-108257246D01*
X174516483Y-107855208D01*
X173468116Y-107854293D01*
X172499201Y-108254641D01*
X171757246Y-108995302D01*
X171355208Y-109963517D01*
X171354293Y-111011884D01*
X166464796Y-111011884D01*
X166465534Y-110166706D01*
X173876117Y-102756122D01*
X173876120Y-102756120D01*
X174230543Y-102225687D01*
X174248104Y-102137401D01*
X174355001Y-101600000D01*
X174355000Y-101599995D01*
X174355000Y-99174565D01*
X174528909Y-99000959D01*
X174854628Y-98216541D01*
X174855370Y-97367185D01*
X174531020Y-96582200D01*
X173930959Y-95981091D01*
X173146541Y-95655372D01*
X172297185Y-95654630D01*
X171512200Y-95978980D01*
X170911091Y-96579041D01*
X170585372Y-97363459D01*
X170584630Y-98212815D01*
X170771098Y-98664100D01*
X164150198Y-105285000D01*
X142875000Y-105285000D01*
X142584161Y-105342852D01*
X142337599Y-105507599D01*
X139385198Y-108460000D01*
X134934802Y-108460000D01*
X130938688Y-104463886D01*
X131003113Y-104140000D01*
X130893880Y-103590849D01*
X130582811Y-103125302D01*
X130200725Y-102870000D01*
X130582811Y-102614698D01*
X130893880Y-102149151D01*
X131003113Y-101600000D01*
X135696887Y-101600000D01*
X135806120Y-102149151D01*
X136117189Y-102614698D01*
X136499275Y-102870000D01*
X136117189Y-103125302D01*
X135806120Y-103590849D01*
X135696887Y-104140000D01*
X135806120Y-104689151D01*
X136117189Y-105154698D01*
X136499275Y-105410000D01*
X136117189Y-105665302D01*
X135806120Y-106130849D01*
X135696887Y-106680000D01*
X135806120Y-107229151D01*
X136117189Y-107694698D01*
X136582736Y-108005767D01*
X137131887Y-108115000D01*
X137188113Y-108115000D01*
X137737264Y-108005767D01*
X138202811Y-107694698D01*
X138513880Y-107229151D01*
X138623113Y-106680000D01*
X138513880Y-106130849D01*
X138202811Y-105665302D01*
X137820725Y-105410000D01*
X138202811Y-105154698D01*
X138513880Y-104689151D01*
X138623113Y-104140000D01*
X138513880Y-103590849D01*
X138202811Y-103125302D01*
X137820725Y-102870000D01*
X138202811Y-102614698D01*
X138513880Y-102149151D01*
X138623113Y-101600000D01*
X138513880Y-101050849D01*
X138202811Y-100585302D01*
X137798297Y-100315014D01*
X138015134Y-100212389D01*
X138391041Y-99797423D01*
X138551904Y-99409039D01*
X138429915Y-99187000D01*
X137287000Y-99187000D01*
X137287000Y-99207000D01*
X137033000Y-99207000D01*
X137033000Y-99187000D01*
X135890085Y-99187000D01*
X135768096Y-99409039D01*
X135928959Y-99797423D01*
X136304866Y-100212389D01*
X136521703Y-100315014D01*
X136117189Y-100585302D01*
X135806120Y-101050849D01*
X135696887Y-101600000D01*
X131003113Y-101600000D01*
X130893880Y-101050849D01*
X130582811Y-100585302D01*
X130438535Y-100488899D01*
X130575317Y-100463162D01*
X130791441Y-100324090D01*
X130936431Y-100111890D01*
X130987440Y-99860000D01*
X130987440Y-98710961D01*
X135768096Y-98710961D01*
X135890085Y-98933000D01*
X137033000Y-98933000D01*
X137033000Y-97789371D01*
X137287000Y-97789371D01*
X137287000Y-98933000D01*
X138429915Y-98933000D01*
X138551904Y-98710961D01*
X138391041Y-98322577D01*
X138015134Y-97907611D01*
X137766634Y-97790000D01*
X145143173Y-97790000D01*
X145305690Y-98607029D01*
X145768500Y-99299673D01*
X146461144Y-99762483D01*
X147278173Y-99925000D01*
X147361827Y-99925000D01*
X148178856Y-99762483D01*
X148871500Y-99299673D01*
X149334310Y-98607029D01*
X149496827Y-97790000D01*
X150693173Y-97790000D01*
X150855690Y-98607029D01*
X151318500Y-99299673D01*
X152011144Y-99762483D01*
X152828173Y-99925000D01*
X152911827Y-99925000D01*
X153728856Y-99762483D01*
X154421500Y-99299673D01*
X154884310Y-98607029D01*
X155046827Y-97790000D01*
X164993173Y-97790000D01*
X165155690Y-98607029D01*
X165618500Y-99299673D01*
X166311144Y-99762483D01*
X167128173Y-99925000D01*
X167211827Y-99925000D01*
X168028856Y-99762483D01*
X168721500Y-99299673D01*
X169184310Y-98607029D01*
X169346827Y-97790000D01*
X169184310Y-96972971D01*
X168721500Y-96280327D01*
X168028856Y-95817517D01*
X167211827Y-95655000D01*
X167128173Y-95655000D01*
X166311144Y-95817517D01*
X165618500Y-96280327D01*
X165155690Y-96972971D01*
X164993173Y-97790000D01*
X155046827Y-97790000D01*
X154884310Y-96972971D01*
X154421500Y-96280327D01*
X153728856Y-95817517D01*
X152911827Y-95655000D01*
X152828173Y-95655000D01*
X152011144Y-95817517D01*
X151318500Y-96280327D01*
X150855690Y-96972971D01*
X150693173Y-97790000D01*
X149496827Y-97790000D01*
X149334310Y-96972971D01*
X148871500Y-96280327D01*
X148178856Y-95817517D01*
X147361827Y-95655000D01*
X147278173Y-95655000D01*
X146461144Y-95817517D01*
X145768500Y-96280327D01*
X145305690Y-96972971D01*
X145143173Y-97790000D01*
X137766634Y-97790000D01*
X137509041Y-97668086D01*
X137287000Y-97789371D01*
X137033000Y-97789371D01*
X136810959Y-97668086D01*
X136304866Y-97907611D01*
X135928959Y-98322577D01*
X135768096Y-98710961D01*
X130987440Y-98710961D01*
X130987440Y-98260000D01*
X130943162Y-98024683D01*
X130804090Y-97808559D01*
X130591890Y-97663569D01*
X130340000Y-97612560D01*
X128740000Y-97612560D01*
X128504683Y-97656838D01*
X128288559Y-97795910D01*
X128143569Y-98008110D01*
X128092560Y-98260000D01*
X128092560Y-99860000D01*
X128136838Y-100095317D01*
X128275910Y-100311441D01*
X128488110Y-100456431D01*
X128643089Y-100487815D01*
X128497189Y-100585302D01*
X128327005Y-100840000D01*
X125730000Y-100840000D01*
X125439161Y-100897852D01*
X125192599Y-101062599D01*
X122123208Y-104131990D01*
X122123455Y-103848248D01*
X121899647Y-103306589D01*
X121485591Y-102891810D01*
X121433608Y-102870225D01*
X121483411Y-102849647D01*
X121898190Y-102435591D01*
X122122944Y-101894323D01*
X122123455Y-101308248D01*
X121899647Y-100766589D01*
X121485591Y-100351810D01*
X121432005Y-100329559D01*
X121505808Y-100095413D01*
X120650000Y-99239605D01*
X119794192Y-100095413D01*
X119867871Y-100329164D01*
X119816589Y-100350353D01*
X119401810Y-100764409D01*
X119177056Y-101305677D01*
X119176545Y-101891752D01*
X118870000Y-101891752D01*
X118870000Y-98739802D01*
X119510097Y-98099705D01*
X119614585Y-98204193D01*
X119364510Y-98283017D01*
X119165023Y-98834097D01*
X119191611Y-99419569D01*
X119364510Y-99836983D01*
X119614587Y-99915808D01*
X120470395Y-99060000D01*
X120829605Y-99060000D01*
X121685413Y-99915808D01*
X121935490Y-99836983D01*
X122134977Y-99285903D01*
X122108389Y-98700431D01*
X121935490Y-98283017D01*
X121685413Y-98204192D01*
X120829605Y-99060000D01*
X120470395Y-99060000D01*
X120456253Y-99045858D01*
X120635858Y-98866253D01*
X120650000Y-98880395D01*
X121505808Y-98024587D01*
X121426983Y-97774510D01*
X120875903Y-97575023D01*
X120290431Y-97601611D01*
X119873017Y-97774510D01*
X119794193Y-98024585D01*
X119689705Y-97920097D01*
X123629802Y-93980000D01*
X126171887Y-93980000D01*
X126281120Y-94529151D01*
X126592189Y-94994698D01*
X127057736Y-95305767D01*
X127606887Y-95415000D01*
X127663113Y-95415000D01*
X128212264Y-95305767D01*
X128677811Y-94994698D01*
X128988880Y-94529151D01*
X129098113Y-93980000D01*
X128988880Y-93430849D01*
X128677811Y-92965302D01*
X128212264Y-92654233D01*
X127663113Y-92545000D01*
X127606887Y-92545000D01*
X127057736Y-92654233D01*
X126592189Y-92965302D01*
X126281120Y-93430849D01*
X126171887Y-93980000D01*
X123629802Y-93980000D01*
X125960402Y-91649400D01*
X126178201Y-91739838D01*
X126550167Y-91740162D01*
X126893943Y-91598117D01*
X127157192Y-91335327D01*
X127299838Y-90991799D01*
X127300162Y-90619833D01*
X127158117Y-90276057D01*
X126895327Y-90012808D01*
X126551799Y-89870162D01*
X126179833Y-89869838D01*
X125836057Y-90011883D01*
X125802882Y-90045000D01*
X125730000Y-90045000D01*
X125439160Y-90102852D01*
X125192599Y-90267599D01*
X117572599Y-97887599D01*
X117407852Y-98134161D01*
X117350000Y-98425000D01*
X117350000Y-103577537D01*
X117317808Y-103609673D01*
X117175162Y-103953201D01*
X117174838Y-104325167D01*
X115695000Y-104325167D01*
X115695000Y-96520000D01*
X115637148Y-96229161D01*
X115637148Y-96229160D01*
X115472401Y-95982599D01*
X113753989Y-94264187D01*
X116039752Y-94264187D01*
X116257757Y-94791800D01*
X116661077Y-95195824D01*
X117188309Y-95414750D01*
X117759187Y-95415248D01*
X118286800Y-95197243D01*
X118690824Y-94793923D01*
X118909750Y-94266691D01*
X118910248Y-93695813D01*
X118692243Y-93168200D01*
X118288923Y-92764176D01*
X117761691Y-92545250D01*
X117190813Y-92544752D01*
X116663200Y-92762757D01*
X116259176Y-93166077D01*
X116040250Y-93693309D01*
X116039752Y-94264187D01*
X113753989Y-94264187D01*
X113232499Y-93742697D01*
X113232499Y-88477952D01*
X113535706Y-88781689D01*
X114030790Y-88987265D01*
X114566858Y-88987733D01*
X115062300Y-88783021D01*
X115261331Y-88584337D01*
X116075268Y-88584337D01*
X116138645Y-88821397D01*
X116644134Y-88999866D01*
X117179442Y-88971307D01*
X117541355Y-88821397D01*
X117604732Y-88584337D01*
X116840000Y-87819605D01*
X116075268Y-88584337D01*
X115261331Y-88584337D01*
X115441689Y-88404294D01*
X115563330Y-88111348D01*
X115658603Y-88341355D01*
X115895663Y-88404732D01*
X116660395Y-87640000D01*
X117019605Y-87640000D01*
X117784337Y-88404732D01*
X118021397Y-88341355D01*
X118109127Y-88092873D01*
X118236979Y-88402300D01*
X118615706Y-88781689D01*
X119110790Y-88987265D01*
X119646858Y-88987733D01*
X120142300Y-88783021D01*
X120521689Y-88404294D01*
X120650062Y-88095136D01*
X120776979Y-88402300D01*
X121155706Y-88781689D01*
X121650790Y-88987265D01*
X122186858Y-88987733D01*
X122682300Y-88783021D01*
X123061689Y-88404294D01*
X123190062Y-88095136D01*
X123316979Y-88402300D01*
X123695706Y-88781689D01*
X124190790Y-88987265D01*
X124726858Y-88987733D01*
X125222300Y-88783021D01*
X125585955Y-88420000D01*
X130462560Y-88420000D01*
X130462560Y-91420000D01*
X130506838Y-91655317D01*
X130645910Y-91871441D01*
X130858110Y-92016431D01*
X131110000Y-92067440D01*
X134110000Y-92067440D01*
X134345317Y-92023162D01*
X134561441Y-91884090D01*
X134706431Y-91671890D01*
X134757440Y-91420000D01*
X134757440Y-88420000D01*
X170292560Y-88420000D01*
X170292560Y-91420000D01*
X170336838Y-91655317D01*
X170475910Y-91871441D01*
X170688110Y-92016431D01*
X170940000Y-92067440D01*
X173940000Y-92067440D01*
X174175317Y-92023162D01*
X174391441Y-91884090D01*
X174536431Y-91671890D01*
X174587440Y-91420000D01*
X174587440Y-88420000D01*
X174543162Y-88184683D01*
X174404090Y-87968559D01*
X174191890Y-87823569D01*
X173940000Y-87772560D01*
X170940000Y-87772560D01*
X170704683Y-87816838D01*
X170488559Y-87955910D01*
X170343569Y-88168110D01*
X170292560Y-88420000D01*
X134757440Y-88420000D01*
X134713162Y-88184683D01*
X134574090Y-87968559D01*
X134361890Y-87823569D01*
X134110000Y-87772560D01*
X131110000Y-87772560D01*
X130874683Y-87816838D01*
X130658559Y-87955910D01*
X130513569Y-88168110D01*
X130462560Y-88420000D01*
X125585955Y-88420000D01*
X125601689Y-88404294D01*
X125807265Y-87909210D01*
X125807733Y-87373142D01*
X125603021Y-86877700D01*
X125224294Y-86498311D01*
X124729210Y-86292735D01*
X124193142Y-86292267D01*
X123697700Y-86496979D01*
X123318311Y-86875706D01*
X123189938Y-87184864D01*
X123063021Y-86877700D01*
X122684294Y-86498311D01*
X122189210Y-86292735D01*
X121653142Y-86292267D01*
X121157700Y-86496979D01*
X120778311Y-86875706D01*
X120649938Y-87184864D01*
X120523021Y-86877700D01*
X120144294Y-86498311D01*
X119649210Y-86292735D01*
X119113142Y-86292267D01*
X118617700Y-86496979D01*
X118238311Y-86875706D01*
X118116670Y-87168652D01*
X118021397Y-86938645D01*
X117784337Y-86875268D01*
X117019605Y-87640000D01*
X116660395Y-87640000D01*
X115895663Y-86875268D01*
X115658603Y-86938645D01*
X115570873Y-87187127D01*
X115443021Y-86877700D01*
X115261302Y-86695663D01*
X116075268Y-86695663D01*
X116840000Y-87460395D01*
X117604732Y-86695663D01*
X117541355Y-86458603D01*
X117035866Y-86280134D01*
X116500558Y-86308693D01*
X116138645Y-86458603D01*
X116075268Y-86695663D01*
X115261302Y-86695663D01*
X115064294Y-86498311D01*
X115060000Y-86496528D01*
X115060000Y-83753667D01*
X115342811Y-83564698D01*
X115512995Y-83310000D01*
X118141354Y-83310000D01*
X118162757Y-83361800D01*
X118566077Y-83765824D01*
X119093309Y-83984750D01*
X119664187Y-83985248D01*
X120191800Y-83767243D01*
X120595824Y-83363923D01*
X120814750Y-82836691D01*
X120815000Y-82550000D01*
X128076887Y-82550000D01*
X128186120Y-83099151D01*
X128497189Y-83564698D01*
X128962736Y-83875767D01*
X129511887Y-83985000D01*
X129568113Y-83985000D01*
X130117264Y-83875767D01*
X130582811Y-83564698D01*
X130752995Y-83310000D01*
X142560198Y-83310000D01*
X144242599Y-84992401D01*
X144489161Y-85157148D01*
X144780000Y-85215000D01*
X162655000Y-85215000D01*
X162945839Y-85157148D01*
X163192401Y-84992401D01*
X172977401Y-75207401D01*
X173070920Y-75067440D01*
X173940000Y-75067440D01*
X174175317Y-75023162D01*
X174391441Y-74884090D01*
X174536431Y-74671890D01*
X174587440Y-74420000D01*
X174587440Y-71420000D01*
X174543162Y-71184683D01*
X174404090Y-70968559D01*
X174191890Y-70823569D01*
X173940000Y-70772560D01*
X170940000Y-70772560D01*
X170704683Y-70816838D01*
X170488559Y-70955910D01*
X170343569Y-71168110D01*
X170292560Y-71420000D01*
X170292560Y-74420000D01*
X170336838Y-74655317D01*
X170475910Y-74871441D01*
X170688110Y-75016431D01*
X170940000Y-75067440D01*
X170967758Y-75067440D01*
X162340198Y-83695000D01*
X145094802Y-83695000D01*
X143412401Y-82012599D01*
X143165839Y-81847852D01*
X142875000Y-81790000D01*
X130752995Y-81790000D01*
X130582811Y-81535302D01*
X130117264Y-81224233D01*
X129568113Y-81115000D01*
X129511887Y-81115000D01*
X128962736Y-81224233D01*
X128497189Y-81535302D01*
X128186120Y-82000849D01*
X128076887Y-82550000D01*
X120815000Y-82550000D01*
X120815248Y-82265813D01*
X120597243Y-81738200D01*
X120193923Y-81334176D01*
X119666691Y-81115250D01*
X119095813Y-81114752D01*
X118568200Y-81332757D01*
X118164176Y-81736077D01*
X118141785Y-81790000D01*
X115512995Y-81790000D01*
X115342811Y-81535302D01*
X114877264Y-81224233D01*
X114328113Y-81115000D01*
X114271887Y-81115000D01*
X113722736Y-81224233D01*
X113257189Y-81535302D01*
X112946120Y-82000849D01*
X112836887Y-82550000D01*
X112946120Y-83099151D01*
X113257189Y-83564698D01*
X113540000Y-83753667D01*
X113540000Y-86496029D01*
X113537700Y-86496979D01*
X113158311Y-86875706D01*
X113029938Y-87184864D01*
X112903021Y-86877700D01*
X112524294Y-86498311D01*
X112029210Y-86292735D01*
X111493142Y-86292267D01*
X111245074Y-86394767D01*
X111250000Y-86370000D01*
X111250000Y-78708646D01*
X111301800Y-78687243D01*
X111705824Y-78283923D01*
X111728215Y-78230000D01*
X114357005Y-78230000D01*
X114527189Y-78484698D01*
X114992736Y-78795767D01*
X115541887Y-78905000D01*
X115598113Y-78905000D01*
X116147264Y-78795767D01*
X116612811Y-78484698D01*
X116923880Y-78019151D01*
X117033113Y-77470000D01*
X116923880Y-76920849D01*
X116612811Y-76455302D01*
X116147264Y-76144233D01*
X115598113Y-76035000D01*
X115541887Y-76035000D01*
X114992736Y-76144233D01*
X114527189Y-76455302D01*
X114357005Y-76710000D01*
X111728646Y-76710000D01*
X111707243Y-76658200D01*
X111303923Y-76254176D01*
X110776691Y-76035250D01*
X110205813Y-76034752D01*
X109678200Y-76252757D01*
X109274176Y-76656077D01*
X109055250Y-77183309D01*
X109054752Y-77754187D01*
X109272757Y-78281800D01*
X109676077Y-78685824D01*
X109730000Y-78708215D01*
X109730000Y-86055198D01*
X109491509Y-86293689D01*
X109489210Y-86292735D01*
X108953142Y-86292267D01*
X108457700Y-86496979D01*
X108078311Y-86875706D01*
X107949938Y-87184864D01*
X107823021Y-86877700D01*
X107444294Y-86498311D01*
X106949210Y-86292735D01*
X106413142Y-86292267D01*
X105917700Y-86496979D01*
X105538311Y-86875706D01*
X105409938Y-87184864D01*
X105283021Y-86877700D01*
X104904294Y-86498311D01*
X104409210Y-86292735D01*
X103873142Y-86292267D01*
X103377700Y-86496979D01*
X102998311Y-86875706D01*
X102869938Y-87184864D01*
X102743021Y-86877700D01*
X102364294Y-86498311D01*
X101869210Y-86292735D01*
X101333142Y-86292267D01*
X100837700Y-86496979D01*
X100458311Y-86875706D01*
X100329938Y-87184864D01*
X100203021Y-86877700D01*
X99824294Y-86498311D01*
X99329210Y-86292735D01*
X98793142Y-86292267D01*
X98297700Y-86496979D01*
X97918311Y-86875706D01*
X97789938Y-87184864D01*
X97663021Y-86877700D01*
X97284294Y-86498311D01*
X96789210Y-86292735D01*
X96253142Y-86292267D01*
X95757700Y-86496979D01*
X95378311Y-86875706D01*
X95172735Y-87370790D01*
X95172267Y-87906858D01*
X94690000Y-87906858D01*
X94690000Y-82834187D01*
X102704752Y-82834187D01*
X102922757Y-83361800D01*
X103326077Y-83765824D01*
X103853309Y-83984750D01*
X104424187Y-83985248D01*
X104951800Y-83767243D01*
X105355824Y-83363923D01*
X105574750Y-82836691D01*
X105575248Y-82265813D01*
X105357243Y-81738200D01*
X104953923Y-81334176D01*
X104426691Y-81115250D01*
X103855813Y-81114752D01*
X103328200Y-81332757D01*
X102924176Y-81736077D01*
X102705250Y-82263309D01*
X102704752Y-82834187D01*
X94690000Y-82834187D01*
X94690000Y-77470000D01*
X98866887Y-77470000D01*
X98976120Y-78019151D01*
X99287189Y-78484698D01*
X99752736Y-78795767D01*
X100301887Y-78905000D01*
X100358113Y-78905000D01*
X100907264Y-78795767D01*
X101372811Y-78484698D01*
X101683880Y-78019151D01*
X101793113Y-77470000D01*
X101683880Y-76920849D01*
X101372811Y-76455302D01*
X100907264Y-76144233D01*
X100358113Y-76035000D01*
X100301887Y-76035000D01*
X99752736Y-76144233D01*
X99287189Y-76455302D01*
X98976120Y-76920849D01*
X98866887Y-77470000D01*
X94690000Y-77470000D01*
X94690000Y-72656858D01*
X95172267Y-72656858D01*
X95376979Y-73152300D01*
X95755706Y-73531689D01*
X96250790Y-73737265D01*
X96786858Y-73737733D01*
X97282300Y-73533021D01*
X97661689Y-73154294D01*
X97790062Y-72845136D01*
X97916979Y-73152300D01*
X98295706Y-73531689D01*
X98790790Y-73737265D01*
X99326858Y-73737733D01*
X99822300Y-73533021D01*
X100201689Y-73154294D01*
X100330062Y-72845136D01*
X100456979Y-73152300D01*
X100835706Y-73531689D01*
X101330790Y-73737265D01*
X101866858Y-73737733D01*
X102362300Y-73533021D01*
X102741689Y-73154294D01*
X102870062Y-72845136D01*
X102996979Y-73152300D01*
X103375706Y-73531689D01*
X103870790Y-73737265D01*
X104406858Y-73737733D01*
X104902300Y-73533021D01*
X105281689Y-73154294D01*
X105410062Y-72845136D01*
X105536979Y-73152300D01*
X105915706Y-73531689D01*
X106410790Y-73737265D01*
X106946858Y-73737733D01*
X107442300Y-73533021D01*
X107821689Y-73154294D01*
X107950062Y-72845136D01*
X108076979Y-73152300D01*
X108455706Y-73531689D01*
X108950790Y-73737265D01*
X109486858Y-73737733D01*
X109982300Y-73533021D01*
X110361689Y-73154294D01*
X110490062Y-72845136D01*
X110616979Y-73152300D01*
X110995706Y-73531689D01*
X111490790Y-73737265D01*
X112026858Y-73737733D01*
X112522300Y-73533021D01*
X112901689Y-73154294D01*
X113030062Y-72845136D01*
X113156979Y-73152300D01*
X113535706Y-73531689D01*
X114030790Y-73737265D01*
X114566858Y-73737733D01*
X114571155Y-73735957D01*
X118444878Y-77609680D01*
X118444838Y-77655167D01*
X118586883Y-77998943D01*
X118849673Y-78262192D01*
X119193201Y-78404838D01*
X119565167Y-78405162D01*
X119908943Y-78263117D01*
X120172192Y-78000327D01*
X120314838Y-77656799D01*
X120315162Y-77284833D01*
X120173117Y-76941057D01*
X119910327Y-76677808D01*
X119566799Y-76535162D01*
X119519923Y-76535121D01*
X116722199Y-73737397D01*
X117106858Y-73737733D01*
X117602300Y-73533021D01*
X117981689Y-73154294D01*
X118110062Y-72845136D01*
X118236979Y-73152300D01*
X118615706Y-73531689D01*
X119110790Y-73737265D01*
X119646858Y-73737733D01*
X120142300Y-73533021D01*
X120521689Y-73154294D01*
X120650062Y-72845136D01*
X120776979Y-73152300D01*
X121155706Y-73531689D01*
X121650790Y-73737265D01*
X122186858Y-73737733D01*
X122682300Y-73533021D01*
X123061689Y-73154294D01*
X123100060Y-73061886D01*
X123100060Y-73102500D01*
X123144338Y-73337817D01*
X123283410Y-73553941D01*
X123495610Y-73698931D01*
X123747500Y-73749940D01*
X125172500Y-73749940D01*
X125407817Y-73705662D01*
X125623941Y-73566590D01*
X125768931Y-73354390D01*
X125819940Y-73102500D01*
X125819940Y-71677500D01*
X125775662Y-71442183D01*
X125636590Y-71226059D01*
X125424390Y-71081069D01*
X125172500Y-71030060D01*
X123747500Y-71030060D01*
X123512183Y-71074338D01*
X123296059Y-71213410D01*
X123151069Y-71425610D01*
X123100060Y-71677500D01*
X123100060Y-71717341D01*
X123063021Y-71627700D01*
X122684294Y-71248311D01*
X122189210Y-71042735D01*
X121653142Y-71042267D01*
X121157700Y-71246979D01*
X120778311Y-71625706D01*
X120649938Y-71934864D01*
X120523021Y-71627700D01*
X120144294Y-71248311D01*
X119649210Y-71042735D01*
X119113142Y-71042267D01*
X118617700Y-71246979D01*
X118238311Y-71625706D01*
X118109938Y-71934864D01*
X117983021Y-71627700D01*
X117604294Y-71248311D01*
X117109210Y-71042735D01*
X116573142Y-71042267D01*
X116077700Y-71246979D01*
X115698311Y-71625706D01*
X115569938Y-71934864D01*
X115443021Y-71627700D01*
X115064294Y-71248311D01*
X114569210Y-71042735D01*
X114182405Y-71042397D01*
X114614802Y-70610000D01*
X120650000Y-70610000D01*
X120940839Y-70552148D01*
X121187401Y-70387401D01*
X122867362Y-68707440D01*
X123305000Y-68707440D01*
X123540317Y-68663162D01*
X123756441Y-68524090D01*
X123824734Y-68424140D01*
X123880910Y-68511441D01*
X124093110Y-68656431D01*
X124345000Y-68707440D01*
X125845000Y-68707440D01*
X126080317Y-68663162D01*
X126296441Y-68524090D01*
X126359205Y-68432231D01*
X126525302Y-68598327D01*
X126758691Y-68695000D01*
X127349250Y-68695000D01*
X127508000Y-68536250D01*
X127508000Y-67437000D01*
X127762000Y-67437000D01*
X127762000Y-68536250D01*
X127920750Y-68695000D01*
X128511309Y-68695000D01*
X128744698Y-68598327D01*
X128923327Y-68419699D01*
X129020000Y-68186310D01*
X129020000Y-67595750D01*
X128861250Y-67437000D01*
X127762000Y-67437000D01*
X127508000Y-67437000D01*
X127488000Y-67437000D01*
X127488000Y-67183000D01*
X127508000Y-67183000D01*
X127508000Y-66083750D01*
X127762000Y-66083750D01*
X127762000Y-67183000D01*
X128861250Y-67183000D01*
X129020000Y-67024250D01*
X129020000Y-66433690D01*
X128923327Y-66200301D01*
X128744698Y-66021673D01*
X128511309Y-65925000D01*
X127920750Y-65925000D01*
X127762000Y-66083750D01*
X127508000Y-66083750D01*
X127349250Y-65925000D01*
X126758691Y-65925000D01*
X126525302Y-66021673D01*
X126359725Y-66187249D01*
X126309090Y-66108559D01*
X126096890Y-65963569D01*
X125845000Y-65912560D01*
X124345000Y-65912560D01*
X124109683Y-65956838D01*
X123893559Y-66095910D01*
X123825266Y-66195860D01*
X123769090Y-66108559D01*
X123556890Y-65963569D01*
X123305000Y-65912560D01*
X121805000Y-65912560D01*
X121569683Y-65956838D01*
X121353559Y-66095910D01*
X121208569Y-66308110D01*
X121157560Y-66560000D01*
X121157560Y-68060000D01*
X121190443Y-68234755D01*
X120335198Y-69090000D01*
X114864802Y-69090000D01*
X115203592Y-68751210D01*
X115570000Y-68824093D01*
X116138285Y-68711054D01*
X116620054Y-68389147D01*
X116840000Y-68059974D01*
X117059946Y-68389147D01*
X117541715Y-68711054D01*
X118110000Y-68824093D01*
X118678285Y-68711054D01*
X119160054Y-68389147D01*
X119481961Y-67907378D01*
X119595000Y-67339093D01*
X119595000Y-67280907D01*
X119481961Y-66712622D01*
X119160054Y-66230853D01*
X118678285Y-65908946D01*
X118110000Y-65795907D01*
X117541715Y-65908946D01*
X117059946Y-66230853D01*
X116840000Y-66560026D01*
X116620054Y-66230853D01*
X116138285Y-65908946D01*
X115570000Y-65795907D01*
X115001715Y-65908946D01*
X114519946Y-66230853D01*
X114492150Y-66272452D01*
X114483162Y-66224683D01*
X114344090Y-66008559D01*
X114131890Y-65863569D01*
X113880000Y-65812560D01*
X112180000Y-65812560D01*
X111944683Y-65856838D01*
X111728559Y-65995910D01*
X111583569Y-66208110D01*
X111532560Y-66460000D01*
X111532560Y-66595241D01*
X111469161Y-66607852D01*
X111222599Y-66772599D01*
X110705000Y-67290198D01*
X110705000Y-67280907D01*
X110591961Y-66712622D01*
X110270054Y-66230853D01*
X109788285Y-65908946D01*
X109220000Y-65795907D01*
X108651715Y-65908946D01*
X108169946Y-66230853D01*
X107950000Y-66560026D01*
X107730054Y-66230853D01*
X107248285Y-65908946D01*
X106680000Y-65795907D01*
X106111715Y-65908946D01*
X105629946Y-66230853D01*
X105410000Y-66560026D01*
X105190054Y-66230853D01*
X104708285Y-65908946D01*
X104140000Y-65795907D01*
X103571715Y-65908946D01*
X103089946Y-66230853D01*
X103062150Y-66272452D01*
X103053162Y-66224683D01*
X102914090Y-66008559D01*
X102701890Y-65863569D01*
X102450000Y-65812560D01*
X100750000Y-65812560D01*
X100514683Y-65856838D01*
X100298559Y-65995910D01*
X100153569Y-66208110D01*
X100102560Y-66460000D01*
X100102560Y-67732638D01*
X96791509Y-71043689D01*
X96789210Y-71042735D01*
X96253142Y-71042267D01*
X95757700Y-71246979D01*
X95378311Y-71625706D01*
X95172735Y-72120790D01*
X95172267Y-72656858D01*
X94690000Y-72656858D01*
X94690000Y-70144092D01*
X99354092Y-65480000D01*
X133993134Y-65480000D01*
X133657246Y-65815302D01*
M02*
