%TF.GenerationSoftware,KiCad,Pcbnew,4.0.7*%
%TF.CreationDate,2017-12-18T22:12:30+01:00*%
%TF.ProjectId,LED,4C45442E6B696361645F706362000000,rev?*%
%TF.FileFunction,Soldermask,Bot*%
%FSLAX46Y46*%
G04 Gerber Fmt 4.6, Leading zero omitted, Abs format (unit mm)*
G04 Created by KiCad (PCBNEW 4.0.7) date Mon Dec 18 22:12:30 2017*
%MOMM*%
%LPD*%
G01*
G04 APERTURE LIST*
%ADD10C,0.100000*%
G04 APERTURE END LIST*
D10*
G36*
X104351009Y-114536348D02*
X104351029Y-114536354D01*
X104351132Y-114536365D01*
X104546891Y-114596963D01*
X104727153Y-114694430D01*
X104885049Y-114825053D01*
X105014567Y-114983858D01*
X105110773Y-115164795D01*
X105170003Y-115360973D01*
X105190000Y-115564919D01*
X105190000Y-115575237D01*
X105189934Y-115584666D01*
X105189933Y-115584673D01*
X105189898Y-115589741D01*
X105167055Y-115793388D01*
X105105092Y-115988720D01*
X105006369Y-116168296D01*
X104874647Y-116325277D01*
X104714941Y-116453684D01*
X104533337Y-116548624D01*
X104336750Y-116606483D01*
X104336666Y-116606491D01*
X104336641Y-116606498D01*
X104132670Y-116625060D01*
X103928991Y-116603652D01*
X103928971Y-116603646D01*
X103928868Y-116603635D01*
X103733109Y-116543037D01*
X103552847Y-116445570D01*
X103394951Y-116314947D01*
X103265433Y-116156142D01*
X103169227Y-115975205D01*
X103109997Y-115779027D01*
X103090000Y-115575081D01*
X103090000Y-115564763D01*
X103090066Y-115555334D01*
X103090067Y-115555327D01*
X103090102Y-115550259D01*
X103112945Y-115346612D01*
X103174908Y-115151280D01*
X103273631Y-114971704D01*
X103405353Y-114814723D01*
X103565059Y-114686316D01*
X103746663Y-114591376D01*
X103943250Y-114533517D01*
X103943334Y-114533509D01*
X103943359Y-114533502D01*
X104147330Y-114514940D01*
X104351009Y-114536348D01*
X104351009Y-114536348D01*
G37*
G36*
X106891009Y-114536348D02*
X106891029Y-114536354D01*
X106891132Y-114536365D01*
X107086891Y-114596963D01*
X107267153Y-114694430D01*
X107425049Y-114825053D01*
X107554567Y-114983858D01*
X107650773Y-115164795D01*
X107710003Y-115360973D01*
X107730000Y-115564919D01*
X107730000Y-115575237D01*
X107729934Y-115584666D01*
X107729933Y-115584673D01*
X107729898Y-115589741D01*
X107707055Y-115793388D01*
X107645092Y-115988720D01*
X107546369Y-116168296D01*
X107414647Y-116325277D01*
X107254941Y-116453684D01*
X107073337Y-116548624D01*
X106876750Y-116606483D01*
X106876666Y-116606491D01*
X106876641Y-116606498D01*
X106672670Y-116625060D01*
X106468991Y-116603652D01*
X106468971Y-116603646D01*
X106468868Y-116603635D01*
X106273109Y-116543037D01*
X106092847Y-116445570D01*
X105934951Y-116314947D01*
X105805433Y-116156142D01*
X105709227Y-115975205D01*
X105649997Y-115779027D01*
X105630000Y-115575081D01*
X105630000Y-115564763D01*
X105630066Y-115555334D01*
X105630067Y-115555327D01*
X105630102Y-115550259D01*
X105652945Y-115346612D01*
X105714908Y-115151280D01*
X105813631Y-114971704D01*
X105945353Y-114814723D01*
X106105059Y-114686316D01*
X106286663Y-114591376D01*
X106483250Y-114533517D01*
X106483334Y-114533509D01*
X106483359Y-114533502D01*
X106687330Y-114514940D01*
X106891009Y-114536348D01*
X106891009Y-114536348D01*
G37*
G36*
X114511009Y-114536348D02*
X114511029Y-114536354D01*
X114511132Y-114536365D01*
X114706891Y-114596963D01*
X114887153Y-114694430D01*
X115045049Y-114825053D01*
X115174567Y-114983858D01*
X115270773Y-115164795D01*
X115330003Y-115360973D01*
X115350000Y-115564919D01*
X115350000Y-115575237D01*
X115349934Y-115584666D01*
X115349933Y-115584673D01*
X115349898Y-115589741D01*
X115327055Y-115793388D01*
X115265092Y-115988720D01*
X115166369Y-116168296D01*
X115034647Y-116325277D01*
X114874941Y-116453684D01*
X114693337Y-116548624D01*
X114496750Y-116606483D01*
X114496666Y-116606491D01*
X114496641Y-116606498D01*
X114292670Y-116625060D01*
X114088991Y-116603652D01*
X114088971Y-116603646D01*
X114088868Y-116603635D01*
X113893109Y-116543037D01*
X113712847Y-116445570D01*
X113554951Y-116314947D01*
X113425433Y-116156142D01*
X113329227Y-115975205D01*
X113269997Y-115779027D01*
X113250000Y-115575081D01*
X113250000Y-115564763D01*
X113250066Y-115555334D01*
X113250067Y-115555327D01*
X113250102Y-115550259D01*
X113272945Y-115346612D01*
X113334908Y-115151280D01*
X113433631Y-114971704D01*
X113565353Y-114814723D01*
X113725059Y-114686316D01*
X113906663Y-114591376D01*
X114103250Y-114533517D01*
X114103334Y-114533509D01*
X114103359Y-114533502D01*
X114307330Y-114514940D01*
X114511009Y-114536348D01*
X114511009Y-114536348D01*
G37*
G36*
X109431009Y-114536348D02*
X109431029Y-114536354D01*
X109431132Y-114536365D01*
X109626891Y-114596963D01*
X109807153Y-114694430D01*
X109965049Y-114825053D01*
X110094567Y-114983858D01*
X110190773Y-115164795D01*
X110250003Y-115360973D01*
X110270000Y-115564919D01*
X110270000Y-115575237D01*
X110269934Y-115584666D01*
X110269933Y-115584673D01*
X110269898Y-115589741D01*
X110247055Y-115793388D01*
X110185092Y-115988720D01*
X110086369Y-116168296D01*
X109954647Y-116325277D01*
X109794941Y-116453684D01*
X109613337Y-116548624D01*
X109416750Y-116606483D01*
X109416666Y-116606491D01*
X109416641Y-116606498D01*
X109212670Y-116625060D01*
X109008991Y-116603652D01*
X109008971Y-116603646D01*
X109008868Y-116603635D01*
X108813109Y-116543037D01*
X108632847Y-116445570D01*
X108474951Y-116314947D01*
X108345433Y-116156142D01*
X108249227Y-115975205D01*
X108189997Y-115779027D01*
X108170000Y-115575081D01*
X108170000Y-115564763D01*
X108170066Y-115555334D01*
X108170067Y-115555327D01*
X108170102Y-115550259D01*
X108192945Y-115346612D01*
X108254908Y-115151280D01*
X108353631Y-114971704D01*
X108485353Y-114814723D01*
X108645059Y-114686316D01*
X108826663Y-114591376D01*
X109023250Y-114533517D01*
X109023334Y-114533509D01*
X109023359Y-114533502D01*
X109227330Y-114514940D01*
X109431009Y-114536348D01*
X109431009Y-114536348D01*
G37*
G36*
X117051009Y-114536348D02*
X117051029Y-114536354D01*
X117051132Y-114536365D01*
X117246891Y-114596963D01*
X117427153Y-114694430D01*
X117585049Y-114825053D01*
X117714567Y-114983858D01*
X117810773Y-115164795D01*
X117870003Y-115360973D01*
X117890000Y-115564919D01*
X117890000Y-115575237D01*
X117889934Y-115584666D01*
X117889933Y-115584673D01*
X117889898Y-115589741D01*
X117867055Y-115793388D01*
X117805092Y-115988720D01*
X117706369Y-116168296D01*
X117574647Y-116325277D01*
X117414941Y-116453684D01*
X117233337Y-116548624D01*
X117036750Y-116606483D01*
X117036666Y-116606491D01*
X117036641Y-116606498D01*
X116832670Y-116625060D01*
X116628991Y-116603652D01*
X116628971Y-116603646D01*
X116628868Y-116603635D01*
X116433109Y-116543037D01*
X116252847Y-116445570D01*
X116094951Y-116314947D01*
X115965433Y-116156142D01*
X115869227Y-115975205D01*
X115809997Y-115779027D01*
X115790000Y-115575081D01*
X115790000Y-115564763D01*
X115790066Y-115555334D01*
X115790067Y-115555327D01*
X115790102Y-115550259D01*
X115812945Y-115346612D01*
X115874908Y-115151280D01*
X115973631Y-114971704D01*
X116105353Y-114814723D01*
X116265059Y-114686316D01*
X116446663Y-114591376D01*
X116643250Y-114533517D01*
X116643334Y-114533509D01*
X116643359Y-114533502D01*
X116847330Y-114514940D01*
X117051009Y-114536348D01*
X117051009Y-114536348D01*
G37*
G36*
X111971009Y-114536348D02*
X111971029Y-114536354D01*
X111971132Y-114536365D01*
X112166891Y-114596963D01*
X112347153Y-114694430D01*
X112505049Y-114825053D01*
X112634567Y-114983858D01*
X112730773Y-115164795D01*
X112790003Y-115360973D01*
X112810000Y-115564919D01*
X112810000Y-115575237D01*
X112809934Y-115584666D01*
X112809933Y-115584673D01*
X112809898Y-115589741D01*
X112787055Y-115793388D01*
X112725092Y-115988720D01*
X112626369Y-116168296D01*
X112494647Y-116325277D01*
X112334941Y-116453684D01*
X112153337Y-116548624D01*
X111956750Y-116606483D01*
X111956666Y-116606491D01*
X111956641Y-116606498D01*
X111752670Y-116625060D01*
X111548991Y-116603652D01*
X111548971Y-116603646D01*
X111548868Y-116603635D01*
X111353109Y-116543037D01*
X111172847Y-116445570D01*
X111014951Y-116314947D01*
X110885433Y-116156142D01*
X110789227Y-115975205D01*
X110729997Y-115779027D01*
X110710000Y-115575081D01*
X110710000Y-115564763D01*
X110710066Y-115555334D01*
X110710067Y-115555327D01*
X110710102Y-115550259D01*
X110732945Y-115346612D01*
X110794908Y-115151280D01*
X110893631Y-114971704D01*
X111025353Y-114814723D01*
X111185059Y-114686316D01*
X111366663Y-114591376D01*
X111563250Y-114533517D01*
X111563334Y-114533509D01*
X111563359Y-114533502D01*
X111767330Y-114514940D01*
X111971009Y-114536348D01*
X111971009Y-114536348D01*
G37*
G36*
X119591009Y-114536348D02*
X119591029Y-114536354D01*
X119591132Y-114536365D01*
X119786891Y-114596963D01*
X119967153Y-114694430D01*
X120125049Y-114825053D01*
X120254567Y-114983858D01*
X120350773Y-115164795D01*
X120410003Y-115360973D01*
X120430000Y-115564919D01*
X120430000Y-115575237D01*
X120429934Y-115584666D01*
X120429933Y-115584673D01*
X120429898Y-115589741D01*
X120407055Y-115793388D01*
X120345092Y-115988720D01*
X120246369Y-116168296D01*
X120114647Y-116325277D01*
X119954941Y-116453684D01*
X119773337Y-116548624D01*
X119576750Y-116606483D01*
X119576666Y-116606491D01*
X119576641Y-116606498D01*
X119372670Y-116625060D01*
X119168991Y-116603652D01*
X119168971Y-116603646D01*
X119168868Y-116603635D01*
X118973109Y-116543037D01*
X118792847Y-116445570D01*
X118634951Y-116314947D01*
X118505433Y-116156142D01*
X118409227Y-115975205D01*
X118349997Y-115779027D01*
X118330000Y-115575081D01*
X118330000Y-115564763D01*
X118330066Y-115555334D01*
X118330067Y-115555327D01*
X118330102Y-115550259D01*
X118352945Y-115346612D01*
X118414908Y-115151280D01*
X118513631Y-114971704D01*
X118645353Y-114814723D01*
X118805059Y-114686316D01*
X118986663Y-114591376D01*
X119183250Y-114533517D01*
X119183334Y-114533509D01*
X119183359Y-114533502D01*
X119387330Y-114514940D01*
X119591009Y-114536348D01*
X119591009Y-114536348D01*
G37*
G36*
X122970000Y-116620000D02*
X120870000Y-116620000D01*
X120870000Y-114520000D01*
X122970000Y-114520000D01*
X122970000Y-116620000D01*
X122970000Y-116620000D01*
G37*
G36*
X164061102Y-108291210D02*
X164483782Y-108377974D01*
X164881557Y-108545183D01*
X165239284Y-108786473D01*
X165543326Y-109092644D01*
X165782111Y-109452045D01*
X165946540Y-109850981D01*
X166030179Y-110273386D01*
X166030179Y-110273418D01*
X166030344Y-110274254D01*
X166023462Y-110767099D01*
X166023272Y-110767934D01*
X166023272Y-110767958D01*
X165927871Y-111187872D01*
X165752368Y-111582057D01*
X165503640Y-111934651D01*
X165191169Y-112232213D01*
X164826849Y-112463418D01*
X164424553Y-112619458D01*
X163999620Y-112694385D01*
X163568218Y-112685349D01*
X163146793Y-112592693D01*
X162751391Y-112419945D01*
X162397068Y-112173684D01*
X162097332Y-111863298D01*
X161863589Y-111500600D01*
X161704744Y-111099405D01*
X161626852Y-110675006D01*
X161632877Y-110243550D01*
X161722588Y-109821493D01*
X161892573Y-109424889D01*
X162136350Y-109068860D01*
X162444642Y-108766960D01*
X162805697Y-108530691D01*
X163205771Y-108369052D01*
X163629621Y-108288198D01*
X164061102Y-108291210D01*
X164061102Y-108291210D01*
G37*
G36*
X174221102Y-108291210D02*
X174643782Y-108377974D01*
X175041557Y-108545183D01*
X175399284Y-108786473D01*
X175703326Y-109092644D01*
X175942111Y-109452045D01*
X176106540Y-109850981D01*
X176190179Y-110273386D01*
X176190179Y-110273418D01*
X176190344Y-110274254D01*
X176183462Y-110767099D01*
X176183272Y-110767934D01*
X176183272Y-110767958D01*
X176087871Y-111187872D01*
X175912368Y-111582057D01*
X175663640Y-111934651D01*
X175351169Y-112232213D01*
X174986849Y-112463418D01*
X174584553Y-112619458D01*
X174159620Y-112694385D01*
X173728218Y-112685349D01*
X173306793Y-112592693D01*
X172911391Y-112419945D01*
X172557068Y-112173684D01*
X172257332Y-111863298D01*
X172023589Y-111500600D01*
X171864744Y-111099405D01*
X171786852Y-110675006D01*
X171792877Y-110243550D01*
X171882588Y-109821493D01*
X172052573Y-109424889D01*
X172296350Y-109068860D01*
X172604642Y-108766960D01*
X172965697Y-108530691D01*
X173365771Y-108369052D01*
X173789621Y-108288198D01*
X174221102Y-108291210D01*
X174221102Y-108291210D01*
G37*
G36*
X102996041Y-105480794D02*
X103226569Y-105528115D01*
X103443512Y-105619309D01*
X103638616Y-105750908D01*
X103804437Y-105917890D01*
X103934669Y-106113906D01*
X104024348Y-106331484D01*
X104069886Y-106561465D01*
X104069886Y-106561498D01*
X104070051Y-106562334D01*
X104066298Y-106831128D01*
X104066107Y-106831967D01*
X104066107Y-106831988D01*
X104014165Y-107060616D01*
X103918447Y-107275601D01*
X103782795Y-107467901D01*
X103612372Y-107630191D01*
X103413673Y-107756290D01*
X103194265Y-107841393D01*
X102962511Y-107882257D01*
X102727225Y-107877329D01*
X102497383Y-107826795D01*
X102281735Y-107732580D01*
X102088487Y-107598269D01*
X101925016Y-107428991D01*
X101797530Y-107231171D01*
X101710899Y-107012366D01*
X101668417Y-106780903D01*
X101671703Y-106545586D01*
X101720630Y-106315402D01*
X101813340Y-106099095D01*
X101946294Y-105904920D01*
X102114433Y-105740266D01*
X102311353Y-105611406D01*
X102529549Y-105523248D01*
X102760714Y-105479152D01*
X102996041Y-105480794D01*
X102996041Y-105480794D01*
G37*
G36*
X113139047Y-105642486D02*
X113338492Y-105683427D01*
X113526184Y-105762325D01*
X113694979Y-105876179D01*
X113838446Y-106020650D01*
X113951116Y-106190233D01*
X114028704Y-106378476D01*
X114068079Y-106577330D01*
X114068079Y-106577363D01*
X114068244Y-106578199D01*
X114064997Y-106810751D01*
X114064806Y-106811590D01*
X114064806Y-106811611D01*
X114019894Y-107009296D01*
X113937082Y-107195294D01*
X113819720Y-107361666D01*
X113672274Y-107502076D01*
X113500367Y-107611172D01*
X113310547Y-107684798D01*
X113110037Y-107720153D01*
X112906475Y-107715890D01*
X112707622Y-107672168D01*
X112521054Y-107590659D01*
X112353860Y-107474456D01*
X112212431Y-107328003D01*
X112102135Y-107156856D01*
X112027183Y-106967551D01*
X111990430Y-106767298D01*
X111993273Y-106563709D01*
X112035603Y-106364562D01*
X112115812Y-106177420D01*
X112230840Y-106009426D01*
X112376310Y-105866972D01*
X112546676Y-105755487D01*
X112735453Y-105679216D01*
X112935450Y-105641065D01*
X113139047Y-105642486D01*
X113139047Y-105642486D01*
G37*
G36*
X120759047Y-105642486D02*
X120958492Y-105683427D01*
X121146184Y-105762325D01*
X121314979Y-105876179D01*
X121458446Y-106020650D01*
X121571116Y-106190233D01*
X121648704Y-106378476D01*
X121688079Y-106577330D01*
X121688079Y-106577363D01*
X121688244Y-106578199D01*
X121684997Y-106810751D01*
X121684806Y-106811590D01*
X121684806Y-106811611D01*
X121639894Y-107009296D01*
X121557082Y-107195294D01*
X121439720Y-107361666D01*
X121292274Y-107502076D01*
X121120367Y-107611172D01*
X120930547Y-107684798D01*
X120730037Y-107720153D01*
X120526475Y-107715890D01*
X120327622Y-107672168D01*
X120141054Y-107590659D01*
X119973860Y-107474456D01*
X119832431Y-107328003D01*
X119722135Y-107156856D01*
X119647183Y-106967551D01*
X119610430Y-106767298D01*
X119613273Y-106563709D01*
X119655603Y-106364562D01*
X119735812Y-106177420D01*
X119850840Y-106009426D01*
X119996310Y-105866972D01*
X120166676Y-105755487D01*
X120355453Y-105679216D01*
X120555450Y-105641065D01*
X120759047Y-105642486D01*
X120759047Y-105642486D01*
G37*
G36*
X129553726Y-105680061D02*
X129553733Y-105680062D01*
X129558801Y-105680097D01*
X129752751Y-105701852D01*
X129938781Y-105760865D01*
X130109806Y-105854887D01*
X130259312Y-105980337D01*
X130381603Y-106132437D01*
X130472023Y-106305393D01*
X130527126Y-106492619D01*
X130527134Y-106492703D01*
X130527141Y-106492728D01*
X130544819Y-106686981D01*
X130524431Y-106880955D01*
X130524425Y-106880975D01*
X130524414Y-106881078D01*
X130466702Y-107067516D01*
X130373877Y-107239193D01*
X130249473Y-107389571D01*
X130098231Y-107512921D01*
X129925909Y-107604546D01*
X129739073Y-107660955D01*
X129544839Y-107680000D01*
X129535004Y-107680000D01*
X129526274Y-107679939D01*
X129526267Y-107679938D01*
X129521199Y-107679903D01*
X129327249Y-107658148D01*
X129141219Y-107599135D01*
X128970194Y-107505113D01*
X128820688Y-107379663D01*
X128698397Y-107227563D01*
X128607977Y-107054607D01*
X128552874Y-106867381D01*
X128552866Y-106867297D01*
X128552859Y-106867272D01*
X128535181Y-106673019D01*
X128555569Y-106479045D01*
X128555575Y-106479025D01*
X128555586Y-106478922D01*
X128613298Y-106292484D01*
X128706123Y-106120807D01*
X128830527Y-105970429D01*
X128981769Y-105847079D01*
X129154091Y-105755454D01*
X129340927Y-105699045D01*
X129535161Y-105680000D01*
X129544996Y-105680000D01*
X129553726Y-105680061D01*
X129553726Y-105680061D01*
G37*
G36*
X137173726Y-105680061D02*
X137173733Y-105680062D01*
X137178801Y-105680097D01*
X137372751Y-105701852D01*
X137558781Y-105760865D01*
X137729806Y-105854887D01*
X137879312Y-105980337D01*
X138001603Y-106132437D01*
X138092023Y-106305393D01*
X138147126Y-106492619D01*
X138147134Y-106492703D01*
X138147141Y-106492728D01*
X138164819Y-106686981D01*
X138144431Y-106880955D01*
X138144425Y-106880975D01*
X138144414Y-106881078D01*
X138086702Y-107067516D01*
X137993877Y-107239193D01*
X137869473Y-107389571D01*
X137718231Y-107512921D01*
X137545909Y-107604546D01*
X137359073Y-107660955D01*
X137164839Y-107680000D01*
X137155004Y-107680000D01*
X137146274Y-107679939D01*
X137146267Y-107679938D01*
X137141199Y-107679903D01*
X136947249Y-107658148D01*
X136761219Y-107599135D01*
X136590194Y-107505113D01*
X136440688Y-107379663D01*
X136318397Y-107227563D01*
X136227977Y-107054607D01*
X136172874Y-106867381D01*
X136172866Y-106867297D01*
X136172859Y-106867272D01*
X136155181Y-106673019D01*
X136175569Y-106479045D01*
X136175575Y-106479025D01*
X136175586Y-106478922D01*
X136233298Y-106292484D01*
X136326123Y-106120807D01*
X136450527Y-105970429D01*
X136601769Y-105847079D01*
X136774091Y-105755454D01*
X136960927Y-105699045D01*
X137155161Y-105680000D01*
X137164996Y-105680000D01*
X137173726Y-105680061D01*
X137173726Y-105680061D01*
G37*
G36*
X120759047Y-103102486D02*
X120958492Y-103143427D01*
X121146184Y-103222325D01*
X121314979Y-103336179D01*
X121458446Y-103480650D01*
X121571116Y-103650233D01*
X121648704Y-103838476D01*
X121688079Y-104037330D01*
X121688079Y-104037363D01*
X121688244Y-104038199D01*
X121684997Y-104270751D01*
X121684806Y-104271590D01*
X121684806Y-104271611D01*
X121639894Y-104469296D01*
X121557082Y-104655294D01*
X121439720Y-104821666D01*
X121292274Y-104962076D01*
X121120367Y-105071172D01*
X120930547Y-105144798D01*
X120730037Y-105180153D01*
X120526475Y-105175890D01*
X120327622Y-105132168D01*
X120141054Y-105050659D01*
X119973860Y-104934456D01*
X119832431Y-104788003D01*
X119722135Y-104616856D01*
X119647183Y-104427551D01*
X119610430Y-104227298D01*
X119613273Y-104023709D01*
X119655603Y-103824562D01*
X119735812Y-103637420D01*
X119850840Y-103469426D01*
X119996310Y-103326972D01*
X120166676Y-103215487D01*
X120355453Y-103139216D01*
X120555450Y-103101065D01*
X120759047Y-103102486D01*
X120759047Y-103102486D01*
G37*
G36*
X113139047Y-103102486D02*
X113338492Y-103143427D01*
X113526184Y-103222325D01*
X113694979Y-103336179D01*
X113838446Y-103480650D01*
X113951116Y-103650233D01*
X114028704Y-103838476D01*
X114068079Y-104037330D01*
X114068079Y-104037363D01*
X114068244Y-104038199D01*
X114064997Y-104270751D01*
X114064806Y-104271590D01*
X114064806Y-104271611D01*
X114019894Y-104469296D01*
X113937082Y-104655294D01*
X113819720Y-104821666D01*
X113672274Y-104962076D01*
X113500367Y-105071172D01*
X113310547Y-105144798D01*
X113110037Y-105180153D01*
X112906475Y-105175890D01*
X112707622Y-105132168D01*
X112521054Y-105050659D01*
X112353860Y-104934456D01*
X112212431Y-104788003D01*
X112102135Y-104616856D01*
X112027183Y-104427551D01*
X111990430Y-104227298D01*
X111993273Y-104023709D01*
X112035603Y-103824562D01*
X112115812Y-103637420D01*
X112230840Y-103469426D01*
X112376310Y-103326972D01*
X112546676Y-103215487D01*
X112735453Y-103139216D01*
X112935450Y-103101065D01*
X113139047Y-103102486D01*
X113139047Y-103102486D01*
G37*
G36*
X137173726Y-103140061D02*
X137173733Y-103140062D01*
X137178801Y-103140097D01*
X137372751Y-103161852D01*
X137558781Y-103220865D01*
X137729806Y-103314887D01*
X137879312Y-103440337D01*
X138001603Y-103592437D01*
X138092023Y-103765393D01*
X138147126Y-103952619D01*
X138147134Y-103952703D01*
X138147141Y-103952728D01*
X138164819Y-104146981D01*
X138144431Y-104340955D01*
X138144425Y-104340975D01*
X138144414Y-104341078D01*
X138086702Y-104527516D01*
X137993877Y-104699193D01*
X137869473Y-104849571D01*
X137718231Y-104972921D01*
X137545909Y-105064546D01*
X137359073Y-105120955D01*
X137164839Y-105140000D01*
X137155004Y-105140000D01*
X137146274Y-105139939D01*
X137146267Y-105139938D01*
X137141199Y-105139903D01*
X136947249Y-105118148D01*
X136761219Y-105059135D01*
X136590194Y-104965113D01*
X136440688Y-104839663D01*
X136318397Y-104687563D01*
X136227977Y-104514607D01*
X136172874Y-104327381D01*
X136172866Y-104327297D01*
X136172859Y-104327272D01*
X136155181Y-104133019D01*
X136175569Y-103939045D01*
X136175575Y-103939025D01*
X136175586Y-103938922D01*
X136233298Y-103752484D01*
X136326123Y-103580807D01*
X136450527Y-103430429D01*
X136601769Y-103307079D01*
X136774091Y-103215454D01*
X136960927Y-103159045D01*
X137155161Y-103140000D01*
X137164996Y-103140000D01*
X137173726Y-103140061D01*
X137173726Y-103140061D01*
G37*
G36*
X129553726Y-103140061D02*
X129553733Y-103140062D01*
X129558801Y-103140097D01*
X129752751Y-103161852D01*
X129938781Y-103220865D01*
X130109806Y-103314887D01*
X130259312Y-103440337D01*
X130381603Y-103592437D01*
X130472023Y-103765393D01*
X130527126Y-103952619D01*
X130527134Y-103952703D01*
X130527141Y-103952728D01*
X130544819Y-104146981D01*
X130524431Y-104340955D01*
X130524425Y-104340975D01*
X130524414Y-104341078D01*
X130466702Y-104527516D01*
X130373877Y-104699193D01*
X130249473Y-104849571D01*
X130098231Y-104972921D01*
X129925909Y-105064546D01*
X129739073Y-105120955D01*
X129544839Y-105140000D01*
X129535004Y-105140000D01*
X129526274Y-105139939D01*
X129526267Y-105139938D01*
X129521199Y-105139903D01*
X129327249Y-105118148D01*
X129141219Y-105059135D01*
X128970194Y-104965113D01*
X128820688Y-104839663D01*
X128698397Y-104687563D01*
X128607977Y-104514607D01*
X128552874Y-104327381D01*
X128552866Y-104327297D01*
X128552859Y-104327272D01*
X128535181Y-104133019D01*
X128555569Y-103939045D01*
X128555575Y-103939025D01*
X128555586Y-103938922D01*
X128613298Y-103752484D01*
X128706123Y-103580807D01*
X128830527Y-103430429D01*
X128981769Y-103307079D01*
X129154091Y-103215454D01*
X129340927Y-103159045D01*
X129535161Y-103140000D01*
X129544996Y-103140000D01*
X129553726Y-103140061D01*
X129553726Y-103140061D01*
G37*
G36*
X120759047Y-100562486D02*
X120958492Y-100603427D01*
X121146184Y-100682325D01*
X121314979Y-100796179D01*
X121458446Y-100940650D01*
X121571116Y-101110233D01*
X121648704Y-101298476D01*
X121688079Y-101497330D01*
X121688079Y-101497363D01*
X121688244Y-101498199D01*
X121684997Y-101730751D01*
X121684806Y-101731590D01*
X121684806Y-101731611D01*
X121639894Y-101929296D01*
X121557082Y-102115294D01*
X121439720Y-102281666D01*
X121292274Y-102422076D01*
X121120367Y-102531172D01*
X120930547Y-102604798D01*
X120730037Y-102640153D01*
X120526475Y-102635890D01*
X120327622Y-102592168D01*
X120141054Y-102510659D01*
X119973860Y-102394456D01*
X119832431Y-102248003D01*
X119722135Y-102076856D01*
X119647183Y-101887551D01*
X119610430Y-101687298D01*
X119613273Y-101483709D01*
X119655603Y-101284562D01*
X119735812Y-101097420D01*
X119850840Y-100929426D01*
X119996310Y-100786972D01*
X120166676Y-100675487D01*
X120355453Y-100599216D01*
X120555450Y-100561065D01*
X120759047Y-100562486D01*
X120759047Y-100562486D01*
G37*
G36*
X113139047Y-100562486D02*
X113338492Y-100603427D01*
X113526184Y-100682325D01*
X113694979Y-100796179D01*
X113838446Y-100940650D01*
X113951116Y-101110233D01*
X114028704Y-101298476D01*
X114068079Y-101497330D01*
X114068079Y-101497363D01*
X114068244Y-101498199D01*
X114064997Y-101730751D01*
X114064806Y-101731590D01*
X114064806Y-101731611D01*
X114019894Y-101929296D01*
X113937082Y-102115294D01*
X113819720Y-102281666D01*
X113672274Y-102422076D01*
X113500367Y-102531172D01*
X113310547Y-102604798D01*
X113110037Y-102640153D01*
X112906475Y-102635890D01*
X112707622Y-102592168D01*
X112521054Y-102510659D01*
X112353860Y-102394456D01*
X112212431Y-102248003D01*
X112102135Y-102076856D01*
X112027183Y-101887551D01*
X111990430Y-101687298D01*
X111993273Y-101483709D01*
X112035603Y-101284562D01*
X112115812Y-101097420D01*
X112230840Y-100929426D01*
X112376310Y-100786972D01*
X112546676Y-100675487D01*
X112735453Y-100599216D01*
X112935450Y-100561065D01*
X113139047Y-100562486D01*
X113139047Y-100562486D01*
G37*
G36*
X137173726Y-100600061D02*
X137173733Y-100600062D01*
X137178801Y-100600097D01*
X137372751Y-100621852D01*
X137558781Y-100680865D01*
X137729806Y-100774887D01*
X137879312Y-100900337D01*
X138001603Y-101052437D01*
X138092023Y-101225393D01*
X138147126Y-101412619D01*
X138147134Y-101412703D01*
X138147141Y-101412728D01*
X138164819Y-101606981D01*
X138144431Y-101800955D01*
X138144425Y-101800975D01*
X138144414Y-101801078D01*
X138086702Y-101987516D01*
X137993877Y-102159193D01*
X137869473Y-102309571D01*
X137718231Y-102432921D01*
X137545909Y-102524546D01*
X137359073Y-102580955D01*
X137164839Y-102600000D01*
X137155004Y-102600000D01*
X137146274Y-102599939D01*
X137146267Y-102599938D01*
X137141199Y-102599903D01*
X136947249Y-102578148D01*
X136761219Y-102519135D01*
X136590194Y-102425113D01*
X136440688Y-102299663D01*
X136318397Y-102147563D01*
X136227977Y-101974607D01*
X136172874Y-101787381D01*
X136172866Y-101787297D01*
X136172859Y-101787272D01*
X136155181Y-101593019D01*
X136175569Y-101399045D01*
X136175575Y-101399025D01*
X136175586Y-101398922D01*
X136233298Y-101212484D01*
X136326123Y-101040807D01*
X136450527Y-100890429D01*
X136601769Y-100767079D01*
X136774091Y-100675454D01*
X136960927Y-100619045D01*
X137155161Y-100600000D01*
X137164996Y-100600000D01*
X137173726Y-100600061D01*
X137173726Y-100600061D01*
G37*
G36*
X129553726Y-100600061D02*
X129553733Y-100600062D01*
X129558801Y-100600097D01*
X129752751Y-100621852D01*
X129938781Y-100680865D01*
X130109806Y-100774887D01*
X130259312Y-100900337D01*
X130381603Y-101052437D01*
X130472023Y-101225393D01*
X130527126Y-101412619D01*
X130527134Y-101412703D01*
X130527141Y-101412728D01*
X130544819Y-101606981D01*
X130524431Y-101800955D01*
X130524425Y-101800975D01*
X130524414Y-101801078D01*
X130466702Y-101987516D01*
X130373877Y-102159193D01*
X130249473Y-102309571D01*
X130098231Y-102432921D01*
X129925909Y-102524546D01*
X129739073Y-102580955D01*
X129544839Y-102600000D01*
X129535004Y-102600000D01*
X129526274Y-102599939D01*
X129526267Y-102599938D01*
X129521199Y-102599903D01*
X129327249Y-102578148D01*
X129141219Y-102519135D01*
X128970194Y-102425113D01*
X128820688Y-102299663D01*
X128698397Y-102147563D01*
X128607977Y-101974607D01*
X128552874Y-101787381D01*
X128552866Y-101787297D01*
X128552859Y-101787272D01*
X128535181Y-101593019D01*
X128555569Y-101399045D01*
X128555575Y-101399025D01*
X128555586Y-101398922D01*
X128613298Y-101212484D01*
X128706123Y-101040807D01*
X128830527Y-100890429D01*
X128981769Y-100767079D01*
X129154091Y-100675454D01*
X129340927Y-100619045D01*
X129535161Y-100600000D01*
X129544996Y-100600000D01*
X129553726Y-100600061D01*
X129553726Y-100600061D01*
G37*
G36*
X104070000Y-100280000D02*
X101670000Y-100280000D01*
X101670000Y-97880000D01*
X104070000Y-97880000D01*
X104070000Y-100280000D01*
X104070000Y-100280000D01*
G37*
G36*
X120759047Y-98022486D02*
X120958492Y-98063427D01*
X121146184Y-98142325D01*
X121314979Y-98256179D01*
X121458446Y-98400650D01*
X121571116Y-98570233D01*
X121648704Y-98758476D01*
X121688079Y-98957330D01*
X121688079Y-98957363D01*
X121688244Y-98958199D01*
X121684997Y-99190751D01*
X121684806Y-99191590D01*
X121684806Y-99191611D01*
X121639894Y-99389296D01*
X121557082Y-99575294D01*
X121439720Y-99741666D01*
X121292274Y-99882076D01*
X121120367Y-99991172D01*
X120930547Y-100064798D01*
X120730037Y-100100153D01*
X120526475Y-100095890D01*
X120327622Y-100052168D01*
X120141054Y-99970659D01*
X119973860Y-99854456D01*
X119832431Y-99708003D01*
X119722135Y-99536856D01*
X119647183Y-99347551D01*
X119610430Y-99147298D01*
X119613273Y-98943709D01*
X119655603Y-98744562D01*
X119735812Y-98557420D01*
X119850840Y-98389426D01*
X119996310Y-98246972D01*
X120166676Y-98135487D01*
X120355453Y-98059216D01*
X120555450Y-98021065D01*
X120759047Y-98022486D01*
X120759047Y-98022486D01*
G37*
G36*
X114068200Y-100098200D02*
X111991800Y-100098200D01*
X111991800Y-98021800D01*
X114068200Y-98021800D01*
X114068200Y-100098200D01*
X114068200Y-100098200D01*
G37*
G36*
X130540000Y-100060000D02*
X128540000Y-100060000D01*
X128540000Y-98060000D01*
X130540000Y-98060000D01*
X130540000Y-100060000D01*
X130540000Y-100060000D01*
G37*
G36*
X137173726Y-98060061D02*
X137173733Y-98060062D01*
X137178801Y-98060097D01*
X137372751Y-98081852D01*
X137558781Y-98140865D01*
X137729806Y-98234887D01*
X137879312Y-98360337D01*
X138001603Y-98512437D01*
X138092023Y-98685393D01*
X138147126Y-98872619D01*
X138147134Y-98872703D01*
X138147141Y-98872728D01*
X138164819Y-99066981D01*
X138144431Y-99260955D01*
X138144425Y-99260975D01*
X138144414Y-99261078D01*
X138086702Y-99447516D01*
X137993877Y-99619193D01*
X137869473Y-99769571D01*
X137718231Y-99892921D01*
X137545909Y-99984546D01*
X137359073Y-100040955D01*
X137164839Y-100060000D01*
X137155004Y-100060000D01*
X137146274Y-100059939D01*
X137146267Y-100059938D01*
X137141199Y-100059903D01*
X136947249Y-100038148D01*
X136761219Y-99979135D01*
X136590194Y-99885113D01*
X136440688Y-99759663D01*
X136318397Y-99607563D01*
X136227977Y-99434607D01*
X136172874Y-99247381D01*
X136172866Y-99247297D01*
X136172859Y-99247272D01*
X136155181Y-99053019D01*
X136175569Y-98859045D01*
X136175575Y-98859025D01*
X136175586Y-98858922D01*
X136233298Y-98672484D01*
X136326123Y-98500807D01*
X136450527Y-98350429D01*
X136601769Y-98227079D01*
X136774091Y-98135454D01*
X136960927Y-98079045D01*
X137155161Y-98060000D01*
X137164996Y-98060000D01*
X137173726Y-98060061D01*
X137173726Y-98060061D01*
G37*
G36*
X172898558Y-96091127D02*
X173225138Y-96158165D01*
X173532475Y-96287357D01*
X173808869Y-96473788D01*
X174043783Y-96710347D01*
X174228279Y-96988035D01*
X174355323Y-97296269D01*
X174419907Y-97622439D01*
X174419907Y-97622466D01*
X174420073Y-97623306D01*
X174414756Y-98004097D01*
X174414565Y-98004936D01*
X174414565Y-98004957D01*
X174340898Y-98329205D01*
X174205298Y-98633766D01*
X174013122Y-98906192D01*
X173771690Y-99136105D01*
X173490206Y-99314741D01*
X173179375Y-99435304D01*
X172851056Y-99493195D01*
X172517736Y-99486214D01*
X172192127Y-99414624D01*
X171886624Y-99281153D01*
X171612862Y-99090883D01*
X171381270Y-98851062D01*
X171200673Y-98570830D01*
X171077942Y-98260849D01*
X171017760Y-97932944D01*
X171022416Y-97599587D01*
X171091731Y-97273481D01*
X171223067Y-96967053D01*
X171411419Y-96691971D01*
X171649617Y-96458711D01*
X171928583Y-96276160D01*
X172237696Y-96151271D01*
X172565179Y-96088800D01*
X172898558Y-96091127D01*
X172898558Y-96091127D01*
G37*
G36*
X147346887Y-96090129D02*
X147346901Y-96090131D01*
X147351962Y-96090166D01*
X147681676Y-96127149D01*
X147997927Y-96227470D01*
X148288670Y-96387307D01*
X148542830Y-96600572D01*
X148750725Y-96859143D01*
X148904439Y-97153169D01*
X148998114Y-97471452D01*
X148998122Y-97471539D01*
X148998128Y-97471560D01*
X149028189Y-97801868D01*
X148993521Y-98131709D01*
X148993515Y-98131729D01*
X148993504Y-98131832D01*
X148895393Y-98448776D01*
X148737590Y-98740628D01*
X148526104Y-98996270D01*
X148268992Y-99205966D01*
X147976046Y-99361728D01*
X147658424Y-99457624D01*
X147328226Y-99490000D01*
X147311614Y-99490000D01*
X147293113Y-99489871D01*
X147293099Y-99489869D01*
X147288038Y-99489834D01*
X146958324Y-99452851D01*
X146642073Y-99352530D01*
X146351330Y-99192693D01*
X146097170Y-98979428D01*
X145889275Y-98720857D01*
X145735561Y-98426831D01*
X145641886Y-98108548D01*
X145641878Y-98108461D01*
X145641872Y-98108440D01*
X145611811Y-97778132D01*
X145646479Y-97448291D01*
X145646485Y-97448271D01*
X145646496Y-97448168D01*
X145744607Y-97131224D01*
X145902410Y-96839372D01*
X146113896Y-96583730D01*
X146371008Y-96374034D01*
X146663954Y-96218272D01*
X146981576Y-96122376D01*
X147311774Y-96090000D01*
X147328386Y-96090000D01*
X147346887Y-96090129D01*
X147346887Y-96090129D01*
G37*
G36*
X152896887Y-96090129D02*
X152896901Y-96090131D01*
X152901962Y-96090166D01*
X153231676Y-96127149D01*
X153547927Y-96227470D01*
X153838670Y-96387307D01*
X154092830Y-96600572D01*
X154300725Y-96859143D01*
X154454439Y-97153169D01*
X154548114Y-97471452D01*
X154548122Y-97471539D01*
X154548128Y-97471560D01*
X154578189Y-97801868D01*
X154543521Y-98131709D01*
X154543515Y-98131729D01*
X154543504Y-98131832D01*
X154445393Y-98448776D01*
X154287590Y-98740628D01*
X154076104Y-98996270D01*
X153818992Y-99205966D01*
X153526046Y-99361728D01*
X153208424Y-99457624D01*
X152878226Y-99490000D01*
X152861614Y-99490000D01*
X152843113Y-99489871D01*
X152843099Y-99489869D01*
X152838038Y-99489834D01*
X152508324Y-99452851D01*
X152192073Y-99352530D01*
X151901330Y-99192693D01*
X151647170Y-98979428D01*
X151439275Y-98720857D01*
X151285561Y-98426831D01*
X151191886Y-98108548D01*
X151191878Y-98108461D01*
X151191872Y-98108440D01*
X151161811Y-97778132D01*
X151196479Y-97448291D01*
X151196485Y-97448271D01*
X151196496Y-97448168D01*
X151294607Y-97131224D01*
X151452410Y-96839372D01*
X151663896Y-96583730D01*
X151921008Y-96374034D01*
X152213954Y-96218272D01*
X152531576Y-96122376D01*
X152861774Y-96090000D01*
X152878386Y-96090000D01*
X152896887Y-96090129D01*
X152896887Y-96090129D01*
G37*
G36*
X167196887Y-96090129D02*
X167196901Y-96090131D01*
X167201962Y-96090166D01*
X167531676Y-96127149D01*
X167847927Y-96227470D01*
X168138670Y-96387307D01*
X168392830Y-96600572D01*
X168600725Y-96859143D01*
X168754439Y-97153169D01*
X168848114Y-97471452D01*
X168848122Y-97471539D01*
X168848128Y-97471560D01*
X168878189Y-97801868D01*
X168843521Y-98131709D01*
X168843515Y-98131729D01*
X168843504Y-98131832D01*
X168745393Y-98448776D01*
X168587590Y-98740628D01*
X168376104Y-98996270D01*
X168118992Y-99205966D01*
X167826046Y-99361728D01*
X167508424Y-99457624D01*
X167178226Y-99490000D01*
X167161614Y-99490000D01*
X167143113Y-99489871D01*
X167143099Y-99489869D01*
X167138038Y-99489834D01*
X166808324Y-99452851D01*
X166492073Y-99352530D01*
X166201330Y-99192693D01*
X165947170Y-98979428D01*
X165739275Y-98720857D01*
X165585561Y-98426831D01*
X165491886Y-98108548D01*
X165491878Y-98108461D01*
X165491872Y-98108440D01*
X165461811Y-97778132D01*
X165496479Y-97448291D01*
X165496485Y-97448271D01*
X165496496Y-97448168D01*
X165594607Y-97131224D01*
X165752410Y-96839372D01*
X165963896Y-96583730D01*
X166221008Y-96374034D01*
X166513954Y-96218272D01*
X166831576Y-96122376D01*
X167161774Y-96090000D01*
X167178386Y-96090000D01*
X167196887Y-96090129D01*
X167196887Y-96090129D01*
G37*
G36*
X117580035Y-92980661D02*
X117772141Y-93020094D01*
X117952928Y-93096090D01*
X118115509Y-93205754D01*
X118253700Y-93344911D01*
X118362224Y-93508254D01*
X118436957Y-93689570D01*
X118474877Y-93881077D01*
X118474877Y-93881105D01*
X118475043Y-93881945D01*
X118471916Y-94105940D01*
X118471724Y-94106784D01*
X118471724Y-94106799D01*
X118428471Y-94297181D01*
X118348706Y-94476334D01*
X118235662Y-94636585D01*
X118093643Y-94771828D01*
X117928060Y-94876910D01*
X117745225Y-94947827D01*
X117552092Y-94981881D01*
X117356020Y-94977775D01*
X117164488Y-94935663D01*
X116984776Y-94857150D01*
X116823741Y-94745227D01*
X116687511Y-94604157D01*
X116581275Y-94439310D01*
X116509083Y-94256974D01*
X116473681Y-94064082D01*
X116476419Y-93867988D01*
X116517191Y-93676168D01*
X116594449Y-93495912D01*
X116705244Y-93334099D01*
X116845362Y-93196887D01*
X117009459Y-93089504D01*
X117191291Y-93016040D01*
X117383929Y-92979292D01*
X117580035Y-92980661D01*
X117580035Y-92980661D01*
G37*
G36*
X127648726Y-92980061D02*
X127648733Y-92980062D01*
X127653801Y-92980097D01*
X127847751Y-93001852D01*
X128033781Y-93060865D01*
X128204806Y-93154887D01*
X128354312Y-93280337D01*
X128476603Y-93432437D01*
X128567023Y-93605393D01*
X128622126Y-93792619D01*
X128622134Y-93792703D01*
X128622141Y-93792728D01*
X128639819Y-93986981D01*
X128619431Y-94180955D01*
X128619425Y-94180975D01*
X128619414Y-94181078D01*
X128561702Y-94367516D01*
X128468877Y-94539193D01*
X128344473Y-94689571D01*
X128193231Y-94812921D01*
X128020909Y-94904546D01*
X127834073Y-94960955D01*
X127639839Y-94980000D01*
X127630004Y-94980000D01*
X127621274Y-94979939D01*
X127621267Y-94979938D01*
X127616199Y-94979903D01*
X127422249Y-94958148D01*
X127236219Y-94899135D01*
X127065194Y-94805113D01*
X126915688Y-94679663D01*
X126793397Y-94527563D01*
X126702977Y-94354607D01*
X126647874Y-94167381D01*
X126647866Y-94167297D01*
X126647859Y-94167272D01*
X126630181Y-93973019D01*
X126650569Y-93779045D01*
X126650575Y-93779025D01*
X126650586Y-93778922D01*
X126708298Y-93592484D01*
X126801123Y-93420807D01*
X126925527Y-93270429D01*
X127076769Y-93147079D01*
X127249091Y-93055454D01*
X127435927Y-92999045D01*
X127630161Y-92980000D01*
X127639996Y-92980000D01*
X127648726Y-92980061D01*
X127648726Y-92980061D01*
G37*
G36*
X134310000Y-91620000D02*
X130910000Y-91620000D01*
X130910000Y-88220000D01*
X134310000Y-88220000D01*
X134310000Y-91620000D01*
X134310000Y-91620000D01*
G37*
G36*
X174140000Y-91620000D02*
X170740000Y-91620000D01*
X170740000Y-88220000D01*
X174140000Y-88220000D01*
X174140000Y-91620000D01*
X174140000Y-91620000D01*
G37*
G36*
X109315844Y-86728102D02*
X109491140Y-86764085D01*
X109656110Y-86833433D01*
X109804469Y-86933503D01*
X109930562Y-87060478D01*
X110029594Y-87209533D01*
X110097787Y-87374982D01*
X110132373Y-87549656D01*
X110132373Y-87549685D01*
X110132539Y-87550525D01*
X110129685Y-87754920D01*
X110129494Y-87755759D01*
X110129494Y-87755780D01*
X110090043Y-87929427D01*
X110017258Y-88092905D01*
X109914102Y-88239137D01*
X109784516Y-88362540D01*
X109633419Y-88458430D01*
X109466576Y-88523144D01*
X109290347Y-88554217D01*
X109111430Y-88550470D01*
X108936653Y-88512042D01*
X108772675Y-88440402D01*
X108625726Y-88338270D01*
X108501415Y-88209542D01*
X108404477Y-88059124D01*
X108338598Y-87892735D01*
X108306295Y-87716729D01*
X108308794Y-87537788D01*
X108345999Y-87362754D01*
X108416497Y-87198269D01*
X108517597Y-87050615D01*
X108645456Y-86925407D01*
X108795191Y-86827423D01*
X108961115Y-86760385D01*
X109136897Y-86726854D01*
X109315844Y-86728102D01*
X109315844Y-86728102D01*
G37*
G36*
X106775844Y-86728102D02*
X106951140Y-86764085D01*
X107116110Y-86833433D01*
X107264469Y-86933503D01*
X107390562Y-87060478D01*
X107489594Y-87209533D01*
X107557787Y-87374982D01*
X107592373Y-87549656D01*
X107592373Y-87549685D01*
X107592539Y-87550525D01*
X107589685Y-87754920D01*
X107589494Y-87755759D01*
X107589494Y-87755780D01*
X107550043Y-87929427D01*
X107477258Y-88092905D01*
X107374102Y-88239137D01*
X107244516Y-88362540D01*
X107093419Y-88458430D01*
X106926576Y-88523144D01*
X106750347Y-88554217D01*
X106571430Y-88550470D01*
X106396653Y-88512042D01*
X106232675Y-88440402D01*
X106085726Y-88338270D01*
X105961415Y-88209542D01*
X105864477Y-88059124D01*
X105798598Y-87892735D01*
X105766295Y-87716729D01*
X105768794Y-87537788D01*
X105805999Y-87362754D01*
X105876497Y-87198269D01*
X105977597Y-87050615D01*
X106105456Y-86925407D01*
X106255191Y-86827423D01*
X106421115Y-86760385D01*
X106596897Y-86726854D01*
X106775844Y-86728102D01*
X106775844Y-86728102D01*
G37*
G36*
X104235844Y-86728102D02*
X104411140Y-86764085D01*
X104576110Y-86833433D01*
X104724469Y-86933503D01*
X104850562Y-87060478D01*
X104949594Y-87209533D01*
X105017787Y-87374982D01*
X105052373Y-87549656D01*
X105052373Y-87549685D01*
X105052539Y-87550525D01*
X105049685Y-87754920D01*
X105049494Y-87755759D01*
X105049494Y-87755780D01*
X105010043Y-87929427D01*
X104937258Y-88092905D01*
X104834102Y-88239137D01*
X104704516Y-88362540D01*
X104553419Y-88458430D01*
X104386576Y-88523144D01*
X104210347Y-88554217D01*
X104031430Y-88550470D01*
X103856653Y-88512042D01*
X103692675Y-88440402D01*
X103545726Y-88338270D01*
X103421415Y-88209542D01*
X103324477Y-88059124D01*
X103258598Y-87892735D01*
X103226295Y-87716729D01*
X103228794Y-87537788D01*
X103265999Y-87362754D01*
X103336497Y-87198269D01*
X103437597Y-87050615D01*
X103565456Y-86925407D01*
X103715191Y-86827423D01*
X103881115Y-86760385D01*
X104056897Y-86726854D01*
X104235844Y-86728102D01*
X104235844Y-86728102D01*
G37*
G36*
X124555844Y-86728102D02*
X124731140Y-86764085D01*
X124896110Y-86833433D01*
X125044469Y-86933503D01*
X125170562Y-87060478D01*
X125269594Y-87209533D01*
X125337787Y-87374982D01*
X125372373Y-87549656D01*
X125372373Y-87549685D01*
X125372539Y-87550525D01*
X125369685Y-87754920D01*
X125369494Y-87755759D01*
X125369494Y-87755780D01*
X125330043Y-87929427D01*
X125257258Y-88092905D01*
X125154102Y-88239137D01*
X125024516Y-88362540D01*
X124873419Y-88458430D01*
X124706576Y-88523144D01*
X124530347Y-88554217D01*
X124351430Y-88550470D01*
X124176653Y-88512042D01*
X124012675Y-88440402D01*
X123865726Y-88338270D01*
X123741415Y-88209542D01*
X123644477Y-88059124D01*
X123578598Y-87892735D01*
X123546295Y-87716729D01*
X123548794Y-87537788D01*
X123585999Y-87362754D01*
X123656497Y-87198269D01*
X123757597Y-87050615D01*
X123885456Y-86925407D01*
X124035191Y-86827423D01*
X124201115Y-86760385D01*
X124376897Y-86726854D01*
X124555844Y-86728102D01*
X124555844Y-86728102D01*
G37*
G36*
X122015844Y-86728102D02*
X122191140Y-86764085D01*
X122356110Y-86833433D01*
X122504469Y-86933503D01*
X122630562Y-87060478D01*
X122729594Y-87209533D01*
X122797787Y-87374982D01*
X122832373Y-87549656D01*
X122832373Y-87549685D01*
X122832539Y-87550525D01*
X122829685Y-87754920D01*
X122829494Y-87755759D01*
X122829494Y-87755780D01*
X122790043Y-87929427D01*
X122717258Y-88092905D01*
X122614102Y-88239137D01*
X122484516Y-88362540D01*
X122333419Y-88458430D01*
X122166576Y-88523144D01*
X121990347Y-88554217D01*
X121811430Y-88550470D01*
X121636653Y-88512042D01*
X121472675Y-88440402D01*
X121325726Y-88338270D01*
X121201415Y-88209542D01*
X121104477Y-88059124D01*
X121038598Y-87892735D01*
X121006295Y-87716729D01*
X121008794Y-87537788D01*
X121045999Y-87362754D01*
X121116497Y-87198269D01*
X121217597Y-87050615D01*
X121345456Y-86925407D01*
X121495191Y-86827423D01*
X121661115Y-86760385D01*
X121836897Y-86726854D01*
X122015844Y-86728102D01*
X122015844Y-86728102D01*
G37*
G36*
X99155844Y-86728102D02*
X99331140Y-86764085D01*
X99496110Y-86833433D01*
X99644469Y-86933503D01*
X99770562Y-87060478D01*
X99869594Y-87209533D01*
X99937787Y-87374982D01*
X99972373Y-87549656D01*
X99972373Y-87549685D01*
X99972539Y-87550525D01*
X99969685Y-87754920D01*
X99969494Y-87755759D01*
X99969494Y-87755780D01*
X99930043Y-87929427D01*
X99857258Y-88092905D01*
X99754102Y-88239137D01*
X99624516Y-88362540D01*
X99473419Y-88458430D01*
X99306576Y-88523144D01*
X99130347Y-88554217D01*
X98951430Y-88550470D01*
X98776653Y-88512042D01*
X98612675Y-88440402D01*
X98465726Y-88338270D01*
X98341415Y-88209542D01*
X98244477Y-88059124D01*
X98178598Y-87892735D01*
X98146295Y-87716729D01*
X98148794Y-87537788D01*
X98185999Y-87362754D01*
X98256497Y-87198269D01*
X98357597Y-87050615D01*
X98485456Y-86925407D01*
X98635191Y-86827423D01*
X98801115Y-86760385D01*
X98976897Y-86726854D01*
X99155844Y-86728102D01*
X99155844Y-86728102D01*
G37*
G36*
X96615844Y-86728102D02*
X96791140Y-86764085D01*
X96956110Y-86833433D01*
X97104469Y-86933503D01*
X97230562Y-87060478D01*
X97329594Y-87209533D01*
X97397787Y-87374982D01*
X97432373Y-87549656D01*
X97432373Y-87549685D01*
X97432539Y-87550525D01*
X97429685Y-87754920D01*
X97429494Y-87755759D01*
X97429494Y-87755780D01*
X97390043Y-87929427D01*
X97317258Y-88092905D01*
X97214102Y-88239137D01*
X97084516Y-88362540D01*
X96933419Y-88458430D01*
X96766576Y-88523144D01*
X96590347Y-88554217D01*
X96411430Y-88550470D01*
X96236653Y-88512042D01*
X96072675Y-88440402D01*
X95925726Y-88338270D01*
X95801415Y-88209542D01*
X95704477Y-88059124D01*
X95638598Y-87892735D01*
X95606295Y-87716729D01*
X95608794Y-87537788D01*
X95645999Y-87362754D01*
X95716497Y-87198269D01*
X95817597Y-87050615D01*
X95945456Y-86925407D01*
X96095191Y-86827423D01*
X96261115Y-86760385D01*
X96436897Y-86726854D01*
X96615844Y-86728102D01*
X96615844Y-86728102D01*
G37*
G36*
X111855844Y-86728102D02*
X112031140Y-86764085D01*
X112196110Y-86833433D01*
X112344469Y-86933503D01*
X112470562Y-87060478D01*
X112569594Y-87209533D01*
X112637787Y-87374982D01*
X112672373Y-87549656D01*
X112672373Y-87549685D01*
X112672539Y-87550525D01*
X112669685Y-87754920D01*
X112669494Y-87755759D01*
X112669494Y-87755780D01*
X112630043Y-87929427D01*
X112557258Y-88092905D01*
X112454102Y-88239137D01*
X112324516Y-88362540D01*
X112173419Y-88458430D01*
X112006576Y-88523144D01*
X111830347Y-88554217D01*
X111651430Y-88550470D01*
X111476653Y-88512042D01*
X111312675Y-88440402D01*
X111165726Y-88338270D01*
X111041415Y-88209542D01*
X110944477Y-88059124D01*
X110878598Y-87892735D01*
X110846295Y-87716729D01*
X110848794Y-87537788D01*
X110885999Y-87362754D01*
X110956497Y-87198269D01*
X111057597Y-87050615D01*
X111185456Y-86925407D01*
X111335191Y-86827423D01*
X111501115Y-86760385D01*
X111676897Y-86726854D01*
X111855844Y-86728102D01*
X111855844Y-86728102D01*
G37*
G36*
X101695844Y-86728102D02*
X101871140Y-86764085D01*
X102036110Y-86833433D01*
X102184469Y-86933503D01*
X102310562Y-87060478D01*
X102409594Y-87209533D01*
X102477787Y-87374982D01*
X102512373Y-87549656D01*
X102512373Y-87549685D01*
X102512539Y-87550525D01*
X102509685Y-87754920D01*
X102509494Y-87755759D01*
X102509494Y-87755780D01*
X102470043Y-87929427D01*
X102397258Y-88092905D01*
X102294102Y-88239137D01*
X102164516Y-88362540D01*
X102013419Y-88458430D01*
X101846576Y-88523144D01*
X101670347Y-88554217D01*
X101491430Y-88550470D01*
X101316653Y-88512042D01*
X101152675Y-88440402D01*
X101005726Y-88338270D01*
X100881415Y-88209542D01*
X100784477Y-88059124D01*
X100718598Y-87892735D01*
X100686295Y-87716729D01*
X100688794Y-87537788D01*
X100725999Y-87362754D01*
X100796497Y-87198269D01*
X100897597Y-87050615D01*
X101025456Y-86925407D01*
X101175191Y-86827423D01*
X101341115Y-86760385D01*
X101516897Y-86726854D01*
X101695844Y-86728102D01*
X101695844Y-86728102D01*
G37*
G36*
X116935844Y-86728102D02*
X117111140Y-86764085D01*
X117276110Y-86833433D01*
X117424469Y-86933503D01*
X117550562Y-87060478D01*
X117649594Y-87209533D01*
X117717787Y-87374982D01*
X117752373Y-87549656D01*
X117752373Y-87549685D01*
X117752539Y-87550525D01*
X117749685Y-87754920D01*
X117749494Y-87755759D01*
X117749494Y-87755780D01*
X117710043Y-87929427D01*
X117637258Y-88092905D01*
X117534102Y-88239137D01*
X117404516Y-88362540D01*
X117253419Y-88458430D01*
X117086576Y-88523144D01*
X116910347Y-88554217D01*
X116731430Y-88550470D01*
X116556653Y-88512042D01*
X116392675Y-88440402D01*
X116245726Y-88338270D01*
X116121415Y-88209542D01*
X116024477Y-88059124D01*
X115958598Y-87892735D01*
X115926295Y-87716729D01*
X115928794Y-87537788D01*
X115965999Y-87362754D01*
X116036497Y-87198269D01*
X116137597Y-87050615D01*
X116265456Y-86925407D01*
X116415191Y-86827423D01*
X116581115Y-86760385D01*
X116756897Y-86726854D01*
X116935844Y-86728102D01*
X116935844Y-86728102D01*
G37*
G36*
X114395844Y-86728102D02*
X114571140Y-86764085D01*
X114736110Y-86833433D01*
X114884469Y-86933503D01*
X115010562Y-87060478D01*
X115109594Y-87209533D01*
X115177787Y-87374982D01*
X115212373Y-87549656D01*
X115212373Y-87549685D01*
X115212539Y-87550525D01*
X115209685Y-87754920D01*
X115209494Y-87755759D01*
X115209494Y-87755780D01*
X115170043Y-87929427D01*
X115097258Y-88092905D01*
X114994102Y-88239137D01*
X114864516Y-88362540D01*
X114713419Y-88458430D01*
X114546576Y-88523144D01*
X114370347Y-88554217D01*
X114191430Y-88550470D01*
X114016653Y-88512042D01*
X113852675Y-88440402D01*
X113705726Y-88338270D01*
X113581415Y-88209542D01*
X113484477Y-88059124D01*
X113418598Y-87892735D01*
X113386295Y-87716729D01*
X113388794Y-87537788D01*
X113425999Y-87362754D01*
X113496497Y-87198269D01*
X113597597Y-87050615D01*
X113725456Y-86925407D01*
X113875191Y-86827423D01*
X114041115Y-86760385D01*
X114216897Y-86726854D01*
X114395844Y-86728102D01*
X114395844Y-86728102D01*
G37*
G36*
X119475844Y-86728102D02*
X119651140Y-86764085D01*
X119816110Y-86833433D01*
X119964469Y-86933503D01*
X120090562Y-87060478D01*
X120189594Y-87209533D01*
X120257787Y-87374982D01*
X120292373Y-87549656D01*
X120292373Y-87549685D01*
X120292539Y-87550525D01*
X120289685Y-87754920D01*
X120289494Y-87755759D01*
X120289494Y-87755780D01*
X120250043Y-87929427D01*
X120177258Y-88092905D01*
X120074102Y-88239137D01*
X119944516Y-88362540D01*
X119793419Y-88458430D01*
X119626576Y-88523144D01*
X119450347Y-88554217D01*
X119271430Y-88550470D01*
X119096653Y-88512042D01*
X118932675Y-88440402D01*
X118785726Y-88338270D01*
X118661415Y-88209542D01*
X118564477Y-88059124D01*
X118498598Y-87892735D01*
X118466295Y-87716729D01*
X118468794Y-87537788D01*
X118505999Y-87362754D01*
X118576497Y-87198269D01*
X118677597Y-87050615D01*
X118805456Y-86925407D01*
X118955191Y-86827423D01*
X119121115Y-86760385D01*
X119296897Y-86726854D01*
X119475844Y-86728102D01*
X119475844Y-86728102D01*
G37*
G36*
X152960000Y-88490000D02*
X146760000Y-88490000D01*
X146760000Y-81690000D01*
X152960000Y-81690000D01*
X152960000Y-88490000D01*
X152960000Y-88490000D01*
G37*
G36*
X104245035Y-81550661D02*
X104437141Y-81590094D01*
X104617928Y-81666090D01*
X104780509Y-81775754D01*
X104918700Y-81914911D01*
X105027224Y-82078254D01*
X105101957Y-82259570D01*
X105139877Y-82451077D01*
X105139877Y-82451105D01*
X105140043Y-82451945D01*
X105136916Y-82675940D01*
X105136724Y-82676784D01*
X105136724Y-82676799D01*
X105093471Y-82867181D01*
X105013706Y-83046334D01*
X104900662Y-83206585D01*
X104758643Y-83341828D01*
X104593060Y-83446910D01*
X104410225Y-83517827D01*
X104217092Y-83551881D01*
X104021020Y-83547775D01*
X103829488Y-83505663D01*
X103649776Y-83427150D01*
X103488741Y-83315227D01*
X103352511Y-83174157D01*
X103246275Y-83009310D01*
X103174083Y-82826974D01*
X103138681Y-82634082D01*
X103141419Y-82437988D01*
X103182191Y-82246168D01*
X103259449Y-82065912D01*
X103370244Y-81904099D01*
X103510362Y-81766887D01*
X103674459Y-81659504D01*
X103856291Y-81586040D01*
X104048929Y-81549292D01*
X104245035Y-81550661D01*
X104245035Y-81550661D01*
G37*
G36*
X119485035Y-81550661D02*
X119677141Y-81590094D01*
X119857928Y-81666090D01*
X120020509Y-81775754D01*
X120158700Y-81914911D01*
X120267224Y-82078254D01*
X120341957Y-82259570D01*
X120379877Y-82451077D01*
X120379877Y-82451105D01*
X120380043Y-82451945D01*
X120376916Y-82675940D01*
X120376724Y-82676784D01*
X120376724Y-82676799D01*
X120333471Y-82867181D01*
X120253706Y-83046334D01*
X120140662Y-83206585D01*
X119998643Y-83341828D01*
X119833060Y-83446910D01*
X119650225Y-83517827D01*
X119457092Y-83551881D01*
X119261020Y-83547775D01*
X119069488Y-83505663D01*
X118889776Y-83427150D01*
X118728741Y-83315227D01*
X118592511Y-83174157D01*
X118486275Y-83009310D01*
X118414083Y-82826974D01*
X118378681Y-82634082D01*
X118381419Y-82437988D01*
X118422191Y-82246168D01*
X118499449Y-82065912D01*
X118610244Y-81904099D01*
X118750362Y-81766887D01*
X118914459Y-81659504D01*
X119096291Y-81586040D01*
X119288929Y-81549292D01*
X119485035Y-81550661D01*
X119485035Y-81550661D01*
G37*
G36*
X114313726Y-81550061D02*
X114313733Y-81550062D01*
X114318801Y-81550097D01*
X114512751Y-81571852D01*
X114698781Y-81630865D01*
X114869806Y-81724887D01*
X115019312Y-81850337D01*
X115141603Y-82002437D01*
X115232023Y-82175393D01*
X115287126Y-82362619D01*
X115287134Y-82362703D01*
X115287141Y-82362728D01*
X115304819Y-82556981D01*
X115284431Y-82750955D01*
X115284425Y-82750975D01*
X115284414Y-82751078D01*
X115226702Y-82937516D01*
X115133877Y-83109193D01*
X115009473Y-83259571D01*
X114858231Y-83382921D01*
X114685909Y-83474546D01*
X114499073Y-83530955D01*
X114304839Y-83550000D01*
X114295004Y-83550000D01*
X114286274Y-83549939D01*
X114286267Y-83549938D01*
X114281199Y-83549903D01*
X114087249Y-83528148D01*
X113901219Y-83469135D01*
X113730194Y-83375113D01*
X113580688Y-83249663D01*
X113458397Y-83097563D01*
X113367977Y-82924607D01*
X113312874Y-82737381D01*
X113312866Y-82737297D01*
X113312859Y-82737272D01*
X113295181Y-82543019D01*
X113315569Y-82349045D01*
X113315575Y-82349025D01*
X113315586Y-82348922D01*
X113373298Y-82162484D01*
X113466123Y-81990807D01*
X113590527Y-81840429D01*
X113741769Y-81717079D01*
X113914091Y-81625454D01*
X114100927Y-81569045D01*
X114295161Y-81550000D01*
X114304996Y-81550000D01*
X114313726Y-81550061D01*
X114313726Y-81550061D01*
G37*
G36*
X129553726Y-81550061D02*
X129553733Y-81550062D01*
X129558801Y-81550097D01*
X129752751Y-81571852D01*
X129938781Y-81630865D01*
X130109806Y-81724887D01*
X130259312Y-81850337D01*
X130381603Y-82002437D01*
X130472023Y-82175393D01*
X130527126Y-82362619D01*
X130527134Y-82362703D01*
X130527141Y-82362728D01*
X130544819Y-82556981D01*
X130524431Y-82750955D01*
X130524425Y-82750975D01*
X130524414Y-82751078D01*
X130466702Y-82937516D01*
X130373877Y-83109193D01*
X130249473Y-83259571D01*
X130098231Y-83382921D01*
X129925909Y-83474546D01*
X129739073Y-83530955D01*
X129544839Y-83550000D01*
X129535004Y-83550000D01*
X129526274Y-83549939D01*
X129526267Y-83549938D01*
X129521199Y-83549903D01*
X129327249Y-83528148D01*
X129141219Y-83469135D01*
X128970194Y-83375113D01*
X128820688Y-83249663D01*
X128698397Y-83097563D01*
X128607977Y-82924607D01*
X128552874Y-82737381D01*
X128552866Y-82737297D01*
X128552859Y-82737272D01*
X128535181Y-82543019D01*
X128555569Y-82349045D01*
X128555575Y-82349025D01*
X128555586Y-82348922D01*
X128613298Y-82162484D01*
X128706123Y-81990807D01*
X128830527Y-81840429D01*
X128981769Y-81717079D01*
X129154091Y-81625454D01*
X129340927Y-81569045D01*
X129535161Y-81550000D01*
X129544996Y-81550000D01*
X129553726Y-81550061D01*
X129553726Y-81550061D01*
G37*
G36*
X148380000Y-80090000D02*
X146780000Y-80090000D01*
X146780000Y-77490000D01*
X148380000Y-77490000D01*
X148380000Y-80090000D01*
X148380000Y-80090000D01*
G37*
G36*
X152940000Y-80090000D02*
X151340000Y-80090000D01*
X151340000Y-77490000D01*
X152940000Y-77490000D01*
X152940000Y-80090000D01*
X152940000Y-80090000D01*
G37*
G36*
X110595035Y-76470661D02*
X110787141Y-76510094D01*
X110967928Y-76586090D01*
X111130509Y-76695754D01*
X111268700Y-76834911D01*
X111377224Y-76998254D01*
X111451957Y-77179570D01*
X111489877Y-77371077D01*
X111489877Y-77371105D01*
X111490043Y-77371945D01*
X111486916Y-77595940D01*
X111486724Y-77596784D01*
X111486724Y-77596799D01*
X111443471Y-77787181D01*
X111363706Y-77966334D01*
X111250662Y-78126585D01*
X111108643Y-78261828D01*
X110943060Y-78366910D01*
X110760225Y-78437827D01*
X110567092Y-78471881D01*
X110371020Y-78467775D01*
X110179488Y-78425663D01*
X109999776Y-78347150D01*
X109838741Y-78235227D01*
X109702511Y-78094157D01*
X109596275Y-77929310D01*
X109524083Y-77746974D01*
X109488681Y-77554082D01*
X109491419Y-77357988D01*
X109532191Y-77166168D01*
X109609449Y-76985912D01*
X109720244Y-76824099D01*
X109860362Y-76686887D01*
X110024459Y-76579504D01*
X110206291Y-76506040D01*
X110398929Y-76469292D01*
X110595035Y-76470661D01*
X110595035Y-76470661D01*
G37*
G36*
X125835035Y-76470661D02*
X126027141Y-76510094D01*
X126207928Y-76586090D01*
X126370509Y-76695754D01*
X126508700Y-76834911D01*
X126617224Y-76998254D01*
X126691957Y-77179570D01*
X126729877Y-77371077D01*
X126729877Y-77371105D01*
X126730043Y-77371945D01*
X126726916Y-77595940D01*
X126726724Y-77596784D01*
X126726724Y-77596799D01*
X126683471Y-77787181D01*
X126603706Y-77966334D01*
X126490662Y-78126585D01*
X126348643Y-78261828D01*
X126183060Y-78366910D01*
X126000225Y-78437827D01*
X125807092Y-78471881D01*
X125611020Y-78467775D01*
X125419488Y-78425663D01*
X125239776Y-78347150D01*
X125078741Y-78235227D01*
X124942511Y-78094157D01*
X124836275Y-77929310D01*
X124764083Y-77746974D01*
X124728681Y-77554082D01*
X124731419Y-77357988D01*
X124772191Y-77166168D01*
X124849449Y-76985912D01*
X124960244Y-76824099D01*
X125100362Y-76686887D01*
X125264459Y-76579504D01*
X125446291Y-76506040D01*
X125638929Y-76469292D01*
X125835035Y-76470661D01*
X125835035Y-76470661D01*
G37*
G36*
X115583726Y-76470061D02*
X115583733Y-76470062D01*
X115588801Y-76470097D01*
X115782751Y-76491852D01*
X115968781Y-76550865D01*
X116139806Y-76644887D01*
X116289312Y-76770337D01*
X116411603Y-76922437D01*
X116502023Y-77095393D01*
X116557126Y-77282619D01*
X116557134Y-77282703D01*
X116557141Y-77282728D01*
X116574819Y-77476981D01*
X116554431Y-77670955D01*
X116554425Y-77670975D01*
X116554414Y-77671078D01*
X116496702Y-77857516D01*
X116403877Y-78029193D01*
X116279473Y-78179571D01*
X116128231Y-78302921D01*
X115955909Y-78394546D01*
X115769073Y-78450955D01*
X115574839Y-78470000D01*
X115565004Y-78470000D01*
X115556274Y-78469939D01*
X115556267Y-78469938D01*
X115551199Y-78469903D01*
X115357249Y-78448148D01*
X115171219Y-78389135D01*
X115000194Y-78295113D01*
X114850688Y-78169663D01*
X114728397Y-78017563D01*
X114637977Y-77844607D01*
X114582874Y-77657381D01*
X114582866Y-77657297D01*
X114582859Y-77657272D01*
X114565181Y-77463019D01*
X114585569Y-77269045D01*
X114585575Y-77269025D01*
X114585586Y-77268922D01*
X114643298Y-77082484D01*
X114736123Y-76910807D01*
X114860527Y-76760429D01*
X115011769Y-76637079D01*
X115184091Y-76545454D01*
X115370927Y-76489045D01*
X115565161Y-76470000D01*
X115574996Y-76470000D01*
X115583726Y-76470061D01*
X115583726Y-76470061D01*
G37*
G36*
X100343726Y-76470061D02*
X100343733Y-76470062D01*
X100348801Y-76470097D01*
X100542751Y-76491852D01*
X100728781Y-76550865D01*
X100899806Y-76644887D01*
X101049312Y-76770337D01*
X101171603Y-76922437D01*
X101262023Y-77095393D01*
X101317126Y-77282619D01*
X101317134Y-77282703D01*
X101317141Y-77282728D01*
X101334819Y-77476981D01*
X101314431Y-77670955D01*
X101314425Y-77670975D01*
X101314414Y-77671078D01*
X101256702Y-77857516D01*
X101163877Y-78029193D01*
X101039473Y-78179571D01*
X100888231Y-78302921D01*
X100715909Y-78394546D01*
X100529073Y-78450955D01*
X100334839Y-78470000D01*
X100325004Y-78470000D01*
X100316274Y-78469939D01*
X100316267Y-78469938D01*
X100311199Y-78469903D01*
X100117249Y-78448148D01*
X99931219Y-78389135D01*
X99760194Y-78295113D01*
X99610688Y-78169663D01*
X99488397Y-78017563D01*
X99397977Y-77844607D01*
X99342874Y-77657381D01*
X99342866Y-77657297D01*
X99342859Y-77657272D01*
X99325181Y-77463019D01*
X99345569Y-77269045D01*
X99345575Y-77269025D01*
X99345586Y-77268922D01*
X99403298Y-77082484D01*
X99496123Y-76910807D01*
X99620527Y-76760429D01*
X99771769Y-76637079D01*
X99944091Y-76545454D01*
X100130927Y-76489045D01*
X100325161Y-76470000D01*
X100334996Y-76470000D01*
X100343726Y-76470061D01*
X100343726Y-76470061D01*
G37*
G36*
X174140000Y-74620000D02*
X170740000Y-74620000D01*
X170740000Y-71220000D01*
X174140000Y-71220000D01*
X174140000Y-74620000D01*
X174140000Y-74620000D01*
G37*
G36*
X134310000Y-74620000D02*
X130910000Y-74620000D01*
X130910000Y-71220000D01*
X134310000Y-71220000D01*
X134310000Y-74620000D01*
X134310000Y-74620000D01*
G37*
G36*
X158936041Y-71190794D02*
X159166569Y-71238115D01*
X159383512Y-71329309D01*
X159578616Y-71460908D01*
X159744437Y-71627890D01*
X159874669Y-71823906D01*
X159964348Y-72041484D01*
X160009886Y-72271465D01*
X160009886Y-72271498D01*
X160010051Y-72272334D01*
X160006298Y-72541128D01*
X160006107Y-72541967D01*
X160006107Y-72541988D01*
X159954165Y-72770616D01*
X159858447Y-72985601D01*
X159722795Y-73177901D01*
X159552372Y-73340191D01*
X159353673Y-73466290D01*
X159134265Y-73551393D01*
X158902511Y-73592257D01*
X158667225Y-73587329D01*
X158437383Y-73536795D01*
X158221735Y-73442580D01*
X158028487Y-73308269D01*
X157865016Y-73138991D01*
X157737530Y-72941171D01*
X157650899Y-72722366D01*
X157608417Y-72490903D01*
X157611703Y-72255586D01*
X157660630Y-72025402D01*
X157753340Y-71809095D01*
X157886294Y-71614920D01*
X158054433Y-71450266D01*
X158251353Y-71321406D01*
X158469549Y-71233248D01*
X158700714Y-71189152D01*
X158936041Y-71190794D01*
X158936041Y-71190794D01*
G37*
G36*
X116935844Y-71478102D02*
X117111140Y-71514085D01*
X117276110Y-71583433D01*
X117424469Y-71683503D01*
X117550562Y-71810478D01*
X117649594Y-71959533D01*
X117717787Y-72124982D01*
X117752373Y-72299656D01*
X117752373Y-72299685D01*
X117752539Y-72300525D01*
X117749685Y-72504920D01*
X117749494Y-72505759D01*
X117749494Y-72505780D01*
X117710043Y-72679427D01*
X117637258Y-72842905D01*
X117534102Y-72989137D01*
X117404516Y-73112540D01*
X117253419Y-73208430D01*
X117086576Y-73273144D01*
X116910347Y-73304217D01*
X116731430Y-73300470D01*
X116556653Y-73262042D01*
X116392675Y-73190402D01*
X116245726Y-73088270D01*
X116121415Y-72959542D01*
X116024477Y-72809124D01*
X115958598Y-72642735D01*
X115926295Y-72466729D01*
X115928794Y-72287788D01*
X115965999Y-72112754D01*
X116036497Y-71948269D01*
X116137597Y-71800615D01*
X116265456Y-71675407D01*
X116415191Y-71577423D01*
X116581115Y-71510385D01*
X116756897Y-71476854D01*
X116935844Y-71478102D01*
X116935844Y-71478102D01*
G37*
G36*
X96615844Y-71478102D02*
X96791140Y-71514085D01*
X96956110Y-71583433D01*
X97104469Y-71683503D01*
X97230562Y-71810478D01*
X97329594Y-71959533D01*
X97397787Y-72124982D01*
X97432373Y-72299656D01*
X97432373Y-72299685D01*
X97432539Y-72300525D01*
X97429685Y-72504920D01*
X97429494Y-72505759D01*
X97429494Y-72505780D01*
X97390043Y-72679427D01*
X97317258Y-72842905D01*
X97214102Y-72989137D01*
X97084516Y-73112540D01*
X96933419Y-73208430D01*
X96766576Y-73273144D01*
X96590347Y-73304217D01*
X96411430Y-73300470D01*
X96236653Y-73262042D01*
X96072675Y-73190402D01*
X95925726Y-73088270D01*
X95801415Y-72959542D01*
X95704477Y-72809124D01*
X95638598Y-72642735D01*
X95606295Y-72466729D01*
X95608794Y-72287788D01*
X95645999Y-72112754D01*
X95716497Y-71948269D01*
X95817597Y-71800615D01*
X95945456Y-71675407D01*
X96095191Y-71577423D01*
X96261115Y-71510385D01*
X96436897Y-71476854D01*
X96615844Y-71478102D01*
X96615844Y-71478102D01*
G37*
G36*
X99155844Y-71478102D02*
X99331140Y-71514085D01*
X99496110Y-71583433D01*
X99644469Y-71683503D01*
X99770562Y-71810478D01*
X99869594Y-71959533D01*
X99937787Y-72124982D01*
X99972373Y-72299656D01*
X99972373Y-72299685D01*
X99972539Y-72300525D01*
X99969685Y-72504920D01*
X99969494Y-72505759D01*
X99969494Y-72505780D01*
X99930043Y-72679427D01*
X99857258Y-72842905D01*
X99754102Y-72989137D01*
X99624516Y-73112540D01*
X99473419Y-73208430D01*
X99306576Y-73273144D01*
X99130347Y-73304217D01*
X98951430Y-73300470D01*
X98776653Y-73262042D01*
X98612675Y-73190402D01*
X98465726Y-73088270D01*
X98341415Y-72959542D01*
X98244477Y-72809124D01*
X98178598Y-72642735D01*
X98146295Y-72466729D01*
X98148794Y-72287788D01*
X98185999Y-72112754D01*
X98256497Y-71948269D01*
X98357597Y-71800615D01*
X98485456Y-71675407D01*
X98635191Y-71577423D01*
X98801115Y-71510385D01*
X98976897Y-71476854D01*
X99155844Y-71478102D01*
X99155844Y-71478102D01*
G37*
G36*
X106775844Y-71478102D02*
X106951140Y-71514085D01*
X107116110Y-71583433D01*
X107264469Y-71683503D01*
X107390562Y-71810478D01*
X107489594Y-71959533D01*
X107557787Y-72124982D01*
X107592373Y-72299656D01*
X107592373Y-72299685D01*
X107592539Y-72300525D01*
X107589685Y-72504920D01*
X107589494Y-72505759D01*
X107589494Y-72505780D01*
X107550043Y-72679427D01*
X107477258Y-72842905D01*
X107374102Y-72989137D01*
X107244516Y-73112540D01*
X107093419Y-73208430D01*
X106926576Y-73273144D01*
X106750347Y-73304217D01*
X106571430Y-73300470D01*
X106396653Y-73262042D01*
X106232675Y-73190402D01*
X106085726Y-73088270D01*
X105961415Y-72959542D01*
X105864477Y-72809124D01*
X105798598Y-72642735D01*
X105766295Y-72466729D01*
X105768794Y-72287788D01*
X105805999Y-72112754D01*
X105876497Y-71948269D01*
X105977597Y-71800615D01*
X106105456Y-71675407D01*
X106255191Y-71577423D01*
X106421115Y-71510385D01*
X106596897Y-71476854D01*
X106775844Y-71478102D01*
X106775844Y-71478102D01*
G37*
G36*
X101695844Y-71478102D02*
X101871140Y-71514085D01*
X102036110Y-71583433D01*
X102184469Y-71683503D01*
X102310562Y-71810478D01*
X102409594Y-71959533D01*
X102477787Y-72124982D01*
X102512373Y-72299656D01*
X102512373Y-72299685D01*
X102512539Y-72300525D01*
X102509685Y-72504920D01*
X102509494Y-72505759D01*
X102509494Y-72505780D01*
X102470043Y-72679427D01*
X102397258Y-72842905D01*
X102294102Y-72989137D01*
X102164516Y-73112540D01*
X102013419Y-73208430D01*
X101846576Y-73273144D01*
X101670347Y-73304217D01*
X101491430Y-73300470D01*
X101316653Y-73262042D01*
X101152675Y-73190402D01*
X101005726Y-73088270D01*
X100881415Y-72959542D01*
X100784477Y-72809124D01*
X100718598Y-72642735D01*
X100686295Y-72466729D01*
X100688794Y-72287788D01*
X100725999Y-72112754D01*
X100796497Y-71948269D01*
X100897597Y-71800615D01*
X101025456Y-71675407D01*
X101175191Y-71577423D01*
X101341115Y-71510385D01*
X101516897Y-71476854D01*
X101695844Y-71478102D01*
X101695844Y-71478102D01*
G37*
G36*
X104235844Y-71478102D02*
X104411140Y-71514085D01*
X104576110Y-71583433D01*
X104724469Y-71683503D01*
X104850562Y-71810478D01*
X104949594Y-71959533D01*
X105017787Y-72124982D01*
X105052373Y-72299656D01*
X105052373Y-72299685D01*
X105052539Y-72300525D01*
X105049685Y-72504920D01*
X105049494Y-72505759D01*
X105049494Y-72505780D01*
X105010043Y-72679427D01*
X104937258Y-72842905D01*
X104834102Y-72989137D01*
X104704516Y-73112540D01*
X104553419Y-73208430D01*
X104386576Y-73273144D01*
X104210347Y-73304217D01*
X104031430Y-73300470D01*
X103856653Y-73262042D01*
X103692675Y-73190402D01*
X103545726Y-73088270D01*
X103421415Y-72959542D01*
X103324477Y-72809124D01*
X103258598Y-72642735D01*
X103226295Y-72466729D01*
X103228794Y-72287788D01*
X103265999Y-72112754D01*
X103336497Y-71948269D01*
X103437597Y-71800615D01*
X103565456Y-71675407D01*
X103715191Y-71577423D01*
X103881115Y-71510385D01*
X104056897Y-71476854D01*
X104235844Y-71478102D01*
X104235844Y-71478102D01*
G37*
G36*
X109315844Y-71478102D02*
X109491140Y-71514085D01*
X109656110Y-71583433D01*
X109804469Y-71683503D01*
X109930562Y-71810478D01*
X110029594Y-71959533D01*
X110097787Y-72124982D01*
X110132373Y-72299656D01*
X110132373Y-72299685D01*
X110132539Y-72300525D01*
X110129685Y-72504920D01*
X110129494Y-72505759D01*
X110129494Y-72505780D01*
X110090043Y-72679427D01*
X110017258Y-72842905D01*
X109914102Y-72989137D01*
X109784516Y-73112540D01*
X109633419Y-73208430D01*
X109466576Y-73273144D01*
X109290347Y-73304217D01*
X109111430Y-73300470D01*
X108936653Y-73262042D01*
X108772675Y-73190402D01*
X108625726Y-73088270D01*
X108501415Y-72959542D01*
X108404477Y-72809124D01*
X108338598Y-72642735D01*
X108306295Y-72466729D01*
X108308794Y-72287788D01*
X108345999Y-72112754D01*
X108416497Y-71948269D01*
X108517597Y-71800615D01*
X108645456Y-71675407D01*
X108795191Y-71577423D01*
X108961115Y-71510385D01*
X109136897Y-71476854D01*
X109315844Y-71478102D01*
X109315844Y-71478102D01*
G37*
G36*
X111855844Y-71478102D02*
X112031140Y-71514085D01*
X112196110Y-71583433D01*
X112344469Y-71683503D01*
X112470562Y-71810478D01*
X112569594Y-71959533D01*
X112637787Y-72124982D01*
X112672373Y-72299656D01*
X112672373Y-72299685D01*
X112672539Y-72300525D01*
X112669685Y-72504920D01*
X112669494Y-72505759D01*
X112669494Y-72505780D01*
X112630043Y-72679427D01*
X112557258Y-72842905D01*
X112454102Y-72989137D01*
X112324516Y-73112540D01*
X112173419Y-73208430D01*
X112006576Y-73273144D01*
X111830347Y-73304217D01*
X111651430Y-73300470D01*
X111476653Y-73262042D01*
X111312675Y-73190402D01*
X111165726Y-73088270D01*
X111041415Y-72959542D01*
X110944477Y-72809124D01*
X110878598Y-72642735D01*
X110846295Y-72466729D01*
X110848794Y-72287788D01*
X110885999Y-72112754D01*
X110956497Y-71948269D01*
X111057597Y-71800615D01*
X111185456Y-71675407D01*
X111335191Y-71577423D01*
X111501115Y-71510385D01*
X111676897Y-71476854D01*
X111855844Y-71478102D01*
X111855844Y-71478102D01*
G37*
G36*
X114395844Y-71478102D02*
X114571140Y-71514085D01*
X114736110Y-71583433D01*
X114884469Y-71683503D01*
X115010562Y-71810478D01*
X115109594Y-71959533D01*
X115177787Y-72124982D01*
X115212373Y-72299656D01*
X115212373Y-72299685D01*
X115212539Y-72300525D01*
X115209685Y-72504920D01*
X115209494Y-72505759D01*
X115209494Y-72505780D01*
X115170043Y-72679427D01*
X115097258Y-72842905D01*
X114994102Y-72989137D01*
X114864516Y-73112540D01*
X114713419Y-73208430D01*
X114546576Y-73273144D01*
X114370347Y-73304217D01*
X114191430Y-73300470D01*
X114016653Y-73262042D01*
X113852675Y-73190402D01*
X113705726Y-73088270D01*
X113581415Y-72959542D01*
X113484477Y-72809124D01*
X113418598Y-72642735D01*
X113386295Y-72466729D01*
X113388794Y-72287788D01*
X113425999Y-72112754D01*
X113496497Y-71948269D01*
X113597597Y-71800615D01*
X113725456Y-71675407D01*
X113875191Y-71577423D01*
X114041115Y-71510385D01*
X114216897Y-71476854D01*
X114395844Y-71478102D01*
X114395844Y-71478102D01*
G37*
G36*
X119475844Y-71478102D02*
X119651140Y-71514085D01*
X119816110Y-71583433D01*
X119964469Y-71683503D01*
X120090562Y-71810478D01*
X120189594Y-71959533D01*
X120257787Y-72124982D01*
X120292373Y-72299656D01*
X120292373Y-72299685D01*
X120292539Y-72300525D01*
X120289685Y-72504920D01*
X120289494Y-72505759D01*
X120289494Y-72505780D01*
X120250043Y-72679427D01*
X120177258Y-72842905D01*
X120074102Y-72989137D01*
X119944516Y-73112540D01*
X119793419Y-73208430D01*
X119626576Y-73273144D01*
X119450347Y-73304217D01*
X119271430Y-73300470D01*
X119096653Y-73262042D01*
X118932675Y-73190402D01*
X118785726Y-73088270D01*
X118661415Y-72959542D01*
X118564477Y-72809124D01*
X118498598Y-72642735D01*
X118466295Y-72466729D01*
X118468794Y-72287788D01*
X118505999Y-72112754D01*
X118576497Y-71948269D01*
X118677597Y-71800615D01*
X118805456Y-71675407D01*
X118955191Y-71577423D01*
X119121115Y-71510385D01*
X119296897Y-71476854D01*
X119475844Y-71478102D01*
X119475844Y-71478102D01*
G37*
G36*
X122015844Y-71478102D02*
X122191140Y-71514085D01*
X122356110Y-71583433D01*
X122504469Y-71683503D01*
X122630562Y-71810478D01*
X122729594Y-71959533D01*
X122797787Y-72124982D01*
X122832373Y-72299656D01*
X122832373Y-72299685D01*
X122832539Y-72300525D01*
X122829685Y-72504920D01*
X122829494Y-72505759D01*
X122829494Y-72505780D01*
X122790043Y-72679427D01*
X122717258Y-72842905D01*
X122614102Y-72989137D01*
X122484516Y-73112540D01*
X122333419Y-73208430D01*
X122166576Y-73273144D01*
X121990347Y-73304217D01*
X121811430Y-73300470D01*
X121636653Y-73262042D01*
X121472675Y-73190402D01*
X121325726Y-73088270D01*
X121201415Y-72959542D01*
X121104477Y-72809124D01*
X121038598Y-72642735D01*
X121006295Y-72466729D01*
X121008794Y-72287788D01*
X121045999Y-72112754D01*
X121116497Y-71948269D01*
X121217597Y-71800615D01*
X121345456Y-71675407D01*
X121495191Y-71577423D01*
X121661115Y-71510385D01*
X121836897Y-71476854D01*
X122015844Y-71478102D01*
X122015844Y-71478102D01*
G37*
G36*
X125372500Y-73302500D02*
X123547500Y-73302500D01*
X123547500Y-71477500D01*
X125372500Y-71477500D01*
X125372500Y-73302500D01*
X125372500Y-73302500D01*
G37*
G36*
X136121102Y-65111210D02*
X136543782Y-65197974D01*
X136941557Y-65365183D01*
X137299284Y-65606473D01*
X137603326Y-65912644D01*
X137842111Y-66272045D01*
X138006540Y-66670981D01*
X138090179Y-67093386D01*
X138090179Y-67093418D01*
X138090344Y-67094254D01*
X138083462Y-67587099D01*
X138083272Y-67587934D01*
X138083272Y-67587958D01*
X137987871Y-68007872D01*
X137812368Y-68402057D01*
X137563640Y-68754651D01*
X137251169Y-69052213D01*
X136886849Y-69283418D01*
X136484553Y-69439458D01*
X136059620Y-69514385D01*
X135628218Y-69505349D01*
X135206793Y-69412693D01*
X134811391Y-69239945D01*
X134457068Y-68993684D01*
X134157332Y-68683298D01*
X133923589Y-68320600D01*
X133764744Y-67919405D01*
X133686852Y-67495006D01*
X133692877Y-67063550D01*
X133782588Y-66641493D01*
X133952573Y-66244889D01*
X134196350Y-65888860D01*
X134504642Y-65586960D01*
X134865697Y-65350691D01*
X135265771Y-65189052D01*
X135689621Y-65108198D01*
X136121102Y-65111210D01*
X136121102Y-65111210D01*
G37*
G36*
X146281102Y-65111210D02*
X146703782Y-65197974D01*
X147101557Y-65365183D01*
X147459284Y-65606473D01*
X147763326Y-65912644D01*
X148002111Y-66272045D01*
X148166540Y-66670981D01*
X148250179Y-67093386D01*
X148250179Y-67093418D01*
X148250344Y-67094254D01*
X148243462Y-67587099D01*
X148243272Y-67587934D01*
X148243272Y-67587958D01*
X148147871Y-68007872D01*
X147972368Y-68402057D01*
X147723640Y-68754651D01*
X147411169Y-69052213D01*
X147046849Y-69283418D01*
X146644553Y-69439458D01*
X146219620Y-69514385D01*
X145788218Y-69505349D01*
X145366793Y-69412693D01*
X144971391Y-69239945D01*
X144617068Y-68993684D01*
X144317332Y-68683298D01*
X144083589Y-68320600D01*
X143924744Y-67919405D01*
X143846852Y-67495006D01*
X143852877Y-67063550D01*
X143942588Y-66641493D01*
X144112573Y-66244889D01*
X144356350Y-65888860D01*
X144664642Y-65586960D01*
X145025697Y-65350691D01*
X145425771Y-65189052D01*
X145849621Y-65108198D01*
X146281102Y-65111210D01*
X146281102Y-65111210D01*
G37*
G36*
X104351009Y-66276348D02*
X104351029Y-66276354D01*
X104351132Y-66276365D01*
X104546891Y-66336963D01*
X104727153Y-66434430D01*
X104885049Y-66565053D01*
X105014567Y-66723858D01*
X105110773Y-66904795D01*
X105170003Y-67100973D01*
X105190000Y-67304919D01*
X105190000Y-67315237D01*
X105189934Y-67324666D01*
X105189933Y-67324673D01*
X105189898Y-67329741D01*
X105167055Y-67533388D01*
X105105092Y-67728720D01*
X105006369Y-67908296D01*
X104874647Y-68065277D01*
X104714941Y-68193684D01*
X104533337Y-68288624D01*
X104336750Y-68346483D01*
X104336666Y-68346491D01*
X104336641Y-68346498D01*
X104132670Y-68365060D01*
X103928991Y-68343652D01*
X103928971Y-68343646D01*
X103928868Y-68343635D01*
X103733109Y-68283037D01*
X103552847Y-68185570D01*
X103394951Y-68054947D01*
X103265433Y-67896142D01*
X103169227Y-67715205D01*
X103109997Y-67519027D01*
X103090000Y-67315081D01*
X103090000Y-67304763D01*
X103090066Y-67295334D01*
X103090067Y-67295327D01*
X103090102Y-67290259D01*
X103112945Y-67086612D01*
X103174908Y-66891280D01*
X103273631Y-66711704D01*
X103405353Y-66554723D01*
X103565059Y-66426316D01*
X103746663Y-66331376D01*
X103943250Y-66273517D01*
X103943334Y-66273509D01*
X103943359Y-66273502D01*
X104147330Y-66254940D01*
X104351009Y-66276348D01*
X104351009Y-66276348D01*
G37*
G36*
X106891009Y-66276348D02*
X106891029Y-66276354D01*
X106891132Y-66276365D01*
X107086891Y-66336963D01*
X107267153Y-66434430D01*
X107425049Y-66565053D01*
X107554567Y-66723858D01*
X107650773Y-66904795D01*
X107710003Y-67100973D01*
X107730000Y-67304919D01*
X107730000Y-67315237D01*
X107729934Y-67324666D01*
X107729933Y-67324673D01*
X107729898Y-67329741D01*
X107707055Y-67533388D01*
X107645092Y-67728720D01*
X107546369Y-67908296D01*
X107414647Y-68065277D01*
X107254941Y-68193684D01*
X107073337Y-68288624D01*
X106876750Y-68346483D01*
X106876666Y-68346491D01*
X106876641Y-68346498D01*
X106672670Y-68365060D01*
X106468991Y-68343652D01*
X106468971Y-68343646D01*
X106468868Y-68343635D01*
X106273109Y-68283037D01*
X106092847Y-68185570D01*
X105934951Y-68054947D01*
X105805433Y-67896142D01*
X105709227Y-67715205D01*
X105649997Y-67519027D01*
X105630000Y-67315081D01*
X105630000Y-67304763D01*
X105630066Y-67295334D01*
X105630067Y-67295327D01*
X105630102Y-67290259D01*
X105652945Y-67086612D01*
X105714908Y-66891280D01*
X105813631Y-66711704D01*
X105945353Y-66554723D01*
X106105059Y-66426316D01*
X106286663Y-66331376D01*
X106483250Y-66273517D01*
X106483334Y-66273509D01*
X106483359Y-66273502D01*
X106687330Y-66254940D01*
X106891009Y-66276348D01*
X106891009Y-66276348D01*
G37*
G36*
X109431009Y-66276348D02*
X109431029Y-66276354D01*
X109431132Y-66276365D01*
X109626891Y-66336963D01*
X109807153Y-66434430D01*
X109965049Y-66565053D01*
X110094567Y-66723858D01*
X110190773Y-66904795D01*
X110250003Y-67100973D01*
X110270000Y-67304919D01*
X110270000Y-67315237D01*
X110269934Y-67324666D01*
X110269933Y-67324673D01*
X110269898Y-67329741D01*
X110247055Y-67533388D01*
X110185092Y-67728720D01*
X110086369Y-67908296D01*
X109954647Y-68065277D01*
X109794941Y-68193684D01*
X109613337Y-68288624D01*
X109416750Y-68346483D01*
X109416666Y-68346491D01*
X109416641Y-68346498D01*
X109212670Y-68365060D01*
X109008991Y-68343652D01*
X109008971Y-68343646D01*
X109008868Y-68343635D01*
X108813109Y-68283037D01*
X108632847Y-68185570D01*
X108474951Y-68054947D01*
X108345433Y-67896142D01*
X108249227Y-67715205D01*
X108189997Y-67519027D01*
X108170000Y-67315081D01*
X108170000Y-67304763D01*
X108170066Y-67295334D01*
X108170067Y-67295327D01*
X108170102Y-67290259D01*
X108192945Y-67086612D01*
X108254908Y-66891280D01*
X108353631Y-66711704D01*
X108485353Y-66554723D01*
X108645059Y-66426316D01*
X108826663Y-66331376D01*
X109023250Y-66273517D01*
X109023334Y-66273509D01*
X109023359Y-66273502D01*
X109227330Y-66254940D01*
X109431009Y-66276348D01*
X109431009Y-66276348D01*
G37*
G36*
X115781009Y-66276348D02*
X115781029Y-66276354D01*
X115781132Y-66276365D01*
X115976891Y-66336963D01*
X116157153Y-66434430D01*
X116315049Y-66565053D01*
X116444567Y-66723858D01*
X116540773Y-66904795D01*
X116600003Y-67100973D01*
X116620000Y-67304919D01*
X116620000Y-67315237D01*
X116619934Y-67324666D01*
X116619933Y-67324673D01*
X116619898Y-67329741D01*
X116597055Y-67533388D01*
X116535092Y-67728720D01*
X116436369Y-67908296D01*
X116304647Y-68065277D01*
X116144941Y-68193684D01*
X115963337Y-68288624D01*
X115766750Y-68346483D01*
X115766666Y-68346491D01*
X115766641Y-68346498D01*
X115562670Y-68365060D01*
X115358991Y-68343652D01*
X115358971Y-68343646D01*
X115358868Y-68343635D01*
X115163109Y-68283037D01*
X114982847Y-68185570D01*
X114824951Y-68054947D01*
X114695433Y-67896142D01*
X114599227Y-67715205D01*
X114539997Y-67519027D01*
X114520000Y-67315081D01*
X114520000Y-67304763D01*
X114520066Y-67295334D01*
X114520067Y-67295327D01*
X114520102Y-67290259D01*
X114542945Y-67086612D01*
X114604908Y-66891280D01*
X114703631Y-66711704D01*
X114835353Y-66554723D01*
X114995059Y-66426316D01*
X115176663Y-66331376D01*
X115373250Y-66273517D01*
X115373334Y-66273509D01*
X115373359Y-66273502D01*
X115577330Y-66254940D01*
X115781009Y-66276348D01*
X115781009Y-66276348D01*
G37*
G36*
X118321009Y-66276348D02*
X118321029Y-66276354D01*
X118321132Y-66276365D01*
X118516891Y-66336963D01*
X118697153Y-66434430D01*
X118855049Y-66565053D01*
X118984567Y-66723858D01*
X119080773Y-66904795D01*
X119140003Y-67100973D01*
X119160000Y-67304919D01*
X119160000Y-67315237D01*
X119159934Y-67324666D01*
X119159933Y-67324673D01*
X119159898Y-67329741D01*
X119137055Y-67533388D01*
X119075092Y-67728720D01*
X118976369Y-67908296D01*
X118844647Y-68065277D01*
X118684941Y-68193684D01*
X118503337Y-68288624D01*
X118306750Y-68346483D01*
X118306666Y-68346491D01*
X118306641Y-68346498D01*
X118102670Y-68365060D01*
X117898991Y-68343652D01*
X117898971Y-68343646D01*
X117898868Y-68343635D01*
X117703109Y-68283037D01*
X117522847Y-68185570D01*
X117364951Y-68054947D01*
X117235433Y-67896142D01*
X117139227Y-67715205D01*
X117079997Y-67519027D01*
X117060000Y-67315081D01*
X117060000Y-67304763D01*
X117060066Y-67295334D01*
X117060067Y-67295327D01*
X117060102Y-67290259D01*
X117082945Y-67086612D01*
X117144908Y-66891280D01*
X117243631Y-66711704D01*
X117375353Y-66554723D01*
X117535059Y-66426316D01*
X117716663Y-66331376D01*
X117913250Y-66273517D01*
X117913334Y-66273509D01*
X117913359Y-66273502D01*
X118117330Y-66254940D01*
X118321009Y-66276348D01*
X118321009Y-66276348D01*
G37*
G36*
X102650000Y-68360000D02*
X100550000Y-68360000D01*
X100550000Y-66260000D01*
X102650000Y-66260000D01*
X102650000Y-68360000D01*
X102650000Y-68360000D01*
G37*
G36*
X114080000Y-68360000D02*
X111980000Y-68360000D01*
X111980000Y-66260000D01*
X114080000Y-66260000D01*
X114080000Y-68360000D01*
X114080000Y-68360000D01*
G37*
M02*
