%TF.GenerationSoftware,KiCad,Pcbnew,4.0.7*%
%TF.CreationDate,2017-12-18T22:12:30+01:00*%
%TF.ProjectId,LED,4C45442E6B696361645F706362000000,rev?*%
%TF.FileFunction,Legend,Top*%
%FSLAX46Y46*%
G04 Gerber Fmt 4.6, Leading zero omitted, Abs format (unit mm)*
G04 Created by KiCad (PCBNEW 4.0.7) date Mon Dec 18 22:12:30 2017*
%MOMM*%
%LPD*%
G01*
G04 APERTURE LIST*
%ADD10C,0.100000*%
%ADD11C,0.300000*%
%ADD12C,0.120000*%
%ADD13C,0.150000*%
%ADD14C,0.152400*%
%ADD15C,0.200000*%
%ADD16C,0.010000*%
%ADD17C,0.254000*%
G04 APERTURE END LIST*
D10*
D11*
X148653572Y-69322143D02*
X149796429Y-69322143D01*
X132778572Y-69322143D02*
X133921429Y-69322143D01*
X133350000Y-69893571D02*
X133350000Y-68750714D01*
X163258572Y-113772143D02*
X164401429Y-113772143D01*
X173418572Y-113772143D02*
X174561429Y-113772143D01*
X173990000Y-114343571D02*
X173990000Y-113200714D01*
X133450714Y-111012857D02*
X133665000Y-111084286D01*
X133736428Y-111155714D01*
X133807857Y-111298571D01*
X133807857Y-111512857D01*
X133736428Y-111655714D01*
X133665000Y-111727143D01*
X133522142Y-111798571D01*
X132950714Y-111798571D01*
X132950714Y-110298571D01*
X133450714Y-110298571D01*
X133593571Y-110370000D01*
X133665000Y-110441429D01*
X133736428Y-110584286D01*
X133736428Y-110727143D01*
X133665000Y-110870000D01*
X133593571Y-110941429D01*
X133450714Y-111012857D01*
X132950714Y-111012857D01*
X134450714Y-111798571D02*
X134450714Y-110798571D01*
X134450714Y-110298571D02*
X134379285Y-110370000D01*
X134450714Y-110441429D01*
X134522142Y-110370000D01*
X134450714Y-110298571D01*
X134450714Y-110441429D01*
X135165000Y-111798571D02*
X135165000Y-110798571D01*
X135165000Y-111084286D02*
X135236428Y-110941429D01*
X135307857Y-110870000D01*
X135450714Y-110798571D01*
X135593571Y-110798571D01*
X136736428Y-111727143D02*
X136593571Y-111798571D01*
X136307857Y-111798571D01*
X136164999Y-111727143D01*
X136093571Y-111655714D01*
X136022142Y-111512857D01*
X136022142Y-111084286D01*
X136093571Y-110941429D01*
X136164999Y-110870000D01*
X136307857Y-110798571D01*
X136593571Y-110798571D01*
X136736428Y-110870000D01*
X137379285Y-111798571D02*
X137379285Y-110298571D01*
X138022142Y-111798571D02*
X138022142Y-111012857D01*
X137950713Y-110870000D01*
X137807856Y-110798571D01*
X137593571Y-110798571D01*
X137450713Y-110870000D01*
X137379285Y-110941429D01*
X138593571Y-110798571D02*
X138879285Y-111798571D01*
X139164999Y-111084286D01*
X139450714Y-111798571D01*
X139736428Y-110798571D01*
X140522143Y-111798571D02*
X140379285Y-111727143D01*
X140307857Y-111655714D01*
X140236428Y-111512857D01*
X140236428Y-111084286D01*
X140307857Y-110941429D01*
X140379285Y-110870000D01*
X140522143Y-110798571D01*
X140736428Y-110798571D01*
X140879285Y-110870000D01*
X140950714Y-110941429D01*
X141022143Y-111084286D01*
X141022143Y-111512857D01*
X140950714Y-111655714D01*
X140879285Y-111727143D01*
X140736428Y-111798571D01*
X140522143Y-111798571D01*
X141879286Y-111798571D02*
X141736428Y-111727143D01*
X141665000Y-111655714D01*
X141593571Y-111512857D01*
X141593571Y-111084286D01*
X141665000Y-110941429D01*
X141736428Y-110870000D01*
X141879286Y-110798571D01*
X142093571Y-110798571D01*
X142236428Y-110870000D01*
X142307857Y-110941429D01*
X142379286Y-111084286D01*
X142379286Y-111512857D01*
X142307857Y-111655714D01*
X142236428Y-111727143D01*
X142093571Y-111798571D01*
X141879286Y-111798571D01*
X143665000Y-111798571D02*
X143665000Y-110298571D01*
X143665000Y-111727143D02*
X143522143Y-111798571D01*
X143236429Y-111798571D01*
X143093571Y-111727143D01*
X143022143Y-111655714D01*
X142950714Y-111512857D01*
X142950714Y-111084286D01*
X143022143Y-110941429D01*
X143093571Y-110870000D01*
X143236429Y-110798571D01*
X143522143Y-110798571D01*
X143665000Y-110870000D01*
X145522143Y-111798571D02*
X145522143Y-110298571D01*
X146022143Y-111370000D01*
X146522143Y-110298571D01*
X146522143Y-111798571D01*
X147807857Y-111727143D02*
X147665000Y-111798571D01*
X147379286Y-111798571D01*
X147236429Y-111727143D01*
X147165000Y-111584286D01*
X147165000Y-111012857D01*
X147236429Y-110870000D01*
X147379286Y-110798571D01*
X147665000Y-110798571D01*
X147807857Y-110870000D01*
X147879286Y-111012857D01*
X147879286Y-111155714D01*
X147165000Y-111298571D01*
X149165000Y-111798571D02*
X149165000Y-110298571D01*
X149165000Y-111727143D02*
X149022143Y-111798571D01*
X148736429Y-111798571D01*
X148593571Y-111727143D01*
X148522143Y-111655714D01*
X148450714Y-111512857D01*
X148450714Y-111084286D01*
X148522143Y-110941429D01*
X148593571Y-110870000D01*
X148736429Y-110798571D01*
X149022143Y-110798571D01*
X149165000Y-110870000D01*
X149879286Y-111798571D02*
X149879286Y-110798571D01*
X149879286Y-110298571D02*
X149807857Y-110370000D01*
X149879286Y-110441429D01*
X149950714Y-110370000D01*
X149879286Y-110298571D01*
X149879286Y-110441429D01*
X151236429Y-111798571D02*
X151236429Y-111012857D01*
X151165000Y-110870000D01*
X151022143Y-110798571D01*
X150736429Y-110798571D01*
X150593572Y-110870000D01*
X151236429Y-111727143D02*
X151093572Y-111798571D01*
X150736429Y-111798571D01*
X150593572Y-111727143D01*
X150522143Y-111584286D01*
X150522143Y-111441429D01*
X150593572Y-111298571D01*
X150736429Y-111227143D01*
X151093572Y-111227143D01*
X151236429Y-111155714D01*
X153807858Y-111798571D02*
X153093572Y-111798571D01*
X153093572Y-110298571D01*
X154307858Y-111798571D02*
X154307858Y-110798571D01*
X154307858Y-110298571D02*
X154236429Y-110370000D01*
X154307858Y-110441429D01*
X154379286Y-110370000D01*
X154307858Y-110298571D01*
X154307858Y-110441429D01*
X155665001Y-110798571D02*
X155665001Y-112012857D01*
X155593572Y-112155714D01*
X155522144Y-112227143D01*
X155379287Y-112298571D01*
X155165001Y-112298571D01*
X155022144Y-112227143D01*
X155665001Y-111727143D02*
X155522144Y-111798571D01*
X155236430Y-111798571D01*
X155093572Y-111727143D01*
X155022144Y-111655714D01*
X154950715Y-111512857D01*
X154950715Y-111084286D01*
X155022144Y-110941429D01*
X155093572Y-110870000D01*
X155236430Y-110798571D01*
X155522144Y-110798571D01*
X155665001Y-110870000D01*
X156379287Y-111798571D02*
X156379287Y-110298571D01*
X157022144Y-111798571D02*
X157022144Y-111012857D01*
X156950715Y-110870000D01*
X156807858Y-110798571D01*
X156593573Y-110798571D01*
X156450715Y-110870000D01*
X156379287Y-110941429D01*
X157522144Y-110798571D02*
X158093573Y-110798571D01*
X157736430Y-110298571D02*
X157736430Y-111584286D01*
X157807858Y-111727143D01*
X157950716Y-111798571D01*
X158093573Y-111798571D01*
X138165001Y-114348571D02*
X138165001Y-112848571D01*
X138165001Y-113420000D02*
X138307858Y-113348571D01*
X138593572Y-113348571D01*
X138736429Y-113420000D01*
X138807858Y-113491429D01*
X138879287Y-113634286D01*
X138879287Y-114062857D01*
X138807858Y-114205714D01*
X138736429Y-114277143D01*
X138593572Y-114348571D01*
X138307858Y-114348571D01*
X138165001Y-114277143D01*
X139379287Y-113348571D02*
X139736430Y-114348571D01*
X140093572Y-113348571D02*
X139736430Y-114348571D01*
X139593572Y-114705714D01*
X139522144Y-114777143D01*
X139379287Y-114848571D01*
X142236429Y-112848571D02*
X142236429Y-113920000D01*
X142165001Y-114134286D01*
X142022144Y-114277143D01*
X141807858Y-114348571D01*
X141665001Y-114348571D01*
X143593572Y-114348571D02*
X143593572Y-113562857D01*
X143522143Y-113420000D01*
X143379286Y-113348571D01*
X143093572Y-113348571D01*
X142950715Y-113420000D01*
X143593572Y-114277143D02*
X143450715Y-114348571D01*
X143093572Y-114348571D01*
X142950715Y-114277143D01*
X142879286Y-114134286D01*
X142879286Y-113991429D01*
X142950715Y-113848571D01*
X143093572Y-113777143D01*
X143450715Y-113777143D01*
X143593572Y-113705714D01*
X144307858Y-113348571D02*
X144307858Y-114348571D01*
X144307858Y-113491429D02*
X144379286Y-113420000D01*
X144522144Y-113348571D01*
X144736429Y-113348571D01*
X144879286Y-113420000D01*
X144950715Y-113562857D01*
X144950715Y-114348571D01*
X146807858Y-114348571D02*
X146807858Y-112848571D01*
X147665001Y-114348571D02*
X147022144Y-113491429D01*
X147665001Y-112848571D02*
X146807858Y-113705714D01*
X148879286Y-114277143D02*
X148736429Y-114348571D01*
X148450715Y-114348571D01*
X148307858Y-114277143D01*
X148236429Y-114134286D01*
X148236429Y-113562857D01*
X148307858Y-113420000D01*
X148450715Y-113348571D01*
X148736429Y-113348571D01*
X148879286Y-113420000D01*
X148950715Y-113562857D01*
X148950715Y-113705714D01*
X148236429Y-113848571D01*
X149807858Y-114348571D02*
X149665000Y-114277143D01*
X149593572Y-114134286D01*
X149593572Y-112848571D01*
X150593572Y-114348571D02*
X150450714Y-114277143D01*
X150379286Y-114134286D01*
X150379286Y-112848571D01*
X151736428Y-114277143D02*
X151593571Y-114348571D01*
X151307857Y-114348571D01*
X151165000Y-114277143D01*
X151093571Y-114134286D01*
X151093571Y-113562857D01*
X151165000Y-113420000D01*
X151307857Y-113348571D01*
X151593571Y-113348571D01*
X151736428Y-113420000D01*
X151807857Y-113562857D01*
X151807857Y-113705714D01*
X151093571Y-113848571D01*
X152450714Y-114348571D02*
X152450714Y-113348571D01*
X152450714Y-113634286D02*
X152522142Y-113491429D01*
X152593571Y-113420000D01*
X152736428Y-113348571D01*
X152879285Y-113348571D01*
D12*
X171180000Y-99470000D02*
X171180000Y-102600000D01*
X171180000Y-102600000D02*
X148860000Y-102600000D01*
X148860000Y-102600000D02*
X148860000Y-99470000D01*
X171180000Y-96110000D02*
X171180000Y-92980000D01*
X171180000Y-92980000D02*
X148860000Y-92980000D01*
X148860000Y-92980000D02*
X148860000Y-96110000D01*
X108970000Y-102880000D02*
G75*
G03X108970000Y-102880000I-6100000J0D01*
G01*
D13*
X174240000Y-91720000D02*
X130810000Y-91720000D01*
X174240000Y-91720000D02*
X174240000Y-71120000D01*
X130810000Y-71120000D02*
X130810000Y-91720000D01*
X174240000Y-71120000D02*
X130810000Y-71120000D01*
D14*
X113360200Y-107950000D02*
X120319800Y-107950000D01*
X120319800Y-97790000D02*
X117144800Y-97790000D01*
X117144800Y-97790000D02*
X116535200Y-97790000D01*
X116535200Y-97790000D02*
X114173000Y-97790000D01*
X116535200Y-97790000D02*
G75*
G03X117144800Y-97790000I304800J0D01*
G01*
D12*
X119345000Y-92670000D02*
X119345000Y-95290000D01*
X119345000Y-95290000D02*
X125765000Y-95290000D01*
X125765000Y-95290000D02*
X125765000Y-92670000D01*
X125765000Y-92670000D02*
X119345000Y-92670000D01*
X118455000Y-93980000D02*
X119345000Y-93980000D01*
X126655000Y-93980000D02*
X125765000Y-93980000D01*
X134350000Y-97730000D02*
G75*
G02X132350000Y-97730000I-1000000J0D01*
G01*
X132350000Y-97730000D02*
X130700000Y-97730000D01*
X130700000Y-97730000D02*
X130700000Y-108010000D01*
X130700000Y-108010000D02*
X136000000Y-108010000D01*
X136000000Y-108010000D02*
X136000000Y-97730000D01*
X136000000Y-97730000D02*
X134350000Y-97730000D01*
D13*
X95460000Y-70765000D02*
X128460000Y-70765000D01*
D15*
X95460000Y-70765000D02*
X95460000Y-89265000D01*
X128460000Y-89265000D02*
X128460000Y-70765000D01*
D13*
X95460000Y-89265000D02*
X128460000Y-89265000D01*
D16*
G36*
X143014744Y-107329918D02*
X143070201Y-107357568D01*
X143119148Y-107408480D01*
X143132629Y-107427338D01*
X143147314Y-107452015D01*
X143156842Y-107478816D01*
X143162293Y-107514587D01*
X143164747Y-107566169D01*
X143165286Y-107634267D01*
X143162852Y-107727588D01*
X143154394Y-107797657D01*
X143138174Y-107849931D01*
X143112454Y-107889869D01*
X143075497Y-107922929D01*
X143072782Y-107924886D01*
X143036360Y-107944908D01*
X142992502Y-107954815D01*
X142936724Y-107957257D01*
X142846048Y-107957257D01*
X142846010Y-108045283D01*
X142845166Y-108094308D01*
X142840024Y-108123065D01*
X142826587Y-108140311D01*
X142800858Y-108154808D01*
X142794679Y-108157769D01*
X142765764Y-108171648D01*
X142743376Y-108180414D01*
X142726729Y-108181171D01*
X142715036Y-108171023D01*
X142707510Y-108147073D01*
X142703366Y-108106426D01*
X142701815Y-108046186D01*
X142702071Y-107963455D01*
X142703349Y-107855339D01*
X142703748Y-107823000D01*
X142705185Y-107711524D01*
X142706472Y-107638603D01*
X142845971Y-107638603D01*
X142846755Y-107700499D01*
X142850240Y-107740997D01*
X142858124Y-107767708D01*
X142872105Y-107788244D01*
X142881597Y-107798260D01*
X142920404Y-107827567D01*
X142954763Y-107829952D01*
X142990216Y-107805750D01*
X142991114Y-107804857D01*
X143005539Y-107786153D01*
X143014313Y-107760732D01*
X143018739Y-107721584D01*
X143020118Y-107661697D01*
X143020143Y-107648430D01*
X143016812Y-107565901D01*
X143005969Y-107508691D01*
X142986340Y-107473766D01*
X142956650Y-107458094D01*
X142939491Y-107456514D01*
X142898766Y-107463926D01*
X142870832Y-107488330D01*
X142854017Y-107532980D01*
X142846650Y-107601130D01*
X142845971Y-107638603D01*
X142706472Y-107638603D01*
X142706708Y-107625245D01*
X142708677Y-107560333D01*
X142711450Y-107512958D01*
X142715388Y-107479290D01*
X142720849Y-107455498D01*
X142728192Y-107437753D01*
X142737777Y-107422224D01*
X142741887Y-107416381D01*
X142796405Y-107361185D01*
X142865336Y-107329890D01*
X142945072Y-107321165D01*
X143014744Y-107329918D01*
X143014744Y-107329918D01*
G37*
X143014744Y-107329918D02*
X143070201Y-107357568D01*
X143119148Y-107408480D01*
X143132629Y-107427338D01*
X143147314Y-107452015D01*
X143156842Y-107478816D01*
X143162293Y-107514587D01*
X143164747Y-107566169D01*
X143165286Y-107634267D01*
X143162852Y-107727588D01*
X143154394Y-107797657D01*
X143138174Y-107849931D01*
X143112454Y-107889869D01*
X143075497Y-107922929D01*
X143072782Y-107924886D01*
X143036360Y-107944908D01*
X142992502Y-107954815D01*
X142936724Y-107957257D01*
X142846048Y-107957257D01*
X142846010Y-108045283D01*
X142845166Y-108094308D01*
X142840024Y-108123065D01*
X142826587Y-108140311D01*
X142800858Y-108154808D01*
X142794679Y-108157769D01*
X142765764Y-108171648D01*
X142743376Y-108180414D01*
X142726729Y-108181171D01*
X142715036Y-108171023D01*
X142707510Y-108147073D01*
X142703366Y-108106426D01*
X142701815Y-108046186D01*
X142702071Y-107963455D01*
X142703349Y-107855339D01*
X142703748Y-107823000D01*
X142705185Y-107711524D01*
X142706472Y-107638603D01*
X142845971Y-107638603D01*
X142846755Y-107700499D01*
X142850240Y-107740997D01*
X142858124Y-107767708D01*
X142872105Y-107788244D01*
X142881597Y-107798260D01*
X142920404Y-107827567D01*
X142954763Y-107829952D01*
X142990216Y-107805750D01*
X142991114Y-107804857D01*
X143005539Y-107786153D01*
X143014313Y-107760732D01*
X143018739Y-107721584D01*
X143020118Y-107661697D01*
X143020143Y-107648430D01*
X143016812Y-107565901D01*
X143005969Y-107508691D01*
X142986340Y-107473766D01*
X142956650Y-107458094D01*
X142939491Y-107456514D01*
X142898766Y-107463926D01*
X142870832Y-107488330D01*
X142854017Y-107532980D01*
X142846650Y-107601130D01*
X142845971Y-107638603D01*
X142706472Y-107638603D01*
X142706708Y-107625245D01*
X142708677Y-107560333D01*
X142711450Y-107512958D01*
X142715388Y-107479290D01*
X142720849Y-107455498D01*
X142728192Y-107437753D01*
X142737777Y-107422224D01*
X142741887Y-107416381D01*
X142796405Y-107361185D01*
X142865336Y-107329890D01*
X142945072Y-107321165D01*
X143014744Y-107329918D01*
G36*
X144131093Y-107337780D02*
X144177672Y-107364723D01*
X144210057Y-107391466D01*
X144233742Y-107419484D01*
X144250059Y-107453748D01*
X144260339Y-107499227D01*
X144265914Y-107560892D01*
X144268116Y-107643711D01*
X144268371Y-107703246D01*
X144268371Y-107922391D01*
X144206686Y-107950044D01*
X144145000Y-107977697D01*
X144137743Y-107737670D01*
X144134744Y-107648028D01*
X144131598Y-107582962D01*
X144127701Y-107538026D01*
X144122447Y-107508770D01*
X144115231Y-107490748D01*
X144105450Y-107479511D01*
X144102312Y-107477079D01*
X144054761Y-107458083D01*
X144006697Y-107465600D01*
X143978086Y-107485543D01*
X143966447Y-107499675D01*
X143958391Y-107518220D01*
X143953271Y-107546334D01*
X143950441Y-107589173D01*
X143949256Y-107651895D01*
X143949057Y-107717261D01*
X143949018Y-107799268D01*
X143947614Y-107857316D01*
X143942914Y-107896465D01*
X143932987Y-107921780D01*
X143915903Y-107938323D01*
X143889732Y-107951156D01*
X143854775Y-107964491D01*
X143816596Y-107979007D01*
X143821141Y-107721389D01*
X143822971Y-107628519D01*
X143825112Y-107559889D01*
X143828181Y-107510711D01*
X143832794Y-107476198D01*
X143839568Y-107451562D01*
X143849119Y-107432016D01*
X143860634Y-107414770D01*
X143916190Y-107359680D01*
X143983980Y-107327822D01*
X144057713Y-107320191D01*
X144131093Y-107337780D01*
X144131093Y-107337780D01*
G37*
X144131093Y-107337780D02*
X144177672Y-107364723D01*
X144210057Y-107391466D01*
X144233742Y-107419484D01*
X144250059Y-107453748D01*
X144260339Y-107499227D01*
X144265914Y-107560892D01*
X144268116Y-107643711D01*
X144268371Y-107703246D01*
X144268371Y-107922391D01*
X144206686Y-107950044D01*
X144145000Y-107977697D01*
X144137743Y-107737670D01*
X144134744Y-107648028D01*
X144131598Y-107582962D01*
X144127701Y-107538026D01*
X144122447Y-107508770D01*
X144115231Y-107490748D01*
X144105450Y-107479511D01*
X144102312Y-107477079D01*
X144054761Y-107458083D01*
X144006697Y-107465600D01*
X143978086Y-107485543D01*
X143966447Y-107499675D01*
X143958391Y-107518220D01*
X143953271Y-107546334D01*
X143950441Y-107589173D01*
X143949256Y-107651895D01*
X143949057Y-107717261D01*
X143949018Y-107799268D01*
X143947614Y-107857316D01*
X143942914Y-107896465D01*
X143932987Y-107921780D01*
X143915903Y-107938323D01*
X143889732Y-107951156D01*
X143854775Y-107964491D01*
X143816596Y-107979007D01*
X143821141Y-107721389D01*
X143822971Y-107628519D01*
X143825112Y-107559889D01*
X143828181Y-107510711D01*
X143832794Y-107476198D01*
X143839568Y-107451562D01*
X143849119Y-107432016D01*
X143860634Y-107414770D01*
X143916190Y-107359680D01*
X143983980Y-107327822D01*
X144057713Y-107320191D01*
X144131093Y-107337780D01*
G36*
X142456115Y-107331962D02*
X142524145Y-107367733D01*
X142574351Y-107425301D01*
X142592185Y-107462312D01*
X142606063Y-107517882D01*
X142613167Y-107588096D01*
X142613840Y-107664727D01*
X142608427Y-107739552D01*
X142597270Y-107804342D01*
X142580714Y-107850873D01*
X142575626Y-107858887D01*
X142515355Y-107918707D01*
X142443769Y-107954535D01*
X142366092Y-107965020D01*
X142287548Y-107948810D01*
X142265689Y-107939092D01*
X142223122Y-107909143D01*
X142185763Y-107869433D01*
X142182232Y-107864397D01*
X142167881Y-107840124D01*
X142158394Y-107814178D01*
X142152790Y-107780022D01*
X142150086Y-107731119D01*
X142149299Y-107660935D01*
X142149286Y-107645200D01*
X142149322Y-107640192D01*
X142294429Y-107640192D01*
X142295273Y-107706430D01*
X142298596Y-107750386D01*
X142305583Y-107778779D01*
X142317416Y-107798325D01*
X142323457Y-107804857D01*
X142358186Y-107829680D01*
X142391903Y-107828548D01*
X142425995Y-107807016D01*
X142446329Y-107784029D01*
X142458371Y-107750478D01*
X142465134Y-107697569D01*
X142465598Y-107691399D01*
X142466752Y-107595513D01*
X142454688Y-107524299D01*
X142429570Y-107478194D01*
X142391560Y-107457635D01*
X142377992Y-107456514D01*
X142342364Y-107462152D01*
X142317994Y-107481686D01*
X142303093Y-107519042D01*
X142295875Y-107578150D01*
X142294429Y-107640192D01*
X142149322Y-107640192D01*
X142149826Y-107570413D01*
X142152096Y-107518159D01*
X142157068Y-107481949D01*
X142165713Y-107455299D01*
X142179005Y-107431722D01*
X142181943Y-107427338D01*
X142231313Y-107368249D01*
X142285109Y-107333947D01*
X142350602Y-107320331D01*
X142372842Y-107319665D01*
X142456115Y-107331962D01*
X142456115Y-107331962D01*
G37*
X142456115Y-107331962D02*
X142524145Y-107367733D01*
X142574351Y-107425301D01*
X142592185Y-107462312D01*
X142606063Y-107517882D01*
X142613167Y-107588096D01*
X142613840Y-107664727D01*
X142608427Y-107739552D01*
X142597270Y-107804342D01*
X142580714Y-107850873D01*
X142575626Y-107858887D01*
X142515355Y-107918707D01*
X142443769Y-107954535D01*
X142366092Y-107965020D01*
X142287548Y-107948810D01*
X142265689Y-107939092D01*
X142223122Y-107909143D01*
X142185763Y-107869433D01*
X142182232Y-107864397D01*
X142167881Y-107840124D01*
X142158394Y-107814178D01*
X142152790Y-107780022D01*
X142150086Y-107731119D01*
X142149299Y-107660935D01*
X142149286Y-107645200D01*
X142149322Y-107640192D01*
X142294429Y-107640192D01*
X142295273Y-107706430D01*
X142298596Y-107750386D01*
X142305583Y-107778779D01*
X142317416Y-107798325D01*
X142323457Y-107804857D01*
X142358186Y-107829680D01*
X142391903Y-107828548D01*
X142425995Y-107807016D01*
X142446329Y-107784029D01*
X142458371Y-107750478D01*
X142465134Y-107697569D01*
X142465598Y-107691399D01*
X142466752Y-107595513D01*
X142454688Y-107524299D01*
X142429570Y-107478194D01*
X142391560Y-107457635D01*
X142377992Y-107456514D01*
X142342364Y-107462152D01*
X142317994Y-107481686D01*
X142303093Y-107519042D01*
X142295875Y-107578150D01*
X142294429Y-107640192D01*
X142149322Y-107640192D01*
X142149826Y-107570413D01*
X142152096Y-107518159D01*
X142157068Y-107481949D01*
X142165713Y-107455299D01*
X142179005Y-107431722D01*
X142181943Y-107427338D01*
X142231313Y-107368249D01*
X142285109Y-107333947D01*
X142350602Y-107320331D01*
X142372842Y-107319665D01*
X142456115Y-107331962D01*
G36*
X143583303Y-107341239D02*
X143640527Y-107379735D01*
X143684749Y-107435335D01*
X143711167Y-107506086D01*
X143716510Y-107558162D01*
X143715903Y-107579893D01*
X143710822Y-107596531D01*
X143696855Y-107611437D01*
X143669589Y-107627973D01*
X143624612Y-107649498D01*
X143557511Y-107679374D01*
X143557171Y-107679524D01*
X143495407Y-107707813D01*
X143444759Y-107732933D01*
X143410404Y-107752179D01*
X143397518Y-107762848D01*
X143397514Y-107762934D01*
X143408872Y-107786166D01*
X143435431Y-107811774D01*
X143465923Y-107830221D01*
X143481370Y-107833886D01*
X143523515Y-107821212D01*
X143559808Y-107789471D01*
X143577517Y-107754572D01*
X143594552Y-107728845D01*
X143627922Y-107699546D01*
X143667149Y-107674235D01*
X143701756Y-107660471D01*
X143708993Y-107659714D01*
X143717139Y-107672160D01*
X143717630Y-107703972D01*
X143711643Y-107746866D01*
X143700357Y-107792558D01*
X143684950Y-107832761D01*
X143684171Y-107834322D01*
X143637804Y-107899062D01*
X143577711Y-107943097D01*
X143509465Y-107964711D01*
X143438638Y-107962185D01*
X143370804Y-107933804D01*
X143367788Y-107931808D01*
X143314427Y-107883448D01*
X143279340Y-107820352D01*
X143259922Y-107737387D01*
X143257316Y-107714078D01*
X143252701Y-107604055D01*
X143258233Y-107552748D01*
X143397514Y-107552748D01*
X143399324Y-107584753D01*
X143409222Y-107594093D01*
X143433898Y-107587105D01*
X143472795Y-107570587D01*
X143516275Y-107549881D01*
X143517356Y-107549333D01*
X143554209Y-107529949D01*
X143569000Y-107517013D01*
X143565353Y-107503451D01*
X143549995Y-107485632D01*
X143510923Y-107459845D01*
X143468846Y-107457950D01*
X143431103Y-107476717D01*
X143405034Y-107512915D01*
X143397514Y-107552748D01*
X143258233Y-107552748D01*
X143262194Y-107516027D01*
X143286550Y-107446212D01*
X143320456Y-107397302D01*
X143381653Y-107347878D01*
X143449063Y-107323359D01*
X143517880Y-107321797D01*
X143583303Y-107341239D01*
X143583303Y-107341239D01*
G37*
X143583303Y-107341239D02*
X143640527Y-107379735D01*
X143684749Y-107435335D01*
X143711167Y-107506086D01*
X143716510Y-107558162D01*
X143715903Y-107579893D01*
X143710822Y-107596531D01*
X143696855Y-107611437D01*
X143669589Y-107627973D01*
X143624612Y-107649498D01*
X143557511Y-107679374D01*
X143557171Y-107679524D01*
X143495407Y-107707813D01*
X143444759Y-107732933D01*
X143410404Y-107752179D01*
X143397518Y-107762848D01*
X143397514Y-107762934D01*
X143408872Y-107786166D01*
X143435431Y-107811774D01*
X143465923Y-107830221D01*
X143481370Y-107833886D01*
X143523515Y-107821212D01*
X143559808Y-107789471D01*
X143577517Y-107754572D01*
X143594552Y-107728845D01*
X143627922Y-107699546D01*
X143667149Y-107674235D01*
X143701756Y-107660471D01*
X143708993Y-107659714D01*
X143717139Y-107672160D01*
X143717630Y-107703972D01*
X143711643Y-107746866D01*
X143700357Y-107792558D01*
X143684950Y-107832761D01*
X143684171Y-107834322D01*
X143637804Y-107899062D01*
X143577711Y-107943097D01*
X143509465Y-107964711D01*
X143438638Y-107962185D01*
X143370804Y-107933804D01*
X143367788Y-107931808D01*
X143314427Y-107883448D01*
X143279340Y-107820352D01*
X143259922Y-107737387D01*
X143257316Y-107714078D01*
X143252701Y-107604055D01*
X143258233Y-107552748D01*
X143397514Y-107552748D01*
X143399324Y-107584753D01*
X143409222Y-107594093D01*
X143433898Y-107587105D01*
X143472795Y-107570587D01*
X143516275Y-107549881D01*
X143517356Y-107549333D01*
X143554209Y-107529949D01*
X143569000Y-107517013D01*
X143565353Y-107503451D01*
X143549995Y-107485632D01*
X143510923Y-107459845D01*
X143468846Y-107457950D01*
X143431103Y-107476717D01*
X143405034Y-107512915D01*
X143397514Y-107552748D01*
X143258233Y-107552748D01*
X143262194Y-107516027D01*
X143286550Y-107446212D01*
X143320456Y-107397302D01*
X143381653Y-107347878D01*
X143449063Y-107323359D01*
X143517880Y-107321797D01*
X143583303Y-107341239D01*
G36*
X144790886Y-107261289D02*
X144795139Y-107320613D01*
X144800025Y-107355572D01*
X144806795Y-107370820D01*
X144816702Y-107371015D01*
X144819914Y-107369195D01*
X144862644Y-107356015D01*
X144918227Y-107356785D01*
X144974737Y-107370333D01*
X145010082Y-107387861D01*
X145046321Y-107415861D01*
X145072813Y-107447549D01*
X145090999Y-107487813D01*
X145102322Y-107541543D01*
X145108222Y-107613626D01*
X145110143Y-107708951D01*
X145110177Y-107727237D01*
X145110200Y-107932646D01*
X145064491Y-107948580D01*
X145032027Y-107959420D01*
X145014215Y-107964468D01*
X145013691Y-107964514D01*
X145011937Y-107950828D01*
X145010444Y-107913076D01*
X145009326Y-107856224D01*
X145008697Y-107785234D01*
X145008600Y-107742073D01*
X145008398Y-107656973D01*
X145007358Y-107595981D01*
X145004831Y-107554177D01*
X145000164Y-107526642D01*
X144992707Y-107508456D01*
X144981811Y-107494698D01*
X144975007Y-107488073D01*
X144928272Y-107461375D01*
X144877272Y-107459375D01*
X144831001Y-107481955D01*
X144822444Y-107490107D01*
X144809893Y-107505436D01*
X144801188Y-107523618D01*
X144795631Y-107549909D01*
X144792526Y-107589562D01*
X144791176Y-107647832D01*
X144790886Y-107728173D01*
X144790886Y-107932646D01*
X144745177Y-107948580D01*
X144712713Y-107959420D01*
X144694901Y-107964468D01*
X144694377Y-107964514D01*
X144693037Y-107950623D01*
X144691828Y-107911439D01*
X144690801Y-107850700D01*
X144690002Y-107772141D01*
X144689481Y-107679498D01*
X144689286Y-107576509D01*
X144689286Y-107179342D01*
X144736457Y-107159444D01*
X144783629Y-107139547D01*
X144790886Y-107261289D01*
X144790886Y-107261289D01*
G37*
X144790886Y-107261289D02*
X144795139Y-107320613D01*
X144800025Y-107355572D01*
X144806795Y-107370820D01*
X144816702Y-107371015D01*
X144819914Y-107369195D01*
X144862644Y-107356015D01*
X144918227Y-107356785D01*
X144974737Y-107370333D01*
X145010082Y-107387861D01*
X145046321Y-107415861D01*
X145072813Y-107447549D01*
X145090999Y-107487813D01*
X145102322Y-107541543D01*
X145108222Y-107613626D01*
X145110143Y-107708951D01*
X145110177Y-107727237D01*
X145110200Y-107932646D01*
X145064491Y-107948580D01*
X145032027Y-107959420D01*
X145014215Y-107964468D01*
X145013691Y-107964514D01*
X145011937Y-107950828D01*
X145010444Y-107913076D01*
X145009326Y-107856224D01*
X145008697Y-107785234D01*
X145008600Y-107742073D01*
X145008398Y-107656973D01*
X145007358Y-107595981D01*
X145004831Y-107554177D01*
X145000164Y-107526642D01*
X144992707Y-107508456D01*
X144981811Y-107494698D01*
X144975007Y-107488073D01*
X144928272Y-107461375D01*
X144877272Y-107459375D01*
X144831001Y-107481955D01*
X144822444Y-107490107D01*
X144809893Y-107505436D01*
X144801188Y-107523618D01*
X144795631Y-107549909D01*
X144792526Y-107589562D01*
X144791176Y-107647832D01*
X144790886Y-107728173D01*
X144790886Y-107932646D01*
X144745177Y-107948580D01*
X144712713Y-107959420D01*
X144694901Y-107964468D01*
X144694377Y-107964514D01*
X144693037Y-107950623D01*
X144691828Y-107911439D01*
X144690801Y-107850700D01*
X144690002Y-107772141D01*
X144689481Y-107679498D01*
X144689286Y-107576509D01*
X144689286Y-107179342D01*
X144736457Y-107159444D01*
X144783629Y-107139547D01*
X144790886Y-107261289D01*
G36*
X145454744Y-107360968D02*
X145511616Y-107382087D01*
X145512267Y-107382493D01*
X145547440Y-107408380D01*
X145573407Y-107438633D01*
X145591670Y-107478058D01*
X145603732Y-107531462D01*
X145611096Y-107603651D01*
X145615264Y-107699432D01*
X145615629Y-107713078D01*
X145620876Y-107918842D01*
X145576716Y-107941678D01*
X145544763Y-107957110D01*
X145525470Y-107964423D01*
X145524578Y-107964514D01*
X145521239Y-107951022D01*
X145518587Y-107914626D01*
X145516956Y-107861452D01*
X145516600Y-107818393D01*
X145516592Y-107748641D01*
X145513403Y-107704837D01*
X145502288Y-107683944D01*
X145478501Y-107682925D01*
X145437296Y-107698741D01*
X145375086Y-107727815D01*
X145329341Y-107751963D01*
X145305813Y-107772913D01*
X145298896Y-107795747D01*
X145298886Y-107796877D01*
X145310299Y-107836212D01*
X145344092Y-107857462D01*
X145395809Y-107860539D01*
X145433061Y-107860006D01*
X145452703Y-107870735D01*
X145464952Y-107896505D01*
X145472002Y-107929337D01*
X145461842Y-107947966D01*
X145458017Y-107950632D01*
X145422001Y-107961340D01*
X145371566Y-107962856D01*
X145319626Y-107955759D01*
X145282822Y-107942788D01*
X145231938Y-107899585D01*
X145203014Y-107839446D01*
X145197286Y-107792462D01*
X145201657Y-107750082D01*
X145217475Y-107715488D01*
X145248797Y-107684763D01*
X145299678Y-107653990D01*
X145374176Y-107619252D01*
X145378714Y-107617288D01*
X145445821Y-107586287D01*
X145487232Y-107560862D01*
X145504981Y-107538014D01*
X145501107Y-107514745D01*
X145477643Y-107488056D01*
X145470627Y-107481914D01*
X145423630Y-107458100D01*
X145374933Y-107459103D01*
X145332522Y-107482451D01*
X145304384Y-107525675D01*
X145301769Y-107534160D01*
X145276308Y-107575308D01*
X145244001Y-107595128D01*
X145197286Y-107614770D01*
X145197286Y-107563950D01*
X145211496Y-107490082D01*
X145253675Y-107422327D01*
X145275624Y-107399661D01*
X145325517Y-107370569D01*
X145388967Y-107357400D01*
X145454744Y-107360968D01*
X145454744Y-107360968D01*
G37*
X145454744Y-107360968D02*
X145511616Y-107382087D01*
X145512267Y-107382493D01*
X145547440Y-107408380D01*
X145573407Y-107438633D01*
X145591670Y-107478058D01*
X145603732Y-107531462D01*
X145611096Y-107603651D01*
X145615264Y-107699432D01*
X145615629Y-107713078D01*
X145620876Y-107918842D01*
X145576716Y-107941678D01*
X145544763Y-107957110D01*
X145525470Y-107964423D01*
X145524578Y-107964514D01*
X145521239Y-107951022D01*
X145518587Y-107914626D01*
X145516956Y-107861452D01*
X145516600Y-107818393D01*
X145516592Y-107748641D01*
X145513403Y-107704837D01*
X145502288Y-107683944D01*
X145478501Y-107682925D01*
X145437296Y-107698741D01*
X145375086Y-107727815D01*
X145329341Y-107751963D01*
X145305813Y-107772913D01*
X145298896Y-107795747D01*
X145298886Y-107796877D01*
X145310299Y-107836212D01*
X145344092Y-107857462D01*
X145395809Y-107860539D01*
X145433061Y-107860006D01*
X145452703Y-107870735D01*
X145464952Y-107896505D01*
X145472002Y-107929337D01*
X145461842Y-107947966D01*
X145458017Y-107950632D01*
X145422001Y-107961340D01*
X145371566Y-107962856D01*
X145319626Y-107955759D01*
X145282822Y-107942788D01*
X145231938Y-107899585D01*
X145203014Y-107839446D01*
X145197286Y-107792462D01*
X145201657Y-107750082D01*
X145217475Y-107715488D01*
X145248797Y-107684763D01*
X145299678Y-107653990D01*
X145374176Y-107619252D01*
X145378714Y-107617288D01*
X145445821Y-107586287D01*
X145487232Y-107560862D01*
X145504981Y-107538014D01*
X145501107Y-107514745D01*
X145477643Y-107488056D01*
X145470627Y-107481914D01*
X145423630Y-107458100D01*
X145374933Y-107459103D01*
X145332522Y-107482451D01*
X145304384Y-107525675D01*
X145301769Y-107534160D01*
X145276308Y-107575308D01*
X145244001Y-107595128D01*
X145197286Y-107614770D01*
X145197286Y-107563950D01*
X145211496Y-107490082D01*
X145253675Y-107422327D01*
X145275624Y-107399661D01*
X145325517Y-107370569D01*
X145388967Y-107357400D01*
X145454744Y-107360968D01*
G36*
X145944926Y-107359755D02*
X146010858Y-107384084D01*
X146064273Y-107427117D01*
X146085164Y-107457409D01*
X146107939Y-107512994D01*
X146107466Y-107553186D01*
X146083562Y-107580217D01*
X146074717Y-107584813D01*
X146036530Y-107599144D01*
X146017028Y-107595472D01*
X146010422Y-107571407D01*
X146010086Y-107558114D01*
X145997992Y-107509210D01*
X145966471Y-107474999D01*
X145922659Y-107458476D01*
X145873695Y-107462634D01*
X145833894Y-107484227D01*
X145820450Y-107496544D01*
X145810921Y-107511487D01*
X145804485Y-107534075D01*
X145800317Y-107569328D01*
X145797597Y-107622266D01*
X145795502Y-107697907D01*
X145794960Y-107721857D01*
X145792981Y-107803790D01*
X145790731Y-107861455D01*
X145787357Y-107899608D01*
X145782006Y-107923004D01*
X145773824Y-107936398D01*
X145761959Y-107944545D01*
X145754362Y-107948144D01*
X145722102Y-107960452D01*
X145703111Y-107964514D01*
X145696836Y-107950948D01*
X145693006Y-107909934D01*
X145691600Y-107840999D01*
X145692598Y-107743669D01*
X145692908Y-107728657D01*
X145695101Y-107639859D01*
X145697693Y-107575019D01*
X145701382Y-107529067D01*
X145706864Y-107496935D01*
X145714835Y-107473553D01*
X145725993Y-107453852D01*
X145731830Y-107445410D01*
X145765296Y-107408057D01*
X145802727Y-107379003D01*
X145807309Y-107376467D01*
X145874426Y-107356443D01*
X145944926Y-107359755D01*
X145944926Y-107359755D01*
G37*
X145944926Y-107359755D02*
X146010858Y-107384084D01*
X146064273Y-107427117D01*
X146085164Y-107457409D01*
X146107939Y-107512994D01*
X146107466Y-107553186D01*
X146083562Y-107580217D01*
X146074717Y-107584813D01*
X146036530Y-107599144D01*
X146017028Y-107595472D01*
X146010422Y-107571407D01*
X146010086Y-107558114D01*
X145997992Y-107509210D01*
X145966471Y-107474999D01*
X145922659Y-107458476D01*
X145873695Y-107462634D01*
X145833894Y-107484227D01*
X145820450Y-107496544D01*
X145810921Y-107511487D01*
X145804485Y-107534075D01*
X145800317Y-107569328D01*
X145797597Y-107622266D01*
X145795502Y-107697907D01*
X145794960Y-107721857D01*
X145792981Y-107803790D01*
X145790731Y-107861455D01*
X145787357Y-107899608D01*
X145782006Y-107923004D01*
X145773824Y-107936398D01*
X145761959Y-107944545D01*
X145754362Y-107948144D01*
X145722102Y-107960452D01*
X145703111Y-107964514D01*
X145696836Y-107950948D01*
X145693006Y-107909934D01*
X145691600Y-107840999D01*
X145692598Y-107743669D01*
X145692908Y-107728657D01*
X145695101Y-107639859D01*
X145697693Y-107575019D01*
X145701382Y-107529067D01*
X145706864Y-107496935D01*
X145714835Y-107473553D01*
X145725993Y-107453852D01*
X145731830Y-107445410D01*
X145765296Y-107408057D01*
X145802727Y-107379003D01*
X145807309Y-107376467D01*
X145874426Y-107356443D01*
X145944926Y-107359755D01*
G36*
X146605117Y-107475358D02*
X146604933Y-107583837D01*
X146604219Y-107667287D01*
X146602675Y-107729704D01*
X146600001Y-107775085D01*
X146595894Y-107807429D01*
X146590055Y-107830733D01*
X146582182Y-107848995D01*
X146576221Y-107859418D01*
X146526855Y-107915945D01*
X146464264Y-107951377D01*
X146395013Y-107964090D01*
X146325668Y-107952463D01*
X146284375Y-107931568D01*
X146241025Y-107895422D01*
X146211481Y-107851276D01*
X146193655Y-107793462D01*
X146185463Y-107716313D01*
X146184302Y-107659714D01*
X146184458Y-107655647D01*
X146285857Y-107655647D01*
X146286476Y-107720550D01*
X146289314Y-107763514D01*
X146295840Y-107791622D01*
X146307523Y-107811953D01*
X146321483Y-107827288D01*
X146368365Y-107856890D01*
X146418701Y-107859419D01*
X146466276Y-107834705D01*
X146469979Y-107831356D01*
X146485783Y-107813935D01*
X146495693Y-107793209D01*
X146501058Y-107762362D01*
X146503228Y-107714577D01*
X146503571Y-107661748D01*
X146502827Y-107595381D01*
X146499748Y-107551106D01*
X146493061Y-107522009D01*
X146481496Y-107501173D01*
X146472013Y-107490107D01*
X146427960Y-107462198D01*
X146377224Y-107458843D01*
X146328796Y-107480159D01*
X146319450Y-107488073D01*
X146303540Y-107505647D01*
X146293610Y-107526587D01*
X146288278Y-107557782D01*
X146286163Y-107606122D01*
X146285857Y-107655647D01*
X146184458Y-107655647D01*
X146187810Y-107568568D01*
X146199726Y-107500086D01*
X146222135Y-107448600D01*
X146257124Y-107408443D01*
X146284375Y-107387861D01*
X146333907Y-107365625D01*
X146391316Y-107355304D01*
X146444682Y-107358067D01*
X146474543Y-107369212D01*
X146486261Y-107372383D01*
X146494037Y-107360557D01*
X146499465Y-107328866D01*
X146503571Y-107280593D01*
X146508067Y-107226829D01*
X146514313Y-107194482D01*
X146525676Y-107175985D01*
X146545528Y-107163770D01*
X146558000Y-107158362D01*
X146605171Y-107138601D01*
X146605117Y-107475358D01*
X146605117Y-107475358D01*
G37*
X146605117Y-107475358D02*
X146604933Y-107583837D01*
X146604219Y-107667287D01*
X146602675Y-107729704D01*
X146600001Y-107775085D01*
X146595894Y-107807429D01*
X146590055Y-107830733D01*
X146582182Y-107848995D01*
X146576221Y-107859418D01*
X146526855Y-107915945D01*
X146464264Y-107951377D01*
X146395013Y-107964090D01*
X146325668Y-107952463D01*
X146284375Y-107931568D01*
X146241025Y-107895422D01*
X146211481Y-107851276D01*
X146193655Y-107793462D01*
X146185463Y-107716313D01*
X146184302Y-107659714D01*
X146184458Y-107655647D01*
X146285857Y-107655647D01*
X146286476Y-107720550D01*
X146289314Y-107763514D01*
X146295840Y-107791622D01*
X146307523Y-107811953D01*
X146321483Y-107827288D01*
X146368365Y-107856890D01*
X146418701Y-107859419D01*
X146466276Y-107834705D01*
X146469979Y-107831356D01*
X146485783Y-107813935D01*
X146495693Y-107793209D01*
X146501058Y-107762362D01*
X146503228Y-107714577D01*
X146503571Y-107661748D01*
X146502827Y-107595381D01*
X146499748Y-107551106D01*
X146493061Y-107522009D01*
X146481496Y-107501173D01*
X146472013Y-107490107D01*
X146427960Y-107462198D01*
X146377224Y-107458843D01*
X146328796Y-107480159D01*
X146319450Y-107488073D01*
X146303540Y-107505647D01*
X146293610Y-107526587D01*
X146288278Y-107557782D01*
X146286163Y-107606122D01*
X146285857Y-107655647D01*
X146184458Y-107655647D01*
X146187810Y-107568568D01*
X146199726Y-107500086D01*
X146222135Y-107448600D01*
X146257124Y-107408443D01*
X146284375Y-107387861D01*
X146333907Y-107365625D01*
X146391316Y-107355304D01*
X146444682Y-107358067D01*
X146474543Y-107369212D01*
X146486261Y-107372383D01*
X146494037Y-107360557D01*
X146499465Y-107328866D01*
X146503571Y-107280593D01*
X146508067Y-107226829D01*
X146514313Y-107194482D01*
X146525676Y-107175985D01*
X146545528Y-107163770D01*
X146558000Y-107158362D01*
X146605171Y-107138601D01*
X146605117Y-107475358D01*
G36*
X147194833Y-107368663D02*
X147197048Y-107406850D01*
X147198784Y-107464886D01*
X147199899Y-107538180D01*
X147200257Y-107615055D01*
X147200257Y-107875196D01*
X147154326Y-107921127D01*
X147122675Y-107949429D01*
X147094890Y-107960893D01*
X147056915Y-107960168D01*
X147041840Y-107958321D01*
X146994726Y-107952948D01*
X146955756Y-107949869D01*
X146946257Y-107949585D01*
X146914233Y-107951445D01*
X146868432Y-107956114D01*
X146850674Y-107958321D01*
X146807057Y-107961735D01*
X146777745Y-107954320D01*
X146748680Y-107931427D01*
X146738188Y-107921127D01*
X146692257Y-107875196D01*
X146692257Y-107388602D01*
X146729226Y-107371758D01*
X146761059Y-107359282D01*
X146779683Y-107354914D01*
X146784458Y-107368718D01*
X146788921Y-107407286D01*
X146792775Y-107466356D01*
X146795722Y-107541663D01*
X146797143Y-107605286D01*
X146801114Y-107855657D01*
X146835759Y-107860556D01*
X146867268Y-107857131D01*
X146882708Y-107846041D01*
X146887023Y-107825308D01*
X146890708Y-107781145D01*
X146893469Y-107719146D01*
X146895012Y-107644909D01*
X146895235Y-107606706D01*
X146895457Y-107386783D01*
X146941166Y-107370849D01*
X146973518Y-107360015D01*
X146991115Y-107354962D01*
X146991623Y-107354914D01*
X146993388Y-107368648D01*
X146995329Y-107406730D01*
X146997282Y-107464482D01*
X146999084Y-107537227D01*
X147000343Y-107605286D01*
X147004314Y-107855657D01*
X147091400Y-107855657D01*
X147095396Y-107627240D01*
X147099392Y-107398822D01*
X147141847Y-107376868D01*
X147173192Y-107361793D01*
X147191744Y-107354951D01*
X147192279Y-107354914D01*
X147194833Y-107368663D01*
X147194833Y-107368663D01*
G37*
X147194833Y-107368663D02*
X147197048Y-107406850D01*
X147198784Y-107464886D01*
X147199899Y-107538180D01*
X147200257Y-107615055D01*
X147200257Y-107875196D01*
X147154326Y-107921127D01*
X147122675Y-107949429D01*
X147094890Y-107960893D01*
X147056915Y-107960168D01*
X147041840Y-107958321D01*
X146994726Y-107952948D01*
X146955756Y-107949869D01*
X146946257Y-107949585D01*
X146914233Y-107951445D01*
X146868432Y-107956114D01*
X146850674Y-107958321D01*
X146807057Y-107961735D01*
X146777745Y-107954320D01*
X146748680Y-107931427D01*
X146738188Y-107921127D01*
X146692257Y-107875196D01*
X146692257Y-107388602D01*
X146729226Y-107371758D01*
X146761059Y-107359282D01*
X146779683Y-107354914D01*
X146784458Y-107368718D01*
X146788921Y-107407286D01*
X146792775Y-107466356D01*
X146795722Y-107541663D01*
X146797143Y-107605286D01*
X146801114Y-107855657D01*
X146835759Y-107860556D01*
X146867268Y-107857131D01*
X146882708Y-107846041D01*
X146887023Y-107825308D01*
X146890708Y-107781145D01*
X146893469Y-107719146D01*
X146895012Y-107644909D01*
X146895235Y-107606706D01*
X146895457Y-107386783D01*
X146941166Y-107370849D01*
X146973518Y-107360015D01*
X146991115Y-107354962D01*
X146991623Y-107354914D01*
X146993388Y-107368648D01*
X146995329Y-107406730D01*
X146997282Y-107464482D01*
X146999084Y-107537227D01*
X147000343Y-107605286D01*
X147004314Y-107855657D01*
X147091400Y-107855657D01*
X147095396Y-107627240D01*
X147099392Y-107398822D01*
X147141847Y-107376868D01*
X147173192Y-107361793D01*
X147191744Y-107354951D01*
X147192279Y-107354914D01*
X147194833Y-107368663D01*
G36*
X147559876Y-107366335D02*
X147601667Y-107385344D01*
X147634469Y-107408378D01*
X147658503Y-107434133D01*
X147675097Y-107467358D01*
X147685577Y-107512800D01*
X147691271Y-107575207D01*
X147693507Y-107659327D01*
X147693743Y-107714721D01*
X147693743Y-107930826D01*
X147656774Y-107947670D01*
X147627656Y-107959981D01*
X147613231Y-107964514D01*
X147610472Y-107951025D01*
X147608282Y-107914653D01*
X147606942Y-107861542D01*
X147606657Y-107819372D01*
X147605434Y-107758447D01*
X147602136Y-107710115D01*
X147597321Y-107680518D01*
X147593496Y-107674229D01*
X147567783Y-107680652D01*
X147527418Y-107697125D01*
X147480679Y-107719458D01*
X147435845Y-107743457D01*
X147401193Y-107764930D01*
X147385002Y-107779685D01*
X147384938Y-107779845D01*
X147386330Y-107807152D01*
X147398818Y-107833219D01*
X147420743Y-107854392D01*
X147452743Y-107861474D01*
X147480092Y-107860649D01*
X147518826Y-107860042D01*
X147539158Y-107869116D01*
X147551369Y-107893092D01*
X147552909Y-107897613D01*
X147558203Y-107931806D01*
X147544047Y-107952568D01*
X147507148Y-107962462D01*
X147467289Y-107964292D01*
X147395562Y-107950727D01*
X147358432Y-107931355D01*
X147312576Y-107885845D01*
X147288256Y-107829983D01*
X147286073Y-107770957D01*
X147306629Y-107715953D01*
X147337549Y-107681486D01*
X147368420Y-107662189D01*
X147416942Y-107637759D01*
X147473485Y-107612985D01*
X147482910Y-107609199D01*
X147545019Y-107581791D01*
X147580822Y-107557634D01*
X147592337Y-107533619D01*
X147581580Y-107506635D01*
X147563114Y-107485543D01*
X147519469Y-107459572D01*
X147471446Y-107457624D01*
X147427406Y-107477637D01*
X147395709Y-107517551D01*
X147391549Y-107527848D01*
X147367327Y-107565724D01*
X147331965Y-107593842D01*
X147287343Y-107616917D01*
X147287343Y-107551485D01*
X147289969Y-107511506D01*
X147301230Y-107479997D01*
X147326199Y-107446378D01*
X147350169Y-107420484D01*
X147387441Y-107383817D01*
X147416401Y-107364121D01*
X147447505Y-107356220D01*
X147482713Y-107354914D01*
X147559876Y-107366335D01*
X147559876Y-107366335D01*
G37*
X147559876Y-107366335D02*
X147601667Y-107385344D01*
X147634469Y-107408378D01*
X147658503Y-107434133D01*
X147675097Y-107467358D01*
X147685577Y-107512800D01*
X147691271Y-107575207D01*
X147693507Y-107659327D01*
X147693743Y-107714721D01*
X147693743Y-107930826D01*
X147656774Y-107947670D01*
X147627656Y-107959981D01*
X147613231Y-107964514D01*
X147610472Y-107951025D01*
X147608282Y-107914653D01*
X147606942Y-107861542D01*
X147606657Y-107819372D01*
X147605434Y-107758447D01*
X147602136Y-107710115D01*
X147597321Y-107680518D01*
X147593496Y-107674229D01*
X147567783Y-107680652D01*
X147527418Y-107697125D01*
X147480679Y-107719458D01*
X147435845Y-107743457D01*
X147401193Y-107764930D01*
X147385002Y-107779685D01*
X147384938Y-107779845D01*
X147386330Y-107807152D01*
X147398818Y-107833219D01*
X147420743Y-107854392D01*
X147452743Y-107861474D01*
X147480092Y-107860649D01*
X147518826Y-107860042D01*
X147539158Y-107869116D01*
X147551369Y-107893092D01*
X147552909Y-107897613D01*
X147558203Y-107931806D01*
X147544047Y-107952568D01*
X147507148Y-107962462D01*
X147467289Y-107964292D01*
X147395562Y-107950727D01*
X147358432Y-107931355D01*
X147312576Y-107885845D01*
X147288256Y-107829983D01*
X147286073Y-107770957D01*
X147306629Y-107715953D01*
X147337549Y-107681486D01*
X147368420Y-107662189D01*
X147416942Y-107637759D01*
X147473485Y-107612985D01*
X147482910Y-107609199D01*
X147545019Y-107581791D01*
X147580822Y-107557634D01*
X147592337Y-107533619D01*
X147581580Y-107506635D01*
X147563114Y-107485543D01*
X147519469Y-107459572D01*
X147471446Y-107457624D01*
X147427406Y-107477637D01*
X147395709Y-107517551D01*
X147391549Y-107527848D01*
X147367327Y-107565724D01*
X147331965Y-107593842D01*
X147287343Y-107616917D01*
X147287343Y-107551485D01*
X147289969Y-107511506D01*
X147301230Y-107479997D01*
X147326199Y-107446378D01*
X147350169Y-107420484D01*
X147387441Y-107383817D01*
X147416401Y-107364121D01*
X147447505Y-107356220D01*
X147482713Y-107354914D01*
X147559876Y-107366335D01*
G36*
X148067600Y-107368752D02*
X148084948Y-107376334D01*
X148126356Y-107409128D01*
X148161765Y-107456547D01*
X148183664Y-107507151D01*
X148187229Y-107532098D01*
X148175279Y-107566927D01*
X148149067Y-107585357D01*
X148120964Y-107596516D01*
X148108095Y-107598572D01*
X148101829Y-107583649D01*
X148089456Y-107551175D01*
X148084028Y-107536502D01*
X148053590Y-107485744D01*
X148009520Y-107460427D01*
X147953010Y-107461206D01*
X147948825Y-107462203D01*
X147918655Y-107476507D01*
X147896476Y-107504393D01*
X147881327Y-107549287D01*
X147872250Y-107614615D01*
X147868286Y-107703804D01*
X147867914Y-107751261D01*
X147867730Y-107826071D01*
X147866522Y-107877069D01*
X147863309Y-107909471D01*
X147857109Y-107928495D01*
X147846940Y-107939356D01*
X147831819Y-107947272D01*
X147830946Y-107947670D01*
X147801828Y-107959981D01*
X147787403Y-107964514D01*
X147785186Y-107950809D01*
X147783289Y-107912925D01*
X147781847Y-107855715D01*
X147780998Y-107784027D01*
X147780829Y-107731565D01*
X147781692Y-107630047D01*
X147785070Y-107553032D01*
X147792142Y-107496023D01*
X147804088Y-107454526D01*
X147822090Y-107424043D01*
X147847327Y-107400080D01*
X147872247Y-107383355D01*
X147932171Y-107361097D01*
X148001911Y-107356076D01*
X148067600Y-107368752D01*
X148067600Y-107368752D01*
G37*
X148067600Y-107368752D02*
X148084948Y-107376334D01*
X148126356Y-107409128D01*
X148161765Y-107456547D01*
X148183664Y-107507151D01*
X148187229Y-107532098D01*
X148175279Y-107566927D01*
X148149067Y-107585357D01*
X148120964Y-107596516D01*
X148108095Y-107598572D01*
X148101829Y-107583649D01*
X148089456Y-107551175D01*
X148084028Y-107536502D01*
X148053590Y-107485744D01*
X148009520Y-107460427D01*
X147953010Y-107461206D01*
X147948825Y-107462203D01*
X147918655Y-107476507D01*
X147896476Y-107504393D01*
X147881327Y-107549287D01*
X147872250Y-107614615D01*
X147868286Y-107703804D01*
X147867914Y-107751261D01*
X147867730Y-107826071D01*
X147866522Y-107877069D01*
X147863309Y-107909471D01*
X147857109Y-107928495D01*
X147846940Y-107939356D01*
X147831819Y-107947272D01*
X147830946Y-107947670D01*
X147801828Y-107959981D01*
X147787403Y-107964514D01*
X147785186Y-107950809D01*
X147783289Y-107912925D01*
X147781847Y-107855715D01*
X147780998Y-107784027D01*
X147780829Y-107731565D01*
X147781692Y-107630047D01*
X147785070Y-107553032D01*
X147792142Y-107496023D01*
X147804088Y-107454526D01*
X147822090Y-107424043D01*
X147847327Y-107400080D01*
X147872247Y-107383355D01*
X147932171Y-107361097D01*
X148001911Y-107356076D01*
X148067600Y-107368752D01*
G36*
X148568595Y-107376966D02*
X148626021Y-107414497D01*
X148653719Y-107448096D01*
X148675662Y-107509064D01*
X148677405Y-107557308D01*
X148673457Y-107621816D01*
X148524686Y-107686934D01*
X148452349Y-107720202D01*
X148405084Y-107746964D01*
X148380507Y-107770144D01*
X148376237Y-107792667D01*
X148389889Y-107817455D01*
X148404943Y-107833886D01*
X148448746Y-107860235D01*
X148496389Y-107862081D01*
X148540145Y-107841546D01*
X148572289Y-107800752D01*
X148578038Y-107786347D01*
X148605576Y-107741356D01*
X148637258Y-107722182D01*
X148680714Y-107705779D01*
X148680714Y-107767966D01*
X148676872Y-107810283D01*
X148661823Y-107845969D01*
X148630280Y-107886943D01*
X148625592Y-107892267D01*
X148590506Y-107928720D01*
X148560347Y-107948283D01*
X148522615Y-107957283D01*
X148491335Y-107960230D01*
X148435385Y-107960965D01*
X148395555Y-107951660D01*
X148370708Y-107937846D01*
X148331656Y-107907467D01*
X148304625Y-107874613D01*
X148287517Y-107833294D01*
X148278238Y-107777521D01*
X148274693Y-107701305D01*
X148274410Y-107662622D01*
X148275372Y-107616247D01*
X148363007Y-107616247D01*
X148364023Y-107641126D01*
X148366556Y-107645200D01*
X148383274Y-107639665D01*
X148419249Y-107625017D01*
X148467331Y-107604190D01*
X148477386Y-107599714D01*
X148538152Y-107568814D01*
X148571632Y-107541657D01*
X148578990Y-107516220D01*
X148561391Y-107490481D01*
X148546856Y-107479109D01*
X148494410Y-107456364D01*
X148445322Y-107460122D01*
X148404227Y-107487884D01*
X148375758Y-107537152D01*
X148366631Y-107576257D01*
X148363007Y-107616247D01*
X148275372Y-107616247D01*
X148276285Y-107572249D01*
X148283196Y-107505384D01*
X148296884Y-107456695D01*
X148319096Y-107420849D01*
X148351574Y-107392513D01*
X148365733Y-107383355D01*
X148430053Y-107359507D01*
X148500473Y-107358006D01*
X148568595Y-107376966D01*
X148568595Y-107376966D01*
G37*
X148568595Y-107376966D02*
X148626021Y-107414497D01*
X148653719Y-107448096D01*
X148675662Y-107509064D01*
X148677405Y-107557308D01*
X148673457Y-107621816D01*
X148524686Y-107686934D01*
X148452349Y-107720202D01*
X148405084Y-107746964D01*
X148380507Y-107770144D01*
X148376237Y-107792667D01*
X148389889Y-107817455D01*
X148404943Y-107833886D01*
X148448746Y-107860235D01*
X148496389Y-107862081D01*
X148540145Y-107841546D01*
X148572289Y-107800752D01*
X148578038Y-107786347D01*
X148605576Y-107741356D01*
X148637258Y-107722182D01*
X148680714Y-107705779D01*
X148680714Y-107767966D01*
X148676872Y-107810283D01*
X148661823Y-107845969D01*
X148630280Y-107886943D01*
X148625592Y-107892267D01*
X148590506Y-107928720D01*
X148560347Y-107948283D01*
X148522615Y-107957283D01*
X148491335Y-107960230D01*
X148435385Y-107960965D01*
X148395555Y-107951660D01*
X148370708Y-107937846D01*
X148331656Y-107907467D01*
X148304625Y-107874613D01*
X148287517Y-107833294D01*
X148278238Y-107777521D01*
X148274693Y-107701305D01*
X148274410Y-107662622D01*
X148275372Y-107616247D01*
X148363007Y-107616247D01*
X148364023Y-107641126D01*
X148366556Y-107645200D01*
X148383274Y-107639665D01*
X148419249Y-107625017D01*
X148467331Y-107604190D01*
X148477386Y-107599714D01*
X148538152Y-107568814D01*
X148571632Y-107541657D01*
X148578990Y-107516220D01*
X148561391Y-107490481D01*
X148546856Y-107479109D01*
X148494410Y-107456364D01*
X148445322Y-107460122D01*
X148404227Y-107487884D01*
X148375758Y-107537152D01*
X148366631Y-107576257D01*
X148363007Y-107616247D01*
X148275372Y-107616247D01*
X148276285Y-107572249D01*
X148283196Y-107505384D01*
X148296884Y-107456695D01*
X148319096Y-107420849D01*
X148351574Y-107392513D01*
X148365733Y-107383355D01*
X148430053Y-107359507D01*
X148500473Y-107358006D01*
X148568595Y-107376966D01*
G36*
X145518910Y-102652348D02*
X145597454Y-102652778D01*
X145654298Y-102653942D01*
X145693105Y-102656207D01*
X145717538Y-102659940D01*
X145731262Y-102665506D01*
X145737940Y-102673273D01*
X145741236Y-102683605D01*
X145741556Y-102684943D01*
X145746562Y-102709079D01*
X145755829Y-102756701D01*
X145768392Y-102822741D01*
X145783287Y-102902128D01*
X145799551Y-102989796D01*
X145800119Y-102992875D01*
X145816410Y-103078789D01*
X145831652Y-103154696D01*
X145844861Y-103216045D01*
X145855054Y-103258282D01*
X145861248Y-103276855D01*
X145861543Y-103277184D01*
X145879788Y-103286253D01*
X145917405Y-103301367D01*
X145966271Y-103319262D01*
X145966543Y-103319358D01*
X146028093Y-103342493D01*
X146100657Y-103371965D01*
X146169057Y-103401597D01*
X146172294Y-103403062D01*
X146283702Y-103453626D01*
X146530399Y-103285160D01*
X146606077Y-103233803D01*
X146674631Y-103187889D01*
X146732088Y-103150030D01*
X146774476Y-103122837D01*
X146797825Y-103108921D01*
X146800042Y-103107889D01*
X146817010Y-103112484D01*
X146848701Y-103134655D01*
X146896352Y-103175447D01*
X146961198Y-103235905D01*
X147027397Y-103300227D01*
X147091214Y-103363612D01*
X147148329Y-103421451D01*
X147195305Y-103470175D01*
X147228703Y-103506210D01*
X147245085Y-103525984D01*
X147245694Y-103527002D01*
X147247505Y-103540572D01*
X147240683Y-103562733D01*
X147223540Y-103596478D01*
X147194393Y-103644800D01*
X147151555Y-103710692D01*
X147094448Y-103795517D01*
X147043766Y-103870177D01*
X146998461Y-103937140D01*
X146961150Y-103992516D01*
X146934452Y-104032420D01*
X146920985Y-104052962D01*
X146920137Y-104054356D01*
X146921781Y-104074038D01*
X146934245Y-104112293D01*
X146955048Y-104161889D01*
X146962462Y-104177728D01*
X146994814Y-104248290D01*
X147029328Y-104328353D01*
X147057365Y-104397629D01*
X147077568Y-104449045D01*
X147093615Y-104488119D01*
X147102888Y-104508541D01*
X147104041Y-104510114D01*
X147121096Y-104512721D01*
X147161298Y-104519863D01*
X147219302Y-104530523D01*
X147289763Y-104543685D01*
X147367335Y-104558333D01*
X147446672Y-104573449D01*
X147522431Y-104588018D01*
X147589264Y-104601022D01*
X147641828Y-104611445D01*
X147674776Y-104618270D01*
X147682857Y-104620199D01*
X147691205Y-104624962D01*
X147697506Y-104635718D01*
X147702045Y-104656098D01*
X147705104Y-104689734D01*
X147706967Y-104740255D01*
X147707918Y-104811292D01*
X147708240Y-104906476D01*
X147708257Y-104945492D01*
X147708257Y-105262799D01*
X147632057Y-105277839D01*
X147589663Y-105285995D01*
X147526400Y-105297899D01*
X147449962Y-105312116D01*
X147368043Y-105327210D01*
X147345400Y-105331355D01*
X147269806Y-105346053D01*
X147203953Y-105360505D01*
X147153366Y-105373375D01*
X147123574Y-105383322D01*
X147118612Y-105386287D01*
X147106426Y-105407283D01*
X147088953Y-105447967D01*
X147069577Y-105500322D01*
X147065734Y-105511600D01*
X147040339Y-105581523D01*
X147008817Y-105660418D01*
X146977969Y-105731266D01*
X146977817Y-105731595D01*
X146926447Y-105842733D01*
X147095399Y-106091253D01*
X147264352Y-106339772D01*
X147047429Y-106557058D01*
X146981819Y-106621726D01*
X146921979Y-106678733D01*
X146871267Y-106725033D01*
X146833046Y-106757584D01*
X146810675Y-106773343D01*
X146807466Y-106774343D01*
X146788626Y-106766469D01*
X146750180Y-106744578D01*
X146696330Y-106711267D01*
X146631276Y-106669131D01*
X146560940Y-106621943D01*
X146489555Y-106573810D01*
X146425908Y-106531928D01*
X146374041Y-106498871D01*
X146337995Y-106477218D01*
X146321867Y-106469543D01*
X146302189Y-106476037D01*
X146264875Y-106493150D01*
X146217621Y-106517326D01*
X146212612Y-106520013D01*
X146148977Y-106551927D01*
X146105341Y-106567579D01*
X146078202Y-106567745D01*
X146064057Y-106553204D01*
X146063975Y-106553000D01*
X146056905Y-106535779D01*
X146040042Y-106494899D01*
X146014695Y-106433525D01*
X145982171Y-106354819D01*
X145943778Y-106261947D01*
X145900822Y-106158072D01*
X145859222Y-106057502D01*
X145813504Y-105946516D01*
X145771526Y-105843703D01*
X145734548Y-105752215D01*
X145703827Y-105675201D01*
X145680622Y-105615815D01*
X145666190Y-105577209D01*
X145661743Y-105562800D01*
X145672896Y-105546272D01*
X145702069Y-105519930D01*
X145740971Y-105490887D01*
X145851757Y-105399039D01*
X145938351Y-105293759D01*
X145999716Y-105177266D01*
X146034815Y-105051776D01*
X146042608Y-104919507D01*
X146036943Y-104858457D01*
X146006078Y-104731795D01*
X145952920Y-104619941D01*
X145880767Y-104524001D01*
X145792917Y-104445076D01*
X145692665Y-104384270D01*
X145583310Y-104342687D01*
X145468147Y-104321428D01*
X145350475Y-104321599D01*
X145233590Y-104344301D01*
X145120789Y-104390638D01*
X145015369Y-104461713D01*
X144971368Y-104501911D01*
X144886979Y-104605129D01*
X144828222Y-104717925D01*
X144794704Y-104837010D01*
X144786035Y-104959095D01*
X144801823Y-105080893D01*
X144841678Y-105199116D01*
X144905207Y-105310475D01*
X144992021Y-105411684D01*
X145089029Y-105490887D01*
X145129437Y-105521162D01*
X145157982Y-105547219D01*
X145168257Y-105562825D01*
X145162877Y-105579843D01*
X145147575Y-105620500D01*
X145123612Y-105681642D01*
X145092244Y-105760119D01*
X145054732Y-105852780D01*
X145012333Y-105956472D01*
X144970663Y-106057526D01*
X144924690Y-106168607D01*
X144882107Y-106271541D01*
X144844221Y-106363165D01*
X144812340Y-106440316D01*
X144787771Y-106499831D01*
X144771820Y-106538544D01*
X144765910Y-106553000D01*
X144751948Y-106567685D01*
X144724940Y-106567642D01*
X144681413Y-106552099D01*
X144617890Y-106520284D01*
X144617388Y-106520013D01*
X144569560Y-106495323D01*
X144530897Y-106477338D01*
X144509095Y-106469614D01*
X144508133Y-106469543D01*
X144491721Y-106477378D01*
X144455487Y-106499165D01*
X144403474Y-106532328D01*
X144339725Y-106574291D01*
X144269060Y-106621943D01*
X144197116Y-106670191D01*
X144132274Y-106712151D01*
X144078735Y-106745227D01*
X144040697Y-106766821D01*
X144022533Y-106774343D01*
X144005808Y-106764457D01*
X143972180Y-106736826D01*
X143925010Y-106694495D01*
X143867658Y-106640505D01*
X143803484Y-106577899D01*
X143782497Y-106556983D01*
X143565499Y-106339623D01*
X143730668Y-106097220D01*
X143780864Y-106022781D01*
X143824919Y-105955972D01*
X143860362Y-105900665D01*
X143884719Y-105860729D01*
X143895522Y-105840036D01*
X143895838Y-105838563D01*
X143890143Y-105819058D01*
X143874826Y-105779822D01*
X143852537Y-105727430D01*
X143836893Y-105692355D01*
X143807641Y-105625201D01*
X143780094Y-105557358D01*
X143758737Y-105500034D01*
X143752935Y-105482572D01*
X143736452Y-105435938D01*
X143720340Y-105399905D01*
X143711490Y-105386287D01*
X143691960Y-105377952D01*
X143649334Y-105366137D01*
X143589145Y-105352181D01*
X143516922Y-105337422D01*
X143484600Y-105331355D01*
X143402522Y-105316273D01*
X143323795Y-105301669D01*
X143256109Y-105288980D01*
X143207160Y-105279642D01*
X143197943Y-105277839D01*
X143121743Y-105262799D01*
X143121743Y-104945492D01*
X143121914Y-104841154D01*
X143122616Y-104762213D01*
X143124134Y-104705038D01*
X143126749Y-104665999D01*
X143130746Y-104641465D01*
X143136409Y-104627805D01*
X143144020Y-104621389D01*
X143147143Y-104620199D01*
X143165978Y-104615980D01*
X143207588Y-104607562D01*
X143266630Y-104595961D01*
X143337757Y-104582195D01*
X143415625Y-104567280D01*
X143494887Y-104552232D01*
X143570198Y-104538069D01*
X143636213Y-104525806D01*
X143687587Y-104516461D01*
X143718975Y-104511050D01*
X143725959Y-104510114D01*
X143732285Y-104497596D01*
X143746290Y-104464246D01*
X143765355Y-104416377D01*
X143772634Y-104397629D01*
X143801996Y-104325195D01*
X143836571Y-104245170D01*
X143867537Y-104177728D01*
X143890323Y-104126159D01*
X143905482Y-104083785D01*
X143910542Y-104057834D01*
X143909736Y-104054356D01*
X143899041Y-104037936D01*
X143874620Y-104001417D01*
X143839095Y-103948687D01*
X143795087Y-103883635D01*
X143745217Y-103810151D01*
X143735356Y-103795645D01*
X143677492Y-103709704D01*
X143634956Y-103644261D01*
X143606054Y-103596304D01*
X143589090Y-103562820D01*
X143582367Y-103540795D01*
X143584190Y-103527217D01*
X143584236Y-103527131D01*
X143598586Y-103509297D01*
X143630323Y-103474817D01*
X143676010Y-103427268D01*
X143732204Y-103370222D01*
X143795468Y-103307255D01*
X143802602Y-103300227D01*
X143882330Y-103223020D01*
X143943857Y-103166330D01*
X143988421Y-103129110D01*
X144017257Y-103110315D01*
X144029958Y-103107889D01*
X144048494Y-103118471D01*
X144086961Y-103142916D01*
X144141386Y-103178612D01*
X144207798Y-103222947D01*
X144282225Y-103273311D01*
X144299601Y-103285160D01*
X144546297Y-103453626D01*
X144657706Y-103403062D01*
X144725457Y-103373595D01*
X144798183Y-103343959D01*
X144860703Y-103320330D01*
X144863457Y-103319358D01*
X144912360Y-103301457D01*
X144950057Y-103286320D01*
X144968425Y-103277210D01*
X144968456Y-103277184D01*
X144974285Y-103260717D01*
X144984192Y-103220219D01*
X144997195Y-103160242D01*
X145012309Y-103085340D01*
X145028552Y-103000064D01*
X145029881Y-102992875D01*
X145046175Y-102905014D01*
X145061133Y-102825260D01*
X145073791Y-102758681D01*
X145083186Y-102710347D01*
X145088354Y-102685325D01*
X145088444Y-102684943D01*
X145091589Y-102674299D01*
X145097704Y-102666262D01*
X145110453Y-102660467D01*
X145133500Y-102656547D01*
X145170509Y-102654135D01*
X145225144Y-102652865D01*
X145301067Y-102652371D01*
X145401944Y-102652286D01*
X145415000Y-102652286D01*
X145518910Y-102652348D01*
X145518910Y-102652348D01*
G37*
X145518910Y-102652348D02*
X145597454Y-102652778D01*
X145654298Y-102653942D01*
X145693105Y-102656207D01*
X145717538Y-102659940D01*
X145731262Y-102665506D01*
X145737940Y-102673273D01*
X145741236Y-102683605D01*
X145741556Y-102684943D01*
X145746562Y-102709079D01*
X145755829Y-102756701D01*
X145768392Y-102822741D01*
X145783287Y-102902128D01*
X145799551Y-102989796D01*
X145800119Y-102992875D01*
X145816410Y-103078789D01*
X145831652Y-103154696D01*
X145844861Y-103216045D01*
X145855054Y-103258282D01*
X145861248Y-103276855D01*
X145861543Y-103277184D01*
X145879788Y-103286253D01*
X145917405Y-103301367D01*
X145966271Y-103319262D01*
X145966543Y-103319358D01*
X146028093Y-103342493D01*
X146100657Y-103371965D01*
X146169057Y-103401597D01*
X146172294Y-103403062D01*
X146283702Y-103453626D01*
X146530399Y-103285160D01*
X146606077Y-103233803D01*
X146674631Y-103187889D01*
X146732088Y-103150030D01*
X146774476Y-103122837D01*
X146797825Y-103108921D01*
X146800042Y-103107889D01*
X146817010Y-103112484D01*
X146848701Y-103134655D01*
X146896352Y-103175447D01*
X146961198Y-103235905D01*
X147027397Y-103300227D01*
X147091214Y-103363612D01*
X147148329Y-103421451D01*
X147195305Y-103470175D01*
X147228703Y-103506210D01*
X147245085Y-103525984D01*
X147245694Y-103527002D01*
X147247505Y-103540572D01*
X147240683Y-103562733D01*
X147223540Y-103596478D01*
X147194393Y-103644800D01*
X147151555Y-103710692D01*
X147094448Y-103795517D01*
X147043766Y-103870177D01*
X146998461Y-103937140D01*
X146961150Y-103992516D01*
X146934452Y-104032420D01*
X146920985Y-104052962D01*
X146920137Y-104054356D01*
X146921781Y-104074038D01*
X146934245Y-104112293D01*
X146955048Y-104161889D01*
X146962462Y-104177728D01*
X146994814Y-104248290D01*
X147029328Y-104328353D01*
X147057365Y-104397629D01*
X147077568Y-104449045D01*
X147093615Y-104488119D01*
X147102888Y-104508541D01*
X147104041Y-104510114D01*
X147121096Y-104512721D01*
X147161298Y-104519863D01*
X147219302Y-104530523D01*
X147289763Y-104543685D01*
X147367335Y-104558333D01*
X147446672Y-104573449D01*
X147522431Y-104588018D01*
X147589264Y-104601022D01*
X147641828Y-104611445D01*
X147674776Y-104618270D01*
X147682857Y-104620199D01*
X147691205Y-104624962D01*
X147697506Y-104635718D01*
X147702045Y-104656098D01*
X147705104Y-104689734D01*
X147706967Y-104740255D01*
X147707918Y-104811292D01*
X147708240Y-104906476D01*
X147708257Y-104945492D01*
X147708257Y-105262799D01*
X147632057Y-105277839D01*
X147589663Y-105285995D01*
X147526400Y-105297899D01*
X147449962Y-105312116D01*
X147368043Y-105327210D01*
X147345400Y-105331355D01*
X147269806Y-105346053D01*
X147203953Y-105360505D01*
X147153366Y-105373375D01*
X147123574Y-105383322D01*
X147118612Y-105386287D01*
X147106426Y-105407283D01*
X147088953Y-105447967D01*
X147069577Y-105500322D01*
X147065734Y-105511600D01*
X147040339Y-105581523D01*
X147008817Y-105660418D01*
X146977969Y-105731266D01*
X146977817Y-105731595D01*
X146926447Y-105842733D01*
X147095399Y-106091253D01*
X147264352Y-106339772D01*
X147047429Y-106557058D01*
X146981819Y-106621726D01*
X146921979Y-106678733D01*
X146871267Y-106725033D01*
X146833046Y-106757584D01*
X146810675Y-106773343D01*
X146807466Y-106774343D01*
X146788626Y-106766469D01*
X146750180Y-106744578D01*
X146696330Y-106711267D01*
X146631276Y-106669131D01*
X146560940Y-106621943D01*
X146489555Y-106573810D01*
X146425908Y-106531928D01*
X146374041Y-106498871D01*
X146337995Y-106477218D01*
X146321867Y-106469543D01*
X146302189Y-106476037D01*
X146264875Y-106493150D01*
X146217621Y-106517326D01*
X146212612Y-106520013D01*
X146148977Y-106551927D01*
X146105341Y-106567579D01*
X146078202Y-106567745D01*
X146064057Y-106553204D01*
X146063975Y-106553000D01*
X146056905Y-106535779D01*
X146040042Y-106494899D01*
X146014695Y-106433525D01*
X145982171Y-106354819D01*
X145943778Y-106261947D01*
X145900822Y-106158072D01*
X145859222Y-106057502D01*
X145813504Y-105946516D01*
X145771526Y-105843703D01*
X145734548Y-105752215D01*
X145703827Y-105675201D01*
X145680622Y-105615815D01*
X145666190Y-105577209D01*
X145661743Y-105562800D01*
X145672896Y-105546272D01*
X145702069Y-105519930D01*
X145740971Y-105490887D01*
X145851757Y-105399039D01*
X145938351Y-105293759D01*
X145999716Y-105177266D01*
X146034815Y-105051776D01*
X146042608Y-104919507D01*
X146036943Y-104858457D01*
X146006078Y-104731795D01*
X145952920Y-104619941D01*
X145880767Y-104524001D01*
X145792917Y-104445076D01*
X145692665Y-104384270D01*
X145583310Y-104342687D01*
X145468147Y-104321428D01*
X145350475Y-104321599D01*
X145233590Y-104344301D01*
X145120789Y-104390638D01*
X145015369Y-104461713D01*
X144971368Y-104501911D01*
X144886979Y-104605129D01*
X144828222Y-104717925D01*
X144794704Y-104837010D01*
X144786035Y-104959095D01*
X144801823Y-105080893D01*
X144841678Y-105199116D01*
X144905207Y-105310475D01*
X144992021Y-105411684D01*
X145089029Y-105490887D01*
X145129437Y-105521162D01*
X145157982Y-105547219D01*
X145168257Y-105562825D01*
X145162877Y-105579843D01*
X145147575Y-105620500D01*
X145123612Y-105681642D01*
X145092244Y-105760119D01*
X145054732Y-105852780D01*
X145012333Y-105956472D01*
X144970663Y-106057526D01*
X144924690Y-106168607D01*
X144882107Y-106271541D01*
X144844221Y-106363165D01*
X144812340Y-106440316D01*
X144787771Y-106499831D01*
X144771820Y-106538544D01*
X144765910Y-106553000D01*
X144751948Y-106567685D01*
X144724940Y-106567642D01*
X144681413Y-106552099D01*
X144617890Y-106520284D01*
X144617388Y-106520013D01*
X144569560Y-106495323D01*
X144530897Y-106477338D01*
X144509095Y-106469614D01*
X144508133Y-106469543D01*
X144491721Y-106477378D01*
X144455487Y-106499165D01*
X144403474Y-106532328D01*
X144339725Y-106574291D01*
X144269060Y-106621943D01*
X144197116Y-106670191D01*
X144132274Y-106712151D01*
X144078735Y-106745227D01*
X144040697Y-106766821D01*
X144022533Y-106774343D01*
X144005808Y-106764457D01*
X143972180Y-106736826D01*
X143925010Y-106694495D01*
X143867658Y-106640505D01*
X143803484Y-106577899D01*
X143782497Y-106556983D01*
X143565499Y-106339623D01*
X143730668Y-106097220D01*
X143780864Y-106022781D01*
X143824919Y-105955972D01*
X143860362Y-105900665D01*
X143884719Y-105860729D01*
X143895522Y-105840036D01*
X143895838Y-105838563D01*
X143890143Y-105819058D01*
X143874826Y-105779822D01*
X143852537Y-105727430D01*
X143836893Y-105692355D01*
X143807641Y-105625201D01*
X143780094Y-105557358D01*
X143758737Y-105500034D01*
X143752935Y-105482572D01*
X143736452Y-105435938D01*
X143720340Y-105399905D01*
X143711490Y-105386287D01*
X143691960Y-105377952D01*
X143649334Y-105366137D01*
X143589145Y-105352181D01*
X143516922Y-105337422D01*
X143484600Y-105331355D01*
X143402522Y-105316273D01*
X143323795Y-105301669D01*
X143256109Y-105288980D01*
X143207160Y-105279642D01*
X143197943Y-105277839D01*
X143121743Y-105262799D01*
X143121743Y-104945492D01*
X143121914Y-104841154D01*
X143122616Y-104762213D01*
X143124134Y-104705038D01*
X143126749Y-104665999D01*
X143130746Y-104641465D01*
X143136409Y-104627805D01*
X143144020Y-104621389D01*
X143147143Y-104620199D01*
X143165978Y-104615980D01*
X143207588Y-104607562D01*
X143266630Y-104595961D01*
X143337757Y-104582195D01*
X143415625Y-104567280D01*
X143494887Y-104552232D01*
X143570198Y-104538069D01*
X143636213Y-104525806D01*
X143687587Y-104516461D01*
X143718975Y-104511050D01*
X143725959Y-104510114D01*
X143732285Y-104497596D01*
X143746290Y-104464246D01*
X143765355Y-104416377D01*
X143772634Y-104397629D01*
X143801996Y-104325195D01*
X143836571Y-104245170D01*
X143867537Y-104177728D01*
X143890323Y-104126159D01*
X143905482Y-104083785D01*
X143910542Y-104057834D01*
X143909736Y-104054356D01*
X143899041Y-104037936D01*
X143874620Y-104001417D01*
X143839095Y-103948687D01*
X143795087Y-103883635D01*
X143745217Y-103810151D01*
X143735356Y-103795645D01*
X143677492Y-103709704D01*
X143634956Y-103644261D01*
X143606054Y-103596304D01*
X143589090Y-103562820D01*
X143582367Y-103540795D01*
X143584190Y-103527217D01*
X143584236Y-103527131D01*
X143598586Y-103509297D01*
X143630323Y-103474817D01*
X143676010Y-103427268D01*
X143732204Y-103370222D01*
X143795468Y-103307255D01*
X143802602Y-103300227D01*
X143882330Y-103223020D01*
X143943857Y-103166330D01*
X143988421Y-103129110D01*
X144017257Y-103110315D01*
X144029958Y-103107889D01*
X144048494Y-103118471D01*
X144086961Y-103142916D01*
X144141386Y-103178612D01*
X144207798Y-103222947D01*
X144282225Y-103273311D01*
X144299601Y-103285160D01*
X144546297Y-103453626D01*
X144657706Y-103403062D01*
X144725457Y-103373595D01*
X144798183Y-103343959D01*
X144860703Y-103320330D01*
X144863457Y-103319358D01*
X144912360Y-103301457D01*
X144950057Y-103286320D01*
X144968425Y-103277210D01*
X144968456Y-103277184D01*
X144974285Y-103260717D01*
X144984192Y-103220219D01*
X144997195Y-103160242D01*
X145012309Y-103085340D01*
X145028552Y-103000064D01*
X145029881Y-102992875D01*
X145046175Y-102905014D01*
X145061133Y-102825260D01*
X145073791Y-102758681D01*
X145083186Y-102710347D01*
X145088354Y-102685325D01*
X145088444Y-102684943D01*
X145091589Y-102674299D01*
X145097704Y-102666262D01*
X145110453Y-102660467D01*
X145133500Y-102656547D01*
X145170509Y-102654135D01*
X145225144Y-102652865D01*
X145301067Y-102652371D01*
X145401944Y-102652286D01*
X145415000Y-102652286D01*
X145518910Y-102652348D01*
G36*
X131312801Y-112357958D02*
X131318185Y-114702167D01*
X128978511Y-114702167D01*
X128599515Y-114702077D01*
X128260882Y-114701794D01*
X127960643Y-114701296D01*
X127696828Y-114700560D01*
X127467467Y-114699564D01*
X127270591Y-114698286D01*
X127104229Y-114696703D01*
X126966413Y-114694795D01*
X126855172Y-114692537D01*
X126768537Y-114689909D01*
X126704538Y-114686887D01*
X126661205Y-114683450D01*
X126636570Y-114679576D01*
X126628760Y-114675708D01*
X126627461Y-114651405D01*
X126626309Y-114587517D01*
X126625309Y-114486796D01*
X126624466Y-114351990D01*
X126623786Y-114185849D01*
X126623273Y-113991121D01*
X126622934Y-113770557D01*
X126622773Y-113526907D01*
X126622797Y-113262918D01*
X126623011Y-112981342D01*
X126623419Y-112684927D01*
X126624028Y-112376422D01*
X126624132Y-112331500D01*
X126628811Y-110341833D01*
X126957667Y-110341833D01*
X126957667Y-114363500D01*
X127359833Y-114363500D01*
X127359833Y-110341833D01*
X127783167Y-110341833D01*
X127783167Y-114365088D01*
X127834254Y-114363500D01*
X128498747Y-114363500D01*
X130026833Y-114363500D01*
X130026833Y-113151426D01*
X130538608Y-113151426D01*
X130538611Y-113393078D01*
X130538829Y-113613930D01*
X130539255Y-113810999D01*
X130539882Y-113981302D01*
X130540704Y-114121855D01*
X130541712Y-114229676D01*
X130542902Y-114301781D01*
X130544265Y-114335188D01*
X130544584Y-114337042D01*
X130565627Y-114350520D01*
X130619080Y-114359030D01*
X130708862Y-114363038D01*
X130767002Y-114363500D01*
X130979333Y-114363500D01*
X130979333Y-110340352D01*
X130762375Y-110346384D01*
X130545417Y-110352417D01*
X130539957Y-112331500D01*
X130539274Y-112617654D01*
X130538827Y-112891957D01*
X130538608Y-113151426D01*
X130026833Y-113151426D01*
X130026833Y-110341833D01*
X128908369Y-110341833D01*
X128895078Y-110484708D01*
X128884321Y-110587446D01*
X128870822Y-110699373D01*
X128861917Y-110765167D01*
X128855083Y-110820181D01*
X128845114Y-110911013D01*
X128832650Y-111031313D01*
X128818329Y-111174735D01*
X128802792Y-111334930D01*
X128786676Y-111505551D01*
X128778795Y-111590667D01*
X128762512Y-111765340D01*
X128746391Y-111933812D01*
X128731093Y-112089502D01*
X128717279Y-112225829D01*
X128705610Y-112336210D01*
X128696747Y-112414066D01*
X128693768Y-112437333D01*
X128676875Y-112568032D01*
X128662072Y-112696873D01*
X128649973Y-112816825D01*
X128641189Y-112920859D01*
X128636335Y-113001943D01*
X128636022Y-113053049D01*
X128638861Y-113067250D01*
X128658293Y-113058986D01*
X128699405Y-113025893D01*
X128754971Y-112974069D01*
X128785443Y-112943524D01*
X128872835Y-112842427D01*
X128935610Y-112745517D01*
X128970950Y-112658708D01*
X128975449Y-112596083D01*
X129095500Y-112596083D01*
X129106083Y-112606667D01*
X129116667Y-112596083D01*
X129106083Y-112585500D01*
X129095500Y-112596083D01*
X128975449Y-112596083D01*
X128976036Y-112587913D01*
X128967260Y-112562016D01*
X128956850Y-112530644D01*
X128962588Y-112522000D01*
X128981555Y-112504667D01*
X129005675Y-112462323D01*
X129008464Y-112456187D01*
X129021809Y-112420007D01*
X129328333Y-112420007D01*
X129340427Y-112428540D01*
X129360595Y-112415742D01*
X129382784Y-112389859D01*
X129383170Y-112379281D01*
X129359668Y-112378828D01*
X129335232Y-112400187D01*
X129328333Y-112420007D01*
X129021809Y-112420007D01*
X129025882Y-112408967D01*
X129022241Y-112383679D01*
X129008340Y-112371844D01*
X128996087Y-112357855D01*
X129022636Y-112353069D01*
X129028135Y-112352991D01*
X129029829Y-112352667D01*
X129169583Y-112352667D01*
X129171261Y-112372171D01*
X129178917Y-112373833D01*
X129200472Y-112358468D01*
X129201333Y-112352667D01*
X129194111Y-112332050D01*
X129191999Y-112331500D01*
X129173928Y-112346332D01*
X129169583Y-112352667D01*
X129029829Y-112352667D01*
X129063118Y-112346301D01*
X129065813Y-112320917D01*
X129391833Y-112320917D01*
X129402417Y-112331500D01*
X129413000Y-112320917D01*
X129402417Y-112310333D01*
X129391833Y-112320917D01*
X129065813Y-112320917D01*
X129066052Y-112318672D01*
X129062188Y-112305042D01*
X129050370Y-112278583D01*
X129201333Y-112278583D01*
X129211917Y-112289167D01*
X129222500Y-112278583D01*
X129211917Y-112268000D01*
X129201333Y-112278583D01*
X129050370Y-112278583D01*
X129040584Y-112256677D01*
X129006020Y-112197016D01*
X128997261Y-112183711D01*
X128966069Y-112133128D01*
X128948650Y-112096073D01*
X128947333Y-112089442D01*
X128957349Y-112094884D01*
X128983567Y-112129064D01*
X129019143Y-112182768D01*
X129059147Y-112242727D01*
X129083603Y-112269112D01*
X129096767Y-112265768D01*
X129100076Y-112255871D01*
X129095275Y-112206027D01*
X129082832Y-112183333D01*
X129057793Y-112138942D01*
X129044430Y-112100481D01*
X129096002Y-112100481D01*
X129105844Y-112143103D01*
X129108348Y-112149852D01*
X129128735Y-112177206D01*
X129150906Y-112182436D01*
X129159000Y-112166212D01*
X129148805Y-112141000D01*
X129264833Y-112141000D01*
X129272875Y-112175408D01*
X129284018Y-112183333D01*
X129294906Y-112166477D01*
X129292133Y-112141000D01*
X129279845Y-112106804D01*
X129272948Y-112098667D01*
X129266343Y-112116479D01*
X129264833Y-112141000D01*
X129148805Y-112141000D01*
X129147444Y-112137637D01*
X129127923Y-112108004D01*
X129104245Y-112086895D01*
X129096002Y-112100481D01*
X129044430Y-112100481D01*
X129041878Y-112093136D01*
X129035207Y-112052957D01*
X129047855Y-112043469D01*
X129066687Y-112048626D01*
X129092784Y-112054737D01*
X129084118Y-112038959D01*
X129079914Y-112034337D01*
X129065805Y-112005554D01*
X129080192Y-111979924D01*
X129118488Y-111979924D01*
X129133990Y-112030797D01*
X129141612Y-112049664D01*
X129159338Y-112088621D01*
X129168324Y-112090674D01*
X129174040Y-112065153D01*
X129308838Y-112065153D01*
X129312729Y-112092606D01*
X129319955Y-112092934D01*
X129325008Y-112064605D01*
X129321626Y-112052364D01*
X129312227Y-112044347D01*
X129308838Y-112065153D01*
X129174040Y-112065153D01*
X129174839Y-112061590D01*
X129167802Y-112009322D01*
X129149893Y-111980703D01*
X129123859Y-111962648D01*
X129118488Y-111979924D01*
X129080192Y-111979924D01*
X129084553Y-111972156D01*
X129088486Y-111967722D01*
X129130829Y-111933916D01*
X129167465Y-111939426D01*
X129194705Y-111966375D01*
X129214239Y-111987331D01*
X129218321Y-111976378D01*
X129212140Y-111938756D01*
X129212850Y-111908167D01*
X129264833Y-111908167D01*
X129272578Y-111925589D01*
X129278944Y-111922278D01*
X129279377Y-111917978D01*
X129317836Y-111917978D01*
X129330901Y-111914050D01*
X129331899Y-111913068D01*
X129346820Y-111876476D01*
X129345007Y-111862939D01*
X129334102Y-111858026D01*
X129322644Y-111885303D01*
X129317836Y-111917978D01*
X129279377Y-111917978D01*
X129281478Y-111897158D01*
X129278944Y-111894055D01*
X129266361Y-111896961D01*
X129264833Y-111908167D01*
X129212850Y-111908167D01*
X129213671Y-111872842D01*
X129242892Y-111824393D01*
X129272306Y-111795712D01*
X129286163Y-111792487D01*
X129286312Y-111793803D01*
X129294377Y-111792048D01*
X129307373Y-111770583D01*
X129370667Y-111770583D01*
X129381250Y-111781167D01*
X129391833Y-111770583D01*
X129381250Y-111760000D01*
X129370667Y-111770583D01*
X129307373Y-111770583D01*
X129312770Y-111761671D01*
X129344962Y-111714633D01*
X129374636Y-111708737D01*
X129404736Y-111744360D01*
X129419746Y-111775273D01*
X129440670Y-111849530D01*
X129446970Y-111931356D01*
X129438144Y-112002383D01*
X129426713Y-112030102D01*
X129421276Y-112068267D01*
X129437972Y-112105268D01*
X129464594Y-112119833D01*
X129477315Y-112128890D01*
X129478785Y-112161115D01*
X129468932Y-112224088D01*
X129463344Y-112252125D01*
X129440281Y-112339555D01*
X129410626Y-112397652D01*
X129376973Y-112432567D01*
X129328964Y-112471636D01*
X129291952Y-112501816D01*
X129289899Y-112503494D01*
X129267260Y-112528748D01*
X129274878Y-112537836D01*
X129303854Y-112530685D01*
X129345289Y-112507223D01*
X129349760Y-112503988D01*
X129390000Y-112479140D01*
X129411748Y-112475254D01*
X129413000Y-112478545D01*
X129394704Y-112507123D01*
X129348463Y-112538595D01*
X129287249Y-112564992D01*
X129259542Y-112572802D01*
X129215967Y-112576901D01*
X129201520Y-112559125D01*
X129201333Y-112554817D01*
X129187660Y-112533167D01*
X129168367Y-112535979D01*
X129145011Y-112559743D01*
X129145525Y-112575014D01*
X129136434Y-112602157D01*
X129105550Y-112624225D01*
X129062501Y-112663334D01*
X129040839Y-112727401D01*
X128997782Y-112860226D01*
X128920350Y-112991149D01*
X128831125Y-113093500D01*
X128764164Y-113163020D01*
X128697788Y-113239569D01*
X128663116Y-113284000D01*
X128645749Y-113307578D01*
X128631289Y-113328812D01*
X128619081Y-113351835D01*
X128608473Y-113380785D01*
X128598810Y-113419796D01*
X128589437Y-113473004D01*
X128579702Y-113544544D01*
X128568949Y-113638552D01*
X128556525Y-113759163D01*
X128541775Y-113910512D01*
X128524047Y-114096735D01*
X128508289Y-114262958D01*
X128498747Y-114363500D01*
X127834254Y-114363500D01*
X127978958Y-114359002D01*
X128174750Y-114352917D01*
X128197950Y-114130667D01*
X128220494Y-113915374D01*
X128243469Y-113697186D01*
X128266329Y-113481216D01*
X128288525Y-113272576D01*
X128309508Y-113076379D01*
X128328731Y-112897738D01*
X128345646Y-112741765D01*
X128359704Y-112613573D01*
X128370357Y-112518275D01*
X128376070Y-112469083D01*
X128382974Y-112409175D01*
X128393660Y-112313097D01*
X128407486Y-112186777D01*
X128423808Y-112036148D01*
X128441985Y-111867139D01*
X128461374Y-111685680D01*
X128481332Y-111497703D01*
X128481574Y-111495417D01*
X128501472Y-111308515D01*
X128520810Y-111129031D01*
X128538951Y-110962714D01*
X128555258Y-110815313D01*
X128569097Y-110692578D01*
X128579830Y-110600257D01*
X128586821Y-110544099D01*
X128586983Y-110542917D01*
X128597218Y-110465319D01*
X128604741Y-110402843D01*
X128607961Y-110368703D01*
X128607974Y-110368292D01*
X128598268Y-110358713D01*
X128565748Y-110351572D01*
X128506164Y-110346597D01*
X128415266Y-110343513D01*
X128288805Y-110342048D01*
X128195917Y-110341833D01*
X127783167Y-110341833D01*
X127359833Y-110341833D01*
X126957667Y-110341833D01*
X126628811Y-110341833D01*
X126629583Y-110013750D01*
X131307417Y-110013750D01*
X131312801Y-112357958D01*
X131312801Y-112357958D01*
G37*
X131312801Y-112357958D02*
X131318185Y-114702167D01*
X128978511Y-114702167D01*
X128599515Y-114702077D01*
X128260882Y-114701794D01*
X127960643Y-114701296D01*
X127696828Y-114700560D01*
X127467467Y-114699564D01*
X127270591Y-114698286D01*
X127104229Y-114696703D01*
X126966413Y-114694795D01*
X126855172Y-114692537D01*
X126768537Y-114689909D01*
X126704538Y-114686887D01*
X126661205Y-114683450D01*
X126636570Y-114679576D01*
X126628760Y-114675708D01*
X126627461Y-114651405D01*
X126626309Y-114587517D01*
X126625309Y-114486796D01*
X126624466Y-114351990D01*
X126623786Y-114185849D01*
X126623273Y-113991121D01*
X126622934Y-113770557D01*
X126622773Y-113526907D01*
X126622797Y-113262918D01*
X126623011Y-112981342D01*
X126623419Y-112684927D01*
X126624028Y-112376422D01*
X126624132Y-112331500D01*
X126628811Y-110341833D01*
X126957667Y-110341833D01*
X126957667Y-114363500D01*
X127359833Y-114363500D01*
X127359833Y-110341833D01*
X127783167Y-110341833D01*
X127783167Y-114365088D01*
X127834254Y-114363500D01*
X128498747Y-114363500D01*
X130026833Y-114363500D01*
X130026833Y-113151426D01*
X130538608Y-113151426D01*
X130538611Y-113393078D01*
X130538829Y-113613930D01*
X130539255Y-113810999D01*
X130539882Y-113981302D01*
X130540704Y-114121855D01*
X130541712Y-114229676D01*
X130542902Y-114301781D01*
X130544265Y-114335188D01*
X130544584Y-114337042D01*
X130565627Y-114350520D01*
X130619080Y-114359030D01*
X130708862Y-114363038D01*
X130767002Y-114363500D01*
X130979333Y-114363500D01*
X130979333Y-110340352D01*
X130762375Y-110346384D01*
X130545417Y-110352417D01*
X130539957Y-112331500D01*
X130539274Y-112617654D01*
X130538827Y-112891957D01*
X130538608Y-113151426D01*
X130026833Y-113151426D01*
X130026833Y-110341833D01*
X128908369Y-110341833D01*
X128895078Y-110484708D01*
X128884321Y-110587446D01*
X128870822Y-110699373D01*
X128861917Y-110765167D01*
X128855083Y-110820181D01*
X128845114Y-110911013D01*
X128832650Y-111031313D01*
X128818329Y-111174735D01*
X128802792Y-111334930D01*
X128786676Y-111505551D01*
X128778795Y-111590667D01*
X128762512Y-111765340D01*
X128746391Y-111933812D01*
X128731093Y-112089502D01*
X128717279Y-112225829D01*
X128705610Y-112336210D01*
X128696747Y-112414066D01*
X128693768Y-112437333D01*
X128676875Y-112568032D01*
X128662072Y-112696873D01*
X128649973Y-112816825D01*
X128641189Y-112920859D01*
X128636335Y-113001943D01*
X128636022Y-113053049D01*
X128638861Y-113067250D01*
X128658293Y-113058986D01*
X128699405Y-113025893D01*
X128754971Y-112974069D01*
X128785443Y-112943524D01*
X128872835Y-112842427D01*
X128935610Y-112745517D01*
X128970950Y-112658708D01*
X128975449Y-112596083D01*
X129095500Y-112596083D01*
X129106083Y-112606667D01*
X129116667Y-112596083D01*
X129106083Y-112585500D01*
X129095500Y-112596083D01*
X128975449Y-112596083D01*
X128976036Y-112587913D01*
X128967260Y-112562016D01*
X128956850Y-112530644D01*
X128962588Y-112522000D01*
X128981555Y-112504667D01*
X129005675Y-112462323D01*
X129008464Y-112456187D01*
X129021809Y-112420007D01*
X129328333Y-112420007D01*
X129340427Y-112428540D01*
X129360595Y-112415742D01*
X129382784Y-112389859D01*
X129383170Y-112379281D01*
X129359668Y-112378828D01*
X129335232Y-112400187D01*
X129328333Y-112420007D01*
X129021809Y-112420007D01*
X129025882Y-112408967D01*
X129022241Y-112383679D01*
X129008340Y-112371844D01*
X128996087Y-112357855D01*
X129022636Y-112353069D01*
X129028135Y-112352991D01*
X129029829Y-112352667D01*
X129169583Y-112352667D01*
X129171261Y-112372171D01*
X129178917Y-112373833D01*
X129200472Y-112358468D01*
X129201333Y-112352667D01*
X129194111Y-112332050D01*
X129191999Y-112331500D01*
X129173928Y-112346332D01*
X129169583Y-112352667D01*
X129029829Y-112352667D01*
X129063118Y-112346301D01*
X129065813Y-112320917D01*
X129391833Y-112320917D01*
X129402417Y-112331500D01*
X129413000Y-112320917D01*
X129402417Y-112310333D01*
X129391833Y-112320917D01*
X129065813Y-112320917D01*
X129066052Y-112318672D01*
X129062188Y-112305042D01*
X129050370Y-112278583D01*
X129201333Y-112278583D01*
X129211917Y-112289167D01*
X129222500Y-112278583D01*
X129211917Y-112268000D01*
X129201333Y-112278583D01*
X129050370Y-112278583D01*
X129040584Y-112256677D01*
X129006020Y-112197016D01*
X128997261Y-112183711D01*
X128966069Y-112133128D01*
X128948650Y-112096073D01*
X128947333Y-112089442D01*
X128957349Y-112094884D01*
X128983567Y-112129064D01*
X129019143Y-112182768D01*
X129059147Y-112242727D01*
X129083603Y-112269112D01*
X129096767Y-112265768D01*
X129100076Y-112255871D01*
X129095275Y-112206027D01*
X129082832Y-112183333D01*
X129057793Y-112138942D01*
X129044430Y-112100481D01*
X129096002Y-112100481D01*
X129105844Y-112143103D01*
X129108348Y-112149852D01*
X129128735Y-112177206D01*
X129150906Y-112182436D01*
X129159000Y-112166212D01*
X129148805Y-112141000D01*
X129264833Y-112141000D01*
X129272875Y-112175408D01*
X129284018Y-112183333D01*
X129294906Y-112166477D01*
X129292133Y-112141000D01*
X129279845Y-112106804D01*
X129272948Y-112098667D01*
X129266343Y-112116479D01*
X129264833Y-112141000D01*
X129148805Y-112141000D01*
X129147444Y-112137637D01*
X129127923Y-112108004D01*
X129104245Y-112086895D01*
X129096002Y-112100481D01*
X129044430Y-112100481D01*
X129041878Y-112093136D01*
X129035207Y-112052957D01*
X129047855Y-112043469D01*
X129066687Y-112048626D01*
X129092784Y-112054737D01*
X129084118Y-112038959D01*
X129079914Y-112034337D01*
X129065805Y-112005554D01*
X129080192Y-111979924D01*
X129118488Y-111979924D01*
X129133990Y-112030797D01*
X129141612Y-112049664D01*
X129159338Y-112088621D01*
X129168324Y-112090674D01*
X129174040Y-112065153D01*
X129308838Y-112065153D01*
X129312729Y-112092606D01*
X129319955Y-112092934D01*
X129325008Y-112064605D01*
X129321626Y-112052364D01*
X129312227Y-112044347D01*
X129308838Y-112065153D01*
X129174040Y-112065153D01*
X129174839Y-112061590D01*
X129167802Y-112009322D01*
X129149893Y-111980703D01*
X129123859Y-111962648D01*
X129118488Y-111979924D01*
X129080192Y-111979924D01*
X129084553Y-111972156D01*
X129088486Y-111967722D01*
X129130829Y-111933916D01*
X129167465Y-111939426D01*
X129194705Y-111966375D01*
X129214239Y-111987331D01*
X129218321Y-111976378D01*
X129212140Y-111938756D01*
X129212850Y-111908167D01*
X129264833Y-111908167D01*
X129272578Y-111925589D01*
X129278944Y-111922278D01*
X129279377Y-111917978D01*
X129317836Y-111917978D01*
X129330901Y-111914050D01*
X129331899Y-111913068D01*
X129346820Y-111876476D01*
X129345007Y-111862939D01*
X129334102Y-111858026D01*
X129322644Y-111885303D01*
X129317836Y-111917978D01*
X129279377Y-111917978D01*
X129281478Y-111897158D01*
X129278944Y-111894055D01*
X129266361Y-111896961D01*
X129264833Y-111908167D01*
X129212850Y-111908167D01*
X129213671Y-111872842D01*
X129242892Y-111824393D01*
X129272306Y-111795712D01*
X129286163Y-111792487D01*
X129286312Y-111793803D01*
X129294377Y-111792048D01*
X129307373Y-111770583D01*
X129370667Y-111770583D01*
X129381250Y-111781167D01*
X129391833Y-111770583D01*
X129381250Y-111760000D01*
X129370667Y-111770583D01*
X129307373Y-111770583D01*
X129312770Y-111761671D01*
X129344962Y-111714633D01*
X129374636Y-111708737D01*
X129404736Y-111744360D01*
X129419746Y-111775273D01*
X129440670Y-111849530D01*
X129446970Y-111931356D01*
X129438144Y-112002383D01*
X129426713Y-112030102D01*
X129421276Y-112068267D01*
X129437972Y-112105268D01*
X129464594Y-112119833D01*
X129477315Y-112128890D01*
X129478785Y-112161115D01*
X129468932Y-112224088D01*
X129463344Y-112252125D01*
X129440281Y-112339555D01*
X129410626Y-112397652D01*
X129376973Y-112432567D01*
X129328964Y-112471636D01*
X129291952Y-112501816D01*
X129289899Y-112503494D01*
X129267260Y-112528748D01*
X129274878Y-112537836D01*
X129303854Y-112530685D01*
X129345289Y-112507223D01*
X129349760Y-112503988D01*
X129390000Y-112479140D01*
X129411748Y-112475254D01*
X129413000Y-112478545D01*
X129394704Y-112507123D01*
X129348463Y-112538595D01*
X129287249Y-112564992D01*
X129259542Y-112572802D01*
X129215967Y-112576901D01*
X129201520Y-112559125D01*
X129201333Y-112554817D01*
X129187660Y-112533167D01*
X129168367Y-112535979D01*
X129145011Y-112559743D01*
X129145525Y-112575014D01*
X129136434Y-112602157D01*
X129105550Y-112624225D01*
X129062501Y-112663334D01*
X129040839Y-112727401D01*
X128997782Y-112860226D01*
X128920350Y-112991149D01*
X128831125Y-113093500D01*
X128764164Y-113163020D01*
X128697788Y-113239569D01*
X128663116Y-113284000D01*
X128645749Y-113307578D01*
X128631289Y-113328812D01*
X128619081Y-113351835D01*
X128608473Y-113380785D01*
X128598810Y-113419796D01*
X128589437Y-113473004D01*
X128579702Y-113544544D01*
X128568949Y-113638552D01*
X128556525Y-113759163D01*
X128541775Y-113910512D01*
X128524047Y-114096735D01*
X128508289Y-114262958D01*
X128498747Y-114363500D01*
X127834254Y-114363500D01*
X127978958Y-114359002D01*
X128174750Y-114352917D01*
X128197950Y-114130667D01*
X128220494Y-113915374D01*
X128243469Y-113697186D01*
X128266329Y-113481216D01*
X128288525Y-113272576D01*
X128309508Y-113076379D01*
X128328731Y-112897738D01*
X128345646Y-112741765D01*
X128359704Y-112613573D01*
X128370357Y-112518275D01*
X128376070Y-112469083D01*
X128382974Y-112409175D01*
X128393660Y-112313097D01*
X128407486Y-112186777D01*
X128423808Y-112036148D01*
X128441985Y-111867139D01*
X128461374Y-111685680D01*
X128481332Y-111497703D01*
X128481574Y-111495417D01*
X128501472Y-111308515D01*
X128520810Y-111129031D01*
X128538951Y-110962714D01*
X128555258Y-110815313D01*
X128569097Y-110692578D01*
X128579830Y-110600257D01*
X128586821Y-110544099D01*
X128586983Y-110542917D01*
X128597218Y-110465319D01*
X128604741Y-110402843D01*
X128607961Y-110368703D01*
X128607974Y-110368292D01*
X128598268Y-110358713D01*
X128565748Y-110351572D01*
X128506164Y-110346597D01*
X128415266Y-110343513D01*
X128288805Y-110342048D01*
X128195917Y-110341833D01*
X127783167Y-110341833D01*
X127359833Y-110341833D01*
X126957667Y-110341833D01*
X126628811Y-110341833D01*
X126629583Y-110013750D01*
X131307417Y-110013750D01*
X131312801Y-112357958D01*
G36*
X128947333Y-112490250D02*
X128936750Y-112500833D01*
X128926167Y-112490250D01*
X128936750Y-112479667D01*
X128947333Y-112490250D01*
X128947333Y-112490250D01*
G37*
X128947333Y-112490250D02*
X128936750Y-112500833D01*
X128926167Y-112490250D01*
X128936750Y-112479667D01*
X128947333Y-112490250D01*
G36*
X128860969Y-112263573D02*
X128862667Y-112273866D01*
X128876014Y-112304892D01*
X128909634Y-112351295D01*
X128927227Y-112371583D01*
X128963881Y-112415487D01*
X128982430Y-112445344D01*
X128982695Y-112451360D01*
X128965798Y-112441673D01*
X128932882Y-112406857D01*
X128911103Y-112380101D01*
X128860133Y-112312702D01*
X128833629Y-112271818D01*
X128828570Y-112251766D01*
X128840251Y-112246833D01*
X128860969Y-112263573D01*
X128860969Y-112263573D01*
G37*
X128860969Y-112263573D02*
X128862667Y-112273866D01*
X128876014Y-112304892D01*
X128909634Y-112351295D01*
X128927227Y-112371583D01*
X128963881Y-112415487D01*
X128982430Y-112445344D01*
X128982695Y-112451360D01*
X128965798Y-112441673D01*
X128932882Y-112406857D01*
X128911103Y-112380101D01*
X128860133Y-112312702D01*
X128833629Y-112271818D01*
X128828570Y-112251766D01*
X128840251Y-112246833D01*
X128860969Y-112263573D01*
G36*
X129497222Y-112306984D02*
X129497667Y-112323926D01*
X129485064Y-112373801D01*
X129466207Y-112406829D01*
X129447099Y-112429540D01*
X129444251Y-112422390D01*
X129456583Y-112380587D01*
X129458766Y-112373833D01*
X129479854Y-112313506D01*
X129492098Y-112291961D01*
X129497222Y-112306984D01*
X129497222Y-112306984D01*
G37*
X129497222Y-112306984D02*
X129497667Y-112323926D01*
X129485064Y-112373801D01*
X129466207Y-112406829D01*
X129447099Y-112429540D01*
X129444251Y-112422390D01*
X129456583Y-112380587D01*
X129458766Y-112373833D01*
X129479854Y-112313506D01*
X129492098Y-112291961D01*
X129497222Y-112306984D01*
G36*
X128882016Y-112161321D02*
X128912261Y-112191647D01*
X128942579Y-112232489D01*
X128977775Y-112285991D01*
X128999679Y-112321943D01*
X129003686Y-112331500D01*
X128987008Y-112317743D01*
X128951059Y-112282777D01*
X128927944Y-112259250D01*
X128888365Y-112211445D01*
X128867601Y-112172340D01*
X128866837Y-112160239D01*
X128882016Y-112161321D01*
X128882016Y-112161321D01*
G37*
X128882016Y-112161321D02*
X128912261Y-112191647D01*
X128942579Y-112232489D01*
X128977775Y-112285991D01*
X128999679Y-112321943D01*
X129003686Y-112331500D01*
X128987008Y-112317743D01*
X128951059Y-112282777D01*
X128927944Y-112259250D01*
X128888365Y-112211445D01*
X128867601Y-112172340D01*
X128866837Y-112160239D01*
X128882016Y-112161321D01*
G36*
X128905000Y-112109250D02*
X128894417Y-112119833D01*
X128883833Y-112109250D01*
X128894417Y-112098667D01*
X128905000Y-112109250D01*
X128905000Y-112109250D01*
G37*
X128905000Y-112109250D02*
X128894417Y-112119833D01*
X128883833Y-112109250D01*
X128894417Y-112098667D01*
X128905000Y-112109250D01*
G36*
X129032000Y-111982250D02*
X129021417Y-111992833D01*
X129010833Y-111982250D01*
X129021417Y-111971667D01*
X129032000Y-111982250D01*
X129032000Y-111982250D01*
G37*
X129032000Y-111982250D02*
X129021417Y-111992833D01*
X129010833Y-111982250D01*
X129021417Y-111971667D01*
X129032000Y-111982250D01*
D13*
X159853334Y-104052381D02*
X159520000Y-103576190D01*
X159281905Y-104052381D02*
X159281905Y-103052381D01*
X159662858Y-103052381D01*
X159758096Y-103100000D01*
X159805715Y-103147619D01*
X159853334Y-103242857D01*
X159853334Y-103385714D01*
X159805715Y-103480952D01*
X159758096Y-103528571D01*
X159662858Y-103576190D01*
X159281905Y-103576190D01*
X160234286Y-103147619D02*
X160281905Y-103100000D01*
X160377143Y-103052381D01*
X160615239Y-103052381D01*
X160710477Y-103100000D01*
X160758096Y-103147619D01*
X160805715Y-103242857D01*
X160805715Y-103338095D01*
X160758096Y-103480952D01*
X160186667Y-104052381D01*
X160805715Y-104052381D01*
X138779524Y-69667381D02*
X138208095Y-69667381D01*
X138493809Y-69667381D02*
X138493809Y-68667381D01*
X138398571Y-68810238D01*
X138303333Y-68905476D01*
X138208095Y-68953095D01*
X139160476Y-68762619D02*
X139208095Y-68715000D01*
X139303333Y-68667381D01*
X139541429Y-68667381D01*
X139636667Y-68715000D01*
X139684286Y-68762619D01*
X139731905Y-68857857D01*
X139731905Y-68953095D01*
X139684286Y-69095952D01*
X139112857Y-69667381D01*
X139731905Y-69667381D01*
X140160476Y-69286429D02*
X140922381Y-69286429D01*
X141350952Y-68762619D02*
X141398571Y-68715000D01*
X141493809Y-68667381D01*
X141731905Y-68667381D01*
X141827143Y-68715000D01*
X141874762Y-68762619D01*
X141922381Y-68857857D01*
X141922381Y-68953095D01*
X141874762Y-69095952D01*
X141303333Y-69667381D01*
X141922381Y-69667381D01*
X142541428Y-68667381D02*
X142636667Y-68667381D01*
X142731905Y-68715000D01*
X142779524Y-68762619D01*
X142827143Y-68857857D01*
X142874762Y-69048333D01*
X142874762Y-69286429D01*
X142827143Y-69476905D01*
X142779524Y-69572143D01*
X142731905Y-69619762D01*
X142636667Y-69667381D01*
X142541428Y-69667381D01*
X142446190Y-69619762D01*
X142398571Y-69572143D01*
X142350952Y-69476905D01*
X142303333Y-69286429D01*
X142303333Y-69048333D01*
X142350952Y-68857857D01*
X142398571Y-68762619D01*
X142446190Y-68715000D01*
X142541428Y-68667381D01*
X143160476Y-68667381D02*
X143493809Y-69667381D01*
X143827143Y-68667381D01*
X97083571Y-109465952D02*
X97131190Y-109323095D01*
X97178810Y-109275476D01*
X97274048Y-109227857D01*
X97416905Y-109227857D01*
X97512143Y-109275476D01*
X97559762Y-109323095D01*
X97607381Y-109418333D01*
X97607381Y-109799286D01*
X96607381Y-109799286D01*
X96607381Y-109465952D01*
X96655000Y-109370714D01*
X96702619Y-109323095D01*
X96797857Y-109275476D01*
X96893095Y-109275476D01*
X96988333Y-109323095D01*
X97035952Y-109370714D01*
X97083571Y-109465952D01*
X97083571Y-109799286D01*
X96607381Y-108894524D02*
X96607381Y-108227857D01*
X97607381Y-108894524D01*
X97607381Y-108227857D01*
X97607381Y-107323095D02*
X97607381Y-107894524D01*
X97607381Y-107608810D02*
X96607381Y-107608810D01*
X96750238Y-107704048D01*
X96845476Y-107799286D01*
X96893095Y-107894524D01*
X105481429Y-99450952D02*
X105481429Y-98689047D01*
X105862381Y-99069999D02*
X105100476Y-99069999D01*
X167943305Y-111145581D02*
X167943305Y-110145581D01*
X168181400Y-110145581D01*
X168324258Y-110193200D01*
X168419496Y-110288438D01*
X168467115Y-110383676D01*
X168514734Y-110574152D01*
X168514734Y-110717010D01*
X168467115Y-110907486D01*
X168419496Y-111002724D01*
X168324258Y-111097962D01*
X168181400Y-111145581D01*
X167943305Y-111145581D01*
X169467115Y-111145581D02*
X168895686Y-111145581D01*
X169181400Y-111145581D02*
X169181400Y-110145581D01*
X169086162Y-110288438D01*
X168990924Y-110383676D01*
X168895686Y-110431295D01*
X150526905Y-72842381D02*
X150526905Y-71842381D01*
X150765000Y-71842381D01*
X150907858Y-71890000D01*
X151003096Y-71985238D01*
X151050715Y-72080476D01*
X151098334Y-72270952D01*
X151098334Y-72413810D01*
X151050715Y-72604286D01*
X151003096Y-72699524D01*
X150907858Y-72794762D01*
X150765000Y-72842381D01*
X150526905Y-72842381D01*
X152098334Y-72747143D02*
X152050715Y-72794762D01*
X151907858Y-72842381D01*
X151812620Y-72842381D01*
X151669762Y-72794762D01*
X151574524Y-72699524D01*
X151526905Y-72604286D01*
X151479286Y-72413810D01*
X151479286Y-72270952D01*
X151526905Y-72080476D01*
X151574524Y-71985238D01*
X151669762Y-71890000D01*
X151812620Y-71842381D01*
X151907858Y-71842381D01*
X152050715Y-71890000D01*
X152098334Y-71937619D01*
X153050715Y-72842381D02*
X152479286Y-72842381D01*
X152765000Y-72842381D02*
X152765000Y-71842381D01*
X152669762Y-71985238D01*
X152574524Y-72080476D01*
X152479286Y-72128095D01*
D17*
X111790238Y-97094524D02*
X111790238Y-95824524D01*
X113120714Y-96973571D02*
X113060238Y-97034048D01*
X112878809Y-97094524D01*
X112757857Y-97094524D01*
X112576429Y-97034048D01*
X112455476Y-96913095D01*
X112395000Y-96792143D01*
X112334524Y-96550238D01*
X112334524Y-96368810D01*
X112395000Y-96126905D01*
X112455476Y-96005952D01*
X112576429Y-95885000D01*
X112757857Y-95824524D01*
X112878809Y-95824524D01*
X113060238Y-95885000D01*
X113120714Y-95945476D01*
X114330238Y-97094524D02*
X113604524Y-97094524D01*
X113967381Y-97094524D02*
X113967381Y-95824524D01*
X113846429Y-96005952D01*
X113725476Y-96126905D01*
X113604524Y-96187381D01*
D13*
X122388334Y-92122381D02*
X122055000Y-91646190D01*
X121816905Y-92122381D02*
X121816905Y-91122381D01*
X122197858Y-91122381D01*
X122293096Y-91170000D01*
X122340715Y-91217619D01*
X122388334Y-91312857D01*
X122388334Y-91455714D01*
X122340715Y-91550952D01*
X122293096Y-91598571D01*
X122197858Y-91646190D01*
X121816905Y-91646190D01*
X123340715Y-92122381D02*
X122769286Y-92122381D01*
X123055000Y-92122381D02*
X123055000Y-91122381D01*
X122959762Y-91265238D01*
X122864524Y-91360476D01*
X122769286Y-91408095D01*
X132588095Y-96182381D02*
X132588095Y-96991905D01*
X132635714Y-97087143D01*
X132683333Y-97134762D01*
X132778571Y-97182381D01*
X132969048Y-97182381D01*
X133064286Y-97134762D01*
X133111905Y-97087143D01*
X133159524Y-96991905D01*
X133159524Y-96182381D01*
X134159524Y-97182381D02*
X133588095Y-97182381D01*
X133873809Y-97182381D02*
X133873809Y-96182381D01*
X133778571Y-96325238D01*
X133683333Y-96420476D01*
X133588095Y-96468095D01*
D17*
X126304524Y-83154762D02*
X125034524Y-83154762D01*
X126183571Y-81824286D02*
X126244048Y-81884762D01*
X126304524Y-82066191D01*
X126304524Y-82187143D01*
X126244048Y-82368571D01*
X126123095Y-82489524D01*
X126002143Y-82550000D01*
X125760238Y-82610476D01*
X125578810Y-82610476D01*
X125336905Y-82550000D01*
X125215952Y-82489524D01*
X125095000Y-82368571D01*
X125034524Y-82187143D01*
X125034524Y-82066191D01*
X125095000Y-81884762D01*
X125155476Y-81824286D01*
X125155476Y-81340476D02*
X125095000Y-81280000D01*
X125034524Y-81159048D01*
X125034524Y-80856667D01*
X125095000Y-80735714D01*
X125155476Y-80675238D01*
X125276429Y-80614762D01*
X125397381Y-80614762D01*
X125578810Y-80675238D01*
X126304524Y-81400952D01*
X126304524Y-80614762D01*
D13*
X122269286Y-69619762D02*
X122412143Y-69667381D01*
X122650239Y-69667381D01*
X122745477Y-69619762D01*
X122793096Y-69572143D01*
X122840715Y-69476905D01*
X122840715Y-69381667D01*
X122793096Y-69286429D01*
X122745477Y-69238810D01*
X122650239Y-69191190D01*
X122459762Y-69143571D01*
X122364524Y-69095952D01*
X122316905Y-69048333D01*
X122269286Y-68953095D01*
X122269286Y-68857857D01*
X122316905Y-68762619D01*
X122364524Y-68715000D01*
X122459762Y-68667381D01*
X122697858Y-68667381D01*
X122840715Y-68715000D01*
X125356905Y-68715000D02*
X125261667Y-68667381D01*
X125118810Y-68667381D01*
X124975952Y-68715000D01*
X124880714Y-68810238D01*
X124833095Y-68905476D01*
X124785476Y-69095952D01*
X124785476Y-69238810D01*
X124833095Y-69429286D01*
X124880714Y-69524524D01*
X124975952Y-69619762D01*
X125118810Y-69667381D01*
X125214048Y-69667381D01*
X125356905Y-69619762D01*
X125404524Y-69572143D01*
X125404524Y-69238810D01*
X125214048Y-69238810D01*
X126777857Y-69286429D02*
X127539762Y-69286429D01*
X127158810Y-69667381D02*
X127158810Y-68905476D01*
X128492143Y-68667381D02*
X128015952Y-68667381D01*
X127968333Y-69143571D01*
X128015952Y-69095952D01*
X128111190Y-69048333D01*
X128349286Y-69048333D01*
X128444524Y-69095952D01*
X128492143Y-69143571D01*
X128539762Y-69238810D01*
X128539762Y-69476905D01*
X128492143Y-69572143D01*
X128444524Y-69619762D01*
X128349286Y-69667381D01*
X128111190Y-69667381D01*
X128015952Y-69619762D01*
X127968333Y-69572143D01*
M02*
