M48
;DRILL file {KiCad 4.0.7} date Mon Dec 18 22:12:36 2017
;FORMAT={-:-/ absolute / inch / decimal}
FMAT,2
INCH,TZ
T1C0.016
T2C0.030
T3C0.031
T4C0.037
T5C0.039
T6C0.044
T7C0.059
T8C0.079
%
G90
G05
M72
T1
X4.65Y-4.1
X4.7Y-3.05
X4.925Y-2.65
X4.975Y-3.575
X5.75Y-3.05
X5.775Y-3.075
X5.8102Y-3.102
X5.9898Y-3.102
X6.025Y-3.102
X6.075Y-3.1
T2
X6.2524Y-2.85
T3
X3.95Y-3.05
X4.1Y-3.25
X4.35Y-3.05
X4.5Y-3.25
X4.55Y-3.05
X4.625Y-3.7
X4.7Y-3.25
X4.95Y-3.05
X5.025Y-3.7
X5.1Y-3.25
X5.1Y-3.9
X5.1Y-4.
X5.1Y-4.1
X5.1Y-4.2
X5.2209Y-2.8709
X5.2209Y-3.5402
X5.4Y-3.9
X5.4Y-4.
X5.4Y-4.1
X5.4Y-4.2
X6.789Y-2.8709
X6.789Y-3.5402
T4
X3.8Y-2.85
X3.8Y-3.4504
X3.9Y-2.85
X3.9Y-3.4504
X4.Y-2.85
X4.Y-3.4504
X4.1Y-2.85
X4.1Y-3.4504
X4.2Y-2.85
X4.2Y-3.4504
X4.3Y-2.85
X4.3Y-3.4504
X4.4Y-2.85
X4.4Y-3.4504
X4.5Y-2.85
X4.5Y-3.4504
X4.6Y-2.85
X4.6Y-3.4504
X4.7Y-2.85
X4.7Y-3.4504
X4.8Y-2.85
X4.8Y-3.4504
X4.9Y-2.85
X4.9Y-3.4504
T5
X4.Y-2.65
X4.05Y-3.9008
X4.05Y-4.2
X4.1Y-2.65
X4.1Y-4.55
X4.2Y-2.65
X4.2Y-4.55
X4.3Y-2.65
X4.3Y-4.55
X4.4Y-4.55
X4.45Y-2.65
X4.5Y-4.55
X4.55Y-2.65
X4.6Y-4.55
X4.65Y-2.65
X4.7Y-4.55
X4.8Y-4.55
T6
X4.45Y-3.9
X4.45Y-4.
X4.45Y-4.1
X4.45Y-4.2
X4.75Y-3.9
X4.75Y-4.
X4.75Y-4.1
X4.75Y-4.2
T7
X5.8Y-3.85
X6.0185Y-3.85
X6.5815Y-3.85
X6.8Y-3.85
T8
X5.35Y-2.65
X5.75Y-2.65
X6.45Y-4.35
X6.85Y-4.35
T0
M30
